<?xml version="1.0" encoding="iso-8859-1"?>
<!-- Generator: Adobe Illustrator 21.0.2, SVG Export Plug-In . SVG Version: 6.00 Build 0)  -->
<svg version="1.1" id="Layer_1" xmlns="http://www.w3.org/2000/svg" xmlns:xlink="http://www.w3.org/1999/xlink" x="0px" y="0px"
	 viewBox="-234.792 -34 850 850" style="enable-background:new -234.792 -34 850 850;" xml:space="preserve">
<path style="fill:#444444;" d="M21.795,697.129c18.847-8.004,35.729-19.58,50.181-34.412l72.702-74.632
	c5.83-5.984,12.643-10.658,20.275-13.889c7.599-3.228,15.628-4.858,23.854-4.84l85.765,0.191c2.97,0.007,5.372,2.143,5.366,4.771
	l-0.162,72.963c-0.01,4.417,6.192,6.465,9.45,3.121l121.74-124.959c1.734-1.779,1.74-4.413,0.014-6.201L289.795,393.743
	c-3.243-3.358-9.454-1.338-9.463,3.079l-0.162,72.962c-0.006,2.629-2.418,4.754-5.388,4.748l-85.765-0.191
	c-8.231-0.018-16.259-1.68-23.832-4.933c-7.606-3.27-14.402-7.98-20.207-13.984l-72.38-74.967
	c-14.392-14.899-31.233-26.554-50.017-34.625c-18.827-8.099-38.713-12.226-59.114-12.272l-85.771-0.191
	c-2.97-0.007-5.382,2.119-5.388,4.748l-0.19,85.497c-0.006,2.629,2.397,4.765,5.366,4.771l85.771,0.191
	c8.226,0.018,16.237,1.685,23.854,4.96c7.59,3.253,14.383,7.958,20.18,13.962l68.547,70.998c1.725,1.787,1.72,4.421-0.014,6.2
	L6.967,595.382c-5.83,5.984-12.654,10.664-20.242,13.889c-7.621,3.23-15.652,4.856-23.881,4.837l-85.771-0.191
	c-2.97-0.007-5.382,2.119-5.388,4.747l-0.19,85.497c-0.006,2.629,2.397,4.765,5.366,4.771l85.771,0.191
	C-16.988,709.171,2.904,705.144,21.795,697.129z"/>
<g>
	<path style="fill:#444444;" d="M-140.61,222.06c-6.966,16.76-10.486,32.168-10.454,46.159v470.12
		c0,13.991,4.869,25.881,14.656,35.686c9.763,9.781,21.631,14.692,35.596,14.692H468.99c13.965,0,25.833-4.911,35.628-14.692
		c9.763-9.773,14.656-21.695,14.656-35.686V33.163c0-13.991-4.893-25.913-14.656-35.686c-9.795-9.781-21.663-14.692-35.628-14.692
		H133.805c-13.965,0-29.312,3.494-46.073,10.506C70.971,0.27,57.697,8.667,47.934,18.48l-163.402,163.708
		C-125.263,191.968-133.644,205.267-140.61,222.06L-140.61,222.06z M106.818,251.427l-170.977,0c-7.913,0-12.912-8.655-8.81-15.422
		c1.488-2.453,3.025-4.479,4.611-6.08L95.582,65.678c1.585-1.576,3.592-3.109,6.018-4.594c6.76-4.137,15.444,0.87,15.444,8.795
		l0,171.321C117.044,246.848,112.466,251.427,106.818,251.427z M-84.051,328.823c0-5.648,4.578-10.226,10.226-10.226h207.63
		c14.005,0,25.865-4.903,35.628-14.684c9.794-9.813,14.656-21.695,14.656-35.694V60.182c0-5.648,4.578-10.226,10.226-10.226h247.687
		c5.648,0,10.226,4.578,10.226,10.226v651.139c0,5.648-4.578,10.226-10.226,10.226H-73.825c-5.648,0-10.226-4.578-10.226-10.226
		V328.823z M-84.051,721.547L-84.051,721.547z"/>
</g>
</svg>
