<?xml version="1.0" encoding="UTF-8" standalone="no"?>
<!-- Created with Inkscape (http://www.inkscape.org/) -->

<svg
   xmlns:dc="http://purl.org/dc/elements/1.1/"
   xmlns:cc="http://creativecommons.org/ns#"
   xmlns:rdf="http://www.w3.org/1999/02/22-rdf-syntax-ns#"
   xmlns:svg="http://www.w3.org/2000/svg"
   xmlns="http://www.w3.org/2000/svg"
   xmlns:sodipodi="http://sodipodi.sourceforge.net/DTD/sodipodi-0.dtd"
   xmlns:inkscape="http://www.inkscape.org/namespaces/inkscape"
   width="168"
   height="40"
   id="svg3021"
   version="1.1"
   inkscape:version="0.48.5 r10040"
   sodipodi:docname="help.svg">
  <defs
     id="defs3023" />
  <sodipodi:namedview
     id="base"
     pagecolor="#ffffff"
     bordercolor="#666666"
     borderopacity="1.0"
     inkscape:pageopacity="0.0"
     inkscape:pageshadow="2"
     inkscape:zoom="5.6"
     inkscape:cx="92.25779"
     inkscape:cy="13.512943"
     inkscape:document-units="px"
     inkscape:current-layer="layer1"
     showgrid="false"
     inkscape:window-width="1718"
     inkscape:window-height="863"
     inkscape:window-x="30"
     inkscape:window-y="30"
     inkscape:window-maximized="0"
     fit-margin-top="0"
     fit-margin-left="0"
     fit-margin-right="0"
     fit-margin-bottom="0"
     showguides="true"
     inkscape:guide-bbox="true">
    <sodipodi:guide
       orientation="1,0"
       position="-52.21226,21.465742"
       id="guide3767" />
  </sodipodi:namedview>
  <metadata
     id="metadata3026">
    <rdf:RDF>
      <cc:Work
         rdf:about="">
        <dc:format>image/svg+xml</dc:format>
        <dc:type
           rdf:resource="http://purl.org/dc/dcmitype/StillImage" />
        <dc:title />
      </cc:Work>
    </rdf:RDF>
  </metadata>
  <g
     inkscape:label="Layer 1"
     inkscape:groupmode="layer"
     id="layer1"
     transform="translate(-291,-512.36218)">
    <rect
       style="fill:none;fill-opacity:1;stroke:none"
       id="rect3777"
       width="168.39287"
       height="40"
       x="291"
       y="512.54077" />
    <g
       id="g3764">
      <rect
         inkscape:export-ydpi="90"
         inkscape:export-xdpi="90"
         inkscape:export-filename="H:\svgs\xerte_buttons_test.png"
         y="512.36218"
         x="291"
         height="40"
         width="42"
         id="next"
         style="fill:none;fill-opacity:1;stroke:none;stroke-width:0;stroke-miterlimit:4;stroke-dasharray:none" />
      <rect
         inkscape:export-ydpi="90"
         inkscape:export-xdpi="90"
         inkscape:export-filename="H:\svgs\xerte_buttons_test.png"
         style="fill:none;fill-opacity:1;stroke:none"
         id="rect3766"
         width="42"
         height="40"
         x="333"
         y="512.36218" />
      <rect
         inkscape:export-ydpi="90"
         inkscape:export-xdpi="90"
         inkscape:export-filename="H:\svgs\xerte_buttons_test.png"
         y="512.36218"
         x="375"
         height="40"
         width="42"
         id="rect3768"
         style="fill:none;fill-opacity:1;stroke:none" />
      <rect
         inkscape:export-filename="H:\svgs\xerte_buttons_test.png"
         inkscape:export-ydpi="90"
         inkscape:export-xdpi="90"
         style="fill:none;fill-opacity:1;stroke:none"
         id="rect3770"
         width="42"
         height="40"
         x="417"
         y="512.36218" />
    </g>
    <path
       sodipodi:type="arc"
       style="fill:#1c1c1c;fill-opacity:1;stroke:#1c1c1c;stroke-width:0.95918375000000000;stroke-miterlimit:4;stroke-dasharray:none"
       id="path3807"
       sodipodi:cx="99.464287"
       sodipodi:cy="98.076469"
       sodipodi:rx="16.785715"
       sodipodi:ry="16.785715"
       d="m 116.25,98.076469 c 0,9.270491 -7.51522,16.785711 -16.785713,16.785711 -9.270495,0 -16.785715,-7.51522 -16.785715,-16.785711 0,-9.270494 7.51522,-16.785715 16.785715,-16.785715 9.270493,0 16.785713,7.515221 16.785713,16.785715 z"
       transform="matrix(1.0425531,0,0,1.0425531,208.3032,430.11226)"
       inkscape:export-filename="H:\svgs\xerte_buttons_test.png"
       inkscape:export-xdpi="90"
       inkscape:export-ydpi="90" />
    <path
       transform="matrix(1.0425531,0,0,1.0425531,250.3032,430.11226)"
       d="m 116.25,98.076469 c 0,9.270491 -7.51522,16.785711 -16.785713,16.785711 -9.270495,0 -16.785715,-7.51522 -16.785715,-16.785711 0,-9.270494 7.51522,-16.785715 16.785715,-16.785715 9.270493,0 16.785713,7.515221 16.785713,16.785715 z"
       sodipodi:ry="16.785715"
       sodipodi:rx="16.785715"
       sodipodi:cy="98.076469"
       sodipodi:cx="99.464287"
       id="path3809"
       style="fill:#1c1c1c;fill-opacity:1;stroke:#1c1c1c;stroke-width:0.95918375000000000;stroke-miterlimit:4;stroke-dasharray:none"
       sodipodi:type="arc"
       inkscape:export-filename="H:\svgs\xerte_buttons_test.png"
       inkscape:export-xdpi="90"
       inkscape:export-ydpi="90" />
    <path
       sodipodi:type="arc"
       style="fill:#1c1c1c;fill-opacity:1;stroke:#1c1c1c;stroke-width:0.95918375000000000;stroke-miterlimit:4;stroke-dasharray:none"
       id="path3811"
       sodipodi:cx="99.464287"
       sodipodi:cy="98.076469"
       sodipodi:rx="16.785715"
       sodipodi:ry="16.785715"
       d="m 116.25,98.076469 c 0,9.270491 -7.51522,16.785711 -16.785713,16.785711 -9.270495,0 -16.785715,-7.51522 -16.785715,-16.785711 0,-9.270494 7.51522,-16.785715 16.785715,-16.785715 9.270493,0 16.785713,7.515221 16.785713,16.785715 z"
       transform="matrix(1.0425531,0,0,1.0425531,292.3032,430.11226)"
       inkscape:export-filename="H:\svgs\xerte_buttons_test.png"
       inkscape:export-xdpi="90"
       inkscape:export-ydpi="90" />
    <path
       transform="matrix(1.0425531,0,0,1.0425531,334.3032,430.11226)"
       d="m 116.25,98.076469 c 0,9.270491 -7.51522,16.785711 -16.785713,16.785711 -9.270495,0 -16.785715,-7.51522 -16.785715,-16.785711 0,-9.270494 7.51522,-16.785715 16.785715,-16.785715 9.270493,0 16.785713,7.515221 16.785713,16.785715 z"
       sodipodi:ry="16.785715"
       sodipodi:rx="16.785715"
       sodipodi:cy="98.076469"
       sodipodi:cx="99.464287"
       id="path3813"
       style="fill:#1c1c1c;fill-opacity:1;stroke:#1c1c1c;stroke-width:0.95918375000000000;stroke-miterlimit:4;stroke-dasharray:none"
       sodipodi:type="arc"
       inkscape:export-filename="H:\svgs\xerte_buttons_test.png"
       inkscape:export-xdpi="90"
       inkscape:export-ydpi="90" />
    <g
       transform="scale(0.98521624,1.0150056)"
       style="font-size:18.62631798000000000px;font-style:normal;font-weight:normal;line-height:125%;letter-spacing:0px;word-spacing:0px;fill:#cfcfcf;fill-opacity:1;stroke:none;font-family:Sans"
       id="text3006">
      <path
         d="m 315.85412,527.98884 c -0.006,-0.21827 -0.009,-0.38198 -0.009,-0.49112 0,-0.6427 0.0909,-1.19749 0.27285,-1.66436 0.13338,-0.35167 0.34863,-0.70637 0.64573,-1.06411 0.21827,-0.26071 0.61087,-0.64118 1.17779,-1.1414 0.56691,-0.50021 0.93525,-0.89887 1.10503,-1.19598 0.16976,-0.29709 0.25465,-0.62147 0.25465,-0.97315 0,-0.63663 -0.2486,-1.19597 -0.74578,-1.67801 -0.49719,-0.48202 -1.10655,-0.72303 -1.82807,-0.72304 -0.69728,10e-6 -1.27935,0.21829 -1.74621,0.65483 -0.46688,0.43657 -0.77307,1.11868 -0.91859,2.04635 l -1.68255,-0.20009 c 0.15158,-1.24296 0.60178,-2.19489 1.35059,-2.85579 0.74881,-0.66088 1.73863,-0.99133 2.96948,-0.99134 1.30359,10e-6 2.34344,0.35471 3.11954,1.0641 0.77609,0.70941 1.16414,1.56736 1.16415,2.57385 -10e-6,0.58208 -0.13643,1.11868 -0.40927,1.60979 -0.27286,0.49113 -0.80642,1.08836 -1.6007,1.79169 -0.53357,0.47294 -0.88221,0.82158 -1.04591,1.04592 -0.16372,0.22434 -0.28498,0.48203 -0.3638,0.77306 -0.0788,0.29104 -0.1243,0.76397 -0.13642,1.4188 z m -0.10004,3.28325 0,-1.86445 1.86445,0 0,1.86445 z"
         style="fill:#cfcfcf"
         id="path3023" />
    </g>
    <g
       transform="scale(0.98521624,1.0150056)"
       style="font-size:18.62631798000000000px;font-style:normal;font-weight:normal;line-height:125%;letter-spacing:0px;word-spacing:0px;fill:#ffffff;fill-opacity:1;stroke:none;font-family:Sans"
       id="text3010">
      <path
         d="m 358.48434,527.98884 c -0.006,-0.21827 -0.009,-0.38198 -0.009,-0.49112 -1e-5,-0.6427 0.0909,-1.19749 0.27284,-1.66436 0.13339,-0.35167 0.34864,-0.70637 0.64574,-1.06411 0.21827,-0.26071 0.61087,-0.64118 1.17779,-1.1414 0.56691,-0.50021 0.93525,-0.89887 1.10503,-1.19598 0.16976,-0.29709 0.25465,-0.62147 0.25465,-0.97315 0,-0.63663 -0.2486,-1.19597 -0.74578,-1.67801 -0.49719,-0.48202 -1.10655,-0.72303 -1.82807,-0.72304 -0.69728,10e-6 -1.27935,0.21829 -1.74622,0.65483 -0.46687,0.43657 -0.77306,1.11868 -0.91858,2.04635 l -1.68255,-0.20009 c 0.15158,-1.24296 0.60177,-2.19489 1.35059,-2.85579 0.74881,-0.66088 1.73863,-0.99133 2.96948,-0.99134 1.30359,10e-6 2.34344,0.35471 3.11954,1.0641 0.77609,0.70941 1.16414,1.56736 1.16415,2.57385 -10e-6,0.58208 -0.13644,1.11868 -0.40927,1.60979 -0.27286,0.49113 -0.80642,1.08836 -1.6007,1.79169 -0.53358,0.47294 -0.88221,0.82158 -1.04591,1.04592 -0.16372,0.22434 -0.28498,0.48203 -0.3638,0.77306 -0.0788,0.29104 -0.1243,0.76397 -0.13642,1.4188 z m -0.10004,3.28325 0,-1.86445 1.86445,0 0,1.86445 z"
         style="fill:#ffffff"
         id="path3026" />
    </g>
    <g
       transform="scale(0.98521624,1.0150056)"
       style="font-size:18.62631798000000000px;font-style:normal;font-weight:normal;line-height:125%;letter-spacing:0px;word-spacing:0px;fill:#cfcfcf;fill-opacity:1;stroke:none;font-family:Sans"
       id="text3014">
      <path
         d="m 401.11459,527.98884 c -0.006,-0.21827 -0.009,-0.38198 -0.009,-0.49112 -1e-5,-0.6427 0.0909,-1.19749 0.27284,-1.66436 0.13339,-0.35167 0.34864,-0.70637 0.64574,-1.06411 0.21827,-0.26071 0.61087,-0.64118 1.17779,-1.1414 0.5669,-0.50021 0.93525,-0.89887 1.10503,-1.19598 0.16976,-0.29709 0.25464,-0.62147 0.25465,-0.97315 -1e-5,-0.63663 -0.2486,-1.19597 -0.74578,-1.67801 -0.49719,-0.48202 -1.10655,-0.72303 -1.82807,-0.72304 -0.69728,10e-6 -1.27935,0.21829 -1.74622,0.65483 -0.46687,0.43657 -0.77306,1.11868 -0.91858,2.04635 l -1.68255,-0.20009 c 0.15158,-1.24296 0.60177,-2.19489 1.35059,-2.85579 0.74881,-0.66088 1.73863,-0.99133 2.96948,-0.99134 1.30359,10e-6 2.34344,0.35471 3.11954,1.0641 0.77609,0.70941 1.16414,1.56736 1.16415,2.57385 -10e-6,0.58208 -0.13644,1.11868 -0.40927,1.60979 -0.27286,0.49113 -0.80643,1.08836 -1.6007,1.79169 -0.53358,0.47294 -0.88221,0.82158 -1.04591,1.04592 -0.16372,0.22434 -0.28498,0.48203 -0.3638,0.77306 -0.0788,0.29104 -0.1243,0.76397 -0.13642,1.4188 z m -0.10004,3.28325 0,-1.86445 1.86445,0 0,1.86445 z"
         style="fill:#cfcfcf"
         id="path3029" />
    </g>
    <g
       transform="scale(0.98521624,1.0150056)"
       style="font-size:18.62631798000000000px;font-style:normal;font-weight:normal;line-height:125%;letter-spacing:0px;word-spacing:0px;fill:#cfcfcf;fill-opacity:1;stroke:none;font-family:Sans"
       id="text3018">
      <path
         d="m 443.74481,527.98884 c -0.006,-0.21827 -0.009,-0.38198 -0.009,-0.49112 -1e-5,-0.6427 0.0909,-1.19749 0.27284,-1.66436 0.13339,-0.35167 0.34863,-0.70637 0.64574,-1.06411 0.21827,-0.26071 0.61087,-0.64118 1.17779,-1.1414 0.5669,-0.50021 0.93525,-0.89887 1.10502,-1.19598 0.16977,-0.29709 0.25465,-0.62147 0.25466,-0.97315 -1e-5,-0.63663 -0.2486,-1.19597 -0.74578,-1.67801 -0.49719,-0.48202 -1.10655,-0.72303 -1.82807,-0.72304 -0.69728,10e-6 -1.27935,0.21829 -1.74622,0.65483 -0.46687,0.43657 -0.77307,1.11868 -0.91858,2.04635 l -1.68255,-0.20009 c 0.15158,-1.24296 0.60177,-2.19489 1.35059,-2.85579 0.7488,-0.66088 1.73863,-0.99133 2.96947,-0.99134 1.3036,10e-6 2.34344,0.35471 3.11955,1.0641 0.77609,0.70941 1.16413,1.56736 1.16414,2.57385 -1e-5,0.58208 -0.13643,1.11868 -0.40927,1.60979 -0.27285,0.49113 -0.80642,1.08836 -1.60069,1.79169 -0.53358,0.47294 -0.88222,0.82158 -1.04592,1.04592 -0.16371,0.22434 -0.28498,0.48203 -0.36379,0.77306 -0.0788,0.29104 -0.1243,0.76397 -0.13642,1.4188 z m -0.10004,3.28325 0,-1.86445 1.86445,0 0,1.86445 z"
         style="fill:#cfcfcf"
         id="path3032" />
    </g>
  </g>
</svg>
