<?xml version="1.0" encoding="UTF-8" standalone="no"?>
<!-- Created with Inkscape (http://www.inkscape.org/) -->

<svg
   xmlns:dc="http://purl.org/dc/elements/1.1/"
   xmlns:cc="http://creativecommons.org/ns#"
   xmlns:rdf="http://www.w3.org/1999/02/22-rdf-syntax-ns#"
   xmlns:svg="http://www.w3.org/2000/svg"
   xmlns="http://www.w3.org/2000/svg"
   xmlns:sodipodi="http://sodipodi.sourceforge.net/DTD/sodipodi-0.dtd"
   xmlns:inkscape="http://www.inkscape.org/namespaces/inkscape"
   id="svg2"
   version="1.1"
   inkscape:version="0.48.5 r10040"
   width="765"
   height="990"
   xml:space="preserve"
   sodipodi:docname="Apereo Logo Only.svg"><metadata
     id="metadata8"><rdf:RDF><cc:Work
         rdf:about=""><dc:format>image/svg+xml</dc:format><dc:type
           rdf:resource="http://purl.org/dc/dcmitype/StillImage" /><dc:title></dc:title></cc:Work></rdf:RDF></metadata><defs
     id="defs6"><clipPath
       clipPathUnits="userSpaceOnUse"
       id="clipPath16"><path
         d="M 0,792 612,792 612,0 0,0 0,792 z"
         id="path18" /></clipPath><linearGradient
       x1="0"
       y1="0"
       x2="1"
       y2="0"
       gradientUnits="userSpaceOnUse"
       gradientTransform="matrix(-31.845474,92.640358,92.640358,31.845474,208.56494,220.98828)"
       spreadMethod="pad"
       id="linearGradient36"><stop
         style="stop-opacity:1;stop-color:#0693b5"
         offset="0"
         id="stop38" /><stop
         style="stop-opacity:1;stop-color:#97d7db"
         offset="1"
         id="stop40" /></linearGradient><linearGradient
       x1="0"
       y1="0"
       x2="1"
       y2="0"
       gradientUnits="userSpaceOnUse"
       gradientTransform="matrix(115.21762,0,0,-115.21762,63.726074,276.74805)"
       spreadMethod="pad"
       id="linearGradient56"><stop
         style="stop-opacity:1;stop-color:#687176"
         offset="0"
         id="stop58" /><stop
         style="stop-opacity:1;stop-color:#2a3236"
         offset="1"
         id="stop60" /></linearGradient><clipPath
       clipPathUnits="userSpaceOnUse"
       id="clipPath68"><path
         d="M 0,792 612,792 612,0 0,0 0,792 z"
         id="path70" /></clipPath><linearGradient
       x1="0"
       y1="0"
       x2="1"
       y2="0"
       gradientUnits="userSpaceOnUse"
       gradientTransform="matrix(-12.812194,37.271427,37.271427,12.812194,92.598633,456.8667)"
       spreadMethod="pad"
       id="linearGradient184"><stop
         style="stop-opacity:1;stop-color:#0693b5"
         offset="0"
         id="stop186" /><stop
         style="stop-opacity:1;stop-color:#97d7db"
         offset="1"
         id="stop188" /></linearGradient><linearGradient
       x1="0"
       y1="0"
       x2="1"
       y2="0"
       gradientUnits="userSpaceOnUse"
       gradientTransform="matrix(46.356438,0,0,-46.356438,34.324707,479.29932)"
       spreadMethod="pad"
       id="linearGradient204"><stop
         style="stop-opacity:1;stop-color:#687176"
         offset="0"
         id="stop206" /><stop
         style="stop-opacity:1;stop-color:#2a3236"
         offset="1"
         id="stop208" /></linearGradient><clipPath
       clipPathUnits="userSpaceOnUse"
       id="clipPath216"><path
         d="M 0,792 612,792 612,0 0,0 0,792 z"
         id="path218" /></clipPath><linearGradient
       x1="0"
       y1="0"
       x2="1"
       y2="0"
       gradientUnits="userSpaceOnUse"
       gradientTransform="matrix(64.211754,0,0,-64.211754,51.811035,62.886719)"
       spreadMethod="pad"
       id="linearGradient280"><stop
         style="stop-opacity:1;stop-color:#767574"
         offset="0"
         id="stop282" /><stop
         style="stop-opacity:1;stop-color:#343433"
         offset="1"
         id="stop284" /></linearGradient><linearGradient
       x1="0"
       y1="0"
       x2="1"
       y2="0"
       gradientUnits="userSpaceOnUse"
       gradientTransform="matrix(-17.74752,51.628586,51.628586,17.74752,132.53027,31.8125)"
       spreadMethod="pad"
       id="linearGradient300"><stop
         style="stop-opacity:1;stop-color:#2991b6"
         offset="0"
         id="stop302" /><stop
         style="stop-opacity:1;stop-color:#a6d9de"
         offset="1"
         id="stop304" /></linearGradient><linearGradient
       x1="0"
       y1="0"
       x2="1"
       y2="0"
       gradientUnits="userSpaceOnUse"
       gradientTransform="matrix(-17.74752,51.628586,51.628586,17.74752,132.53027,31.8125)"
       spreadMethod="pad"
       id="linearGradient320"><stop
         style="stop-opacity:1;stop-color:#2991b6"
         offset="0"
         id="stop322" /><stop
         style="stop-opacity:1;stop-color:#a6d9de"
         offset="1"
         id="stop324" /></linearGradient><linearGradient
       x1="0"
       y1="0"
       x2="1"
       y2="0"
       gradientUnits="userSpaceOnUse"
       gradientTransform="matrix(64.211754,0,0,-64.211754,51.811035,62.886719)"
       spreadMethod="pad"
       id="linearGradient340"><stop
         style="stop-opacity:1;stop-color:#6e7274"
         offset="0"
         id="stop342" /><stop
         style="stop-opacity:1;stop-color:#2d3234"
         offset="1"
         id="stop344" /></linearGradient><clipPath
       clipPathUnits="userSpaceOnUse"
       id="clipPath352"><path
         d="M 0,792 612,792 612,0 0,0 0,792 z"
         id="path354" /></clipPath><linearGradient
       x1="0"
       y1="0"
       x2="1"
       y2="0"
       gradientUnits="userSpaceOnUse"
       gradientTransform="matrix(-31.845474,92.640358,92.640358,31.845474,198.2915,643.2793)"
       spreadMethod="pad"
       id="linearGradient468"><stop
         style="stop-opacity:1;stop-color:#0693b5"
         offset="0"
         id="stop470" /><stop
         style="stop-opacity:1;stop-color:#97d7db"
         offset="1"
         id="stop472" /></linearGradient><linearGradient
       x1="0"
       y1="0"
       x2="1"
       y2="0"
       gradientUnits="userSpaceOnUse"
       gradientTransform="matrix(115.21798,0,0,-115.21798,53.452637,699.03955)"
       spreadMethod="pad"
       id="linearGradient488"><stop
         style="stop-opacity:1;stop-color:#687176"
         offset="0"
         id="stop490" /><stop
         style="stop-opacity:1;stop-color:#2a3236"
         offset="1"
         id="stop492" /></linearGradient><clipPath
       clipPathUnits="userSpaceOnUse"
       id="clipPath500"><path
         d="M 0,792 612,792 612,0 0,0 0,792 z"
         id="path502" /></clipPath><linearGradient
       x1="0"
       y1="0"
       x2="1"
       y2="0"
       gradientUnits="userSpaceOnUse"
       gradientTransform="matrix(-31.845196,92.639557,92.639557,31.845196,485.13477,218.14648)"
       spreadMethod="pad"
       id="linearGradient520"><stop
         style="stop-opacity:1;stop-color:#0693b5"
         offset="0"
         id="stop522" /><stop
         style="stop-opacity:1;stop-color:#97d7db"
         offset="1"
         id="stop524" /></linearGradient><linearGradient
       x1="0"
       y1="0"
       x2="1"
       y2="0"
       gradientUnits="userSpaceOnUse"
       gradientTransform="matrix(115.21725,0,0,-115.21725,340.29687,273.90723)"
       spreadMethod="pad"
       id="linearGradient540"><stop
         style="stop-opacity:1;stop-color:#687176"
         offset="0"
         id="stop542" /><stop
         style="stop-opacity:1;stop-color:#2a3236"
         offset="1"
         id="stop544" /></linearGradient><clipPath
       clipPathUnits="userSpaceOnUse"
       id="clipPath552"><path
         d="M 0,792 612,792 612,0 0,0 0,792 z"
         id="path554" /></clipPath><linearGradient
       x1="0"
       y1="0"
       x2="1"
       y2="0"
       gradientUnits="userSpaceOnUse"
       gradientTransform="matrix(-25.171394,73.225075,73.225075,25.171394,438.88477,646.854)"
       spreadMethod="pad"
       id="linearGradient792"><stop
         style="stop-opacity:1;stop-color:#0693b5"
         offset="0"
         id="stop794" /><stop
         style="stop-opacity:1;stop-color:#97d7db"
         offset="1"
         id="stop796" /></linearGradient><linearGradient
       x1="0"
       y1="0"
       x2="1"
       y2="0"
       gradientUnits="userSpaceOnUse"
       gradientTransform="matrix(92.746063,0,0,-92.746063,322.52637,690.89941)"
       spreadMethod="pad"
       id="linearGradient812"><stop
         style="stop-opacity:1;stop-color:#687176"
         offset="0"
         id="stop814" /><stop
         style="stop-opacity:1;stop-color:#2a3236"
         offset="1"
         id="stop816" /></linearGradient></defs><sodipodi:namedview
     pagecolor="#ffffff"
     bordercolor="#666666"
     borderopacity="1"
     objecttolerance="10"
     gridtolerance="10"
     guidetolerance="10"
     inkscape:pageopacity="0"
     inkscape:pageshadow="2"
     inkscape:window-width="1214"
     inkscape:window-height="896"
     id="namedview4"
     showgrid="false"
     inkscape:zoom="0.95353535"
     inkscape:cx="540.93551"
     inkscape:cy="537.72652"
     inkscape:window-x="56"
     inkscape:window-y="80"
     inkscape:window-maximized="0"
     inkscape:current-layer="g10" /><g
     id="g10"
     inkscape:groupmode="layer"
     inkscape:label="Apereo Logo Only"
     transform="matrix(1.25,0,0,-1.25,0,990)"><g
       id="g12"><g
         id="g14"
         clip-path="url(#clipPath16)"><g
           id="g20"
           transform="translate(258.2354,275.748)"><path
             d="m 0,0 c 0,-64.497 -52.283,-116.782 -116.782,-116.782 -64.497,0 -116.782,52.285 -116.782,116.782 0,64.497 52.285,116.782 116.782,116.782 C -52.283,116.782 0,64.497 0,0"
             style="fill:#96989b;fill-opacity:1;fill-rule:nonzero;stroke:none"
             id="path22" /></g></g></g><g
       id="g24"><g
         id="g26"><g
           id="g32"><g
             id="g34"><path
               d="m 205.507,308.48 c -7.663,-2.816 -15.944,-4.353 -24.584,-4.353 l 0,0 c -3.25,0 -6.451,0.221 -9.584,0.644 l 0,0 c 1.422,-4.511 4.741,-15.099 4.741,-28.023 l 0,0 c 0,-13.943 -5.27,-53.302 17.237,-71.129 l 0,0 8.877,9.305 24.294,-9.306 c -21.717,17.206 -15.712,50.958 -15.712,71.13 l 0,0 c 0,20.172 -4.294,28.356 -5.191,31.756 l 0,0 c -0.023,-0.008 -0.051,-0.016 -0.078,-0.024"
               style="fill:url(#linearGradient36);stroke:none"
               id="path42" /></g></g></g></g><g
       id="g44"><g
         id="g46"><g
           id="g52"><g
             id="g54"><path
               d="m 64.474,276.748 c 0,-39.447 31.981,-71.429 71.428,-71.429 l 0,0 c 17.291,0 33.134,6.158 45.49,16.384 l 0,0 c -8.327,19.324 -5.312,44.481 -5.312,55.045 l 0,0 c 0,-3.942 -0.579,-7.746 -1.638,-11.346 l 0,0 c -0.279,-0.947 -1.045,-3.072 -1.099,-3.205 l 0,0 C 167.514,247.203 152.957,236.57 135.902,236.57 l 0,0 c -22.187,0 -40.178,17.989 -40.178,40.178 l 0,0 c 0,22.191 17.991,40.215 40.178,40.178 l 0,0 c 4.565,-0.008 9.76,-0.209 25.049,-3.842 l 0,0 c 27.341,-6.492 47.546,4.707 47.546,4.707 l 0,0 11.935,18.496 c 0,0 -17.03,-3.811 -45.927,4.43 l 0,0 c -20.9,5.955 -30.751,7.461 -38.603,7.461 l 0,0 c -39.447,0 -71.428,-31.981 -71.428,-71.43"
               style="fill:url(#linearGradient56);stroke:none"
               id="path62" /></g></g></g></g><g
       id="g64"><g
         id="g66"
         clip-path="url(#clipPath68)"><g
           id="g72"
           transform="translate(46.2271,427.8584)"><path
             d="m 0,0 c 0.535,-0.352 1.311,-0.605 2.141,-0.605 0.916,0 1.759,0.493 1.759,1.408 0,0.62 -0.408,1.042 -1.337,1.535 -1.098,0.592 -1.929,1.351 -1.929,2.478 0,1.817 1.577,2.958 3.492,2.958 1.057,0 1.747,-0.267 2.112,-0.479 L 5.703,5.929 C 5.394,6.099 4.76,6.366 3.985,6.352 2.943,6.352 2.352,5.746 2.352,5.112 2.352,4.465 2.887,4.084 3.774,3.577 4.93,2.972 5.619,2.211 5.619,1.057 c 0,-1.902 -1.535,-3.071 -3.662,-3.071 -1.154,0 -2.098,0.325 -2.52,0.662 L 0,0 z"
             style="fill:#0693b5;fill-opacity:1;fill-rule:nonzero;stroke:none"
             id="path74" /></g><g
           id="g76"
           transform="translate(55.8442,431.7734)"><path
             d="m 0,0 c -1.027,0 -1.703,-0.915 -1.9,-1.746 1.689,-0.028 2.774,0.212 2.774,1.028 C 0.874,-0.268 0.521,0 0,0 m 1.564,-5.394 c -0.676,-0.352 -1.591,-0.535 -2.422,-0.535 -1.902,0 -2.817,1.156 -2.817,2.831 0,2.071 1.521,4.324 3.887,4.324 1.352,0 2.211,-0.789 2.211,-1.93 0,-1.76 -1.845,-2.323 -4.493,-2.268 -0.028,-0.239 0.029,-0.704 0.183,-0.971 0.268,-0.465 0.761,-0.704 1.408,-0.704 0.776,0 1.395,0.197 1.888,0.451 l 0.155,-1.198 z"
             style="fill:#0693b5;fill-opacity:1;fill-rule:nonzero;stroke:none"
             id="path78" /></g><g
           id="g80"
           transform="translate(58.1821,425.9854)"><path
             d="M 0,0 0.803,4.226 C 0.986,5.197 1.07,6.239 1.154,6.858 l 1.423,0 C 2.535,6.394 2.492,5.915 2.422,5.408 l 0.043,0 c 0.465,0.93 1.211,1.606 2.154,1.606 0.113,0 0.24,-0.015 0.352,-0.029 L 4.647,5.38 C 4.562,5.395 4.45,5.408 4.338,5.408 3.168,5.408 2.422,4.226 2.154,2.761 L 1.633,0 0,0 z"
             style="fill:#0693b5;fill-opacity:1;fill-rule:nonzero;stroke:none"
             id="path82" /></g><g
           id="g84"
           transform="translate(65.1099,432.8437)"><path
             d="m 0,0 0.437,-3.408 c 0.084,-0.817 0.168,-1.338 0.198,-1.788 l 0.041,0 c 0.17,0.436 0.367,0.929 0.747,1.746 L 3.127,0 4.943,0 1.127,-6.858 l -1.648,0 L -1.689,0 0,0 z"
             style="fill:#0693b5;fill-opacity:1;fill-rule:nonzero;stroke:none"
             id="path86" /></g><g
           id="g88"
           transform="translate(70.7007,434.7031)"><path
             d="M 0,0 C 0,0.591 0.45,1 0.985,1 1.493,1 1.858,0.634 1.858,0.112 1.845,-0.493 1.394,-0.873 0.845,-0.873 0.338,-0.873 -0.015,-0.507 0,0 m -1.563,-8.718 1.294,6.859 1.649,0 -1.31,-6.859 -1.633,0 z"
             style="fill:#0693b5;fill-opacity:1;fill-rule:nonzero;stroke:none"
             id="path90" /></g><g
           id="g92"
           transform="translate(71.686,425.9854)"><path
             d="m 0,0 0.887,4.732 c 0.17,0.817 0.267,1.536 0.352,2.126 l 1.45,0 -0.14,-1.239 0.028,0 c 0.634,0.93 1.507,1.395 2.464,1.395 0.973,0 1.747,-0.592 1.747,-1.887 0,-0.311 -0.057,-0.789 -0.127,-1.141 L 5.9,0 4.268,0 5,3.873 c 0.041,0.254 0.084,0.549 0.084,0.816 0,0.564 -0.211,0.987 -0.859,0.987 -0.746,0 -1.704,-0.902 -2,-2.507 L 1.634,0 0,0 z"
             style="fill:#0693b5;fill-opacity:1;fill-rule:nonzero;stroke:none"
             id="path94" /></g><g
           id="g96"
           transform="translate(83.6411,431.5479)"><path
             d="m 0,0 c -0.168,0.085 -0.521,0.17 -0.9,0.17 -1.438,0 -2.452,-1.55 -2.452,-3.028 -0.013,-0.718 0.282,-1.395 1.099,-1.395 0.817,0 1.634,0.972 1.873,2.212 L 0,0 z m -4.957,-6.788 c 0.408,-0.239 1.169,-0.408 1.816,-0.408 1.071,0 1.888,0.507 2.226,2.098 l 0.169,0.775 -0.027,0 c -0.565,-0.817 -1.283,-1.211 -2.156,-1.211 -1.366,0 -2.141,1.127 -2.155,2.423 0,2.281 1.648,4.562 4.493,4.562 0.888,0 1.746,-0.197 2.38,-0.479 L 0.747,-4.689 C 0.494,-6.027 0.1,-7.098 -0.662,-7.745 c -0.718,-0.592 -1.69,-0.761 -2.549,-0.761 -0.873,0 -1.689,0.184 -2.141,0.465 l 0.395,1.253 z"
             style="fill:#0693b5;fill-opacity:1;fill-rule:nonzero;stroke:none"
             id="path98" /></g><g
           id="g100"
           transform="translate(91.8647,434.7314)"><path
             d="m 0,0 -0.353,-1.888 1.55,0 -0.253,-1.267 -1.535,0 -0.55,-2.775 c -0.055,-0.323 -0.112,-0.675 -0.112,-0.971 0,-0.367 0.169,-0.606 0.606,-0.606 0.197,0 0.394,0 0.562,0.028 L -0.239,-8.76 c -0.24,-0.085 -0.676,-0.141 -1.071,-0.141 -1.127,0 -1.632,0.62 -1.632,1.409 0,0.393 0.041,0.774 0.154,1.281 l 0.592,3.056 -0.93,0 0.239,1.267 0.93,0 0.282,1.479 L 0,0 z"
             style="fill:#0693b5;fill-opacity:1;fill-rule:nonzero;stroke:none"
             id="path102" /></g><g
           id="g104"
           transform="translate(92.2593,425.9854)"><path
             d="m 0,0 1.887,10 1.647,0 -0.803,-4.17 0.029,0 c 0.577,0.719 1.338,1.184 2.296,1.184 0.943,0 1.717,-0.592 1.717,-1.845 0,-0.353 -0.042,-0.831 -0.112,-1.211 L 5.9,0 4.267,0 4.999,3.845 c 0.043,0.267 0.084,0.563 0.084,0.901 0,0.522 -0.238,0.93 -0.859,0.93 -0.802,0 -1.703,-0.958 -1.971,-2.408 L 1.633,0 0,0 z"
             style="fill:#0693b5;fill-opacity:1;fill-rule:nonzero;stroke:none"
             id="path106" /></g><g
           id="g108"
           transform="translate(102.8481,431.7734)"><path
             d="m 0,0 c -1.027,0 -1.704,-0.915 -1.9,-1.746 1.689,-0.028 2.773,0.212 2.773,1.028 C 0.873,-0.268 0.521,0 0,0 m 1.563,-5.394 c -0.676,-0.352 -1.59,-0.535 -2.422,-0.535 -1.901,0 -2.817,1.156 -2.817,2.831 0,2.071 1.522,4.324 3.887,4.324 1.352,0 2.212,-0.789 2.212,-1.93 0,-1.76 -1.845,-2.323 -4.493,-2.268 -0.028,-0.239 0.028,-0.704 0.183,-0.971 0.268,-0.465 0.76,-0.704 1.408,-0.704 0.775,0 1.395,0.197 1.887,0.451 l 0.155,-1.198 z"
             style="fill:#0693b5;fill-opacity:1;fill-rule:nonzero;stroke:none"
             id="path110" /></g><g
           id="g112"
           transform="translate(113.3247,429.957)"><path
             d="m 0,0 -0.268,2.366 c -0.042,0.507 -0.097,1.239 -0.14,1.802 l -0.029,0 C -0.689,3.605 -0.943,2.929 -1.211,2.366 L -2.365,0 0,0 z m -2.887,-1.268 -1.295,-2.704 -1.746,0 4.76,9.493 2.056,0 1.197,-9.493 -1.718,0 -0.267,2.704 -2.987,0 z"
             style="fill:#0693b5;fill-opacity:1;fill-rule:nonzero;stroke:none"
             id="path114" /></g><g
           id="g116"
           transform="translate(120.3237,426.2246)"><path
             d="m 0,0 c -0.395,-0.197 -1.099,-0.38 -1.972,-0.38 -1.718,0 -2.774,1.099 -2.774,2.733 0,2.393 1.816,4.421 4.366,4.421 0.606,0 1.141,-0.155 1.394,-0.267 L 0.591,5.226 c -0.253,0.112 -0.576,0.211 -1.028,0.211 -1.591,0 -2.591,-1.465 -2.591,-2.887 0,-1.029 0.591,-1.606 1.507,-1.606 0.633,0 1.112,0.169 1.464,0.324 L 0,0 z"
             style="fill:#0693b5;fill-opacity:1;fill-rule:nonzero;stroke:none"
             id="path118" /></g><g
           id="g120"
           transform="translate(125.7593,431.6611)"><path
             d="m 0,0 c -0.169,0.042 -0.381,0.07 -0.677,0.07 -1.52,0 -2.689,-1.704 -2.689,-3.267 0,-0.718 0.267,-1.31 0.986,-1.31 0.76,0 1.69,0.958 2.014,2.704 L 0,0 z m -0.677,-5.676 c 0.014,0.408 0.071,0.958 0.127,1.55 l -0.042,0 c -0.676,-1.268 -1.577,-1.705 -2.45,-1.705 -1.226,0 -2.028,0.958 -2.028,2.339 0,2.338 1.633,4.83 4.831,4.83 0.746,0 1.549,-0.141 2.069,-0.311 L 1.126,-2.549 C 0.929,-3.577 0.816,-4.858 0.845,-5.676 l -1.522,0 z"
             style="fill:#0693b5;fill-opacity:1;fill-rule:nonzero;stroke:none"
             id="path122" /></g><g
           id="g124"
           transform="translate(132.729,431.4639)"><path
             d="m 0,0 c -0.197,0.141 -0.535,0.268 -0.943,0.268 -1.409,0 -2.451,-1.564 -2.451,-3.099 0,-0.83 0.324,-1.479 1.099,-1.479 0.733,0 1.606,0.803 1.887,2.226 L 0,0 z M 2.479,4.521 1.043,-3.042 C 0.887,-3.831 0.775,-4.732 0.732,-5.479 l -1.506,0 0.14,1.226 -0.028,0 c -0.619,-0.943 -1.464,-1.381 -2.352,-1.381 -1.224,0 -2.084,1 -2.084,2.55 0,2.408 1.76,4.619 4.282,4.619 0.351,0 0.759,-0.07 1.055,-0.197 l 0.607,3.183 1.633,0 z"
             style="fill:#0693b5;fill-opacity:1;fill-rule:nonzero;stroke:none"
             id="path126" /></g><g
           id="g128"
           transform="translate(138.0376,431.7734)"><path
             d="m 0,0 c -1.027,0 -1.704,-0.915 -1.901,-1.746 1.69,-0.028 2.774,0.212 2.774,1.028 C 0.873,-0.268 0.521,0 0,0 m 1.562,-5.394 c -0.675,-0.352 -1.589,-0.535 -2.421,-0.535 -1.901,0 -2.817,1.156 -2.817,2.831 0,2.071 1.522,4.324 3.887,4.324 1.351,0 2.211,-0.789 2.211,-1.93 0,-1.76 -1.844,-2.323 -4.492,-2.268 -0.028,-0.239 0.028,-0.704 0.183,-0.971 0.268,-0.465 0.76,-0.704 1.408,-0.704 0.775,0 1.395,0.197 1.887,0.451 l 0.154,-1.198 z"
             style="fill:#0693b5;fill-opacity:1;fill-rule:nonzero;stroke:none"
             id="path130" /></g><g
           id="g132"
           transform="translate(140.0923,425.9854)"><path
             d="m 0,0 0.874,4.732 c 0.155,0.817 0.267,1.536 0.338,2.126 l 1.423,0 -0.141,-1.196 0.014,0 C 3.156,6.577 4,7.014 4.888,7.014 c 1.07,0 1.563,-0.676 1.62,-1.409 0.605,0.944 1.478,1.394 2.422,1.409 0.943,0 1.675,-0.606 1.675,-1.831 0,-0.296 -0.056,-0.803 -0.113,-1.169 L 9.732,0 8.141,0 8.859,3.831 c 0.042,0.281 0.098,0.591 0.098,0.873 0,0.577 -0.238,0.972 -0.844,0.972 -0.747,0 -1.578,-0.944 -1.845,-2.395 L 5.648,0 4.07,0 4.803,3.888 C 4.859,4.169 4.888,4.437 4.888,4.689 4.888,5.211 4.732,5.676 4.07,5.676 3.311,5.676 2.438,4.647 2.184,3.254 L 1.592,0 0,0 z"
             style="fill:#0693b5;fill-opacity:1;fill-rule:nonzero;stroke:none"
             id="path134" /></g><g
           id="g136"
           transform="translate(152.231,434.7031)"><path
             d="M 0,0 C 0,0.591 0.451,1 0.986,1 1.494,1 1.859,0.634 1.859,0.112 1.846,-0.493 1.395,-0.873 0.846,-0.873 0.339,-0.873 -0.014,-0.507 0,0 m -1.562,-8.718 1.294,6.859 1.649,0 -1.311,-6.859 -1.632,0 z"
             style="fill:#0693b5;fill-opacity:1;fill-rule:nonzero;stroke:none"
             id="path138" /></g><g
           id="g140"
           transform="translate(158.3716,426.2246)"><path
             d="m 0,0 c -0.395,-0.197 -1.099,-0.38 -1.972,-0.38 -1.717,0 -2.774,1.099 -2.774,2.733 0,2.393 1.816,4.421 4.365,4.421 0.606,0 1.141,-0.155 1.395,-0.267 L 0.592,5.226 c -0.254,0.112 -0.578,0.211 -1.029,0.211 -1.591,0 -2.591,-1.465 -2.591,-2.887 0,-1.029 0.591,-1.606 1.507,-1.606 0.633,0 1.113,0.169 1.464,0.324 L 0,0 z"
             style="fill:#0693b5;fill-opacity:1;fill-rule:nonzero;stroke:none"
             id="path142" /></g><g
           id="g144"
           transform="translate(169.8198,425.9854)"><path
             d="m 0,0 0.634,4.465 c 0.14,0.971 0.338,2.309 0.578,3.478 l -0.043,0 C 0.676,6.831 0.112,5.605 -0.408,4.605 l -2.338,-4.493 -1.268,0 -0.493,4.423 C -4.618,5.591 -4.703,6.816 -4.76,7.943 l -0.028,0 C -5.042,6.858 -5.323,5.423 -5.562,4.465 L -6.647,0 l -1.521,0 2.408,9.492 2.169,0 0.507,-4.435 c 0.07,-0.846 0.169,-1.831 0.183,-2.733 l 0.056,0 c 0.338,0.902 0.789,1.902 1.198,2.718 l 2.294,4.45 2.198,0 L 1.592,0 0,0 z"
             style="fill:#0693b5;fill-opacity:1;fill-rule:nonzero;stroke:none"
             id="path146" /></g><g
           id="g148"
           transform="translate(173.8042,434.7031)"><path
             d="M 0,0 C 0,0.591 0.45,1 0.985,1 1.493,1 1.858,0.634 1.858,0.112 1.845,-0.493 1.394,-0.873 0.845,-0.873 0.338,-0.873 -0.015,-0.507 0,0 m -1.563,-8.718 1.295,6.859 1.648,0 -1.31,-6.859 -1.633,0 z"
             style="fill:#0693b5;fill-opacity:1;fill-rule:nonzero;stroke:none"
             id="path150" /></g><g
           id="g152"
           transform="translate(175.2114,427.5205)"><path
             d="m 0,0 c 0.353,-0.197 1.028,-0.465 1.648,-0.465 0.663,0.015 1.057,0.395 1.057,0.845 0,0.437 -0.226,0.705 -0.902,1.057 -0.788,0.408 -1.352,1 -1.352,1.789 0,1.323 1.154,2.253 2.775,2.253 0.717,0 1.309,-0.169 1.62,-0.353 L 4.423,3.943 C 4.17,4.084 3.705,4.253 3.141,4.253 2.521,4.253 2.1,3.915 2.1,3.45 2.1,3.07 2.408,2.803 2.986,2.507 3.732,2.099 4.408,1.535 4.408,0.662 c 0,-1.507 -1.267,-2.338 -2.914,-2.338 -0.803,0 -1.55,0.226 -1.916,0.493 L 0,0 z"
             style="fill:#0693b5;fill-opacity:1;fill-rule:nonzero;stroke:none"
             id="path154" /></g><g
           id="g156"
           transform="translate(180.2827,427.5205)"><path
             d="m 0,0 c 0.353,-0.197 1.028,-0.465 1.647,-0.465 0.663,0.015 1.057,0.395 1.057,0.845 0,0.437 -0.225,0.705 -0.901,1.057 -0.789,0.408 -1.353,1 -1.353,1.789 0,1.323 1.155,2.253 2.776,2.253 0.717,0 1.308,-0.169 1.619,-0.353 L 4.422,3.943 C 4.169,4.084 3.704,4.253 3.141,4.253 2.521,4.253 2.099,3.915 2.099,3.45 2.099,3.07 2.408,2.803 2.985,2.507 3.731,2.099 4.408,1.535 4.408,0.662 c 0,-1.507 -1.267,-2.338 -2.915,-2.338 -0.803,0 -1.549,0.226 -1.916,0.493 L 0,0 z"
             style="fill:#0693b5;fill-opacity:1;fill-rule:nonzero;stroke:none"
             id="path158" /></g><g
           id="g160"
           transform="translate(186.479,434.7031)"><path
             d="M 0,0 C 0,0.591 0.45,1 0.985,1 1.492,1 1.859,0.634 1.859,0.112 1.844,-0.493 1.395,-0.873 0.844,-0.873 0.338,-0.873 -0.015,-0.507 0,0 m -1.563,-8.718 1.295,6.859 1.648,0 -1.31,-6.859 -1.633,0 z"
             style="fill:#0693b5;fill-opacity:1;fill-rule:nonzero;stroke:none"
             id="path162" /></g><g
           id="g164"
           transform="translate(189.563,428.7041)"><path
             d="m 0,0 c 0,-0.944 0.506,-1.606 1.338,-1.606 1.225,0 2.041,1.69 2.041,3.056 C 3.379,2.154 3.07,3.027 2.07,3.027 0.76,3.027 0,1.281 0,0 m 5.083,1.45 c 0,-2.324 -1.633,-4.324 -3.971,-4.324 -1.733,0 -2.802,1.197 -2.802,2.831 0,2.324 1.62,4.338 3.958,4.338 1.843,0 2.815,-1.324 2.815,-2.845"
             style="fill:#0693b5;fill-opacity:1;fill-rule:nonzero;stroke:none"
             id="path166" /></g><g
           id="g168"
           transform="translate(194.688,425.9854)"><path
             d="m 0,0 0.887,4.732 c 0.17,0.817 0.267,1.536 0.352,2.126 l 1.45,0 -0.14,-1.239 0.028,0 c 0.634,0.93 1.507,1.395 2.464,1.395 0.973,0 1.747,-0.592 1.747,-1.887 0,-0.311 -0.057,-0.789 -0.127,-1.141 L 5.9,0 4.267,0 5,3.873 c 0.041,0.254 0.084,0.549 0.084,0.816 0,0.564 -0.211,0.987 -0.859,0.987 -0.746,0 -1.704,-0.902 -2,-2.507 L 1.634,0 0,0 z"
             style="fill:#0693b5;fill-opacity:1;fill-rule:nonzero;stroke:none"
             id="path170" /></g></g></g><g
       id="g172"><g
         id="g174"><g
           id="g180"><g
             id="g182"><path
               d="m 91.368,492.067 c -3.082,-1.133 -6.414,-1.752 -9.891,-1.752 l 0,0 c -1.307,0 -2.596,0.088 -3.856,0.26 l 0,0 c 0.573,-1.817 1.908,-6.076 1.908,-11.276 l 0,0 c 0,-5.609 -2.12,-21.445 6.934,-28.617 l 0,0 3.573,3.744 9.773,-3.744 c -8.736,6.922 -6.321,20.502 -6.321,28.617 l 0,0 c 0,8.116 -1.728,11.409 -2.088,12.778 l 0,0 c -0.009,-0.005 -0.02,-0.008 -0.032,-0.01"
               style="fill:url(#linearGradient184);stroke:none"
               id="path190" /></g></g></g></g><g
       id="g192"><g
         id="g194"><g
           id="g200"><g
             id="g202"><path
               d="m 34.626,479.299 c 0,-15.871 12.867,-28.738 28.738,-28.738 l 0,0 c 6.957,0 13.33,2.477 18.303,6.592 l 0,0 c -3.351,7.775 -2.138,17.897 -2.138,22.146 l 0,0 c 0,-1.585 -0.234,-3.117 -0.659,-4.564 l 0,0 c -0.112,-0.381 -0.421,-1.237 -0.443,-1.289 l 0,0 c -2.345,-6.034 -8.202,-10.311 -15.063,-10.311 l 0,0 c -8.926,0 -16.164,7.236 -16.164,16.164 l 0,0 c 0,8.928 7.238,16.18 16.164,16.165 l 0,0 c 1.837,-0.002 3.927,-0.084 10.078,-1.546 l 0,0 c 11,-2.611 19.128,1.895 19.128,1.895 l 0,0 4.804,7.442 c 0,0 -6.853,-1.534 -18.479,1.781 l 0,0 c -8.408,2.396 -12.372,3.001 -15.531,3.001 l 0,0 c -15.871,0 -28.738,-12.867 -28.738,-28.738"
               style="fill:url(#linearGradient204);stroke:none"
               id="path210" /></g></g></g></g><path
       inkscape:connector-curvature="0"
       id="path222"
       style="fill:#575e62;fill-opacity:1;fill-rule:nonzero;stroke:none"
       d="m 77.5542,615.4878 c -0.701,0.176 -1.579,0.292 -2.809,0.292 -6.32,0 -11.177,-7.081 -11.177,-13.576 0,-2.986 1.112,-5.443 4.097,-5.443 3.16,0 7.022,3.98 8.368,11.236 l 1.521,7.491 z m -2.809,-23.584 c 0.059,1.697 0.293,3.98 0.528,6.438 l -0.176,0 c -2.809,-5.268 -6.555,-7.083 -10.183,-7.083 -5.09,0 -8.426,3.981 -8.426,9.715 0,9.715 6.788,20.073 20.072,20.073 3.101,0 6.437,-0.585 8.602,-1.288 l -2.925,-14.864 c -0.82,-4.272 -1.288,-9.596 -1.171,-12.991 l -6.321,0 z" /><path
       inkscape:connector-curvature="0"
       id="path226"
       style="fill:#575e62;fill-opacity:1;fill-rule:nonzero;stroke:none"
       d="m 92.2437,597.9312 c 1.054,-0.878 2.574,-1.404 4.564,-1.404 5.268,0 9.598,7.022 9.598,13.401 0,2.633 -1.17,5.56 -4.506,5.56 -3.453,0 -7.198,-3.921 -8.427,-10.593 l -1.229,-6.964 z m -10.182,-17.614 5.559,29.494 c 0.644,3.394 1.287,7.666 1.639,10.592 l 6.144,0 -0.643,-4.682 0.117,0 c 2.458,3.395 5.969,5.325 9.655,5.325 6.145,0 9.013,-5.032 9.013,-10.592 0,-9.948 -6.906,-19.195 -16.62,-19.195 -2.633,0 -4.623,0.586 -5.676,1.23 l -0.117,0 -2.284,-12.172 -6.787,0 z" /><path
       inkscape:connector-curvature="0"
       id="path230"
       style="fill:#575e62;fill-opacity:1;fill-rule:nonzero;stroke:none"
       d="m 139.1362,591.9038 3.336,17.556 c 0.762,4.038 1.111,8.369 1.463,10.943 l 5.91,0 c -0.175,-1.931 -0.351,-3.92 -0.643,-6.027 l 0.176,0 c 1.93,3.862 5.032,6.671 8.953,6.671 0.469,0 0.994,-0.059 1.463,-0.117 l -4.332,-6.767 c -3.887,-1.004 -6.396,-5.446 -7.373,-10.789 l -2.164,-11.47 -6.789,0 z" /><path
       inkscape:connector-curvature="0"
       id="path234"
       style="fill:#575e62;fill-opacity:1;fill-rule:nonzero;stroke:none"
       d="m 170.1265,615.9556 c -4.271,0 -7.08,-3.804 -7.899,-7.257 7.022,-0.117 11.528,0.878 11.528,4.273 0,1.872 -1.463,2.984 -3.629,2.984 m 2.259,-23.847 c -0.857,-0.489 -2.376,-0.79 -5.828,-0.79 -7.901,0 -11.704,4.798 -11.704,11.762 0,8.603 6.32,17.966 16.151,17.966 5.618,0 9.188,-3.277 9.188,-8.017 0,-7.315 -7.666,-9.656 -18.668,-9.423 -0.117,-0.994 0.118,-2.924 0.76,-4.037 1.113,-1.931 3.16,-2.926 5.853,-2.926 3.218,0 6.344,0.839 8.391,1.893 l -4.143,-6.428 z" /><path
       inkscape:connector-curvature="0"
       id="path238"
       style="fill:#575e62;fill-opacity:1;fill-rule:nonzero;stroke:none"
       d="m 129.7817,615.9556 c -4.272,0 -7.081,-3.804 -7.899,-7.257 7.021,-0.117 11.527,0.878 11.527,4.273 0,1.872 -1.463,2.984 -3.628,2.984 m 2.259,-23.847 c -0.856,-0.489 -2.375,-0.79 -5.828,-0.79 -7.901,0 -11.704,4.798 -11.704,11.762 0,8.603 6.319,17.966 16.151,17.966 5.617,0 9.187,-3.277 9.187,-8.017 0,-7.315 -7.666,-9.656 -18.668,-9.423 -0.117,-0.994 0.118,-2.924 0.761,-4.037 1.113,-1.931 3.16,-2.926 5.853,-2.926 3.218,0 6.343,0.839 8.392,1.893 l -4.144,-6.428 z" /><path
       inkscape:connector-curvature="0"
       id="path242"
       style="fill:#575e62;fill-opacity:1;fill-rule:nonzero;stroke:none"
       d="m 186.7476,603.1978 c 0,-3.921 2.106,-6.671 5.559,-6.671 5.091,0 8.486,7.023 8.486,12.698 0,2.927 -1.288,6.555 -5.443,6.555 -5.443,0 -8.602,-7.257 -8.602,-12.582 m 21.125,6.027 c 0,-9.655 -6.788,-17.965 -16.502,-17.965 -7.199,0 -11.646,4.974 -11.646,11.762 0,9.656 6.73,18.025 16.444,18.025 7.666,0 11.704,-5.5 11.704,-11.822" /><path
       inkscape:connector-curvature="0"
       id="path246"
       style="fill:#5a5e5f;fill-opacity:1;fill-rule:nonzero;stroke:none"
       d="m 270.498,512.397 c -1.289,0.322 -2.899,0.536 -5.154,0.536 -11.598,0 -20.51,-12.993 -20.51,-24.911 0,-5.478 2.039,-9.987 7.516,-9.987 5.799,0 12.886,7.301 15.356,20.617 l 2.792,13.745 z m -5.154,-43.275 c 0.107,3.114 0.537,7.301 0.967,11.812 l -0.323,0 c -5.154,-9.664 -12.027,-12.994 -18.685,-12.994 -9.342,0 -15.463,7.303 -15.463,17.826 0,17.825 12.457,36.832 36.833,36.832 5.69,0 11.811,-1.075 15.784,-2.362 l -5.368,-27.276 c -1.504,-7.839 -2.362,-17.61 -2.148,-23.838 l -11.597,0 z" /><path
       inkscape:connector-curvature="0"
       id="path250"
       style="fill:#5a5e5f;fill-opacity:1;fill-rule:nonzero;stroke:none"
       d="m 297.4512,480.1816 c 1.934,-1.61 4.725,-2.577 8.376,-2.577 9.665,0 17.61,12.886 17.61,24.591 0,4.832 -2.148,10.201 -8.267,10.201 -6.336,0 -13.209,-7.194 -15.463,-19.437 l -2.256,-12.778 z m -18.684,-32.321 10.202,54.119 c 1.18,6.229 2.361,14.067 3.005,19.437 l 11.276,0 -1.182,-8.591 0.215,0 c 4.511,6.229 10.953,9.772 17.719,9.772 11.274,0 16.537,-9.235 16.537,-19.436 0,-18.255 -12.672,-35.222 -30.496,-35.222 -4.833,0 -8.485,1.075 -10.417,2.256 l -0.215,0 -4.189,-22.335 -12.455,0 z" /><path
       inkscape:connector-curvature="0"
       id="path254"
       style="fill:#5a5e5f;fill-opacity:1;fill-rule:nonzero;stroke:none"
       d="m 383.4971,469.1216 6.12,32.214 c 1.396,7.41 2.04,15.356 2.685,20.081 l 10.845,0 c -0.322,-3.544 -0.644,-7.194 -1.18,-11.06 l 0.321,0 c 3.544,7.086 9.236,12.241 16.43,12.241 0.859,0 1.825,-0.107 2.684,-0.214 l -7.949,-12.418 c -7.13,-1.843 -11.735,-9.992 -13.527,-19.797 l -3.974,-21.047 -12.455,0 z" /><path
       inkscape:connector-curvature="0"
       id="path258"
       style="fill:#5a5e5f;fill-opacity:1;fill-rule:nonzero;stroke:none"
       d="m 440.3623,513.2554 c -7.84,0 -12.994,-6.979 -14.496,-13.315 12.885,-0.215 21.154,1.61 21.154,7.839 0,3.436 -2.685,5.476 -6.658,5.476 m 4.144,-43.756 c -1.571,-0.898 -4.359,-1.451 -10.695,-1.451 -14.497,0 -21.476,8.805 -21.476,21.583 0,15.785 11.597,32.966 29.637,32.966 10.308,0 16.859,-6.012 16.859,-14.711 0,-13.423 -14.066,-17.718 -34.254,-17.289 -0.215,-1.825 0.215,-5.368 1.396,-7.408 2.039,-3.545 5.797,-5.37 10.738,-5.37 5.906,0 11.64,1.54 15.399,3.473 l -7.604,-11.793 z" /><path
       inkscape:connector-curvature="0"
       id="path262"
       style="fill:#5a5e5f;fill-opacity:1;fill-rule:nonzero;stroke:none"
       d="m 366.3311,513.2554 c -7.839,0 -12.993,-6.979 -14.496,-13.315 12.885,-0.215 21.154,1.61 21.154,7.839 0,3.436 -2.685,5.476 -6.658,5.476 m 4.145,-43.756 c -1.571,-0.898 -4.36,-1.451 -10.695,-1.451 -14.497,0 -21.476,8.805 -21.476,21.583 0,15.785 11.596,32.966 29.637,32.966 10.309,0 16.859,-6.012 16.859,-14.711 0,-13.423 -14.068,-17.718 -34.255,-17.289 -0.215,-1.825 0.215,-5.368 1.395,-7.408 2.041,-3.545 5.8,-5.37 10.74,-5.37 5.906,0 11.64,1.54 15.399,3.473 l -7.604,-11.793 z" /><path
       inkscape:connector-curvature="0"
       id="path266"
       style="fill:#5a5e5f;fill-opacity:1;fill-rule:nonzero;stroke:none"
       d="m 470.8584,489.8462 c 0,-7.194 3.865,-12.241 10.201,-12.241 9.342,0 15.57,12.886 15.57,23.301 0,5.37 -2.363,12.027 -9.986,12.027 -9.986,0 -15.785,-13.315 -15.785,-23.087 m 38.766,11.06 c 0,-17.717 -12.457,-32.966 -30.284,-32.966 -13.207,0 -21.369,9.128 -21.369,21.584 0,17.718 12.35,33.073 30.176,33.073 14.066,0 21.477,-10.093 21.477,-21.691" /><g
       id="g268"><g
         id="g270"><g
           id="g276"><g
             id="g278"><path
               d="m 52.228,62.887 c 0,-21.984 17.823,-39.808 39.807,-39.808 l 0,0 c 19.839,0 36.282,14.516 39.306,33.503 l 0,0 -16.316,9.636 c 0.145,-1.017 -0.598,-2.272 -0.598,-3.331 l 0,0 c 0,-2.196 -0.323,-4.317 -0.914,-6.323 l 0,0 c -0.154,-0.527 -0.582,-1.713 -0.613,-1.785 l 0,0 C 109.652,46.422 101.54,40.496 92.035,40.496 l 0,0 c -12.364,0 -22.391,10.025 -22.391,22.391 l 0,0 c 0,12.366 10.027,22.411 22.391,22.392 l 0,0 c 2.544,-0.006 5.44,-0.116 13.96,-2.142 l 0,0 c 15.238,-3.617 26.498,2.625 26.498,2.625 l 0,0 6.652,10.307 c 0,0 -9.492,-2.123 -25.596,2.468 l 0,0 c -11.647,3.32 -17.138,4.158 -21.514,4.158 l 0,0 c -21.984,0 -39.807,-17.822 -39.807,-39.808"
               style="fill:url(#linearGradient280);stroke:none"
               id="path286" /></g></g></g></g><g
       id="g288"><g
         id="g290"><g
           id="g296"><g
             id="g298"><path
               d="m 130.826,80.572 c -4.271,-1.57 -8.885,-2.426 -13.7,-2.426 l 0,0 c -1.812,0 -3.595,0.123 -5.341,0.359 l 0,0 c 0.792,-2.514 2.642,-8.415 2.642,-15.618 l 0,0 c 0,-7.77 -2.938,-29.707 9.607,-39.64 l 0,0 4.946,5.186 13.539,-5.187 c -12.104,9.59 -8.756,28.4 -8.756,39.641 l 0,0 c 0,11.241 -2.394,15.803 -2.893,17.698 l 0,0 c -0.014,-0.005 -0.029,-0.009 -0.044,-0.013"
               style="fill:url(#linearGradient300);stroke:none"
               id="path306" /></g></g></g></g><g
       id="g308"><g
         id="g310"><g
           id="g316"><g
             id="g318"><path
               d="m 130.826,80.572 c -4.271,-1.57 -8.885,-2.426 -13.7,-2.426 l 0,0 c -1.812,0 -3.595,0.123 -5.341,0.359 l 0,0 c 0.792,-2.514 2.642,-8.415 2.642,-15.618 l 0,0 c 0,-7.77 -2.938,-29.707 9.607,-39.64 l 0,0 4.946,5.186 13.539,-5.187 c -12.104,9.59 -8.756,28.4 -8.756,39.641 l 0,0 c 0,11.241 -2.394,15.803 -2.893,17.698 l 0,0 c -0.014,-0.005 -0.029,-0.009 -0.044,-0.013"
               style="fill:url(#linearGradient320);stroke:none"
               id="path326" /></g></g></g></g><g
       id="g328"><g
         id="g330"><g
           id="g336"><g
             id="g338"><path
               d="m 52.228,62.887 c 0,-21.984 17.823,-39.808 39.807,-39.808 l 0,0 c 9.636,0 18.466,3.432 25.352,9.131 l 0,0 c -4.641,10.77 -2.96,24.79 -2.96,30.677 l 0,0 c 0,-2.196 -0.323,-4.317 -0.914,-6.323 l 0,0 c -0.154,-0.527 -0.582,-1.713 -0.613,-1.785 l 0,0 C 109.652,46.422 101.54,40.496 92.035,40.496 l 0,0 c -12.364,0 -22.391,10.025 -22.391,22.391 l 0,0 c 0,12.366 10.027,22.411 22.391,22.392 l 0,0 c 2.544,-0.006 5.44,-0.116 13.96,-2.142 l 0,0 c 15.238,-3.617 26.498,2.625 26.498,2.625 l 0,0 6.652,10.307 c 0,0 -9.492,-2.123 -25.596,2.468 l 0,0 c -11.647,3.32 -17.138,4.158 -21.514,4.158 l 0,0 c -21.984,0 -39.807,-17.822 -39.807,-39.808"
               style="fill:url(#linearGradient340);stroke:none"
               id="path346" /></g></g></g></g><g
       id="g348"><g
         id="g350"
         clip-path="url(#clipPath352)"><g
           id="g356"
           transform="translate(230.9702,31.917)"><path
             d="m 0,0 c 0.982,-0.646 2.404,-1.11 3.928,-1.11 1.68,0 3.231,0.903 3.231,2.584 0,1.136 -0.75,1.911 -2.455,2.816 -2.017,1.086 -3.541,2.481 -3.541,4.549 0,3.332 2.895,5.427 6.409,5.427 1.938,0 3.204,-0.492 3.876,-0.88 L 10.466,10.88 c -0.569,0.31 -1.732,0.801 -3.153,0.774 -1.912,0 -2.997,-1.11 -2.997,-2.273 0,-1.19 0.982,-1.887 2.61,-2.818 2.119,-1.11 3.385,-2.506 3.385,-4.625 0,-3.489 -2.816,-5.633 -6.719,-5.633 -2.119,0 -3.85,0.594 -4.626,1.216 L 0,0 z"
             style="fill:#2991b6;fill-opacity:1;fill-rule:nonzero;stroke:none"
             id="path358" /></g><g
           id="g360"
           transform="translate(248.6187,39.1016)"><path
             d="m 0,0 c -1.886,0 -3.127,-1.679 -3.489,-3.205 3.102,-0.052 5.092,0.389 5.092,1.887 C 1.603,-0.492 0.956,0 0,0 m 2.869,-9.898 c -1.241,-0.646 -2.92,-0.982 -4.445,-0.982 -3.489,0 -5.169,2.119 -5.169,5.195 0,3.799 2.791,7.933 7.133,7.933 2.481,0 4.056,-1.447 4.056,-3.541 0,-3.229 -3.385,-4.264 -8.243,-4.16 -0.052,-0.44 0.051,-1.292 0.336,-1.783 0.491,-0.853 1.396,-1.292 2.584,-1.292 1.422,0 2.559,0.362 3.463,0.827 l 0.285,-2.197 z"
             style="fill:#2991b6;fill-opacity:1;fill-rule:nonzero;stroke:none"
             id="path362" /></g><g
           id="g364"
           transform="translate(252.9072,28.4805)"><path
             d="m 0,0 1.474,7.752 c 0.336,1.784 0.49,3.696 0.645,4.833 l 2.61,0 C 4.651,11.732 4.573,10.854 4.444,9.923 l 0.078,0 c 0.853,1.705 2.223,2.946 3.954,2.946 0.207,0 0.439,-0.026 0.646,-0.052 L 8.528,9.871 C 8.372,9.897 8.165,9.923 7.959,9.923 5.813,9.923 4.444,7.752 3.954,5.064 L 2.997,0 0,0 z"
             style="fill:#2991b6;fill-opacity:1;fill-rule:nonzero;stroke:none"
             id="path366" /></g><g
           id="g368"
           transform="translate(265.6201,41.0654)"><path
             d="M 0,0 0.801,-6.254 C 0.956,-7.752 1.11,-8.709 1.163,-9.536 l 0.076,0 c 0.312,0.801 0.672,1.706 1.371,3.205 L 5.736,0 9.07,0 2.067,-12.585 l -3.024,0 L -3.101,0 0,0 z"
             style="fill:#2991b6;fill-opacity:1;fill-rule:nonzero;stroke:none"
             id="path370" /></g><g
           id="g372"
           transform="translate(275.877,44.4766)"><path
             d="M 0,0 C 0,1.085 0.828,1.834 1.81,1.834 2.74,1.834 3.412,1.162 3.412,0.207 3.386,-0.905 2.559,-1.603 1.551,-1.603 0.621,-1.603 -0.025,-0.931 0,0 m -2.868,-15.996 2.378,12.585 3.023,0 -2.403,-12.585 -2.998,0 z"
             style="fill:#2991b6;fill-opacity:1;fill-rule:nonzero;stroke:none"
             id="path374" /></g><g
           id="g376"
           transform="translate(277.6855,28.4805)"><path
             d="m 0,0 1.629,8.683 c 0.308,1.499 0.49,2.816 0.644,3.902 l 2.663,0 -0.258,-2.274 0.051,0 c 1.164,1.705 2.765,2.558 4.523,2.558 1.783,0 3.204,-1.086 3.204,-3.463 0,-0.568 -0.103,-1.447 -0.233,-2.093 L 10.828,0 7.83,0 9.174,7.106 c 0.078,0.465 0.156,1.008 0.156,1.499 0,1.034 -0.389,1.809 -1.578,1.809 -1.368,0 -3.126,-1.653 -3.669,-4.6 L 2.998,0 0,0 z"
             style="fill:#2991b6;fill-opacity:1;fill-rule:nonzero;stroke:none"
             id="path378" /></g><g
           id="g380"
           transform="translate(299.623,38.6875)"><path
             d="m 0,0 c -0.31,0.155 -0.956,0.311 -1.653,0.311 -2.636,0 -4.497,-2.843 -4.497,-5.556 -0.026,-1.317 0.517,-2.559 2.015,-2.559 1.5,0 2.998,1.783 3.438,4.058 L 0,0 z m -9.096,-12.456 c 0.749,-0.439 2.145,-0.749 3.334,-0.749 1.964,0 3.463,0.931 4.082,3.851 l 0.311,1.42 -0.051,0 c -1.034,-1.498 -2.351,-2.222 -3.954,-2.222 -2.507,0 -3.929,2.068 -3.954,4.445 0,4.187 3.023,8.373 8.244,8.373 1.627,0 3.203,-0.362 4.366,-0.879 L 1.371,-8.605 c -0.466,-2.455 -1.189,-4.418 -2.586,-5.608 -1.317,-1.085 -3.099,-1.395 -4.677,-1.395 -1.602,0 -3.1,0.336 -3.926,0.852 l 0.722,2.3 z"
             style="fill:#2991b6;fill-opacity:1;fill-rule:nonzero;stroke:none"
             id="path382" /></g><g
           id="g384"
           transform="translate(314.7129,44.5283)"><path
             d="m 0,0 -0.646,-3.463 2.843,0 -0.465,-2.326 -2.817,0 -1.008,-5.091 c -0.103,-0.594 -0.206,-1.24 -0.206,-1.783 0,-0.672 0.309,-1.111 1.111,-1.111 0.362,0 0.723,0 1.034,0.052 l -0.285,-2.352 c -0.439,-0.155 -1.241,-0.259 -1.963,-0.259 -2.069,0 -2.998,1.138 -2.998,2.585 0,0.724 0.077,1.422 0.284,2.352 l 1.085,5.607 -1.705,0 0.439,2.326 1.705,0 0.518,2.713 L 0,0 z"
             style="fill:#2991b6;fill-opacity:1;fill-rule:nonzero;stroke:none"
             id="path386" /></g><g
           id="g388"
           transform="translate(315.4355,28.4805)"><path
             d="m 0,0 3.463,18.349 3.023,0 -1.472,-7.651 0.051,0 c 1.06,1.318 2.455,2.171 4.212,2.171 1.732,0 3.153,-1.086 3.153,-3.386 0,-0.645 -0.076,-1.524 -0.206,-2.221 L 10.828,0 7.83,0 9.174,7.055 c 0.078,0.491 0.155,1.034 0.155,1.653 0,0.956 -0.438,1.706 -1.577,1.706 -1.472,0 -3.125,-1.758 -3.617,-4.419 L 2.998,0 0,0 z"
             style="fill:#2991b6;fill-opacity:1;fill-rule:nonzero;stroke:none"
             id="path390" /></g><g
           id="g392"
           transform="translate(334.8672,39.1016)"><path
             d="m 0,0 c -1.887,0 -3.127,-1.679 -3.488,-3.205 3.1,-0.052 5.09,0.389 5.09,1.887 C 1.602,-0.492 0.956,0 0,0 m 2.868,-9.898 c -1.241,-0.646 -2.92,-0.982 -4.444,-0.982 -3.489,0 -5.169,2.119 -5.169,5.195 0,3.799 2.792,7.933 7.132,7.933 2.481,0 4.058,-1.447 4.058,-3.541 0,-3.229 -3.386,-4.264 -8.244,-4.16 -0.052,-0.44 0.051,-1.292 0.336,-1.783 0.491,-0.853 1.396,-1.292 2.584,-1.292 1.422,0 2.559,0.362 3.463,0.827 l 0.284,-2.197 z"
             style="fill:#2991b6;fill-opacity:1;fill-rule:nonzero;stroke:none"
             id="path394" /></g><g
           id="g396"
           transform="translate(354.0918,35.7676)"><path
             d="M 0,0 -0.491,4.341 C -0.569,5.272 -0.672,6.616 -0.75,7.648 l -0.052,0 C -1.268,6.616 -1.732,5.375 -2.223,4.341 L -4.342,0 0,0 z m -5.299,-2.325 -2.377,-4.962 -3.203,0 8.734,17.417 3.772,0 2.197,-17.417 -3.152,0 -0.491,4.962 -5.48,0 z"
             style="fill:#2991b6;fill-opacity:1;fill-rule:nonzero;stroke:none"
             id="path398" /></g><g
           id="g400"
           transform="translate(366.9336,28.9199)"><path
             d="m 0,0 c -0.725,-0.362 -2.016,-0.698 -3.619,-0.698 -3.152,0 -5.09,2.015 -5.09,5.013 0,4.393 3.334,8.115 8.01,8.115 1.111,0 2.094,-0.284 2.558,-0.492 L 1.084,9.588 c -0.465,0.207 -1.059,0.387 -1.885,0.387 -2.922,0 -4.756,-2.688 -4.756,-5.298 0,-1.887 1.086,-2.946 2.766,-2.946 1.162,0 2.041,0.31 2.687,0.594 L 0,0 z"
             style="fill:#2991b6;fill-opacity:1;fill-rule:nonzero;stroke:none"
             id="path402" /></g><g
           id="g404"
           transform="translate(376.9062,38.8945)"><path
             d="m 0,0 c -0.311,0.077 -0.697,0.129 -1.24,0.129 -2.791,0 -4.936,-3.127 -4.936,-5.995 0,-1.319 0.49,-2.404 1.809,-2.404 1.396,0 3.101,1.757 3.695,4.962 L 0,0 z m -1.24,-10.414 c 0.025,0.749 0.129,1.757 0.232,2.843 l -0.078,0 c -1.24,-2.326 -2.893,-3.128 -4.496,-3.128 -2.248,0 -3.721,1.758 -3.721,4.291 0,4.289 2.998,8.863 8.864,8.863 1.369,0 2.843,-0.258 3.798,-0.569 L 2.068,-4.678 C 1.705,-6.564 1.5,-8.915 1.551,-10.414 l -2.791,0 z"
             style="fill:#2991b6;fill-opacity:1;fill-rule:nonzero;stroke:none"
             id="path406" /></g><g
           id="g408"
           transform="translate(389.6973,38.5332)"><path
             d="m 0,0 c -0.363,0.258 -0.982,0.49 -1.732,0.49 -2.584,0 -4.497,-2.868 -4.497,-5.685 0,-1.524 0.594,-2.713 2.016,-2.713 1.344,0 2.945,1.473 3.463,4.084 L 0,0 z M 4.547,8.296 1.912,-5.582 C 1.627,-7.029 1.42,-8.684 1.344,-10.053 l -2.766,0 0.258,2.249 -0.051,0 c -1.139,-1.732 -2.687,-2.534 -4.316,-2.534 -2.248,0 -3.824,1.835 -3.824,4.678 0,4.42 3.23,8.476 7.855,8.476 0.646,0 1.396,-0.128 1.937,-0.362 l 1.114,5.842 2.996,0 z"
             style="fill:#2991b6;fill-opacity:1;fill-rule:nonzero;stroke:none"
             id="path410" /></g><g
           id="g412"
           transform="translate(399.4375,39.1016)"><path
             d="m 0,0 c -1.887,0 -3.127,-1.679 -3.488,-3.205 3.101,-0.052 5.09,0.389 5.09,1.887 C 1.602,-0.492 0.955,0 0,0 m 2.867,-9.898 c -1.24,-0.646 -2.918,-0.982 -4.443,-0.982 -3.488,0 -5.168,2.119 -5.168,5.195 0,3.799 2.791,7.933 7.131,7.933 2.48,0 4.058,-1.447 4.058,-3.541 0,-3.229 -3.386,-4.264 -8.244,-4.16 -0.051,-0.44 0.051,-1.292 0.336,-1.783 0.49,-0.853 1.397,-1.292 2.584,-1.292 1.422,0 2.559,0.362 3.463,0.827 l 0.283,-2.197 z"
             style="fill:#2991b6;fill-opacity:1;fill-rule:nonzero;stroke:none"
             id="path414" /></g><g
           id="g416"
           transform="translate(403.209,28.4805)"><path
             d="m 0,0 1.602,8.683 c 0.285,1.499 0.49,2.816 0.621,3.902 l 2.609,0 -0.258,-2.196 0.026,0 c 1.189,1.679 2.738,2.48 4.367,2.48 1.965,0 2.869,-1.241 2.971,-2.584 1.111,1.731 2.714,2.558 4.445,2.584 1.732,0 3.076,-1.111 3.076,-3.359 0,-0.543 -0.104,-1.474 -0.207,-2.146 L 17.857,0 14.936,0 16.254,7.028 c 0.078,0.518 0.182,1.086 0.182,1.603 0,1.059 -0.44,1.783 -1.551,1.783 -1.369,0 -2.895,-1.731 -3.385,-4.393 L 10.363,0 7.469,0 8.813,7.133 c 0.103,0.515 0.154,1.008 0.154,1.472 0,0.957 -0.283,1.809 -1.498,1.809 -1.397,0 -2.998,-1.887 -3.463,-4.444 L 2.92,0 0,0 z"
             style="fill:#2991b6;fill-opacity:1;fill-rule:nonzero;stroke:none"
             id="path418" /></g><g
           id="g420"
           transform="translate(425.4824,44.4766)"><path
             d="M 0,0 C 0,1.085 0.826,1.834 1.809,1.834 2.74,1.834 3.412,1.162 3.412,0.207 3.385,-0.905 2.559,-1.603 1.551,-1.603 0.621,-1.603 -0.025,-0.931 0,0 m -2.869,-15.996 2.379,12.585 3.023,0 -2.404,-12.585 -2.998,0 z"
             style="fill:#2991b6;fill-opacity:1;fill-rule:nonzero;stroke:none"
             id="path422" /></g><g
           id="g424"
           transform="translate(436.748,28.9199)"><path
             d="m 0,0 c -0.723,-0.362 -2.016,-0.698 -3.617,-0.698 -3.154,0 -5.092,2.015 -5.092,5.013 0,4.393 3.334,8.115 8.012,8.115 1.111,0 2.093,-0.284 2.558,-0.492 L 1.086,9.588 c -0.465,0.207 -1.059,0.387 -1.887,0.387 -2.92,0 -4.756,-2.688 -4.756,-5.298 0,-1.887 1.086,-2.946 2.766,-2.946 1.162,0 2.041,0.31 2.687,0.594 L 0,0 z"
             style="fill:#2991b6;fill-opacity:1;fill-rule:nonzero;stroke:none"
             id="path426" /></g><g
           id="g428"
           transform="translate(457.7559,28.4805)"><path
             d="m 0,0 1.162,8.191 c 0.26,1.784 0.621,4.24 1.061,6.384 l -0.078,0 C 1.24,12.534 0.207,10.285 -0.75,8.45 l -4.289,-8.244 -2.326,0 -0.905,8.114 c -0.207,1.939 -0.361,4.187 -0.464,6.255 l -0.053,0 C -9.252,12.585 -9.768,9.95 -10.207,8.191 L -12.197,0 l -2.791,0 4.418,17.417 3.98,0 0.932,-8.14 c 0.129,-1.55 0.308,-3.359 0.336,-5.013 l 0.101,0 c 0.621,1.654 1.448,3.488 2.198,4.987 l 4.212,8.166 4.032,0 L 2.92,0 0,0 z"
             style="fill:#2991b6;fill-opacity:1;fill-rule:nonzero;stroke:none"
             id="path430" /></g><g
           id="g432"
           transform="translate(465.0664,44.4766)"><path
             d="M 0,0 C 0,1.085 0.828,1.834 1.809,1.834 2.74,1.834 3.412,1.162 3.412,0.207 3.385,-0.905 2.559,-1.603 1.551,-1.603 0.621,-1.603 -0.025,-0.931 0,0 m -2.869,-15.996 2.379,12.585 3.023,0 -2.404,-12.585 -2.998,0 z"
             style="fill:#2991b6;fill-opacity:1;fill-rule:nonzero;stroke:none"
             id="path434" /></g><g
           id="g436"
           transform="translate(467.6504,31.2969)"><path
             d="m 0,0 c 0.646,-0.361 1.885,-0.853 3.023,-0.853 1.215,0.027 1.938,0.723 1.938,1.55 0,0.802 -0.412,1.293 -1.654,1.939 -1.446,0.749 -2.481,1.835 -2.481,3.283 0,2.428 2.119,4.134 5.092,4.134 1.316,0 2.402,-0.31 2.971,-0.647 L 8.113,7.236 C 7.648,7.494 6.797,7.805 5.762,7.805 4.625,7.805 3.85,7.184 3.85,6.331 3.85,5.634 4.418,5.143 5.479,4.6 6.848,3.851 8.088,2.817 8.088,1.215 c 0,-2.766 -2.326,-4.29 -5.35,-4.29 -1.472,0 -2.842,0.414 -3.513,0.905 L 0,0 z"
             style="fill:#2991b6;fill-opacity:1;fill-rule:nonzero;stroke:none"
             id="path438" /></g><g
           id="g440"
           transform="translate(476.9531,31.2969)"><path
             d="m 0,0 c 0.646,-0.361 1.887,-0.853 3.023,-0.853 1.215,0.027 1.94,0.723 1.94,1.55 0,0.802 -0.414,1.293 -1.654,1.939 -1.448,0.749 -2.481,1.835 -2.481,3.283 0,2.428 2.119,4.134 5.092,4.134 1.316,0 2.402,-0.31 2.971,-0.647 L 8.115,7.236 C 7.65,7.494 6.799,7.805 5.764,7.805 4.627,7.805 3.852,7.184 3.852,6.331 3.852,5.634 4.42,5.143 5.48,4.6 6.85,3.851 8.09,2.817 8.09,1.215 c 0,-2.766 -2.326,-4.29 -5.35,-4.29 -1.472,0 -2.842,0.414 -3.513,0.905 L 0,0 z"
             style="fill:#2991b6;fill-opacity:1;fill-rule:nonzero;stroke:none"
             id="path442" /></g><g
           id="g444"
           transform="translate(488.3242,44.4766)"><path
             d="M 0,0 C 0,1.085 0.826,1.834 1.809,1.834 2.738,1.834 3.41,1.162 3.41,0.207 3.385,-0.905 2.559,-1.603 1.549,-1.603 0.619,-1.603 -0.027,-0.931 0,0 m -2.869,-15.996 2.377,12.585 3.023,0 -2.402,-12.585 -2.998,0 z"
             style="fill:#2991b6;fill-opacity:1;fill-rule:nonzero;stroke:none"
             id="path446" /></g><g
           id="g448"
           transform="translate(493.9824,33.4678)"><path
             d="m 0,0 c 0,-1.731 0.93,-2.946 2.455,-2.946 2.248,0 3.746,3.101 3.746,5.607 0,1.294 -0.568,2.895 -2.402,2.895 C 1.395,5.556 0,2.352 0,0 m 9.328,2.661 c 0,-4.264 -2.998,-7.933 -7.287,-7.933 -3.18,0 -5.143,2.197 -5.143,5.195 0,4.264 2.973,7.959 7.262,7.959 3.385,0 5.168,-2.429 5.168,-5.221"
             style="fill:#2991b6;fill-opacity:1;fill-rule:nonzero;stroke:none"
             id="path450" /></g><g
           id="g452"
           transform="translate(503.3867,28.4805)"><path
             d="m 0,0 1.629,8.683 c 0.308,1.499 0.49,2.816 0.644,3.902 l 2.663,0 -0.258,-2.274 0.051,0 c 1.164,1.705 2.765,2.558 4.523,2.558 1.783,0 3.203,-1.086 3.203,-3.463 0,-0.568 -0.103,-1.447 -0.232,-2.093 L 10.828,0 7.83,0 9.174,7.106 c 0.078,0.465 0.156,1.008 0.156,1.499 0,1.034 -0.389,1.809 -1.578,1.809 -1.369,0 -3.127,-1.653 -3.67,-4.6 L 2.998,0 0,0 z"
             style="fill:#2991b6;fill-opacity:1;fill-rule:nonzero;stroke:none"
             id="path454" /></g></g></g><g
       id="g456"><g
         id="g458"><g
           id="g464"><g
             id="g466"><path
               d="m 195.234,730.772 c -7.662,-2.817 -15.943,-4.353 -24.584,-4.353 l 0,0 c -3.25,0 -6.451,0.22 -9.584,0.644 l 0,0 c 1.422,-4.511 4.742,-15.1 4.742,-28.023 l 0,0 c 0,-13.944 -5.271,-53.303 17.237,-71.13 l 0,0 8.876,9.305 24.293,-9.307 c -21.717,17.207 -15.71,50.959 -15.71,71.132 l 0,0 c 0,20.172 -4.296,28.355 -5.192,31.755 l 0,0 c -0.024,-0.008 -0.051,-0.015 -0.078,-0.023"
               style="fill:url(#linearGradient468);stroke:none"
               id="path474" /></g></g></g></g><g
       id="g476"><g
         id="g478"><g
           id="g484"><g
             id="g486"><path
               d="m 54.201,699.04 c 0,-39.448 31.981,-71.43 71.427,-71.43 l 0,0 c 17.291,0 33.136,6.158 45.491,16.385 l 0,0 c -8.326,19.324 -5.311,44.48 -5.311,55.045 l 0,0 c 0,-3.942 -0.58,-7.746 -1.639,-11.346 l 0,0 c -0.279,-0.947 -1.045,-3.072 -1.099,-3.205 l 0,0 c -5.828,-14.994 -20.387,-25.627 -37.442,-25.627 l 0,0 c -22.185,0 -40.177,17.988 -40.177,40.178 l 0,0 c 0,22.191 17.992,40.215 40.177,40.178 l 0,0 c 4.567,-0.008 9.762,-0.21 25.051,-3.842 l 0,0 c 27.34,-6.493 47.545,4.707 47.545,4.707 l 0,0 11.936,18.495 c 0,0 -17.032,-3.81 -45.928,4.43 l 0,0 c -20.901,5.956 -30.75,7.461 -38.604,7.461 l 0,0 c -39.446,0 -71.427,-31.98 -71.427,-71.429"
               style="fill:url(#linearGradient488);stroke:none"
               id="path494" /></g></g></g></g><g
       id="g496"><g
         id="g498"
         clip-path="url(#clipPath500)"><g
           id="g504"
           transform="translate(534.8057,272.9072)"><path
             d="m 0,0 c 0,-64.497 -52.283,-116.782 -116.782,-116.782 -64.496,0 -116.782,52.285 -116.782,116.782 0,64.497 52.286,116.782 116.782,116.782 C -52.283,116.782 0,64.497 0,0"
             style="fill:#ffffff;fill-opacity:1;fill-rule:nonzero;stroke:none"
             id="path506" /></g></g></g><g
       id="g508"><g
         id="g510"><g
           id="g516"><g
             id="g518"><path
               d="m 482.077,305.64 c -7.662,-2.817 -15.944,-4.354 -24.583,-4.354 l 0,0 c -3.25,0 -6.451,0.221 -9.584,0.645 l 0,0 c 1.422,-4.513 4.74,-15.1 4.74,-28.024 l 0,0 c 0,-13.943 -5.269,-53.303 17.237,-71.129 l 0,0 8.878,9.305 24.293,-9.307 c -21.717,17.207 -15.712,50.959 -15.712,71.131 l 0,0 c 0,20.172 -4.294,28.355 -5.191,31.756 l 0,0 c -0.023,-0.008 -0.05,-0.016 -0.078,-0.023"
               style="fill:url(#linearGradient520);stroke:none"
               id="path526" /></g></g></g></g><g
       id="g528"><g
         id="g530"><g
           id="g536"><g
             id="g538"><path
               d="m 341.045,273.907 c 0,-39.447 31.981,-71.43 71.428,-71.43 l 0,0 c 17.29,0 33.134,6.158 45.49,16.385 l 0,0 c -8.328,19.325 -5.313,44.481 -5.313,55.045 l 0,0 c 0,-3.941 -0.58,-7.746 -1.638,-11.346 l 0,0 c -0.278,-0.946 -1.045,-3.072 -1.1,-3.204 l 0,0 c -5.828,-14.994 -20.384,-25.628 -37.439,-25.628 l 0,0 c -22.188,0 -40.178,17.988 -40.178,40.178 l 0,0 c 0,22.191 17.99,40.215 40.178,40.178 l 0,0 c 4.565,-0.008 9.759,-0.209 25.048,-3.842 l 0,0 c 27.342,-6.492 47.547,4.708 47.547,4.708 l 0,0 11.935,18.495 c 0,0 -17.031,-3.81 -45.927,4.43 l 0,0 c -20.9,5.955 -30.752,7.461 -38.603,7.461 l 0,0 c -39.447,0 -71.428,-31.98 -71.428,-71.43"
               style="fill:url(#linearGradient540);stroke:none"
               id="path546" /></g></g></g></g><path
       inkscape:connector-curvature="0"
       id="path658"
       style="fill:#2991b6;fill-opacity:1;fill-rule:nonzero;stroke:none"
       d="m 303.8711,444.8232 c 0.981,-0.646 2.403,-1.11 3.928,-1.11 1.679,0 3.23,0.903 3.23,2.584 0,1.136 -0.75,1.911 -2.455,2.816 -2.016,1.086 -3.541,2.481 -3.541,4.549 0,3.332 2.895,5.427 6.409,5.427 1.939,0 3.204,-0.492 3.876,-0.88 l -0.981,-2.506 c -0.57,0.31 -1.732,0.801 -3.154,0.774 -1.912,0 -2.997,-1.11 -2.997,-2.273 0,-1.19 0.982,-1.887 2.611,-2.818 2.119,-1.11 3.385,-2.506 3.385,-4.625 0,-3.489 -2.817,-5.633 -6.719,-5.633 -2.119,0 -3.85,0.594 -4.626,1.216 l 1.034,2.479 z" /><path
       inkscape:connector-curvature="0"
       id="path662"
       style="fill:#2991b6;fill-opacity:1;fill-rule:nonzero;stroke:none"
       d="m 321.5195,452.0078 c -1.887,0 -3.127,-1.679 -3.489,-3.205 3.101,-0.052 5.091,0.389 5.091,1.887 0,0.826 -0.647,1.318 -1.602,1.318 m 2.868,-9.898 c -1.241,-0.646 -2.92,-0.982 -4.444,-0.982 -3.489,0 -5.169,2.119 -5.169,5.195 0,3.799 2.791,7.933 7.132,7.933 2.481,0 4.056,-1.447 4.056,-3.541 0,-3.229 -3.384,-4.264 -8.242,-4.16 -0.053,-0.44 0.051,-1.292 0.336,-1.783 0.49,-0.853 1.396,-1.292 2.584,-1.292 1.422,0 2.559,0.362 3.463,0.827 l 0.284,-2.197 z" /><path
       inkscape:connector-curvature="0"
       id="path666"
       style="fill:#2991b6;fill-opacity:1;fill-rule:nonzero;stroke:none"
       d="m 325.8076,441.3867 1.474,7.752 c 0.336,1.784 0.49,3.696 0.645,4.833 l 2.61,0 c -0.078,-0.853 -0.156,-1.731 -0.285,-2.662 l 0.078,0 c 0.853,1.705 2.223,2.946 3.954,2.946 0.207,0 0.439,-0.026 0.646,-0.052 l -0.594,-2.946 c -0.156,0.026 -0.363,0.052 -0.569,0.052 -2.146,0 -3.515,-2.171 -4.005,-4.859 l -0.957,-5.064 -2.997,0 z" /><path
       inkscape:connector-curvature="0"
       id="path670"
       style="fill:#2991b6;fill-opacity:1;fill-rule:nonzero;stroke:none"
       d="m 338.5205,453.9717 0.801,-6.254 c 0.155,-1.498 0.309,-2.455 0.362,-3.282 l 0.076,0 c 0.312,0.801 0.672,1.706 1.371,3.205 l 3.126,6.331 3.334,0 -7.003,-12.585 -3.024,0 -2.144,12.585 3.101,0 z" /><path
       inkscape:connector-curvature="0"
       id="path674"
       style="fill:#2991b6;fill-opacity:1;fill-rule:nonzero;stroke:none"
       d="m 348.7773,457.3828 c 0,1.085 0.828,1.834 1.81,1.834 0.93,0 1.602,-0.672 1.602,-1.627 -0.026,-1.112 -0.853,-1.81 -1.861,-1.81 -0.93,0 -1.576,0.672 -1.551,1.603 m -2.868,-15.996 2.378,12.585 3.023,0 -2.403,-12.585 -2.998,0 z" /><path
       inkscape:connector-curvature="0"
       id="path678"
       style="fill:#2991b6;fill-opacity:1;fill-rule:nonzero;stroke:none"
       d="m 350.5859,441.3867 1.629,8.683 c 0.308,1.499 0.49,2.816 0.644,3.902 l 2.663,0 -0.258,-2.274 0.051,0 c 1.164,1.705 2.765,2.558 4.523,2.558 1.783,0 3.204,-1.086 3.204,-3.463 0,-0.568 -0.103,-1.447 -0.233,-2.093 l -1.395,-7.313 -2.998,0 1.344,7.106 c 0.078,0.465 0.156,1.008 0.156,1.499 0,1.034 -0.389,1.809 -1.578,1.809 -1.368,0 -3.126,-1.653 -3.669,-4.6 l -1.085,-5.814 -2.998,0 z" /><path
       inkscape:connector-curvature="0"
       id="path682"
       style="fill:#2991b6;fill-opacity:1;fill-rule:nonzero;stroke:none"
       d="m 372.5234,451.5937 c -0.31,0.155 -0.956,0.311 -1.653,0.311 -2.636,0 -4.497,-2.843 -4.497,-5.556 -0.026,-1.317 0.517,-2.559 2.015,-2.559 1.5,0 2.998,1.783 3.438,4.058 l 0.697,3.746 z m -9.096,-12.456 c 0.749,-0.439 2.145,-0.749 3.334,-0.749 1.964,0 3.463,0.931 4.082,3.851 l 0.311,1.42 -0.051,0 c -1.034,-1.498 -2.351,-2.222 -3.954,-2.222 -2.507,0 -3.929,2.068 -3.954,4.445 0,4.187 3.023,8.373 8.244,8.373 1.627,0 3.203,-0.362 4.366,-0.879 l -1.911,-10.388 c -0.466,-2.455 -1.189,-4.418 -2.586,-5.608 -1.317,-1.085 -3.099,-1.395 -4.677,-1.395 -1.602,0 -3.1,0.336 -3.926,0.852 l 0.722,2.3 z" /><path
       inkscape:connector-curvature="0"
       id="path686"
       style="fill:#2991b6;fill-opacity:1;fill-rule:nonzero;stroke:none"
       d="m 387.6133,457.4346 -0.646,-3.463 2.843,0 -0.465,-2.326 -2.817,0 -1.008,-5.091 c -0.103,-0.594 -0.206,-1.24 -0.206,-1.783 0,-0.672 0.309,-1.111 1.111,-1.111 0.362,0 0.723,0 1.034,0.052 l -0.285,-2.352 c -0.439,-0.155 -1.241,-0.259 -1.963,-0.259 -2.069,0 -2.998,1.138 -2.998,2.585 0,0.724 0.077,1.422 0.284,2.352 l 1.085,5.607 -1.705,0 0.439,2.326 1.705,0 0.518,2.713 3.074,0.75 z" /><path
       inkscape:connector-curvature="0"
       id="path690"
       style="fill:#2991b6;fill-opacity:1;fill-rule:nonzero;stroke:none"
       d="m 388.3359,441.3867 3.463,18.349 3.023,0 -1.472,-7.651 0.051,0 c 1.06,1.318 2.455,2.171 4.212,2.171 1.732,0 3.153,-1.086 3.153,-3.386 0,-0.645 -0.076,-1.524 -0.206,-2.221 l -1.396,-7.262 -2.998,0 1.344,7.055 c 0.078,0.491 0.155,1.034 0.155,1.653 0,0.956 -0.438,1.706 -1.577,1.706 -1.472,0 -3.125,-1.758 -3.617,-4.419 l -1.137,-5.995 -2.998,0 z" /><path
       inkscape:connector-curvature="0"
       id="path694"
       style="fill:#2991b6;fill-opacity:1;fill-rule:nonzero;stroke:none"
       d="m 407.7676,452.0078 c -1.887,0 -3.127,-1.679 -3.488,-3.205 3.1,-0.052 5.09,0.389 5.09,1.887 0,0.826 -0.646,1.318 -1.602,1.318 m 2.868,-9.898 c -1.241,-0.646 -2.92,-0.982 -4.444,-0.982 -3.489,0 -5.169,2.119 -5.169,5.195 0,3.799 2.792,7.933 7.132,7.933 2.481,0 4.058,-1.447 4.058,-3.541 0,-3.229 -3.386,-4.264 -8.244,-4.16 -0.052,-0.44 0.051,-1.292 0.336,-1.783 0.491,-0.853 1.396,-1.292 2.584,-1.292 1.422,0 2.559,0.362 3.463,0.827 l 0.284,-2.197 z" /><path
       inkscape:connector-curvature="0"
       id="path698"
       style="fill:#2991b6;fill-opacity:1;fill-rule:nonzero;stroke:none"
       d="m 426.9922,448.6738 -0.491,4.341 c -0.078,0.931 -0.181,2.275 -0.259,3.307 l -0.052,0 c -0.466,-1.032 -0.93,-2.273 -1.421,-3.307 l -2.119,-4.341 4.342,0 z m -5.299,-2.325 -2.377,-4.962 -3.203,0 8.734,17.417 3.772,0 2.197,-17.417 -3.152,0 -0.491,4.962 -5.48,0 z" /><path
       inkscape:connector-curvature="0"
       id="path702"
       style="fill:#2991b6;fill-opacity:1;fill-rule:nonzero;stroke:none"
       d="m 439.834,441.8262 c -0.725,-0.362 -2.016,-0.698 -3.619,-0.698 -3.152,0 -5.09,2.015 -5.09,5.013 0,4.393 3.334,8.115 8.01,8.115 1.111,0 2.094,-0.284 2.558,-0.492 l -0.775,-2.35 c -0.465,0.207 -1.059,0.387 -1.885,0.387 -2.922,0 -4.756,-2.688 -4.756,-5.298 0,-1.887 1.086,-2.946 2.766,-2.946 1.162,0 2.041,0.31 2.687,0.594 l 0.104,-2.325 z" /><path
       inkscape:connector-curvature="0"
       id="path706"
       style="fill:#2991b6;fill-opacity:1;fill-rule:nonzero;stroke:none"
       d="m 449.8066,451.8008 c -0.311,0.077 -0.697,0.129 -1.24,0.129 -2.791,0 -4.936,-3.127 -4.936,-5.995 0,-1.319 0.49,-2.404 1.809,-2.404 1.396,0 3.101,1.757 3.695,4.962 l 0.672,3.308 z m -1.24,-10.414 c 0.025,0.749 0.129,1.757 0.232,2.843 l -0.078,0 c -1.24,-2.326 -2.893,-3.128 -4.496,-3.128 -2.248,0 -3.721,1.758 -3.721,4.291 0,4.289 2.998,8.863 8.864,8.863 1.369,0 2.843,-0.258 3.798,-0.569 l -1.291,-6.564 c -0.363,-1.886 -0.568,-4.237 -0.517,-5.736 l -2.791,0 z" /><path
       inkscape:connector-curvature="0"
       id="path710"
       style="fill:#2991b6;fill-opacity:1;fill-rule:nonzero;stroke:none"
       d="m 462.5977,451.4395 c -0.363,0.258 -0.982,0.49 -1.732,0.49 -2.584,0 -4.497,-2.868 -4.497,-5.685 0,-1.524 0.594,-2.713 2.016,-2.713 1.344,0 2.945,1.473 3.463,4.084 l 0.75,3.824 z m 4.547,8.296 -2.635,-13.878 c -0.285,-1.447 -0.492,-3.102 -0.568,-4.471 l -2.766,0 0.258,2.249 -0.051,0 c -1.139,-1.732 -2.687,-2.534 -4.316,-2.534 -2.248,0 -3.824,1.835 -3.824,4.678 0,4.42 3.23,8.476 7.855,8.476 0.646,0 1.396,-0.128 1.937,-0.362 l 1.114,5.842 2.996,0 z" /><path
       inkscape:connector-curvature="0"
       id="path714"
       style="fill:#2991b6;fill-opacity:1;fill-rule:nonzero;stroke:none"
       d="m 472.3379,452.0078 c -1.887,0 -3.127,-1.679 -3.488,-3.205 3.101,-0.052 5.09,0.389 5.09,1.887 0,0.826 -0.647,1.318 -1.602,1.318 m 2.867,-9.898 c -1.24,-0.646 -2.918,-0.982 -4.443,-0.982 -3.488,0 -5.168,2.119 -5.168,5.195 0,3.799 2.791,7.933 7.131,7.933 2.48,0 4.058,-1.447 4.058,-3.541 0,-3.229 -3.386,-4.264 -8.244,-4.16 -0.051,-0.44 0.051,-1.292 0.336,-1.783 0.49,-0.853 1.397,-1.292 2.584,-1.292 1.422,0 2.559,0.362 3.463,0.827 l 0.283,-2.197 z" /><path
       inkscape:connector-curvature="0"
       id="path718"
       style="fill:#2991b6;fill-opacity:1;fill-rule:nonzero;stroke:none"
       d="m 476.1094,441.3867 1.602,8.683 c 0.285,1.499 0.49,2.816 0.621,3.902 l 2.609,0 -0.258,-2.196 0.026,0 c 1.189,1.679 2.738,2.48 4.367,2.48 1.965,0 2.869,-1.241 2.971,-2.584 1.111,1.731 2.714,2.558 4.445,2.584 1.732,0 3.076,-1.111 3.076,-3.359 0,-0.543 -0.104,-1.474 -0.207,-2.146 l -1.395,-7.364 -2.921,0 1.318,7.028 c 0.078,0.518 0.182,1.086 0.182,1.603 0,1.059 -0.44,1.783 -1.551,1.783 -1.369,0 -2.895,-1.731 -3.385,-4.393 l -1.137,-6.021 -2.894,0 1.344,7.133 c 0.103,0.515 0.154,1.008 0.154,1.472 0,0.957 -0.283,1.809 -1.498,1.809 -1.397,0 -2.998,-1.887 -3.463,-4.444 l -1.086,-5.97 -2.92,0 z" /><path
       inkscape:connector-curvature="0"
       id="path722"
       style="fill:#2991b6;fill-opacity:1;fill-rule:nonzero;stroke:none"
       d="m 498.3828,457.3828 c 0,1.085 0.826,1.834 1.809,1.834 0.931,0 1.603,-0.672 1.603,-1.627 -0.027,-1.112 -0.853,-1.81 -1.861,-1.81 -0.93,0 -1.576,0.672 -1.551,1.603 m -2.869,-15.996 2.379,12.585 3.023,0 -2.404,-12.585 -2.998,0 z" /><path
       inkscape:connector-curvature="0"
       id="path726"
       style="fill:#2991b6;fill-opacity:1;fill-rule:nonzero;stroke:none"
       d="m 509.6484,441.8262 c -0.723,-0.362 -2.016,-0.698 -3.617,-0.698 -3.154,0 -5.092,2.015 -5.092,5.013 0,4.393 3.334,8.115 8.012,8.115 1.111,0 2.093,-0.284 2.558,-0.492 l -0.775,-2.35 c -0.465,0.207 -1.059,0.387 -1.887,0.387 -2.92,0 -4.756,-2.688 -4.756,-5.298 0,-1.887 1.086,-2.946 2.766,-2.946 1.162,0 2.041,0.31 2.687,0.594 l 0.104,-2.325 z" /><path
       inkscape:connector-curvature="0"
       id="path730"
       style="fill:#2991b6;fill-opacity:1;fill-rule:nonzero;stroke:none"
       d="m 530.6562,441.3867 1.162,8.191 c 0.26,1.784 0.621,4.24 1.061,6.384 l -0.078,0 c -0.905,-2.041 -1.938,-4.29 -2.895,-6.125 l -4.289,-8.244 -2.326,0 -0.905,8.114 c -0.207,1.939 -0.361,4.187 -0.464,6.255 l -0.053,0 c -0.465,-1.99 -0.981,-4.625 -1.42,-6.384 l -1.99,-8.191 -2.791,0 4.418,17.417 3.98,0 0.932,-8.14 c 0.129,-1.55 0.308,-3.359 0.336,-5.013 l 0.101,0 c 0.621,1.654 1.448,3.488 2.198,4.987 l 4.212,8.166 4.032,0 -2.301,-17.417 -2.92,0 z" /><path
       inkscape:connector-curvature="0"
       id="path734"
       style="fill:#2991b6;fill-opacity:1;fill-rule:nonzero;stroke:none"
       d="m 537.9668,457.3828 c 0,1.085 0.828,1.834 1.809,1.834 0.931,0 1.603,-0.672 1.603,-1.627 -0.027,-1.112 -0.853,-1.81 -1.861,-1.81 -0.93,0 -1.576,0.672 -1.551,1.603 m -2.869,-15.996 2.379,12.585 3.023,0 -2.404,-12.585 -2.998,0 z" /><path
       inkscape:connector-curvature="0"
       id="path738"
       style="fill:#2991b6;fill-opacity:1;fill-rule:nonzero;stroke:none"
       d="m 540.5508,444.2031 c 0.646,-0.361 1.885,-0.853 3.023,-0.853 1.215,0.027 1.938,0.723 1.938,1.55 0,0.802 -0.412,1.293 -1.654,1.939 -1.446,0.749 -2.481,1.835 -2.481,3.283 0,2.428 2.119,4.134 5.092,4.134 1.316,0 2.402,-0.31 2.971,-0.647 l -0.776,-2.17 c -0.465,0.258 -1.316,0.569 -2.351,0.569 -1.137,0 -1.912,-0.621 -1.912,-1.474 0,-0.697 0.568,-1.188 1.629,-1.731 1.369,-0.749 2.609,-1.783 2.609,-3.385 0,-2.766 -2.326,-4.29 -5.35,-4.29 -1.472,0 -2.842,0.414 -3.513,0.905 l 0.775,2.17 z" /><path
       inkscape:connector-curvature="0"
       id="path742"
       style="fill:#2991b6;fill-opacity:1;fill-rule:nonzero;stroke:none"
       d="m 549.8535,444.2031 c 0.646,-0.361 1.887,-0.853 3.023,-0.853 1.215,0.027 1.94,0.723 1.94,1.55 0,0.802 -0.414,1.293 -1.654,1.939 -1.448,0.749 -2.481,1.835 -2.481,3.283 0,2.428 2.119,4.134 5.092,4.134 1.316,0 2.402,-0.31 2.971,-0.647 l -0.776,-2.17 c -0.465,0.258 -1.316,0.569 -2.351,0.569 -1.137,0 -1.912,-0.621 -1.912,-1.474 0,-0.697 0.568,-1.188 1.628,-1.731 1.37,-0.749 2.61,-1.783 2.61,-3.385 0,-2.766 -2.326,-4.29 -5.35,-4.29 -1.472,0 -2.842,0.414 -3.513,0.905 l 0.773,2.17 z" /><path
       inkscape:connector-curvature="0"
       id="path746"
       style="fill:#2991b6;fill-opacity:1;fill-rule:nonzero;stroke:none"
       d="m 561.2246,457.3828 c 0,1.085 0.826,1.834 1.809,1.834 0.929,0 1.601,-0.672 1.601,-1.627 -0.025,-1.112 -0.851,-1.81 -1.861,-1.81 -0.93,0 -1.576,0.672 -1.549,1.603 m -2.869,-15.996 2.377,12.585 3.023,0 -2.402,-12.585 -2.998,0 z" /><path
       inkscape:connector-curvature="0"
       id="path750"
       style="fill:#2991b6;fill-opacity:1;fill-rule:nonzero;stroke:none"
       d="m 566.8828,446.374 c 0,-1.731 0.93,-2.946 2.455,-2.946 2.248,0 3.746,3.101 3.746,5.607 0,1.294 -0.568,2.895 -2.402,2.895 -2.404,0 -3.799,-3.204 -3.799,-5.556 m 9.328,2.661 c 0,-4.264 -2.998,-7.933 -7.287,-7.933 -3.18,0 -5.143,2.197 -5.143,5.195 0,4.264 2.973,7.959 7.262,7.959 3.385,0 5.168,-2.429 5.168,-5.221" /><path
       inkscape:connector-curvature="0"
       id="path754"
       style="fill:#2991b6;fill-opacity:1;fill-rule:nonzero;stroke:none"
       d="m 576.2871,441.3867 1.629,8.683 c 0.308,1.499 0.49,2.816 0.644,3.902 l 2.663,0 -0.258,-2.274 0.051,0 c 1.164,1.705 2.765,2.558 4.523,2.558 1.783,0 3.203,-1.086 3.203,-3.463 0,-0.568 -0.103,-1.447 -0.232,-2.093 l -1.395,-7.313 -2.998,0 1.344,7.106 c 0.078,0.465 0.156,1.008 0.156,1.499 0,1.034 -0.389,1.809 -1.578,1.809 -1.369,0 -3.127,-1.653 -3.67,-4.6 l -1.084,-5.814 -2.998,0 z" /><path
       inkscape:connector-curvature="0"
       id="path758"
       style="fill:#575e62;fill-opacity:1;fill-rule:nonzero;stroke:none"
       d="m 336.8975,620.2695 c -0.701,0.176 -1.579,0.292 -2.809,0.292 -6.32,0 -11.177,-7.081 -11.177,-13.576 0,-2.986 1.112,-5.443 4.097,-5.443 3.16,0 7.022,3.98 8.368,11.236 l 1.521,7.491 z m -2.809,-23.584 c 0.059,1.697 0.293,3.98 0.528,6.438 l -0.176,0 c -2.809,-5.268 -6.555,-7.083 -10.183,-7.083 -5.09,0 -8.426,3.981 -8.426,9.715 0,9.715 6.788,20.073 20.072,20.073 3.101,0 6.437,-0.585 8.602,-1.288 l -2.925,-14.864 c -0.82,-4.272 -1.288,-9.596 -1.171,-12.991 l -6.321,0 z" /><path
       inkscape:connector-curvature="0"
       id="path762"
       style="fill:#575e62;fill-opacity:1;fill-rule:nonzero;stroke:none"
       d="m 351.5869,602.7129 c 1.054,-0.878 2.574,-1.404 4.564,-1.404 5.268,0 9.598,7.022 9.598,13.401 0,2.633 -1.17,5.56 -4.506,5.56 -3.453,0 -7.198,-3.921 -8.427,-10.593 l -1.229,-6.964 z m -10.182,-17.614 5.559,29.494 c 0.644,3.394 1.287,7.666 1.639,10.592 l 6.144,0 -0.643,-4.682 0.117,0 c 2.458,3.395 5.969,5.325 9.655,5.325 6.145,0 9.013,-5.032 9.013,-10.592 0,-9.948 -6.906,-19.195 -16.62,-19.195 -2.633,0 -4.623,0.586 -5.676,1.23 l -0.117,0 -2.284,-12.172 -6.787,0 z" /><path
       inkscape:connector-curvature="0"
       id="path766"
       style="fill:#575e62;fill-opacity:1;fill-rule:nonzero;stroke:none"
       d="m 398.4795,596.6855 3.336,17.556 c 0.762,4.038 1.111,8.369 1.463,10.943 l 5.91,0 c -0.175,-1.931 -0.351,-3.92 -0.643,-6.027 l 0.176,0 c 1.93,3.862 5.032,6.671 8.953,6.671 0.469,0 0.994,-0.059 1.463,-0.117 l -4.332,-6.767 c -3.887,-1.004 -6.396,-5.446 -7.373,-10.789 l -2.164,-11.47 -6.789,0 z" /><path
       inkscape:connector-curvature="0"
       id="path770"
       style="fill:#575e62;fill-opacity:1;fill-rule:nonzero;stroke:none"
       d="m 429.4697,620.7373 c -4.271,0 -7.08,-3.804 -7.899,-7.257 7.022,-0.117 11.528,0.878 11.528,4.273 0,1.872 -1.463,2.984 -3.629,2.984 m 2.259,-23.847 c -0.857,-0.489 -2.376,-0.79 -5.828,-0.79 -7.901,0 -11.704,4.798 -11.704,11.762 0,8.603 6.32,17.966 16.151,17.966 5.618,0 9.188,-3.277 9.188,-8.017 0,-7.315 -7.666,-9.656 -18.668,-9.423 -0.117,-0.994 0.118,-2.924 0.76,-4.037 1.113,-1.931 3.16,-2.926 5.853,-2.926 3.218,0 6.344,0.839 8.391,1.893 l -4.143,-6.428 z" /><path
       inkscape:connector-curvature="0"
       id="path774"
       style="fill:#575e62;fill-opacity:1;fill-rule:nonzero;stroke:none"
       d="m 389.125,620.7373 c -4.272,0 -7.081,-3.804 -7.899,-7.257 7.021,-0.117 11.527,0.878 11.527,4.273 0,1.872 -1.463,2.984 -3.628,2.984 m 2.259,-23.847 c -0.856,-0.489 -2.375,-0.79 -5.828,-0.79 -7.901,0 -11.704,4.798 -11.704,11.762 0,8.603 6.319,17.966 16.151,17.966 5.617,0 9.187,-3.277 9.187,-8.017 0,-7.315 -7.666,-9.656 -18.668,-9.423 -0.117,-0.994 0.118,-2.924 0.761,-4.037 1.113,-1.931 3.16,-2.926 5.853,-2.926 3.218,0 6.343,0.839 8.392,1.893 l -4.144,-6.428 z" /><path
       inkscape:connector-curvature="0"
       id="path778"
       style="fill:#575e62;fill-opacity:1;fill-rule:nonzero;stroke:none"
       d="m 446.0908,607.9795 c 0,-3.921 2.106,-6.671 5.559,-6.671 5.091,0 8.486,7.023 8.486,12.698 0,2.927 -1.288,6.555 -5.443,6.555 -5.443,0 -8.602,-7.257 -8.602,-12.582 m 21.125,6.027 c 0,-9.655 -6.788,-17.965 -16.502,-17.965 -7.199,0 -11.646,4.974 -11.646,11.762 0,9.656 6.73,18.025 16.444,18.025 7.666,0 11.704,-5.5 11.704,-11.822" /><g
       id="g4645"><g
         id="g780"><g
           id="g782"><g
             id="g788"><g
               id="g790"><path
                 id="path798"
                 style="fill:url(#linearGradient792);stroke:none"
                 d="m 436.654,715.893 c -6.168,-2.217 -12.834,-3.429 -19.788,-3.429 l 0,0 c -2.617,0 -5.194,0.174 -7.715,0.508 l 0,0 c 1.144,-3.553 3.817,-11.893 3.817,-22.073 l 0,0 c 0,-10.981 -4.244,-41.983 13.875,-56.024 l 0,0 7.145,7.329 19.555,-7.33 c -17.481,13.553 -12.647,40.137 -12.647,56.025 l 0,0 c 0,15.889 -3.456,22.335 -4.178,25.013 l 0,0 c -0.02,-0.006 -0.042,-0.012 -0.064,-0.019" /></g></g></g></g><g
         id="g800"><g
           id="g802"><g
             id="g808"><g
               id="g810"><path
                 id="path818"
                 style="fill:url(#linearGradient812);stroke:none"
                 d="m 323.128,690.899 c 0,-31.07 25.744,-56.26 57.497,-56.26 l 0,0 c 13.918,0 26.672,4.851 36.617,12.905 l 0,0 c -6.702,15.22 -4.274,35.035 -4.274,43.355 l 0,0 c 0,-3.104 -0.467,-6.101 -1.32,-8.936 l 0,0 c -0.224,-0.746 -0.84,-2.42 -0.884,-2.524 l 0,0 c -4.692,-11.81 -16.41,-20.185 -30.139,-20.185 l 0,0 c -17.859,0 -32.342,14.168 -32.342,31.645 l 0,0 c 0,17.479 14.483,31.676 32.342,31.646 l 0,0 c 3.676,-0.006 7.857,-0.165 20.165,-3.026 l 0,0 c 22.007,-5.113 38.271,3.708 38.271,3.708 l 0,0 9.608,14.568 c 0,0 -13.709,-3.001 -36.969,3.489 l 0,0 c -16.825,4.691 -24.754,5.876 -31.075,5.876 l 0,0 c -31.753,0 -57.497,-25.188 -57.497,-56.261" /></g></g></g></g></g></g></svg>