<?xml version="1.0" encoding="UTF-8" standalone="no"?>
<!-- Created with Inkscape (http://www.inkscape.org/) -->

<svg
   xmlns:dc="http://purl.org/dc/elements/1.1/"
   xmlns:cc="http://creativecommons.org/ns#"
   xmlns:rdf="http://www.w3.org/1999/02/22-rdf-syntax-ns#"
   xmlns:svg="http://www.w3.org/2000/svg"
   xmlns="http://www.w3.org/2000/svg"
   xmlns:xlink="http://www.w3.org/1999/xlink"
   xmlns:sodipodi="http://sodipodi.sourceforge.net/DTD/sodipodi-0.dtd"
   xmlns:inkscape="http://www.inkscape.org/namespaces/inkscape"
   version="1.1"
   width="546.71216"
   height="279.44855"
   id="svg3240"
   inkscape:version="0.48.5 r10040"
   sodipodi:docname="new_xerte_logo.svg">
  <sodipodi:namedview
     pagecolor="#ffffff"
     bordercolor="#666666"
     borderopacity="1"
     objecttolerance="10"
     gridtolerance="10"
     guidetolerance="10"
     inkscape:pageopacity="0"
     inkscape:pageshadow="2"
     inkscape:window-width="640"
     inkscape:window-height="480"
     id="namedview19"
     showgrid="false"
     inkscape:zoom="0.62007035"
     inkscape:cx="273.35608"
     inkscape:cy="126.01615"
     inkscape:window-x="0"
     inkscape:window-y="0"
     inkscape:window-maximized="0"
     inkscape:current-layer="svg3240" />
  <defs
     id="defs3242">
    <linearGradient
       x1="0"
       y1="0"
       x2="1"
       y2="0"
       id="linearGradient3275"
       xlink:href="#linearGradient792"
       gradientUnits="userSpaceOnUse"
       gradientTransform="matrix(-25.171394,73.225075,73.225075,25.171394,438.88477,646.854)"
       spreadMethod="pad" />
    <linearGradient
       x1="0"
       y1="0"
       x2="1"
       y2="0"
       id="linearGradient792"
       gradientUnits="userSpaceOnUse"
       gradientTransform="matrix(-25.171394,73.225075,73.225075,25.171394,438.88477,646.854)"
       spreadMethod="pad">
      <stop
         id="stop794"
         style="stop-color:#0693b5;stop-opacity:1"
         offset="0" />
      <stop
         id="stop796"
         style="stop-color:#97d7db;stop-opacity:1"
         offset="1" />
    </linearGradient>
    <linearGradient
       x1="0"
       y1="0"
       x2="1"
       y2="0"
       id="linearGradient3277"
       xlink:href="#linearGradient812"
       gradientUnits="userSpaceOnUse"
       gradientTransform="matrix(92.746063,0,0,-92.746063,322.52637,690.89941)"
       spreadMethod="pad" />
    <linearGradient
       x1="0"
       y1="0"
       x2="1"
       y2="0"
       id="linearGradient812"
       gradientUnits="userSpaceOnUse"
       gradientTransform="matrix(92.746063,0,0,-92.746063,322.52637,690.89941)"
       spreadMethod="pad">
      <stop
         id="stop814"
         style="stop-color:#687176;stop-opacity:1"
         offset="0" />
      <stop
         id="stop816"
         style="stop-color:#2a3236;stop-opacity:1"
         offset="1" />
    </linearGradient>
  </defs>
  <metadata
     id="metadata3245">
    <rdf:RDF>
      <cc:Work
         rdf:about="">
        <dc:format>image/svg+xml</dc:format>
        <dc:type
           rdf:resource="http://purl.org/dc/dcmitype/StillImage" />
        <dc:title />
      </cc:Work>
    </rdf:RDF>
  </metadata>
  <path
     inkscape:connector-curvature="0"
     style="fill:#fba61f;fill-opacity:1;stroke:#fba61f;stroke-width:2.20144534;stroke-miterlimit:4;stroke-opacity:1;stroke-dasharray:none;display:inline"
     id="path3189"
     d="m 29.75232,277.74573 c -10.7136,-1.6682 -28.6516,-7.5619 -28.6516,-9.4138 0,-0.3211 2.4431,-4.2273 5.4292,-8.6805 5.9836,-8.9233 5.1179,-7.6738 50.6335,-73.07334 28.6414,-41.15376 42.9808,-62.06028 45.093,-65.74503 l 0.6993,-1.21984 -1.455,-2.66327 c -2.2949,-4.20069 -26.7896,-40.99198 -28.7892,-43.24171 -0.2847,-0.32036 -4.7673,-2.50027 -9.9612,-4.84426 l -9.4436,-4.26177 -3.0777,-5.05768 c -7.7994,-12.81667 -14.5687,-24.76929 -14.5687,-25.72402 0,-0.55159 2.3011,-2.17344 9.902,-6.97905 13.0159,-8.2293 15.8644,-9.858 16.3361,-9.34048 0.243,0.26658 5.6015,6.78378 11.9077,14.48265 l 11.4659,13.99796 1.0379,6.29069 c 1.366,8.27914 1.8642,10.13603 3.7558,13.99985 2.2112,4.51648 18.5582,28.91584 23.1281,34.52077 0.7401,0.90768 1.5523,1.64327 1.8049,1.63466 0.9212,-0.0314 9.2519,-11.26794 25.859,-34.87898 l 8.2928,-11.79017 -1.6082,-5.10134 c -2.7349,-8.67507 -3.4922,-14.20058 -2.7713,-20.2193 1.4584,-12.17583 7.7145,-20.90473 18.4653,-25.76409 3.8818,-1.75457 14.4855,-4.15746 15.1988,-3.44418 0.3917,0.39171 -0.8694,2.90766 -6.8416,13.64969 -5.8476,10.51771 -7.3777,13.6954 -7.3932,15.35376 -0.035,3.6891 2.8882,10.16336 6.1733,13.6752 3.6308,3.88132 4.898,4.36939 11.2915,4.34915 6.0591,-0.0192 8.3727,-0.56959 11.5386,-2.74499 2.9398,-2.0201 5.089,-4.86098 11.6892,-15.45132 3.2402,-5.19899 6.1365,-9.65622 6.4362,-9.90494 0.7523,-0.62437 1.7877,0.75646 3.311,4.41565 3.9141,9.40214 3.0532,19.51143 -2.3455,27.54124 -5.9886,8.90724 -15.8433,14.68326 -33.3477,19.54563 l -2.524,0.70112 -11.4552,17.16516 c -16.9798,25.44368 -23.6869,35.92593 -23.6869,37.01925 0,0.60744 8.2616,12.67459 18.5921,27.15611 17.8395,25.00776 22.5688,32.07724 22.5688,33.73631 0,0.94665 -1.1692,1.30773 -6.6013,2.03866 -5.5145,0.74201 -25.3932,0.61608 -30.8419,-0.19538 -2.3335,-0.34752 -4.6454,-0.89572 -5.1376,-1.21823 -0.9453,-0.6194 -3.3086,-3.89178 -11.686,-16.18148 -2.83,-4.15165 -6.0181,-8.49893 -7.0846,-9.66061 l -1.9391,-2.11215 -1.1658,1.34292 c -3.236,3.72795 -17.919,25.31313 -51.849,76.22211 l -27.1096,40.67547 -2.9453,-0.038 c -1.6198,-0.021 -4.468,-0.2747 -6.3292,-0.5645 l 0,0 z" />
  <g
     style="font-size:33.77969742px;font-style:normal;font-weight:normal;line-height:125%;letter-spacing:0px;word-spacing:0px;fill:#5a5e5f;fill-opacity:1;stroke:none;display:inline;font-family:Sans"
     id="text3267">
    <path
       d="m 151.03873,224.37177 c -0.0253,-1.02132 0.0253,-2.18664 0.152,-3.49596 0.12665,-1.30931 0.28931,-2.49063 0.48799,-3.54395 l 1.63198,-8.1919 c -0.67201,-0.21398 -1.464,-0.39398 -2.37597,-0.53999 -0.912,-0.14598 -1.84799,-0.22198 -2.80796,-0.228 -2.55603,0.0369 -4.66168,0.58885 -6.31696,1.65568 -1.65529,1.06687 -2.88391,2.42705 -3.68588,4.08054 -0.80196,1.65352 -1.20097,3.37873 -1.19702,5.17564 0.0213,1.65465 0.45866,2.9693 1.31199,3.94395 0.85331,0.97465 1.99463,1.47331 3.42395,1.49598 0.92798,0.018 1.85597,-0.234 2.78397,-0.75599 0.92797,-0.52199 1.75996,-1.42198 2.49596,-2.69996 l 0.064,0 c -0.034,0.56132 -0.07,1.10265 -0.108,1.62397 -0.038,0.52133 -0.066,1.01466 -0.084,1.47999 z m -3.61595,-8.76789 c -0.39468,1.90531 -0.94933,3.28663 -1.66398,4.14394 -0.71467,0.85733 -1.42932,1.27866 -2.14397,1.26399 -0.63867,-0.012 -1.11333,-0.25199 -1.42399,-0.71999 -0.31066,-0.46799 -0.46533,-1.09198 -0.46399,-1.87198 0.0287,-1.5473 0.51532,-3.00462 1.45998,-4.37194 0.94465,-1.36731 2.1753,-2.09663 3.69195,-2.18797 0.23999,0.001 0.46399,0.0147 0.672,0.04 0.20798,0.0253 0.39998,0.0547 0.57599,0.088 z"
       style="font-size:32px;font-style:oblique;font-variant:normal;font-weight:bold;font-stretch:normal;fill:#5a5e5f;font-family:Myriad Pro;-inkscape-font-specification:Myriad Pro Bold Oblique"
       id="path3011" />
    <path
       d="m 158.86886,224.37177 1.31198,-6.94392 c 0.34866,-1.73463 0.89132,-3.05728 1.62798,-3.96794 0.73665,-0.91065 1.4953,-1.36931 2.27597,-1.37599 0.58332,0.009 0.99264,0.18335 1.22798,0.524 0.23532,0.34067 0.34866,0.79533 0.34,1.36398 -6.8e-4,0.29 -0.0153,0.582 -0.044,0.87599 -0.0287,0.294 -0.0673,0.578 -0.116,0.85199 l -1.66398,8.67189 4.63994,0 1.72798,-9.08789 c 0.0667,-0.40132 0.12532,-0.84664 0.176,-1.33598 0.0506,-0.48932 0.0773,-0.91864 0.08,-1.28798 -0.008,-1.36864 -0.36001,-2.42329 -1.05599,-3.16396 -0.696,-0.74065 -1.68799,-1.11531 -2.97596,-1.12399 -1.046,-0.003 -2.03398,0.23535 -2.96396,0.71599 -0.93,0.48068 -1.76599,1.22333 -2.50797,2.22797 l -0.064,0 0.288,-2.59196 -4.06395,0 c -0.108,0.704 -0.228,1.47999 -0.36,2.32797 -0.132,0.848 -0.29999,1.76799 -0.50399,2.75996 l -1.98397,10.55987 z"
       style="font-size:32px;font-style:oblique;font-variant:normal;font-weight:bold;font-stretch:normal;fill:#5a5e5f;font-family:Myriad Pro;-inkscape-font-specification:Myriad Pro Bold Oblique"
       id="path3013" />
    <path
       d="m 192.66373,224.37177 c -0.0253,-1.02132 0.0253,-2.18664 0.152,-3.49596 0.12665,-1.30931 0.28931,-2.49063 0.48799,-3.54395 l 1.63198,-8.1919 c -0.67201,-0.21398 -1.464,-0.39398 -2.37597,-0.53999 -0.912,-0.14598 -1.84799,-0.22198 -2.80796,-0.228 -2.55603,0.0369 -4.66168,0.58885 -6.31696,1.65568 -1.65529,1.06687 -2.88391,2.42705 -3.68588,4.08054 -0.80196,1.65352 -1.20097,3.37873 -1.19702,5.17564 0.0213,1.65465 0.45866,2.9693 1.31199,3.94395 0.85331,0.97465 1.99463,1.47331 3.42395,1.49598 0.92798,0.018 1.85597,-0.234 2.78397,-0.75599 0.92797,-0.52199 1.75996,-1.42198 2.49596,-2.69996 l 0.064,0 c -0.034,0.56132 -0.07,1.10265 -0.108,1.62397 -0.038,0.52133 -0.066,1.01466 -0.084,1.47999 z m -3.61595,-8.76789 c -0.39468,1.90531 -0.94933,3.28663 -1.66398,4.14394 -0.71467,0.85733 -1.42932,1.27866 -2.14397,1.26399 -0.63867,-0.012 -1.11333,-0.25199 -1.42399,-0.71999 -0.31066,-0.46799 -0.46533,-1.09198 -0.46399,-1.87198 0.0287,-1.5473 0.51532,-3.00462 1.45998,-4.37194 0.94465,-1.36731 2.1753,-2.09663 3.69195,-2.18797 0.23999,0.001 0.46399,0.0147 0.672,0.04 0.20798,0.0253 0.39998,0.0547 0.57599,0.088 z"
       style="font-size:32px;font-style:oblique;font-variant:normal;font-weight:bold;font-stretch:normal;fill:#5a5e5f;font-family:Myriad Pro;-inkscape-font-specification:Myriad Pro Bold Oblique"
       id="path3015" />
    <path
       d="m 199.24587,230.70768 1.24799,-6.62391 0.096,0 c 0.27999,0.16666 0.67198,0.31333 1.17598,0.43999 0.50399,0.12667 1.07198,0.19333 1.70398,0.2 2.77262,-0.0953 4.97126,-1.15265 6.59591,-3.17196 1.62463,-2.0193 2.45529,-4.4286 2.49197,-7.22791 0.001,-1.66196 -0.41734,-3.05794 -1.25598,-4.18794 -0.83867,-1.12997 -2.10532,-1.71796 -3.79995,-1.76398 -0.95533,0.003 -1.86866,0.22868 -2.73997,0.67599 -0.87133,0.44735 -1.63265,1.09667 -2.28397,1.94798 l -0.064,0 0.288,-2.39997 -4.12795,0 c -0.0993,0.84134 -0.22866,1.83865 -0.38799,2.99196 -0.15934,1.15333 -0.32867,2.21465 -0.508,3.18396 l -3.03996,15.93579 z m 2.55997,-13.59982 c 0.30666,-1.55197 0.81332,-2.76796 1.51998,-3.64795 0.70665,-0.87998 1.50131,-1.32798 2.38397,-1.34399 0.72798,0.0287 1.24797,0.29934 1.55998,0.81199 0.31199,0.51267 0.46398,1.09533 0.456,1.74798 -0.0287,1.61732 -0.45134,3.09463 -1.26799,4.43194 -0.81667,1.33732 -1.85532,2.04665 -3.11596,2.12798 -0.462,-0.003 -0.86599,-0.0693 -1.21198,-0.2 -0.346,-0.13066 -0.646,-0.30933 -0.89999,-0.536 z"
       style="font-size:32px;font-style:oblique;font-variant:normal;font-weight:bold;font-stretch:normal;fill:#5a5e5f;font-family:Myriad Pro;-inkscape-font-specification:Myriad Pro Bold Oblique"
       id="path3017" />
    <path
       d="m 226.68575,220.14782 c -0.62267,0.30733 -1.29733,0.54866 -2.02397,0.72399 -0.72667,0.17533 -1.51333,0.26467 -2.35997,0.268 -0.67533,-6.7e-4 -1.26866,-0.10333 -1.77998,-0.308 -0.51133,-0.20466 -0.92066,-0.50732 -1.22798,-0.90799 -0.15934,-0.23466 -0.28067,-0.50132 -0.364,-0.79999 -0.0833,-0.29865 -0.13267,-0.56532 -0.148,-0.79999 3.18196,0.0993 5.66592,-0.25932 7.45191,-1.07598 1.78596,-0.81665 2.69395,-2.2073 2.72396,-4.17195 -0.0287,-1.46997 -0.53934,-2.61795 -1.53198,-3.44396 -0.99266,-0.82597 -2.29531,-1.24596 -3.90795,-1.25998 -1.89568,0.0318 -3.52292,0.51932 -4.88171,1.4625 -1.3588,0.94321 -2.40294,2.15129 -3.13241,3.62425 -0.72947,1.47298 -1.09806,3.02002 -1.10576,4.64113 0.003,2.06797 0.57266,3.68395 1.70798,4.84793 1.13531,1.16399 2.81662,1.75598 5.04393,1.77598 0.89998,0.006 1.86797,-0.086 2.90397,-0.276 1.03597,-0.18999 2.01996,-0.51399 2.95196,-0.97198 z m -2.04797,-7.10391 c 6.5e-4,0.726 -0.44867,1.23399 -1.34798,1.52398 -0.89933,0.29001 -2.25265,0.422 -4.05995,0.396 0.16066,-0.76465 0.55132,-1.48331 1.17198,-2.15598 0.62066,-0.67264 1.46731,-1.0313 2.53997,-1.07598 0.53265,0.007 0.94731,0.12934 1.24398,0.36799 0.29666,0.23868 0.44732,0.55334 0.452,0.94399 z"
       style="font-size:32px;font-style:oblique;font-variant:normal;font-weight:bold;font-stretch:normal;fill:#5a5e5f;font-family:Myriad Pro;-inkscape-font-specification:Myriad Pro Bold Oblique"
       id="path3019" />
    <path
       d="m 234.58836,224.37177 1.08798,-5.82393 c 0.27199,-1.58131 0.79199,-2.91462 1.55998,-3.99995 0.76799,-1.08531 1.87997,-1.65063 3.33596,-1.69598 0.26132,-0.005 0.50665,0.005 0.73599,0.032 l 0.89599,-4.47994 c -0.28801,-0.0266 -0.576,-0.0373 -0.86399,-0.032 -1.076,0.018 -2.03598,0.35001 -2.87996,0.99599 -0.844,0.646 -1.54799,1.49799 -2.11197,2.55597 l -0.096,0 c 0.062,-0.54332 0.11399,-1.08064 0.15599,-1.61198 0.042,-0.53132 0.086,-1.06064 0.132,-1.58798 l -3.99995,0 c -0.0753,0.704 -0.17266,1.63199 -0.29199,2.78396 -0.11934,1.152 -0.28867,2.33598 -0.508,3.55196 l -1.75997,9.31188 z"
       style="font-size:32px;font-style:oblique;font-variant:normal;font-weight:bold;font-stretch:normal;fill:#5a5e5f;font-family:Myriad Pro;-inkscape-font-specification:Myriad Pro Bold Oblique"
       id="path3021" />
    <path
       d="m 254.56075,220.14782 c -0.62267,0.30733 -1.29733,0.54866 -2.02397,0.72399 -0.72667,0.17533 -1.51333,0.26467 -2.35997,0.268 -0.67533,-6.7e-4 -1.26866,-0.10333 -1.77998,-0.308 -0.51133,-0.20466 -0.92066,-0.50732 -1.22798,-0.90799 -0.15934,-0.23466 -0.28067,-0.50132 -0.364,-0.79999 -0.0833,-0.29865 -0.13267,-0.56532 -0.148,-0.79999 3.18196,0.0993 5.66592,-0.25932 7.45191,-1.07598 1.78596,-0.81665 2.69395,-2.2073 2.72396,-4.17195 -0.0287,-1.46997 -0.53934,-2.61795 -1.53198,-3.44396 -0.99266,-0.82597 -2.29531,-1.24596 -3.90795,-1.25998 -1.89568,0.0318 -3.52292,0.51932 -4.88171,1.4625 -1.3588,0.94321 -2.40294,2.15129 -3.13241,3.62425 -0.72947,1.47298 -1.09806,3.02002 -1.10576,4.64113 0.003,2.06797 0.57266,3.68395 1.70798,4.84793 1.13531,1.16399 2.81662,1.75598 5.04393,1.77598 0.89998,0.006 1.86797,-0.086 2.90397,-0.276 1.03597,-0.18999 2.01996,-0.51399 2.95196,-0.97198 z m -2.04797,-7.10391 c 6.5e-4,0.726 -0.44867,1.23399 -1.34798,1.52398 -0.89933,0.29001 -2.25265,0.422 -4.05995,0.396 0.16066,-0.76465 0.55132,-1.48331 1.17198,-2.15598 0.62066,-0.67264 1.46731,-1.0313 2.53997,-1.07598 0.53265,0.007 0.94731,0.12934 1.24398,0.36799 0.29666,0.23868 0.44732,0.55334 0.452,0.94399 z"
       style="font-size:32px;font-style:oblique;font-variant:normal;font-weight:bold;font-stretch:normal;fill:#5a5e5f;font-family:Myriad Pro;-inkscape-font-specification:Myriad Pro Bold Oblique"
       id="path3023" />
    <path
       d="m 267.74329,208.33997 c -2.82531,0.074 -5.07861,1.046 -6.75991,2.91596 -1.68132,1.86999 -2.54264,4.19396 -2.58397,6.97191 0.028,1.97865 0.63599,3.54929 1.82398,4.71194 1.18798,1.16266 2.78796,1.75731 4.79993,1.78398 2.75529,-0.0553 4.98859,-0.99265 6.69992,-2.81196 1.71129,-1.81931 2.59261,-4.18861 2.64396,-7.10791 -0.014,-1.8373 -0.594,-3.36261 -1.73997,-4.57594 -1.146,-1.21331 -2.77398,-1.84263 -4.88394,-1.88798 z m -0.60799,3.51996 c 0.90064,0.034 1.5393,0.35 1.91597,0.94798 0.37665,0.59801 0.55932,1.274 0.548,2.02798 -0.009,1.42732 -0.35135,2.82064 -1.02799,4.17994 -0.67667,1.35932 -1.63532,2.08865 -2.87596,2.18798 -0.81933,-0.0127 -1.44466,-0.29133 -1.87598,-0.83599 -0.43133,-0.54466 -0.64866,-1.27932 -0.65199,-2.20397 -2e-4,-0.84344 0.14597,-1.74852 0.43851,-2.71523 0.29253,-0.96669 0.73263,-1.79829 1.32028,-2.49478 0.58764,-0.69648 1.32402,-1.06111 2.20916,-1.09391 z"
       style="font-size:32px;font-style:oblique;font-variant:normal;font-weight:bold;font-stretch:normal;fill:#5a5e5f;font-family:Myriad Pro;-inkscape-font-specification:Myriad Pro Bold Oblique"
       id="path3025" />
    <path
       d="m 293.12527,220.37182 c -0.39534,0.16667 -0.84467,0.31333 -1.34798,0.43999 -0.50334,0.12667 -1.08867,0.19333 -1.75598,0.2 -0.87,-6.7e-4 -1.59399,-0.27133 -2.17197,-0.81199 -0.578,-0.54066 -0.878,-1.34731 -0.89999,-2.41997 0.0173,-1.52664 0.49465,-2.84929 1.43198,-3.96795 0.93731,-1.11864 2.23063,-1.7053 3.87995,-1.75998 0.45998,0.002 0.85998,0.038 1.19998,0.108 0.33999,0.07 0.64398,0.16201 0.91199,0.276 l 1.15199,-3.55196 c -0.35734,-0.13331 -0.81067,-0.25064 -1.35998,-0.35199 -0.54934,-0.10132 -1.16267,-0.15465 -1.83998,-0.16 -3.0293,0.0653 -5.4746,1.02267 -7.33591,2.87196 -1.86131,1.84933 -2.81863,4.19863 -2.87196,7.04791 0.0327,2.03065 0.64732,3.60129 1.84398,4.71194 1.19665,1.11065 2.77929,1.67331 4.74794,1.68798 0.93531,-0.005 1.78463,-0.0833 2.54796,-0.236 0.76332,-0.15266 1.39664,-0.35132 1.89998,-0.59599 z"
       style="font-size:32px;font-style:oblique;font-variant:normal;font-weight:bold;font-stretch:normal;fill:#5a5e5f;font-family:Myriad Pro;-inkscape-font-specification:Myriad Pro Bold Oblique"
       id="path3027" />
    <path
       d="m 305.43079,208.33997 c -2.82531,0.074 -5.07861,1.046 -6.75991,2.91596 -1.68132,1.86999 -2.54264,4.19396 -2.58397,6.97191 0.028,1.97865 0.63599,3.54929 1.82398,4.71194 1.18798,1.16266 2.78796,1.75731 4.79993,1.78398 2.75529,-0.0553 4.98859,-0.99265 6.69992,-2.81196 1.71129,-1.81931 2.59261,-4.18861 2.64396,-7.10791 -0.014,-1.8373 -0.594,-3.36261 -1.73997,-4.57594 -1.146,-1.21331 -2.77398,-1.84263 -4.88394,-1.88798 z m -0.60799,3.51996 c 0.90064,0.034 1.5393,0.35 1.91597,0.94798 0.37665,0.59801 0.55932,1.274 0.548,2.02798 -0.009,1.42732 -0.35135,2.82064 -1.02799,4.17994 -0.67667,1.35932 -1.63532,2.08865 -2.87596,2.18798 -0.81933,-0.0127 -1.44466,-0.29133 -1.87598,-0.83599 -0.43133,-0.54466 -0.64866,-1.27932 -0.65199,-2.20397 -2e-4,-0.84344 0.14597,-1.74852 0.43851,-2.71523 0.29253,-0.96669 0.73263,-1.79829 1.32028,-2.49478 0.58764,-0.69648 1.32402,-1.06111 2.20916,-1.09391 z"
       style="font-size:32px;font-style:oblique;font-variant:normal;font-weight:bold;font-stretch:normal;fill:#5a5e5f;font-family:Myriad Pro;-inkscape-font-specification:Myriad Pro Bold Oblique"
       id="path3029" />
    <path
       d="m 317.86586,224.37177 1.27998,-7.03991 c 0.29733,-1.57798 0.79865,-2.84596 1.50398,-3.80396 0.70532,-0.95797 1.46264,-1.44996 2.27197,-1.47598 0.55132,0.012 0.93665,0.19601 1.15599,0.552 0.21932,0.356 0.32465,0.812 0.316,1.36798 -0.002,0.27267 -0.022,0.55933 -0.06,0.85999 -0.038,0.30067 -0.082,0.61133 -0.132,0.93199 l -1.63198,8.60789 4.44794,0 1.31199,-7.10391 c 0.32331,-1.60331 0.82064,-2.86862 1.49198,-3.79596 0.6713,-0.9273 1.40063,-1.40063 2.18797,-1.41998 0.52597,0.009 0.91397,0.18268 1.16398,0.52 0.24998,0.33734 0.37398,0.78266 0.372,1.33598 -0.001,0.30667 -0.0227,0.62133 -0.064,0.94399 -0.0413,0.32267 -0.0947,0.63733 -0.16,0.94399 l -1.56798,8.57589 4.47994,0 1.69598,-9.11989 c 0.0666,-0.42198 0.12531,-0.88998 0.176,-1.40398 0.0506,-0.51398 0.0773,-0.94198 0.08,-1.28398 -0.009,-1.33797 -0.34336,-2.37396 -1.00399,-3.10796 -0.66068,-0.73398 -1.59533,-1.10597 -2.80396,-1.11599 -1.03334,-0.002 -2.01466,0.24201 -2.94396,0.73199 -0.92934,0.49001 -1.75067,1.238 -2.46397,2.24397 -0.0547,-0.72597 -0.37735,-1.39396 -0.96799,-2.00397 -0.59067,-0.60998 -1.50533,-0.93397 -2.74397,-0.97199 -1.01599,-0.005 -1.98398,0.22868 -2.90396,0.69999 -0.91999,0.47135 -1.74398,1.20867 -2.47197,2.21197 l -0.064,0 0.288,-2.52796 -3.93595,0 c -0.18667,1.40799 -0.45333,3.10397 -0.79999,5.08793 l -1.95197,10.55987 z"
       style="font-size:32px;font-style:oblique;font-variant:normal;font-weight:bold;font-stretch:normal;fill:#5a5e5f;font-family:Myriad Pro;-inkscape-font-specification:Myriad Pro Bold Oblique"
       id="path3031" />
    <path
       d="m 344.42836,224.37177 1.27998,-7.03991 c 0.29733,-1.57798 0.79865,-2.84596 1.50398,-3.80396 0.70532,-0.95797 1.46264,-1.44996 2.27197,-1.47598 0.55132,0.012 0.93665,0.19601 1.15599,0.552 0.21932,0.356 0.32465,0.812 0.316,1.36798 -0.002,0.27267 -0.022,0.55933 -0.06,0.85999 -0.038,0.30067 -0.082,0.61133 -0.132,0.93199 l -1.63198,8.60789 4.44794,0 1.31199,-7.10391 c 0.32331,-1.60331 0.82064,-2.86862 1.49198,-3.79596 0.6713,-0.9273 1.40063,-1.40063 2.18797,-1.41998 0.52597,0.009 0.91397,0.18268 1.16398,0.52 0.24998,0.33734 0.37398,0.78266 0.372,1.33598 -0.001,0.30667 -0.0227,0.62133 -0.064,0.94399 -0.0413,0.32267 -0.0947,0.63733 -0.16,0.94399 l -1.56798,8.57589 4.47994,0 1.69598,-9.11989 c 0.0666,-0.42198 0.12531,-0.88998 0.176,-1.40398 0.0506,-0.51398 0.0773,-0.94198 0.08,-1.28398 -0.009,-1.33797 -0.34336,-2.37396 -1.00399,-3.10796 -0.66068,-0.73398 -1.59533,-1.10597 -2.80396,-1.11599 -1.03334,-0.002 -2.01466,0.24201 -2.94396,0.73199 -0.92934,0.49001 -1.75067,1.238 -2.46397,2.24397 -0.0547,-0.72597 -0.37735,-1.39396 -0.96799,-2.00397 -0.59067,-0.60998 -1.50533,-0.93397 -2.74397,-0.97199 -1.01599,-0.005 -1.98398,0.22868 -2.90396,0.69999 -0.91999,0.47135 -1.74398,1.20867 -2.47197,2.21197 l -0.064,0 0.288,-2.52796 -3.93595,0 c -0.18667,1.40799 -0.45333,3.10397 -0.79999,5.08793 l -1.95197,10.55987 z"
       style="font-size:32px;font-style:oblique;font-variant:normal;font-weight:bold;font-stretch:normal;fill:#5a5e5f;font-family:Myriad Pro;-inkscape-font-specification:Myriad Pro Bold Oblique"
       id="path3033" />
    <path
       d="m 378.92676,208.72397 -1.37598,7.2639 c -0.32535,1.56599 -0.83467,2.78597 -1.52799,3.65996 -0.69333,0.87399 -1.44265,1.31798 -2.24797,1.33198 -0.56933,-0.0127 -0.97466,-0.18733 -1.21598,-0.52399 -0.24134,-0.33666 -0.35867,-0.75932 -0.352,-1.26799 0.001,-0.29266 0.0227,-0.61932 0.064,-0.97999 0.0413,-0.36065 0.0947,-0.72731 0.16,-1.09998 l 1.59998,-8.38389 -4.60794,0 -1.66398,8.73588 c -0.21866,1.088 -0.32533,2.04798 -0.31999,2.87997 0.01,1.48465 0.36599,2.5873 1.06798,3.30795 0.70199,0.72066 1.68998,1.07932 2.96396,1.07599 0.94998,0.007 1.88197,-0.22266 2.79597,-0.68799 0.91398,-0.46533 1.77397,-1.20665 2.57996,-2.22397 l 0.064,0.032 -0.28799,2.52797 4.06395,0 c 0.0947,-0.704 0.20931,-1.47998 0.34399,-2.32797 0.13465,-0.84799 0.29731,-1.76798 0.48799,-2.75997 l 1.98398,-10.55986 z"
       style="font-size:32px;font-style:oblique;font-variant:normal;font-weight:bold;font-stretch:normal;fill:#5a5e5f;font-family:Myriad Pro;-inkscape-font-specification:Myriad Pro Bold Oblique"
       id="path3035" />
    <path
       d="m 389.05636,224.37177 1.31198,-6.94392 c 0.34866,-1.73463 0.89132,-3.05728 1.62798,-3.96794 0.73665,-0.91065 1.4953,-1.36931 2.27597,-1.37599 0.58332,0.009 0.99264,0.18335 1.22798,0.524 0.23532,0.34067 0.34866,0.79533 0.34,1.36398 -6.8e-4,0.29 -0.0153,0.582 -0.044,0.87599 -0.0287,0.294 -0.0673,0.578 -0.116,0.85199 l -1.66398,8.67189 4.63994,0 1.72798,-9.08789 c 0.0666,-0.40132 0.12532,-0.84664 0.176,-1.33598 0.0507,-0.48932 0.0773,-0.91864 0.08,-1.28798 -0.008,-1.36864 -0.36001,-2.42329 -1.05599,-3.16396 -0.696,-0.74065 -1.68799,-1.11531 -2.97596,-1.12399 -1.046,-0.003 -2.03398,0.23535 -2.96396,0.71599 -0.93,0.48068 -1.76599,1.22333 -2.50797,2.22797 l -0.064,0 0.288,-2.59196 -4.06395,0 c -0.108,0.704 -0.228,1.47999 -0.36,2.32797 -0.132,0.848 -0.29999,1.76799 -0.50399,2.75996 l -1.98397,10.55987 z"
       style="font-size:32px;font-style:oblique;font-variant:normal;font-weight:bold;font-stretch:normal;fill:#5a5e5f;font-family:Myriad Pro;-inkscape-font-specification:Myriad Pro Bold Oblique"
       id="path3037" />
    <path
       d="m 407.08836,224.37177 2.97596,-15.6478 -4.60794,0 -2.97596,15.6478 z m 1.27998,-17.59978 c 0.75732,-0.006 1.39464,-0.23398 1.91198,-0.68399 0.51731,-0.44998 0.78664,-1.08597 0.80799,-1.90797 -0.0113,-0.69664 -0.22868,-1.2473 -0.652,-1.65198 -0.42333,-0.40464 -0.98466,-0.61131 -1.68397,-0.62 -0.72667,0.0114 -1.34532,0.25269 -1.85598,0.724 -0.51066,0.47134 -0.77733,1.10467 -0.79999,1.89997 0.012,0.68134 0.21999,1.22267 0.62399,1.62398 0.40399,0.40135 0.93198,0.60668 1.58398,0.61599 z"
       style="font-size:32px;font-style:oblique;font-variant:normal;font-weight:bold;font-stretch:normal;fill:#5a5e5f;font-family:Myriad Pro;-inkscape-font-specification:Myriad Pro Bold Oblique"
       id="path3039" />
    <path
       d="m 415.07636,205.748 -0.57599,2.94397 -2.01597,0 -0.63999,3.51995 1.98397,0 -1.18398,6.20792 c -0.12667,0.60133 -0.21734,1.13466 -0.272,1.59998 -0.0547,0.46533 -0.0813,0.90266 -0.08,1.31198 -0.003,1.00933 0.33133,1.82265 1.00399,2.43997 0.67265,0.61733 1.7033,0.93466 3.09196,0.95199 0.49532,-6.7e-4 0.99264,-0.0313 1.49198,-0.092 0.49932,-0.0607 0.90865,-0.14733 1.22798,-0.25999 l 0.512,-3.61596 c -0.19601,0.0307 -0.40401,0.0493 -0.624,0.056 -0.22,0.007 -0.428,0.009 -0.62399,0.008 -0.504,-0.007 -0.85599,-0.12933 -1.05598,-0.36799 -0.20001,-0.23866 -0.29601,-0.55333 -0.288,-0.94399 0.003,-0.28266 0.0293,-0.60532 0.08,-0.96799 0.0507,-0.36266 0.10932,-0.70132 0.176,-1.01599 l 1.05598,-5.31193 3.32796,0 0.70399,-3.51995 -3.35996,0 0.79999,-4.22395 z"
       style="font-size:32px;font-style:oblique;font-variant:normal;font-weight:bold;font-stretch:normal;fill:#5a5e5f;font-family:Myriad Pro;-inkscape-font-specification:Myriad Pro Bold Oblique"
       id="path3041" />
    <path
       d="m 423.0974,208.72397 3.07196,14.20781 c 0.0333,0.156 0.0467,0.292 0.04,0.408 -0.007,0.116 -0.0413,0.236 -0.10399,0.35999 -0.30667,0.52933 -0.67733,1.02266 -1.11199,1.47998 -0.43466,0.45733 -0.91732,0.87066 -1.44798,1.23999 -0.45666,0.30266 -0.91932,0.55332 -1.38798,0.75199 -0.46866,0.19866 -0.89133,0.35332 -1.26799,0.46399 l 1.02399,3.96795 c 0.54333,-0.074 1.28065,-0.326 2.21197,-0.75599 0.93132,-0.43 1.86864,-1.07399 2.81197,-1.93197 1.03064,-0.96599 2.03329,-2.17798 3.00796,-3.63596 0.97464,-1.45798 1.97729,-3.22195 3.00796,-5.29193 l 5.59993,-11.26385 -4.86394,0 -2.84797,6.91191 c -0.32933,0.83399 -0.59866,1.53398 -0.80799,2.09997 -0.20933,0.566 -0.39866,1.08199 -0.56799,1.54798 l -0.064,0 c -0.0633,-0.48799 -0.13667,-1.03198 -0.21999,-1.63198 -0.0833,-0.59998 -0.18068,-1.30397 -0.292,-2.11197 l -0.95999,-6.81591 z"
       style="font-size:32px;font-style:oblique;font-variant:normal;font-weight:bold;font-stretch:normal;fill:#5a5e5f;font-family:Myriad Pro;-inkscape-font-specification:Myriad Pro Bold Oblique"
       id="path3043" />
    <path
       d="m 447.18337,230.70768 1.24799,-6.62391 0.096,0 c 0.27999,0.16666 0.67198,0.31333 1.17598,0.43999 0.50399,0.12667 1.07198,0.19333 1.70398,0.2 2.77262,-0.0953 4.97126,-1.15265 6.59591,-3.17196 1.62463,-2.0193 2.45529,-4.4286 2.49197,-7.22791 0.001,-1.66196 -0.41734,-3.05794 -1.25598,-4.18794 -0.83867,-1.12997 -2.10532,-1.71796 -3.79995,-1.76398 -0.95533,0.003 -1.86866,0.22868 -2.73997,0.67599 -0.87133,0.44735 -1.63265,1.09667 -2.28397,1.94798 l -0.064,0 0.288,-2.39997 -4.12795,0 c -0.0993,0.84134 -0.22866,1.83865 -0.38799,2.99196 -0.15934,1.15333 -0.32867,2.21465 -0.508,3.18396 l -3.03996,15.93579 z m 2.55997,-13.59982 c 0.30666,-1.55197 0.81332,-2.76796 1.51998,-3.64795 0.70665,-0.87998 1.50131,-1.32798 2.38397,-1.34399 0.72798,0.0287 1.24797,0.29934 1.55998,0.81199 0.31199,0.51267 0.46398,1.09533 0.456,1.74798 -0.0287,1.61732 -0.45134,3.09463 -1.26799,4.43194 -0.81667,1.33732 -1.85532,2.04665 -3.11596,2.12798 -0.462,-0.003 -0.86599,-0.0693 -1.21198,-0.2 -0.346,-0.13066 -0.646,-0.30933 -0.89999,-0.536 z"
       style="font-size:32px;font-style:oblique;font-variant:normal;font-weight:bold;font-stretch:normal;fill:#5a5e5f;font-family:Myriad Pro;-inkscape-font-specification:Myriad Pro Bold Oblique"
       id="path3045" />
    <path
       d="m 466.46336,224.37177 1.08798,-5.82393 c 0.27199,-1.58131 0.79199,-2.91462 1.55998,-3.99995 0.76799,-1.08531 1.87997,-1.65063 3.33596,-1.69598 0.26132,-0.005 0.50665,0.005 0.73599,0.032 l 0.89599,-4.47994 c -0.28801,-0.0266 -0.576,-0.0373 -0.86399,-0.032 -1.076,0.018 -2.03598,0.35001 -2.87996,0.99599 -0.844,0.646 -1.54799,1.49799 -2.11197,2.55597 l -0.096,0 c 0.062,-0.54332 0.11399,-1.08064 0.15599,-1.61198 0.042,-0.53132 0.086,-1.06064 0.132,-1.58798 l -3.99995,0 c -0.0753,0.704 -0.17266,1.63199 -0.29199,2.78396 -0.11934,1.152 -0.28867,2.33598 -0.508,3.55196 l -1.75997,9.31188 z"
       style="font-size:32px;font-style:oblique;font-variant:normal;font-weight:bold;font-stretch:normal;fill:#5a5e5f;font-family:Myriad Pro;-inkscape-font-specification:Myriad Pro Bold Oblique"
       id="path3047" />
    <path
       d="m 483.55579,208.33997 c -2.82531,0.074 -5.07861,1.046 -6.75991,2.91596 -1.68132,1.86999 -2.54264,4.19396 -2.58397,6.97191 0.028,1.97865 0.63599,3.54929 1.82398,4.71194 1.18798,1.16266 2.78796,1.75731 4.79993,1.78398 2.75529,-0.0553 4.98859,-0.99265 6.69992,-2.81196 1.71129,-1.81931 2.59261,-4.18861 2.64396,-7.10791 -0.014,-1.8373 -0.594,-3.36261 -1.73997,-4.57594 -1.146,-1.21331 -2.77398,-1.84263 -4.88394,-1.88798 z m -0.60799,3.51996 c 0.90064,0.034 1.5393,0.35 1.91597,0.94798 0.37665,0.59801 0.55932,1.274 0.548,2.02798 -0.009,1.42732 -0.35135,2.82064 -1.02799,4.17994 -0.67667,1.35932 -1.63532,2.08865 -2.87596,2.18798 -0.81933,-0.0127 -1.44466,-0.29133 -1.87598,-0.83599 -0.43133,-0.54466 -0.64866,-1.27932 -0.65199,-2.20397 -2e-4,-0.84344 0.14597,-1.74852 0.43851,-2.71523 0.29253,-0.96669 0.73263,-1.79829 1.32028,-2.49478 0.58764,-0.69648 1.32402,-1.06111 2.20916,-1.09391 z"
       style="font-size:32px;font-style:oblique;font-variant:normal;font-weight:bold;font-stretch:normal;fill:#5a5e5f;font-family:Myriad Pro;-inkscape-font-specification:Myriad Pro Bold Oblique"
       id="path3049" />
    <path
       d="m 494.99887,208.72397 -2.91196,15.3278 c -0.26066,1.37198 -0.60333,2.28397 -1.02799,2.73596 -0.42466,0.45199 -0.90332,0.65999 -1.43598,0.624 -0.19066,-6.7e-4 -0.36932,-0.007 -0.53599,-0.02 -0.16666,-0.0127 -0.32933,-0.0273 -0.48799,-0.044 l -0.512,3.45595 c 0.35467,0.0947 0.71733,0.16133 1.08799,0.2 0.37066,0.0387 0.73332,0.0573 1.08798,0.056 0.82866,0.003 1.61932,-0.13067 2.37197,-0.4 0.75266,-0.26933 1.39132,-0.69066 1.91598,-1.26398 0.50865,-0.56666 0.93932,-1.29732 1.29198,-2.19197 0.35266,-0.89466 0.64732,-2.00931 0.88399,-3.34396 l 2.84796,-15.1358 z m 2.68797,-1.95198 c 0.77265,-0.006 1.4193,-0.23398 1.93997,-0.68399 0.52065,-0.44998 0.79132,-1.08597 0.81199,-1.90797 -0.012,-0.69664 -0.228,-1.2473 -0.64799,-1.65198 -0.42,-0.40464 -0.97199,-0.61131 -1.65598,-0.62 -0.72666,0.0114 -1.34532,0.25269 -1.85597,0.724 -0.51067,0.47134 -0.77733,1.10467 -0.79999,1.89997 0.012,0.68134 0.21999,1.22267 0.62399,1.62398 0.40399,0.40135 0.93198,0.60668 1.58398,0.61599 z"
       style="font-size:32px;font-style:oblique;font-variant:normal;font-weight:bold;font-stretch:normal;fill:#5a5e5f;font-family:Myriad Pro;-inkscape-font-specification:Myriad Pro Bold Oblique"
       id="path3051" />
    <path
       d="m 513.12325,220.14782 c -0.62267,0.30733 -1.29733,0.54866 -2.02397,0.72399 -0.72667,0.17533 -1.51333,0.26467 -2.35997,0.268 -0.67533,-6.7e-4 -1.26866,-0.10333 -1.77998,-0.308 -0.51133,-0.20466 -0.92066,-0.50732 -1.22798,-0.90799 -0.15934,-0.23466 -0.28067,-0.50132 -0.364,-0.79999 -0.0833,-0.29865 -0.13267,-0.56532 -0.148,-0.79999 3.18196,0.0993 5.66592,-0.25932 7.45191,-1.07598 1.78596,-0.81665 2.69395,-2.2073 2.72396,-4.17195 -0.0287,-1.46997 -0.53934,-2.61795 -1.53198,-3.44396 -0.99266,-0.82597 -2.29531,-1.24596 -3.90795,-1.25998 -1.89568,0.0318 -3.52292,0.51932 -4.88171,1.4625 -1.3588,0.94321 -2.40294,2.15129 -3.13241,3.62425 -0.72947,1.47298 -1.09806,3.02002 -1.10576,4.64113 0.003,2.06797 0.57266,3.68395 1.70798,4.84793 1.13531,1.16399 2.81662,1.75598 5.04393,1.77598 0.89998,0.006 1.86797,-0.086 2.90397,-0.276 1.03597,-0.18999 2.01996,-0.51399 2.95196,-0.97198 z m -2.04797,-7.10391 c 6.5e-4,0.726 -0.44867,1.23399 -1.34798,1.52398 -0.89933,0.29001 -2.25265,0.422 -4.05995,0.396 0.16066,-0.76465 0.55132,-1.48331 1.17198,-2.15598 0.62066,-0.67264 1.46731,-1.0313 2.53997,-1.07598 0.53265,0.007 0.94731,0.12934 1.24398,0.36799 0.29666,0.23868 0.44732,0.55334 0.452,0.94399 z"
       style="font-size:32px;font-style:oblique;font-variant:normal;font-weight:bold;font-stretch:normal;fill:#5a5e5f;font-family:Myriad Pro;-inkscape-font-specification:Myriad Pro Bold Oblique"
       id="path3053" />
    <path
       d="m 527.93777,220.37182 c -0.39534,0.16667 -0.84467,0.31333 -1.34798,0.43999 -0.50334,0.12667 -1.08867,0.19333 -1.75598,0.2 -0.87,-6.7e-4 -1.59399,-0.27133 -2.17197,-0.81199 -0.578,-0.54066 -0.878,-1.34731 -0.89999,-2.41997 0.0173,-1.52664 0.49465,-2.84929 1.43198,-3.96795 0.93731,-1.11864 2.23063,-1.7053 3.87995,-1.75998 0.45998,0.002 0.85998,0.038 1.19998,0.108 0.33999,0.07 0.64398,0.16201 0.91199,0.276 l 1.15199,-3.55196 c -0.35734,-0.13331 -0.81067,-0.25064 -1.35998,-0.35199 -0.54934,-0.10132 -1.16267,-0.15465 -1.83998,-0.16 -3.0293,0.0653 -5.4746,1.02267 -7.33591,2.87196 -1.86131,1.84933 -2.81863,4.19863 -2.87196,7.04791 0.0327,2.03065 0.64732,3.60129 1.84398,4.71194 1.19665,1.11065 2.77929,1.67331 4.74794,1.68798 0.93531,-0.005 1.78463,-0.0833 2.54796,-0.236 0.76332,-0.15266 1.39664,-0.35132 1.89998,-0.59599 z"
       style="font-size:32px;font-style:oblique;font-variant:normal;font-weight:bold;font-stretch:normal;fill:#5a5e5f;font-family:Myriad Pro;-inkscape-font-specification:Myriad Pro Bold Oblique"
       id="path3055" />
    <path
       d="m 534.45136,205.748 -0.57599,2.94397 -2.01597,0 -0.63999,3.51995 1.98397,0 -1.18398,6.20792 c -0.12667,0.60133 -0.21734,1.13466 -0.272,1.59998 -0.0547,0.46533 -0.0813,0.90266 -0.08,1.31198 -0.003,1.00933 0.33133,1.82265 1.00399,2.43997 0.67265,0.61733 1.7033,0.93466 3.09196,0.95199 0.49532,-6.7e-4 0.99264,-0.0313 1.49198,-0.092 0.49932,-0.0607 0.90865,-0.14733 1.22798,-0.25999 l 0.512,-3.61596 c -0.19601,0.0307 -0.40401,0.0493 -0.624,0.056 -0.22,0.007 -0.428,0.009 -0.62399,0.008 -0.504,-0.007 -0.85599,-0.12933 -1.05598,-0.36799 -0.20001,-0.23866 -0.29601,-0.55333 -0.288,-0.94399 0.003,-0.28266 0.0293,-0.60532 0.08,-0.96799 0.0507,-0.36266 0.10932,-0.70132 0.176,-1.01599 l 1.05598,-5.31193 3.32796,0 0.70399,-3.51995 -3.35996,0 0.79999,-4.22395 z"
       style="font-size:32px;font-style:oblique;font-variant:normal;font-weight:bold;font-stretch:normal;fill:#5a5e5f;font-family:Myriad Pro;-inkscape-font-specification:Myriad Pro Bold Oblique"
       id="path3057" />
  </g>
  <g
     style="font-size:197.53027344px;font-style:normal;font-weight:normal;line-height:125%;letter-spacing:0px;word-spacing:0px;fill:#fba61f;fill-opacity:1;stroke:none;display:inline;font-family:Sans"
     id="text3271">
    <path
       d="m 277.32639,166.23218 c -0.836,3.79373 -2.02555,10.60955 -3.56866,20.44747 -6.94451,1.4789 -12.79582,2.47556 -17.55396,2.98996 -4.75829,0.5144 -9.54865,0.7716 -14.3711,0.7716 -8.42338,0 -15.96257,-0.8359 -22.6176,-2.50771 -6.65511,-1.6718 -12.49034,-4.74213 -17.50573,-9.211 -5.01544,-4.46885 -8.7127,-9.95044 -11.09179,-16.44478 -2.37912,-6.49429 -3.56867,-13.31011 -3.56866,-20.44747 -1e-5,-7.90888 1.38244,-15.57667 4.14736,-23.00341 2.7649,-7.4266 6.63898,-13.50296 11.62226,-18.22911 4.98324,-4.725973 10.65773,-8.069582 17.02349,-10.030834 6.36567,-1.961057 13.02074,-2.941634 19.96522,-2.941735 6.55855,1.01e-4 12.79567,0.819928 18.71136,2.459484 5.91553,1.639752 10.88272,4.324283 14.90157,8.053602 4.01867,3.729503 7.10508,8.214433 9.25924,13.454823 2.15395,5.24054 3.23098,11.07578 3.23108,17.50573 -10e-5,3.02217 -0.3216,6.14073 -0.9645,9.35568 l -70.69809,0.0965 c -0.12864,2.37916 -0.19294,4.27601 -0.1929,5.69057 -4e-5,4.30816 0.73942,8.26262 2.21835,11.86339 1.47887,3.60085 3.63293,6.6551 6.46218,9.16279 2.82916,2.50772 6.20492,4.35635 10.12728,5.54589 3.92226,1.18957 7.78027,1.78435 11.57404,1.78433 4.43665,2e-5 9.24308,-0.48223 14.41933,-1.44675 5.17608,-0.96449 11.33282,-2.60414 18.47023,-4.91897 z m -62.30691,-38.96593 45.13875,0.0965 c -8e-5,-3.08635 -0.0965,-5.36901 -0.28935,-6.84798 -0.19298,-1.47883 -0.627,-3.16671 -1.30208,-5.06364 -0.67523,-1.89678 -1.5915,-3.56858 -2.74883,-5.01542 -1.15748,-1.44667 -2.50778,-2.6523 -4.05091,-3.61688 -1.54328,-0.96442 -3.32761,-1.70388 -5.353,-2.21836 -2.02552,-0.51432 -4.19565,-0.77152 -6.51039,-0.7716 -2.70067,8e-5 -5.3209,0.41803 -7.86071,1.25385 -2.5399,0.83599 -4.87078,2.05769 -6.99265,3.66511 -2.12195,1.60759 -3.84197,3.40799 -5.16009,5.40122 -1.31819,1.99338 -2.29877,3.90631 -2.94173,5.7388 -0.64304,1.83262 -1.28604,4.2921 -1.92901,7.37845 z"
       style="font-variant:normal;font-stretch:normal;fill:#fba61f;font-family:Eras Demi ITC;-inkscape-font-specification:Eras Demi ITC"
       id="path3002" />
    <path
       d="m 300.37802,188.1264 2.79706,-45.8139 0.7716,-26.62029 c 0.12859,-5.46544 0.19289,-10.96311 0.1929,-16.493009 -1e-5,-0.964414 -0.0643,-4.018671 -0.1929,-9.162782 5.9799,0.128699 10.38446,0.192999 13.2137,0.192901 3.27928,9.8e-5 7.61954,-0.0642 13.02079,-0.192901 l -0.48225,13.599501 c 2.44337,-3.47213 4.53312,-6.060209 6.26927,-7.764256 1.73606,-1.703862 3.68114,-3.16669 5.83525,-4.38849 2.154,-1.221606 4.54918,-2.153958 7.18555,-2.797059 2.63624,-0.642902 5.33685,-0.964403 8.10182,-0.964504 2.57194,1.01e-4 5.20825,0.321602 7.90893,0.964504 -7e-5,5.980014 0.28928,13.567435 0.86805,22.762275 -3.79378,-1.02872 -7.23384,-1.54312 -10.32018,-1.5432 -3.72948,8e-5 -7.02486,0.5627 -9.88616,1.68788 -2.86141,1.12533 -5.43342,2.82928 -7.71603,5.11187 -2.2827,2.28272 -4.16348,5.09585 -5.64234,8.4394 -1.22175,2.70067 -2.12195,6.20503 -2.70061,10.51308 -0.51444,3.34367 -0.94847,9.06638 -1.30208,17.16816 -0.35369,8.10186 -0.53051,16.07508 -0.53048,23.91969 -3e-5,3.02211 0.0964,6.81582 0.28935,11.38113 -4.88684,-0.1286 -9.35571,-0.1929 -13.40659,-0.1929 -3.98663,0 -8.74485,0.0643 -14.27465,0.1929 z"
       style="font-variant:normal;font-stretch:normal;fill:#fba61f;font-family:Eras Demi ITC;-inkscape-font-specification:Eras Demi ITC"
       id="path3004" />
    <path
       d="m 437.43394,167.96829 c -0.77168,3.53652 -1.99338,10.09514 -3.66512,19.67586 -5.40128,1.22171 -9.64509,1.99331 -12.73144,2.31481 -3.08646,0.3215 -5.97997,0.48225 -8.68053,0.48225 -4.75826,0 -9.01814,-0.4501 -12.77967,-1.3503 -3.76159,-0.90021 -6.86407,-2.49163 -9.30746,-4.77429 -2.44342,-2.28266 -4.09915,-4.95111 -4.96719,-8.00538 -0.86807,-3.05425 -1.30209,-6.22103 -1.30208,-9.50036 -10e-6,-0.83588 0.0321,-1.96113 0.0965,-3.37576 0.0643,-1.41458 0.32149,-5.97989 0.77161,-13.69595 l 2.21835,-40.12333 -13.88884,0 c 0.32149,-3.85793 0.61084,-10.0629 0.86805,-18.614917 l 14.564,0 c 0.38578,-3.729312 0.77158,-10.062877 1.1574,-19.000715 l 11.38114,-2.218358 c 2.37907,-0.449982 6.97653,-1.510935 13.7924,-3.182861 -0.45015,8.680643 -0.70735,16.814613 -0.7716,24.401934 l 24.49838,0 c -0.45017,8.680618 -0.67522,14.885587 -0.67515,18.614917 l -24.59484,0 c -1.35035,26.17024 -2.0255,41.31292 -2.02545,45.4281 -5e-5,3.98664 0.43398,7.07305 1.30208,9.25923 0.868,2.18623 2.26653,3.76159 4.19559,4.72607 1.92895,0.96452 3.98656,1.44677 6.17282,1.44675 1.60744,2e-5 3.29532,-0.12858 5.06364,-0.3858 1.76819,-0.25718 4.87067,-0.96448 9.30746,-2.1219 z"
       style="font-variant:normal;font-stretch:normal;fill:#fba61f;font-family:Eras Demi ITC;-inkscape-font-specification:Eras Demi ITC"
       id="path3006" />
    <path
       d="m 538.12809,166.23218 c -0.836,3.79373 -2.02555,10.60955 -3.56866,20.44747 -6.94451,1.4789 -12.79583,2.47556 -17.55396,2.98996 -4.75829,0.5144 -9.54865,0.7716 -14.3711,0.7716 -8.42338,0 -15.96258,-0.8359 -22.6176,-2.50771 -6.65511,-1.6718 -12.49035,-4.74213 -17.50574,-9.211 -5.01543,-4.46885 -8.71269,-9.95044 -11.09179,-16.44478 -2.37911,-6.49429 -3.56866,-13.31011 -3.56866,-20.44747 0,-7.90888 1.38245,-15.57667 4.14737,-23.00341 2.76489,-7.4266 6.63898,-13.50296 11.62226,-18.22911 4.98324,-4.725973 10.65773,-8.069582 17.02348,-10.030834 6.36568,-1.961057 13.02075,-2.941634 19.96522,-2.941735 6.55856,1.01e-4 12.79567,0.819928 18.71137,2.459484 5.91553,1.639752 10.88272,4.324283 14.90157,8.053602 4.01867,3.729503 7.10508,8.214433 9.25923,13.454823 2.15396,5.24054 3.23098,11.07578 3.23109,17.50573 -1.1e-4,3.02217 -0.32161,6.14073 -0.9645,9.35568 l -70.6981,0.0965 c -0.12863,2.37916 -0.19293,4.27601 -0.1929,5.69057 -3e-5,4.30816 0.73942,8.26262 2.21836,11.86339 1.47887,3.60085 3.63292,6.6551 6.46217,9.16279 2.82917,2.50772 6.20493,4.35635 10.12729,5.54589 3.92226,1.18957 7.78026,1.78435 11.57404,1.78433 4.43664,2e-5 9.24308,-0.48223 14.41932,-1.44675 5.17609,-0.96449 11.33283,-2.60414 18.47024,-4.91897 z m -62.30691,-38.96593 45.13875,0.0965 c -8e-5,-3.08635 -0.0965,-5.36901 -0.28935,-6.84798 -0.19298,-1.47883 -0.62701,-3.16671 -1.30208,-5.06364 -0.67523,-1.89678 -1.59151,-3.56858 -2.74883,-5.01542 -1.15748,-1.44667 -2.50779,-2.6523 -4.05092,-3.61688 -1.54327,-0.96442 -3.3276,-1.70388 -5.35299,-2.21836 -2.02552,-0.51432 -4.19565,-0.77152 -6.5104,-0.7716 -2.70066,8e-5 -5.3209,0.41803 -7.8607,1.25385 -2.53991,0.83599 -4.87079,2.05769 -6.99265,3.66511 -2.12195,1.60759 -3.84198,3.40799 -5.16009,5.40122 -1.31819,1.99338 -2.29877,3.90631 -2.94174,5.7388 -0.64303,1.83262 -1.28604,4.2921 -1.929,7.37845 z"
       style="font-variant:normal;font-stretch:normal;fill:#fba61f;font-family:Eras Demi ITC;-inkscape-font-specification:Eras Demi ITC"
       id="path3008" />
  </g>
</svg>
