<?xml version="1.0" encoding="UTF-8" standalone="no"?>
<!-- Created with Inkscape (http://www.inkscape.org/) -->

<svg
   xmlns:dc="http://purl.org/dc/elements/1.1/"
   xmlns:cc="http://creativecommons.org/ns#"
   xmlns:rdf="http://www.w3.org/1999/02/22-rdf-syntax-ns#"
   xmlns:svg="http://www.w3.org/2000/svg"
   xmlns="http://www.w3.org/2000/svg"
   xmlns:sodipodi="http://sodipodi.sourceforge.net/DTD/sodipodi-0.dtd"
   xmlns:inkscape="http://www.inkscape.org/namespaces/inkscape"
   width="546.69983"
   height="279.43851"
   id="svg3008"
   version="1.1"
   inkscape:version="0.48.5 r10040"
   sodipodi:docname="xerte_only_logo.svg">
  <defs
     id="defs3010" />
  <sodipodi:namedview
     id="base"
     pagecolor="#ffffff"
     bordercolor="#666666"
     borderopacity="1.0"
     inkscape:pageopacity="0.0"
     inkscape:pageshadow="2"
     inkscape:zoom="0.35"
     inkscape:cx="273.34375"
     inkscape:cy="139.7271"
     inkscape:document-units="px"
     inkscape:current-layer="layer1"
     showgrid="false"
     fit-margin-top="0"
     fit-margin-left="0"
     fit-margin-right="0"
     fit-margin-bottom="0"
     inkscape:window-width="1212"
     inkscape:window-height="633"
     inkscape:window-x="180"
     inkscape:window-y="180"
     inkscape:window-maximized="0" />
  <metadata
     id="metadata3013">
    <rdf:RDF>
      <cc:Work
         rdf:about="">
        <dc:format>image/svg+xml</dc:format>
        <dc:type
           rdf:resource="http://purl.org/dc/dcmitype/StillImage" />
        <dc:title></dc:title>
      </cc:Work>
    </rdf:RDF>
  </metadata>
  <g
     inkscape:label="Layer 1"
     inkscape:groupmode="layer"
     id="layer1"
     transform="translate(-101.65625,-416.9365)">
    <path
       style="fill:#fba61f;fill-opacity:1;stroke:#fba61f;stroke-width:2.20144534;stroke-miterlimit:4;stroke-opacity:1;stroke-dasharray:none;display:inline"
       d="m 131.39624,694.66935 c -10.7136,-1.6682 -28.6516,-7.5619 -28.6516,-9.4138 0,-0.3211 2.4431,-4.2273 5.4292,-8.6805 5.9836,-8.9233 5.1179,-7.6738 50.6335,-73.07334 28.6414,-41.15376 42.9808,-62.06028 45.093,-65.74503 l 0.6993,-1.21984 -1.455,-2.66327 c -2.2949,-4.20069 -26.7896,-40.99198 -28.7892,-43.24171 -0.2847,-0.32036 -4.7673,-2.50027 -9.9612,-4.84426 l -9.4436,-4.26177 -3.0777,-5.05768 c -7.7994,-12.81667 -14.5687,-24.76929 -14.5687,-25.72402 0,-0.55159 2.3011,-2.17344 9.902,-6.97905 13.0159,-8.2293 15.8644,-9.858 16.3361,-9.34048 0.243,0.26658 5.6015,6.78378 11.9077,14.48265 l 11.4659,13.99796 1.0379,6.29069 c 1.366,8.27914 1.8642,10.13603 3.7558,13.99985 2.2112,4.51648 18.5582,28.91584 23.1281,34.52077 0.7401,0.90768 1.5523,1.64327 1.8049,1.63466 0.9212,-0.0314 9.2519,-11.26794 25.859,-34.87898 l 8.2928,-11.79017 -1.6082,-5.10134 c -2.7349,-8.67507 -3.4922,-14.20058 -2.7713,-20.2193 1.4584,-12.17583 7.7145,-20.90473 18.4653,-25.76409 3.8818,-1.75457 14.4855,-4.15746 15.1988,-3.44418 0.3917,0.39171 -0.8694,2.90766 -6.8416,13.64969 -5.8476,10.51771 -7.3777,13.6954 -7.3932,15.35376 -0.035,3.6891 2.8882,10.16336 6.1733,13.6752 3.6308,3.88132 4.898,4.36939 11.2915,4.34915 6.0591,-0.0192 8.3727,-0.56959 11.5386,-2.74499 2.9398,-2.0201 5.089,-4.86098 11.6892,-15.45132 3.2402,-5.19899 6.1365,-9.65622 6.4362,-9.90494 0.7523,-0.62437 1.7877,0.75646 3.311,4.41565 3.9141,9.40214 3.0532,19.51143 -2.3455,27.54124 -5.9886,8.90724 -15.8433,14.68326 -33.3477,19.54563 l -2.524,0.70112 -11.4552,17.16516 c -16.9798,25.44368 -23.6869,35.92593 -23.6869,37.01925 0,0.60744 8.2616,12.67459 18.5921,27.15611 17.8395,25.00776 22.5688,32.07724 22.5688,33.73631 0,0.94665 -1.1692,1.30773 -6.6013,2.03866 -5.5145,0.74201 -25.3932,0.61608 -30.8419,-0.19538 -2.3335,-0.34752 -4.6454,-0.89572 -5.1376,-1.21823 -0.9453,-0.6194 -3.3086,-3.89178 -11.686,-16.18148 -2.83,-4.15165 -6.0181,-8.49893 -7.0846,-9.66061 l -1.9391,-2.11215 -1.1658,1.34292 c -3.236,3.72795 -17.919,25.31313 -51.849,76.22211 l -27.1096,40.67547 -2.9453,-0.038 c -1.6198,-0.021 -4.468,-0.2747 -6.3292,-0.5645 l 0,0 z"
       id="path3189"
       inkscape:connector-curvature="0" />
    <g
       style="font-size:197.53027344px;font-style:normal;font-weight:normal;line-height:125%;letter-spacing:0px;word-spacing:0px;fill:#fba61f;fill-opacity:1;stroke:none;display:inline;font-family:Sans"
       id="text3271">
      <path
         d="m 378.97031,583.15582 c -0.836,3.79374 -2.02555,10.60955 -3.56866,20.44747 -6.94451,1.47891 -12.79582,2.47556 -17.55396,2.98996 -4.75829,0.5144 -9.54865,0.7716 -14.3711,0.77161 -8.42338,-10e-6 -15.96257,-0.83591 -22.6176,-2.50771 -6.6551,-1.67181 -12.49034,-4.74214 -17.50573,-9.21101 -5.01544,-4.46885 -8.7127,-9.95044 -11.09179,-16.44478 -2.37912,-6.49429 -3.56867,-13.31011 -3.56866,-20.44747 -1e-5,-7.90887 1.38244,-15.57667 4.14736,-23.0034 2.7649,-7.4266 6.63898,-13.50297 11.62227,-18.22911 4.98323,-4.72598 10.65772,-8.06959 17.02348,-10.03084 6.36567,-1.96106 13.02074,-2.94163 19.96522,-2.94173 6.55855,10e-5 12.79567,0.81992 18.71136,2.45948 5.91554,1.63975 10.88272,4.32428 14.90158,8.0536 4.01866,3.7295 7.10507,8.21444 9.25923,13.45482 2.15395,5.24054 3.23098,11.07578 3.23108,17.50574 -1e-4,3.02216 -0.3216,6.14072 -0.9645,9.35568 l -70.69809,0.0964 c -0.12864,2.37916 -0.19294,4.27601 -0.1929,5.69057 -4e-5,4.30815 0.73942,8.26261 2.21836,11.86339 1.47886,3.60084 3.63292,6.6551 6.46217,9.16278 2.82916,2.50773 6.20492,4.35636 10.12728,5.54589 3.92226,1.18957 7.78027,1.78435 11.57404,1.78434 4.43665,10e-6 9.24308,-0.48224 14.41933,-1.44676 5.17608,-0.96448 11.33282,-2.60414 18.47023,-4.91897 z m -62.30691,-38.96593 45.13876,0.0965 c -8e-5,-3.08635 -0.0965,-5.369 -0.28936,-6.84797 -0.19298,-1.47884 -0.627,-3.16672 -1.30207,-5.06364 -0.67524,-1.89679 -1.59151,-3.56859 -2.74884,-5.01542 -1.15748,-1.44668 -2.50778,-2.6523 -4.05091,-3.61689 -1.54328,-0.96442 -3.32761,-1.70387 -5.353,-2.21836 -2.02552,-0.51431 -4.19565,-0.77151 -6.51039,-0.7716 -2.70067,9e-5 -5.3209,0.41804 -7.86071,1.25386 -2.5399,0.83598 -4.87078,2.05768 -6.99264,3.66511 -2.12195,1.60758 -3.84198,3.40799 -5.1601,5.40122 -1.31819,1.99338 -2.29877,3.90631 -2.94173,5.73879 -0.64304,1.83262 -1.28604,4.2921 -1.92901,7.37845 z"
         style="font-variant:normal;font-stretch:normal;fill:#fba61f;font-family:Eras Demi ITC;-inkscape-font-specification:Eras Demi ITC"
         id="path3028" />
      <path
         d="m 402.02194,605.05005 2.79706,-45.81391 0.7716,-26.62029 c 0.12859,-5.46544 0.19289,-10.9631 0.1929,-16.493 -1e-5,-0.96442 -0.0643,-4.01868 -0.1929,-9.16279 5.9799,0.1287 10.38446,0.193 13.2137,0.19291 3.27928,9e-5 7.61954,-0.0642 13.02079,-0.19291 l -0.48225,13.5995 c 2.44337,-3.47212 4.53312,-6.0602 6.26927,-7.76425 1.73606,-1.70386 3.68114,-3.16669 5.83525,-4.38849 2.154,-1.22161 4.54918,-2.15396 7.18555,-2.79706 2.63624,-0.6429 5.33685,-0.9644 8.10182,-0.9645 2.57194,10e-5 5.20825,0.3216 7.90893,0.9645 -7e-5,5.98001 0.28928,13.56743 0.86805,22.76228 -3.79378,-1.02873 -7.23384,-1.54313 -10.32018,-1.54321 -3.72947,8e-5 -7.02486,0.56271 -9.88616,1.68788 -2.86141,1.12533 -5.43342,2.82929 -7.71603,5.11187 -2.2827,2.28273 -4.16348,5.09586 -5.64234,8.4394 -1.22174,2.70067 -2.12195,6.20503 -2.70061,10.51309 -0.51444,3.34366 -0.94847,9.06637 -1.30208,17.16816 -0.35369,8.10185 -0.53051,16.07507 -0.53048,23.91968 -3e-5,3.02212 0.0964,6.81583 0.28936,11.38114 -4.88685,-0.1286 -9.35571,-0.1929 -13.4066,-0.1929 -3.98663,0 -8.74485,0.0643 -14.27465,0.1929 z"
         style="font-variant:normal;font-stretch:normal;fill:#fba61f;font-family:Eras Demi ITC;-inkscape-font-specification:Eras Demi ITC"
         id="path3030" />
      <path
         d="m 539.07786,584.89193 c -0.77168,3.53653 -1.99338,10.09514 -3.66512,19.67587 -5.40128,1.2217 -9.64509,1.9933 -12.73144,2.31481 -3.08646,0.32149 -5.97997,0.48224 -8.68053,0.48225 -4.75826,-10e-6 -9.01814,-0.45011 -12.77967,-1.35031 -3.76159,-0.9002 -6.86407,-2.49163 -9.30745,-4.77429 -2.44343,-2.28265 -4.09916,-4.95111 -4.9672,-8.00538 -0.86807,-3.05424 -1.30209,-6.22102 -1.30208,-9.50035 -10e-6,-0.83588 0.0321,-1.96114 0.0965,-3.37577 0.0643,-1.41457 0.32149,-5.97989 0.77161,-13.69594 l 2.21835,-40.12334 -13.88884,0 c 0.32149,-3.85793 0.61084,-10.06289 0.86805,-18.61491 l 14.564,0 c 0.38578,-3.72931 0.77158,-10.06288 1.1574,-19.00072 l 11.38114,-2.21835 c 2.37907,-0.44999 6.97654,-1.51094 13.7924,-3.18287 -0.45015,8.68065 -0.70735,16.81462 -0.7716,24.40194 l 24.49838,0 c -0.45017,8.68062 -0.67522,14.88558 -0.67515,18.61491 l -24.59484,0 c -1.35034,26.17024 -2.0255,41.31293 -2.02545,45.42811 -5e-5,3.98664 0.43398,7.07305 1.30208,9.25923 0.868,2.18623 2.26653,3.76158 4.19559,4.72606 1.92895,0.96453 3.98656,1.44678 6.17282,1.44676 1.60745,2e-5 3.29532,-0.12858 5.06364,-0.3858 1.76819,-0.25719 4.87068,-0.96449 9.30746,-2.12191 z"
         style="font-variant:normal;font-stretch:normal;fill:#fba61f;font-family:Eras Demi ITC;-inkscape-font-specification:Eras Demi ITC"
         id="path3032" />
      <path
         d="m 639.77201,583.15582 c -0.836,3.79374 -2.02555,10.60955 -3.56866,20.44747 -6.94451,1.47891 -12.79583,2.47556 -17.55396,2.98996 -4.75829,0.5144 -9.54865,0.7716 -14.3711,0.77161 -8.42338,-10e-6 -15.96258,-0.83591 -22.6176,-2.50771 -6.65511,-1.67181 -12.49035,-4.74214 -17.50574,-9.21101 -5.01543,-4.46885 -8.71269,-9.95044 -11.09178,-16.44478 -2.37912,-6.49429 -3.56867,-13.31011 -3.56867,-20.44747 0,-7.90887 1.38245,-15.57667 4.14737,-23.0034 2.76489,-7.4266 6.63898,-13.50297 11.62226,-18.22911 4.98324,-4.72598 10.65773,-8.06959 17.02348,-10.03084 6.36568,-1.96106 13.02075,-2.94163 19.96522,-2.94173 6.55856,10e-5 12.79567,0.81992 18.71137,2.45948 5.91553,1.63975 10.88272,4.32428 14.90157,8.0536 4.01867,3.7295 7.10508,8.21444 9.25923,13.45482 2.15396,5.24054 3.23098,11.07578 3.23109,17.50574 -1.1e-4,3.02216 -0.32161,6.14072 -0.9645,9.35568 l -70.69809,0.0964 c -0.12864,2.37916 -0.19294,4.27601 -0.1929,5.69057 -4e-5,4.30815 0.73941,8.26261 2.21835,11.86339 1.47887,3.60084 3.63293,6.6551 6.46217,9.16278 2.82917,2.50773 6.20493,4.35636 10.12729,5.54589 3.92226,1.18957 7.78027,1.78435 11.57404,1.78434 4.43665,10e-6 9.24308,-0.48224 14.41932,-1.44676 5.17609,-0.96448 11.33283,-2.60414 18.47024,-4.91897 z m -62.30691,-38.96593 45.13875,0.0965 c -8e-5,-3.08635 -0.0965,-5.369 -0.28935,-6.84797 -0.19298,-1.47884 -0.627,-3.16672 -1.30208,-5.06364 -0.67523,-1.89679 -1.59151,-3.56859 -2.74883,-5.01542 -1.15748,-1.44668 -2.50778,-2.6523 -4.05092,-3.61689 -1.54327,-0.96442 -3.3276,-1.70387 -5.35299,-2.21836 -2.02552,-0.51431 -4.19565,-0.77151 -6.5104,-0.7716 -2.70066,9e-5 -5.32089,0.41804 -7.8607,1.25386 -2.53991,0.83598 -4.87079,2.05768 -6.99265,3.66511 -2.12195,1.60758 -3.84198,3.40799 -5.16009,5.40122 -1.31819,1.99338 -2.29877,3.90631 -2.94174,5.73879 -0.64303,1.83262 -1.28603,4.2921 -1.929,7.37845 z"
         style="font-variant:normal;font-stretch:normal;fill:#fba61f;font-family:Eras Demi ITC;-inkscape-font-specification:Eras Demi ITC"
         id="path3034" />
    </g>
  </g>
</svg>
