<?xml version="1.0" encoding="UTF-8" standalone="no"?>
<!-- Created with Inkscape (http://www.inkscape.org/) -->

<svg
   xmlns:dc="http://purl.org/dc/elements/1.1/"
   xmlns:cc="http://creativecommons.org/ns#"
   xmlns:rdf="http://www.w3.org/1999/02/22-rdf-syntax-ns#"
   xmlns:svg="http://www.w3.org/2000/svg"
   xmlns="http://www.w3.org/2000/svg"
   xmlns:sodipodi="http://sodipodi.sourceforge.net/DTD/sodipodi-0.dtd"
   xmlns:inkscape="http://www.inkscape.org/namespaces/inkscape"
   width="168"
   height="40"
   id="svg3021"
   version="1.1"
   inkscape:version="0.48.5 r10040"
   sodipodi:docname="glossary.svg">
  <defs
     id="defs3023" />
  <sodipodi:namedview
     id="base"
     pagecolor="#ffffff"
     bordercolor="#666666"
     borderopacity="1.0"
     inkscape:pageopacity="0.0"
     inkscape:pageshadow="2"
     inkscape:zoom="5.6"
     inkscape:cx="75.378271"
     inkscape:cy="10.477229"
     inkscape:document-units="px"
     inkscape:current-layer="layer1"
     showgrid="false"
     inkscape:window-width="1718"
     inkscape:window-height="559"
     inkscape:window-x="1"
     inkscape:window-y="387"
     inkscape:window-maximized="0"
     fit-margin-top="0"
     fit-margin-left="0"
     fit-margin-right="0"
     fit-margin-bottom="0"
     showguides="true"
     inkscape:guide-bbox="true">
    <sodipodi:guide
       orientation="1,0"
       position="-52.21226,21.465742"
       id="guide3767" />
  </sodipodi:namedview>
  <metadata
     id="metadata3026">
    <rdf:RDF>
      <cc:Work
         rdf:about="">
        <dc:format>image/svg+xml</dc:format>
        <dc:type
           rdf:resource="http://purl.org/dc/dcmitype/StillImage" />
        <dc:title />
      </cc:Work>
    </rdf:RDF>
  </metadata>
  <g
     inkscape:label="Layer 1"
     inkscape:groupmode="layer"
     id="layer1"
     transform="translate(-291,-512.36218)">
    <rect
       style="fill:none;fill-opacity:1;stroke:none"
       id="rect3777"
       width="168.39287"
       height="40"
       x="291"
       y="512.54077" />
    <g
       id="g3764">
      <rect
         inkscape:export-ydpi="90"
         inkscape:export-xdpi="90"
         inkscape:export-filename="H:\svgs\xerte_buttons_test.png"
         y="512.36218"
         x="291"
         height="40"
         width="42"
         id="next"
         style="fill:none;fill-opacity:1;stroke:none;stroke-width:0;stroke-miterlimit:4;stroke-dasharray:none" />
      <rect
         inkscape:export-ydpi="90"
         inkscape:export-xdpi="90"
         inkscape:export-filename="H:\svgs\xerte_buttons_test.png"
         style="fill:none;fill-opacity:1;stroke:none"
         id="rect3766"
         width="42"
         height="40"
         x="333"
         y="512.36218" />
      <rect
         inkscape:export-ydpi="90"
         inkscape:export-xdpi="90"
         inkscape:export-filename="H:\svgs\xerte_buttons_test.png"
         y="512.36218"
         x="375"
         height="40"
         width="42"
         id="rect3768"
         style="fill:none;fill-opacity:1;stroke:none" />
      <rect
         inkscape:export-filename="H:\svgs\xerte_buttons_test.png"
         inkscape:export-ydpi="90"
         inkscape:export-xdpi="90"
         style="fill:none;fill-opacity:1;stroke:none"
         id="rect3770"
         width="42"
         height="40"
         x="417"
         y="512.36218" />
    </g>
    <path
       sodipodi:type="arc"
       style="fill:#ffffff;fill-opacity:1;stroke:#be0f34;stroke-width:0.95918375000000000;stroke-miterlimit:4;stroke-dasharray:none;stroke-opacity:1"
       id="path3807"
       sodipodi:cx="99.464287"
       sodipodi:cy="98.076469"
       sodipodi:rx="16.785715"
       sodipodi:ry="16.785715"
       d="m 116.25,98.076469 c 0,9.270491 -7.51522,16.785711 -16.785713,16.785711 -9.270495,0 -16.785715,-7.51522 -16.785715,-16.785711 0,-9.270494 7.51522,-16.785715 16.785715,-16.785715 9.270493,0 16.785713,7.515221 16.785713,16.785715 z"
       transform="matrix(1.0425531,0,0,1.0425531,208.3032,430.11226)"
       inkscape:export-filename="H:\svgs\xerte_buttons_test.png"
       inkscape:export-xdpi="90"
       inkscape:export-ydpi="90" />
    <path
       transform="matrix(1.0425531,0,0,1.0425531,250.3032,430.11226)"
       d="m 116.25,98.076469 c 0,9.270491 -7.51522,16.785711 -16.785713,16.785711 -9.270495,0 -16.785715,-7.51522 -16.785715,-16.785711 0,-9.270494 7.51522,-16.785715 16.785715,-16.785715 9.270493,0 16.785713,7.515221 16.785713,16.785715 z"
       sodipodi:ry="16.785715"
       sodipodi:rx="16.785715"
       sodipodi:cy="98.076469"
       sodipodi:cx="99.464287"
       id="path3809"
       style="fill:#ffffff;fill-opacity:1;stroke:#be0f34;stroke-width:0.95918375000000000;stroke-miterlimit:4;stroke-dasharray:none;stroke-opacity:1"
       sodipodi:type="arc"
       inkscape:export-filename="H:\svgs\xerte_buttons_test.png"
       inkscape:export-xdpi="90"
       inkscape:export-ydpi="90" />
    <path
       sodipodi:type="arc"
       style="fill:#be0f34;fill-opacity:1;stroke:#be0f34;stroke-width:0.95918375000000000;stroke-miterlimit:4;stroke-dasharray:none;stroke-opacity:1"
       id="path3811"
       sodipodi:cx="99.464287"
       sodipodi:cy="98.076469"
       sodipodi:rx="16.785715"
       sodipodi:ry="16.785715"
       d="m 116.25,98.076469 c 0,9.270491 -7.51522,16.785711 -16.785713,16.785711 -9.270495,0 -16.785715,-7.51522 -16.785715,-16.785711 0,-9.270494 7.51522,-16.785715 16.785715,-16.785715 9.270493,0 16.785713,7.515221 16.785713,16.785715 z"
       transform="matrix(1.0425531,0,0,1.0425531,292.3032,430.11226)"
       inkscape:export-filename="H:\svgs\xerte_buttons_test.png"
       inkscape:export-xdpi="90"
       inkscape:export-ydpi="90" />
    <path
       transform="matrix(1.0425531,0,0,1.0425531,334.3032,430.11226)"
       d="m 116.25,98.076469 c 0,9.270491 -7.51522,16.785711 -16.785713,16.785711 -9.270495,0 -16.785715,-7.51522 -16.785715,-16.785711 0,-9.270494 7.51522,-16.785715 16.785715,-16.785715 9.270493,0 16.785713,7.515221 16.785713,16.785715 z"
       sodipodi:ry="16.785715"
       sodipodi:rx="16.785715"
       sodipodi:cy="98.076469"
       sodipodi:cx="99.464287"
       id="path3813"
       style="fill:#be0f34;fill-opacity:1;stroke:#be0f34;stroke-width:0.95918375000000000;stroke-miterlimit:4;stroke-dasharray:none;stroke-opacity:1"
       sodipodi:type="arc"
       inkscape:export-filename="H:\svgs\xerte_buttons_test.png"
       inkscape:export-xdpi="90"
       inkscape:export-ydpi="90" />
    <path
       inkscape:export-ydpi="90"
       inkscape:export-xdpi="90"
       inkscape:export-filename="H:\svgs\xerte_buttons_test.png"
       transform="matrix(0.69089827,0,0,0.69089827,327.2803,464.60132)"
       d="m 116.25,98.076469 c 0,9.270491 -7.51522,16.785711 -16.785713,16.785711 -9.270495,0 -16.785715,-7.51522 -16.785715,-16.785711 0,-9.270494 7.51522,-16.785715 16.785715,-16.785715 9.270493,0 16.785713,7.515221 16.785713,16.785715 z"
       sodipodi:ry="16.785715"
       sodipodi:rx="16.785715"
       sodipodi:cy="98.076469"
       sodipodi:cx="99.464287"
       id="path3009"
       style="fill:#be0f34;fill-opacity:1;stroke:none"
       sodipodi:type="arc" />
    <g
       style="font-size:13.37098503000000000px;font-style:normal;font-weight:normal;line-height:125%;letter-spacing:0px;word-spacing:0px;fill:#be0f34;fill-opacity:1;stroke:none;font-family:Sans"
       id="text3002"
       transform="translate(-0.5,0)">
      <path
         d="m 301.31508,537.1745 3.69623,-9.62463 1.37213,0 3.93914,9.62463 -1.45091,0 -1.12266,-2.91496 -4.02449,0 -1.057,2.91496 z m 2.7771,-3.95227 3.26292,0 -1.00448,-2.66549 c -0.30639,-0.8097 -0.53398,-1.47498 -0.68279,-1.99583 -0.12255,0.61714 -0.29544,1.2299 -0.51865,1.83827 z"
         style="font-size:13.44560051000000000px;fill:#be0f34;fill-opacity:1"
         id="path3019"
         inkscape:connector-curvature="0" />
      <path
         d="m 310.74276,534.2858 0,-1.18831 3.63057,0 0,1.18831 z"
         style="font-size:13.44560051000000000px;fill:#be0f34;fill-opacity:1"
         id="path3021"
         inkscape:connector-curvature="0" />
      <path
         d="m 315.07581,537.1745 0,-1.18174 4.9305,-6.16476 c 0.35014,-0.43767 0.68277,-0.81846 0.99791,-1.14235 l -5.37036,0 0,-1.13578 6.8935,0 0,1.13578 -5.40319,6.67684 -0.58431,0.67622 6.14506,0 0,1.13579 z"
         style="font-size:13.44560051000000000px;fill:#be0f34;fill-opacity:1"
         id="path3023"
         inkscape:connector-curvature="0" />
    </g>
    <g
       style="font-size:13.37098503000000000px;font-style:normal;font-weight:normal;line-height:125%;letter-spacing:0px;word-spacing:0px;fill:#000000;fill-opacity:1;stroke:none;font-family:Sans"
       id="text3006"
       transform="translate(-0.5,0)">
      <path
         d="m 343.31508,537.1745 3.69623,-9.62463 1.37213,0 3.93914,9.62463 -1.45091,0 -1.12266,-2.91496 -4.02449,0 -1.057,2.91496 z m 2.7771,-3.95227 3.26292,0 -1.00448,-2.66549 c -0.30639,-0.8097 -0.53398,-1.47498 -0.68279,-1.99583 -0.12255,0.61714 -0.29544,1.2299 -0.51865,1.83827 z"
         style="font-size:13.44560051000000000px;fill:#000000"
         id="path3026"
         inkscape:connector-curvature="0" />
      <path
         d="m 352.74276,534.2858 0,-1.18831 3.63057,0 0,1.18831 z"
         style="font-size:13.44560051000000000px;fill:#000000"
         id="path3028"
         inkscape:connector-curvature="0" />
      <path
         d="m 357.07581,537.1745 0,-1.18174 4.9305,-6.16476 c 0.35014,-0.43767 0.68277,-0.81846 0.99791,-1.14235 l -5.37036,0 0,-1.13578 6.8935,0 0,1.13578 -5.40319,6.67684 -0.58431,0.67622 6.14506,0 0,1.13579 z"
         style="font-size:13.44560051000000000px;fill:#000000"
         id="path3030"
         inkscape:connector-curvature="0" />
    </g>
    <g
       style="font-size:13.37098503000000000px;font-style:normal;font-weight:normal;line-height:125%;letter-spacing:0px;word-spacing:0px;fill:#000000;fill-opacity:1;stroke:none;font-family:Sans"
       id="text3010"
       transform="translate(-0.5,0)">
      <path
         d="m 385.31508,537.1745 3.69623,-9.62463 1.37213,0 3.93914,9.62463 -1.45091,0 -1.12266,-2.91496 -4.02449,0 -1.057,2.91496 z m 2.7771,-3.95227 3.26292,0 -1.00448,-2.66549 c -0.30639,-0.8097 -0.53398,-1.47498 -0.68279,-1.99583 -0.12255,0.61714 -0.29544,1.2299 -0.51865,1.83827 z"
         style="font-size:13.44560051000000000px;fill:#000000"
         id="path3033"
         inkscape:connector-curvature="0" />
      <path
         d="m 394.74276,534.2858 0,-1.18831 3.63057,0 0,1.18831 z"
         style="font-size:13.44560051000000000px;fill:#000000"
         id="path3035"
         inkscape:connector-curvature="0" />
      <path
         d="m 399.07581,537.1745 0,-1.18174 4.9305,-6.16476 c 0.35014,-0.43767 0.68277,-0.81846 0.99791,-1.14235 l -5.37036,0 0,-1.13578 6.8935,0 0,1.13578 -5.40319,6.67684 -0.58431,0.67622 6.14506,0 0,1.13579 z"
         style="font-size:13.44560051000000000px;fill:#000000"
         id="path3037"
         inkscape:connector-curvature="0" />
    </g>
    <g
       style="font-size:13.37098503000000000px;font-style:normal;font-weight:normal;line-height:125%;letter-spacing:0px;word-spacing:0px;fill:#000000;fill-opacity:1;stroke:none;font-family:Sans"
       id="text3014"
       transform="translate(-0.5,0)">
      <path
         d="m 427.31508,537.1745 3.69623,-9.62463 1.37213,0 3.93914,9.62463 -1.45091,0 -1.12266,-2.91496 -4.02449,0 -1.057,2.91496 z m 2.7771,-3.95227 3.26292,0 -1.00448,-2.66549 c -0.30639,-0.8097 -0.53398,-1.47498 -0.68279,-1.99583 -0.12255,0.61714 -0.29544,1.2299 -0.51865,1.83827 z"
         style="font-size:13.44560051000000000px;fill:#000000"
         id="path3040"
         inkscape:connector-curvature="0" />
      <path
         d="m 436.74276,534.2858 0,-1.18831 3.63057,0 0,1.18831 z"
         style="font-size:13.44560051000000000px;fill:#000000"
         id="path3042"
         inkscape:connector-curvature="0" />
      <path
         d="m 441.07581,537.1745 0,-1.18174 4.9305,-6.16476 c 0.35014,-0.43767 0.68277,-0.81846 0.99791,-1.14235 l -5.37036,0 0,-1.13578 6.8935,0 0,1.13578 -5.40319,6.67684 -0.58431,0.67622 6.14506,0 0,1.13579 z"
         style="font-size:13.44560051000000000px;fill:#000000"
         id="path3044"
         inkscape:connector-curvature="0" />
    </g>
  </g>
</svg>
