<?xml version="1.0" encoding="UTF-8" standalone="no"?>
<!-- Created with Inkscape (http://www.inkscape.org/) -->

<svg
   xmlns:dc="http://purl.org/dc/elements/1.1/"
   xmlns:cc="http://creativecommons.org/ns#"
   xmlns:rdf="http://www.w3.org/1999/02/22-rdf-syntax-ns#"
   xmlns:svg="http://www.w3.org/2000/svg"
   xmlns="http://www.w3.org/2000/svg"
   xmlns:sodipodi="http://sodipodi.sourceforge.net/DTD/sodipodi-0.dtd"
   xmlns:inkscape="http://www.inkscape.org/namespaces/inkscape"
   width="168"
   height="40"
   id="svg3021"
   version="1.1"
   inkscape:version="0.48.5 r10040"
   sodipodi:docname="media.svg">
  <defs
     id="defs3023" />
  <sodipodi:namedview
     id="base"
     pagecolor="#ffffff"
     bordercolor="#666666"
     borderopacity="1.0"
     inkscape:pageopacity="0.0"
     inkscape:pageshadow="2"
     inkscape:zoom="7.9195959"
     inkscape:cx="87.100506"
     inkscape:cy="22.061562"
     inkscape:document-units="px"
     inkscape:current-layer="layer1"
     showgrid="false"
     inkscape:window-width="1718"
     inkscape:window-height="863"
     inkscape:window-x="30"
     inkscape:window-y="30"
     inkscape:window-maximized="0"
     fit-margin-top="0"
     fit-margin-left="0"
     fit-margin-right="0"
     fit-margin-bottom="0"
     showguides="true"
     inkscape:guide-bbox="true">
    <sodipodi:guide
       orientation="1,0"
       position="-52.21226,21.465742"
       id="guide3767" />
  </sodipodi:namedview>
  <metadata
     id="metadata3026">
    <rdf:RDF>
      <cc:Work
         rdf:about="">
        <dc:format>image/svg+xml</dc:format>
        <dc:type
           rdf:resource="http://purl.org/dc/dcmitype/StillImage" />
        <dc:title />
      </cc:Work>
    </rdf:RDF>
  </metadata>
  <g
     inkscape:label="Layer 1"
     inkscape:groupmode="layer"
     id="layer1"
     transform="translate(-291,-512.36218)">
    <rect
       style="fill:none;fill-opacity:1;stroke:none"
       id="rect3777"
       width="168.39287"
       height="40"
       x="291"
       y="512.54077" />
    <g
       id="g3764">
      <rect
         inkscape:export-ydpi="90"
         inkscape:export-xdpi="90"
         inkscape:export-filename="H:\svgs\xerte_buttons_test.png"
         y="512.36218"
         x="291"
         height="40"
         width="42"
         id="next"
         style="fill:none;fill-opacity:1;stroke:none;stroke-width:0;stroke-miterlimit:4;stroke-dasharray:none" />
      <rect
         inkscape:export-ydpi="90"
         inkscape:export-xdpi="90"
         inkscape:export-filename="H:\svgs\xerte_buttons_test.png"
         style="fill:none;fill-opacity:1;stroke:none"
         id="rect3766"
         width="42"
         height="40"
         x="333"
         y="512.36218" />
      <rect
         inkscape:export-ydpi="90"
         inkscape:export-xdpi="90"
         inkscape:export-filename="H:\svgs\xerte_buttons_test.png"
         y="512.36218"
         x="375"
         height="40"
         width="42"
         id="rect3768"
         style="fill:none;fill-opacity:1;stroke:none" />
      <rect
         inkscape:export-filename="H:\svgs\xerte_buttons_test.png"
         inkscape:export-ydpi="90"
         inkscape:export-xdpi="90"
         style="fill:none;fill-opacity:1;stroke:none"
         id="rect3770"
         width="42"
         height="40"
         x="417"
         y="512.36218" />
    </g>
    <path
       sodipodi:type="arc"
       style="fill:#ffab38;fill-opacity:1;stroke:#ffab38;stroke-width:0.95918375000000000;stroke-miterlimit:4;stroke-dasharray:none"
       id="path3807"
       sodipodi:cx="99.464287"
       sodipodi:cy="98.076469"
       sodipodi:rx="16.785715"
       sodipodi:ry="16.785715"
       d="m 116.25,98.076469 c 0,9.270491 -7.51522,16.785711 -16.785713,16.785711 -9.270495,0 -16.785715,-7.51522 -16.785715,-16.785711 0,-9.270494 7.51522,-16.785715 16.785715,-16.785715 9.270493,0 16.785713,7.515221 16.785713,16.785715 z"
       transform="matrix(1.0425531,0,0,1.0425531,208.3032,430.11226)"
       inkscape:export-filename="H:\svgs\xerte_buttons_test.png"
       inkscape:export-xdpi="90"
       inkscape:export-ydpi="90" />
    <path
       transform="matrix(1.0425531,0,0,1.0425531,250.3032,430.11226)"
       d="m 116.25,98.076469 c 0,9.270491 -7.51522,16.785711 -16.785713,16.785711 -9.270495,0 -16.785715,-7.51522 -16.785715,-16.785711 0,-9.270494 7.51522,-16.785715 16.785715,-16.785715 9.270493,0 16.785713,7.515221 16.785713,16.785715 z"
       sodipodi:ry="16.785715"
       sodipodi:rx="16.785715"
       sodipodi:cy="98.076469"
       sodipodi:cx="99.464287"
       id="path3809"
       style="fill:#7c097d;fill-opacity:1;stroke:#7c097d;stroke-width:0.95918375000000000;stroke-miterlimit:4;stroke-dasharray:none"
       sodipodi:type="arc"
       inkscape:export-filename="H:\svgs\xerte_buttons_test.png"
       inkscape:export-xdpi="90"
       inkscape:export-ydpi="90" />
    <path
       sodipodi:type="arc"
       style="fill:#ffab38;fill-opacity:1;stroke:#ffab38;stroke-width:0.95918375000000000;stroke-miterlimit:4;stroke-dasharray:none"
       id="path3811"
       sodipodi:cx="99.464287"
       sodipodi:cy="98.076469"
       sodipodi:rx="16.785715"
       sodipodi:ry="16.785715"
       d="m 116.25,98.076469 c 0,9.270491 -7.51522,16.785711 -16.785713,16.785711 -9.270495,0 -16.785715,-7.51522 -16.785715,-16.785711 0,-9.270494 7.51522,-16.785715 16.785715,-16.785715 9.270493,0 16.785713,7.515221 16.785713,16.785715 z"
       transform="matrix(1.0425531,0,0,1.0425531,292.3032,430.11226)"
       inkscape:export-filename="H:\svgs\xerte_buttons_test.png"
       inkscape:export-xdpi="90"
       inkscape:export-ydpi="90" />
    <path
       transform="matrix(1.0425531,0,0,1.0425531,334.3032,430.11226)"
       d="m 116.25,98.076469 c 0,9.270491 -7.51522,16.785711 -16.785713,16.785711 -9.270495,0 -16.785715,-7.51522 -16.785715,-16.785711 0,-9.270494 7.51522,-16.785715 16.785715,-16.785715 9.270493,0 16.785713,7.515221 16.785713,16.785715 z"
       sodipodi:ry="16.785715"
       sodipodi:rx="16.785715"
       sodipodi:cy="98.076469"
       sodipodi:cx="99.464287"
       id="path3813"
       style="fill:#ffab38;fill-opacity:1;stroke:#ffab38;stroke-width:0.95918375000000000;stroke-miterlimit:4;stroke-dasharray:none"
       sodipodi:type="arc"
       inkscape:export-filename="H:\svgs\xerte_buttons_test.png"
       inkscape:export-xdpi="90"
       inkscape:export-ydpi="90" />
    <path
       id="path3102"
       d="m 301.82813,523.17469 0,18.375 5.34375,0 0,-3.78125 9.65625,0 0,3.78125 5.34375,0 0,-18.375 -5.34375,0 0,4.3125 -9.65625,0 0,-4.3125 -5.34375,0 z m 1.53125,1.625 2.21875,0 0,2.25 -2.21875,0 0,-2.25 z m 15,0.3125 2.21875,0 0,2.21875 -2.21875,0 0,-2.21875 z m -15,4.09375 2.21875,0 0,2.21875 -2.21875,0 0,-2.21875 z m 15,0.1875 2.21875,0 0,2.21875 -2.21875,0 0,-2.21875 z m -11.1875,0.375 9.65625,0 0,5.71875 -9.65625,0 0,-5.71875 z m -3.8125,3.84375 2.21875,0 0,2.21875 -2.21875,0 0,-2.21875 z m 15,0.0312 2.21875,0 0,2.25 -2.21875,0 0,-2.25 z m 0,4.28125 2.21875,0 0,2.21875 -2.21875,0 0,-2.21875 z m -15,0.0937 2.21875,0 0,2.21875 -2.21875,0 0,-2.21875 z"
       style="fill:#7c097d;fill-opacity:1;stroke:none"
       inkscape:connector-curvature="0" />
    <path
       inkscape:connector-curvature="0"
       style="fill:#ffab38;fill-opacity:1;stroke:none"
       d="m 343.82813,523.17469 0,18.375 5.34375,0 0,-3.78125 9.65625,0 0,3.78125 5.34375,0 0,-18.375 -5.34375,0 0,4.3125 -9.65625,0 0,-4.3125 -5.34375,0 z m 1.53125,1.625 2.21875,0 0,2.25 -2.21875,0 0,-2.25 z m 15,0.3125 2.21875,0 0,2.21875 -2.21875,0 0,-2.21875 z m -15,4.09375 2.21875,0 0,2.21875 -2.21875,0 0,-2.21875 z m 15,0.1875 2.21875,0 0,2.21875 -2.21875,0 0,-2.21875 z m -11.1875,0.375 9.65625,0 0,5.71875 -9.65625,0 0,-5.71875 z m -3.8125,3.84375 2.21875,0 0,2.21875 -2.21875,0 0,-2.21875 z m 15,0.0312 2.21875,0 0,2.25 -2.21875,0 0,-2.25 z m 0,4.28125 2.21875,0 0,2.21875 -2.21875,0 0,-2.21875 z m -15,0.0937 2.21875,0 0,2.21875 -2.21875,0 0,-2.21875 z"
       id="path3104" />
    <path
       id="path3106"
       d="m 385.82813,523.17469 0,18.375 5.34375,0 0,-3.78125 9.65625,0 0,3.78125 5.34375,0 0,-18.375 -5.34375,0 0,4.3125 -9.65625,0 0,-4.3125 -5.34375,0 z m 1.53125,1.625 2.21875,0 0,2.25 -2.21875,0 0,-2.25 z m 15,0.3125 2.21875,0 0,2.21875 -2.21875,0 0,-2.21875 z m -15,4.09375 2.21875,0 0,2.21875 -2.21875,0 0,-2.21875 z m 15,0.1875 2.21875,0 0,2.21875 -2.21875,0 0,-2.21875 z m -11.1875,0.375 9.65625,0 0,5.71875 -9.65625,0 0,-5.71875 z m -3.8125,3.84375 2.21875,0 0,2.21875 -2.21875,0 0,-2.21875 z m 15,0.0312 2.21875,0 0,2.25 -2.21875,0 0,-2.25 z m 0,4.28125 2.21875,0 0,2.21875 -2.21875,0 0,-2.21875 z m -15,0.0937 2.21875,0 0,2.21875 -2.21875,0 0,-2.21875 z"
       style="fill:#7c097d;fill-opacity:1;stroke:none"
       inkscape:connector-curvature="0" />
    <path
       inkscape:connector-curvature="0"
       style="fill:#7c097d;fill-opacity:1;stroke:none"
       d="m 427.82813,523.17469 0,18.375 5.34375,0 0,-3.78125 9.65625,0 0,3.78125 5.34375,0 0,-18.375 -5.34375,0 0,4.3125 -9.65625,0 0,-4.3125 -5.34375,0 z m 1.53125,1.625 2.21875,0 0,2.25 -2.21875,0 0,-2.25 z m 15,0.3125 2.21875,0 0,2.21875 -2.21875,0 0,-2.21875 z m -15,4.09375 2.21875,0 0,2.21875 -2.21875,0 0,-2.21875 z m 15,0.1875 2.21875,0 0,2.21875 -2.21875,0 0,-2.21875 z m -11.1875,0.375 9.65625,0 0,5.71875 -9.65625,0 0,-5.71875 z m -3.8125,3.84375 2.21875,0 0,2.21875 -2.21875,0 0,-2.21875 z m 15,0.0312 2.21875,0 0,2.25 -2.21875,0 0,-2.25 z m 0,4.28125 2.21875,0 0,2.21875 -2.21875,0 0,-2.21875 z m -15,0.0937 2.21875,0 0,2.21875 -2.21875,0 0,-2.21875 z"
       id="path3108" />
  </g>
</svg>
