<?xml version="1.0" encoding="UTF-8" standalone="no"?>
<!-- Created with Inkscape (http://www.inkscape.org/) -->

<svg
   xmlns:dc="http://purl.org/dc/elements/1.1/"
   xmlns:cc="http://creativecommons.org/ns#"
   xmlns:rdf="http://www.w3.org/1999/02/22-rdf-syntax-ns#"
   xmlns:svg="http://www.w3.org/2000/svg"
   xmlns="http://www.w3.org/2000/svg"
   xmlns:sodipodi="http://sodipodi.sourceforge.net/DTD/sodipodi-0.dtd"
   xmlns:inkscape="http://www.inkscape.org/namespaces/inkscape"
   width="168"
   height="40"
   id="svg3021"
   version="1.1"
   inkscape:version="0.91 r13725"
   sodipodi:docname="save_session.svg">
  <defs
     id="defs3023" />
  <sodipodi:namedview
     id="base"
     pagecolor="#ffffff"
     bordercolor="#666666"
     borderopacity="1.0"
     inkscape:pageopacity="0.0"
     inkscape:pageshadow="2"
     inkscape:zoom="5.6"
     inkscape:cx="82.957843"
     inkscape:cy="37.577174"
     inkscape:document-units="px"
     inkscape:current-layer="layer1"
     showgrid="false"
     inkscape:window-width="1798"
     inkscape:window-height="889"
     inkscape:window-x="30"
     inkscape:window-y="31"
     inkscape:window-maximized="0"
     fit-margin-top="0"
     fit-margin-left="0"
     fit-margin-right="0"
     fit-margin-bottom="0"
     showguides="true"
     inkscape:guide-bbox="true">
    <sodipodi:guide
       orientation="1,0"
       position="-52.21226,21.465742"
       id="guide3767" />
    <sodipodi:guide
       position="65.78125,80.580357"
       orientation="0,1"
       id="guide4175" />
  </sodipodi:namedview>
  <metadata
     id="metadata3026">
    <rdf:RDF>
      <cc:Work
         rdf:about="">
        <dc:format>image/svg+xml</dc:format>
        <dc:type
           rdf:resource="http://purl.org/dc/dcmitype/StillImage" />
        <dc:title />
      </cc:Work>
    </rdf:RDF>
  </metadata>
  <g
     inkscape:label="Layer 1"
     inkscape:groupmode="layer"
     id="layer1"
     transform="translate(-291,-512.36218)">
    <rect
       style="fill:none;fill-opacity:1;stroke:none"
       id="rect3777"
       width="168.39287"
       height="40"
       x="291"
       y="512.54077" />
    <g
       id="g3764">
      <rect
         inkscape:export-ydpi="90"
         inkscape:export-xdpi="90"
         inkscape:export-filename="H:\svgs\xerte_buttons_test.png"
         y="512.36218"
         x="291"
         height="40"
         width="42"
         id="next"
         style="fill:none;fill-opacity:1;stroke:none;stroke-width:0;stroke-miterlimit:4;stroke-dasharray:none" />
      <rect
         inkscape:export-ydpi="90"
         inkscape:export-xdpi="90"
         inkscape:export-filename="H:\svgs\xerte_buttons_test.png"
         style="fill:none;fill-opacity:1;stroke:none"
         id="rect3766"
         width="42"
         height="40"
         x="333"
         y="512.36218" />
      <rect
         inkscape:export-ydpi="90"
         inkscape:export-xdpi="90"
         inkscape:export-filename="H:\svgs\xerte_buttons_test.png"
         y="512.36218"
         x="375"
         height="40"
         width="42"
         id="rect3768"
         style="fill:none;fill-opacity:1;stroke:none" />
      <rect
         inkscape:export-filename="H:\svgs\xerte_buttons_test.png"
         inkscape:export-ydpi="90"
         inkscape:export-xdpi="90"
         style="fill:none;fill-opacity:1;stroke:none"
         id="rect3770"
         width="42"
         height="40"
         x="417"
         y="512.36218" />
    </g>
    <path
       sodipodi:type="arc"
       style="fill:#7c097d;fill-opacity:1;stroke:#7c097d;stroke-width:0.95918375;stroke-miterlimit:4;stroke-dasharray:none;stroke-opacity:1"
       id="path3807"
       sodipodi:cx="99.464287"
       sodipodi:cy="98.076469"
       sodipodi:rx="16.785715"
       sodipodi:ry="16.785715"
       d="M 116.25,98.076469 A 16.785715,16.785715 0 0 1 99.464287,114.86218 16.785715,16.785715 0 0 1 82.678572,98.076469 16.785715,16.785715 0 0 1 99.464287,81.290754 16.785715,16.785715 0 0 1 116.25,98.076469 Z"
       transform="matrix(1.0425531,0,0,1.0425531,208.3032,430.11226)"
       inkscape:export-filename="H:\svgs\xerte_buttons_test.png"
       inkscape:export-xdpi="90"
       inkscape:export-ydpi="90" />
    <path
       transform="matrix(1.0425531,0,0,1.0425531,250.3032,430.11226)"
       d="M 116.25,98.076469 A 16.785715,16.785715 0 0 1 99.464287,114.86218 16.785715,16.785715 0 0 1 82.678572,98.076469 16.785715,16.785715 0 0 1 99.464287,81.290754 16.785715,16.785715 0 0 1 116.25,98.076469 Z"
       sodipodi:ry="16.785715"
       sodipodi:rx="16.785715"
       sodipodi:cy="98.076469"
       sodipodi:cx="99.464287"
       id="path3809"
       style="fill:#ffab38;fill-opacity:1;stroke:#ffab38;stroke-width:0.95918375;stroke-miterlimit:4;stroke-dasharray:none;stroke-opacity:1"
       sodipodi:type="arc"
       inkscape:export-filename="H:\svgs\xerte_buttons_test.png"
       inkscape:export-xdpi="90"
       inkscape:export-ydpi="90" />
    <path
       sodipodi:type="arc"
       style="fill:#7c097d;fill-opacity:1;stroke:#7c097d;stroke-width:0.95918375;stroke-miterlimit:4;stroke-dasharray:none;stroke-opacity:1"
       id="path3811"
       sodipodi:cx="99.464287"
       sodipodi:cy="98.076469"
       sodipodi:rx="16.785715"
       sodipodi:ry="16.785715"
       d="M 116.25,98.076469 A 16.785715,16.785715 0 0 1 99.464287,114.86218 16.785715,16.785715 0 0 1 82.678572,98.076469 16.785715,16.785715 0 0 1 99.464287,81.290754 16.785715,16.785715 0 0 1 116.25,98.076469 Z"
       transform="matrix(1.0425531,0,0,1.0425531,292.3032,430.11226)"
       inkscape:export-filename="H:\svgs\xerte_buttons_test.png"
       inkscape:export-xdpi="90"
       inkscape:export-ydpi="90" />
    <path
       transform="matrix(1.0425531,0,0,1.0425531,334.3032,430.11226)"
       d="M 116.25,98.076469 A 16.785715,16.785715 0 0 1 99.464287,114.86218 16.785715,16.785715 0 0 1 82.678572,98.076469 16.785715,16.785715 0 0 1 99.464287,81.290754 16.785715,16.785715 0 0 1 116.25,98.076469 Z"
       sodipodi:ry="16.785715"
       sodipodi:rx="16.785715"
       sodipodi:cy="98.076469"
       sodipodi:cx="99.464287"
       id="path3813"
       style="fill:#7c097d;fill-opacity:1;stroke:#7c097d;stroke-width:0.95918375;stroke-miterlimit:4;stroke-dasharray:none;stroke-opacity:1"
       sodipodi:type="arc"
       inkscape:export-filename="H:\svgs\xerte_buttons_test.png"
       inkscape:export-xdpi="90"
       inkscape:export-ydpi="90" />
    <path
       id="path4171"
       style="fill:#ffab38;fill-opacity:1;fill-rule:evenodd;stroke:#ffab38;stroke-width:1;stroke-linecap:butt;stroke-linejoin:miter;stroke-miterlimit:4;stroke-dasharray:none;stroke-opacity:1"
       d="m 320.92265,528.717 -3.64463,-4.38758 c -0.84542,-0.97508 -2.6535,-0.88957 -2.6535,-0.88957 l -8.69856,4e-5 c -2.99431,10e-6 -2.88887,2.02664 -2.88887,2.02664 0,0 0.037,12.80231 0.037,14.12813 0,1.32583 1.76777,1.65234 1.76777,1.65234 0,0 11.55362,0.10011 14.01586,-0.0262 2.46225,-0.12627 2.08344,-2.32066 2.08344,-2.32066 z m -14.67187,-4.92535 0,5.79436 c 0,0.57036 0.46236,1.03272 1.03273,1.03272 l 7.57331,0 c 0.57037,0 1.03273,-0.46236 1.03273,-1.03272 l 0,-5.76859 m -2.00641,12.06918 a 2.6632586,2.6632586 0 0 1 -2.66326,2.66326 2.6632586,2.6632586 0 0 1 -2.66326,-2.66326 2.6632586,2.6632586 0 0 1 2.66326,-2.66326 2.6632586,2.6632586 0 0 1 2.66326,2.66326 z" />
    <path
       d="m 362.92265,528.717 -3.64463,-4.38758 c -0.84542,-0.97508 -2.6535,-0.88957 -2.6535,-0.88957 l -8.69856,4e-5 c -2.99431,10e-6 -2.88887,2.02664 -2.88887,2.02664 0,0 0.037,12.80231 0.037,14.12813 0,1.32583 1.76777,1.65234 1.76777,1.65234 0,0 11.55362,0.10011 14.01586,-0.0262 2.46225,-0.12627 2.08344,-2.32066 2.08344,-2.32066 z m -14.67187,-4.92535 0,5.79436 c 0,0.57036 0.46236,1.03272 1.03273,1.03272 l 7.57331,0 c 0.57037,0 1.03273,-0.46236 1.03273,-1.03272 l 0,-5.76859 m -2.00641,12.06918 a 2.6632586,2.6632586 0 0 1 -2.66326,2.66326 2.6632586,2.6632586 0 0 1 -2.66326,-2.66326 2.6632586,2.6632586 0 0 1 2.66326,-2.66326 2.6632586,2.6632586 0 0 1 2.66326,2.66326 z"
       style="fill:#7c097d;fill-opacity:1;fill-rule:evenodd;stroke:#7c097d;stroke-width:1;stroke-linecap:butt;stroke-linejoin:miter;stroke-miterlimit:4;stroke-dasharray:none;stroke-opacity:1"
       id="path4167"
       inkscape:connector-curvature="0" />
    <path
       d="m 446.92265,528.717 -3.64463,-4.38758 c -0.84542,-0.97508 -2.6535,-0.88957 -2.6535,-0.88957 l -8.69856,4e-5 c -2.99431,10e-6 -2.88887,2.02664 -2.88887,2.02664 0,0 0.037,12.80231 0.037,14.12813 0,1.32583 1.76777,1.65234 1.76777,1.65234 0,0 11.55362,0.10011 14.01586,-0.0262 2.46225,-0.12627 2.08344,-2.32066 2.08344,-2.32066 z m -14.67187,-4.92535 0,5.79436 c 0,0.57036 0.46236,1.03272 1.03273,1.03272 l 7.57331,0 c 0.57037,0 1.03273,-0.46236 1.03273,-1.03272 l 0,-5.76859 m -2.00641,12.06918 a 2.6632586,2.6632586 0 0 1 -2.66326,2.66326 2.6632586,2.6632586 0 0 1 -2.66326,-2.66326 2.6632586,2.6632586 0 0 1 2.66326,-2.66326 2.6632586,2.6632586 0 0 1 2.66326,2.66326 z"
       style="fill:#ffab38;fill-opacity:1;fill-rule:evenodd;stroke:#ffab38;stroke-width:1;stroke-linecap:butt;stroke-linejoin:miter;stroke-miterlimit:4;stroke-dasharray:none;stroke-opacity:1"
       id="path4177"
       inkscape:connector-curvature="0" />
    <path
       inkscape:connector-curvature="0"
       id="path4179"
       style="fill:#ffab38;fill-opacity:1;fill-rule:evenodd;stroke:#ffab38;stroke-width:1;stroke-linecap:butt;stroke-linejoin:miter;stroke-miterlimit:4;stroke-dasharray:none;stroke-opacity:1"
       d="m 404.92265,528.717 -3.64463,-4.38758 c -0.84542,-0.97508 -2.6535,-0.88957 -2.6535,-0.88957 l -8.69856,4e-5 c -2.99431,10e-6 -2.88887,2.02664 -2.88887,2.02664 0,0 0.037,12.80231 0.037,14.12813 0,1.32583 1.76777,1.65234 1.76777,1.65234 0,0 11.55362,0.10011 14.01586,-0.0262 2.46225,-0.12627 2.08344,-2.32066 2.08344,-2.32066 z m -14.67187,-4.92535 0,5.79436 c 0,0.57036 0.46236,1.03272 1.03273,1.03272 l 7.57331,0 c 0.57037,0 1.03273,-0.46236 1.03273,-1.03272 l 0,-5.76859 m -2.00641,12.06918 a 2.6632586,2.6632586 0 0 1 -2.66326,2.66326 2.6632586,2.6632586 0 0 1 -2.66326,-2.66326 2.6632586,2.6632586 0 0 1 2.66326,-2.66326 2.6632586,2.6632586 0 0 1 2.66326,2.66326 z" />
  </g>
</svg>
