<?xml version="1.0" encoding="UTF-8" standalone="no"?>
<!-- Created with Inkscape (http://www.inkscape.org/) -->

<svg
   xmlns:dc="http://purl.org/dc/elements/1.1/"
   xmlns:cc="http://creativecommons.org/ns#"
   xmlns:rdf="http://www.w3.org/1999/02/22-rdf-syntax-ns#"
   xmlns:svg="http://www.w3.org/2000/svg"
   xmlns="http://www.w3.org/2000/svg"
   xmlns:sodipodi="http://sodipodi.sourceforge.net/DTD/sodipodi-0.dtd"
   xmlns:inkscape="http://www.inkscape.org/namespaces/inkscape"
   width="168"
   height="40"
   id="svg3021"
   version="1.1"
   inkscape:version="0.48.5 r10040"
   sodipodi:docname="glossary.svg">
  <defs
     id="defs3023" />
  <sodipodi:namedview
     id="base"
     pagecolor="#ffffff"
     bordercolor="#666666"
     borderopacity="1.0"
     inkscape:pageopacity="0.0"
     inkscape:pageshadow="2"
     inkscape:zoom="5.6"
     inkscape:cx="76.155099"
     inkscape:cy="10.477229"
     inkscape:document-units="px"
     inkscape:current-layer="layer1"
     showgrid="false"
     inkscape:window-width="1718"
     inkscape:window-height="863"
     inkscape:window-x="30"
     inkscape:window-y="30"
     inkscape:window-maximized="0"
     fit-margin-top="0"
     fit-margin-left="0"
     fit-margin-right="0"
     fit-margin-bottom="0"
     showguides="true"
     inkscape:guide-bbox="true">
    <sodipodi:guide
       orientation="1,0"
       position="-52.21226,21.465742"
       id="guide3767" />
  </sodipodi:namedview>
  <metadata
     id="metadata3026">
    <rdf:RDF>
      <cc:Work
         rdf:about="">
        <dc:format>image/svg+xml</dc:format>
        <dc:type
           rdf:resource="http://purl.org/dc/dcmitype/StillImage" />
        <dc:title />
      </cc:Work>
    </rdf:RDF>
  </metadata>
  <g
     inkscape:label="Layer 1"
     inkscape:groupmode="layer"
     id="layer1"
     transform="translate(-291,-512.36218)">
    <rect
       style="fill:none;fill-opacity:1;stroke:none"
       id="rect3777"
       width="168.39287"
       height="40"
       x="291"
       y="512.54077" />
    <g
       id="g3764">
      <rect
         inkscape:export-ydpi="90"
         inkscape:export-xdpi="90"
         inkscape:export-filename="H:\svgs\xerte_buttons_test.png"
         y="512.36218"
         x="291"
         height="40"
         width="42"
         id="next"
         style="fill:none;fill-opacity:1;stroke:none;stroke-width:0;stroke-miterlimit:4;stroke-dasharray:none" />
      <rect
         inkscape:export-ydpi="90"
         inkscape:export-xdpi="90"
         inkscape:export-filename="H:\svgs\xerte_buttons_test.png"
         style="fill:none;fill-opacity:1;stroke:none"
         id="rect3766"
         width="42"
         height="40"
         x="333"
         y="512.36218" />
      <rect
         inkscape:export-ydpi="90"
         inkscape:export-xdpi="90"
         inkscape:export-filename="H:\svgs\xerte_buttons_test.png"
         y="512.36218"
         x="375"
         height="40"
         width="42"
         id="rect3768"
         style="fill:none;fill-opacity:1;stroke:none" />
      <rect
         inkscape:export-filename="H:\svgs\xerte_buttons_test.png"
         inkscape:export-ydpi="90"
         inkscape:export-xdpi="90"
         style="fill:none;fill-opacity:1;stroke:none"
         id="rect3770"
         width="42"
         height="40"
         x="417"
         y="512.36218" />
    </g>
    <path
       sodipodi:type="arc"
       style="fill:none;fill-opacity:1;stroke:none"
       id="path3807"
       sodipodi:cx="99.464287"
       sodipodi:cy="98.076469"
       sodipodi:rx="16.785715"
       sodipodi:ry="16.785715"
       d="m 116.25,98.076469 a 16.785715,16.785715 0 1 1 -33.571428,0 16.785715,16.785715 0 1 1 33.571428,0 z"
       transform="matrix(1.0425531,0,0,1.0425531,208.67563,430.11226)"
       inkscape:export-filename="H:\svgs\xerte_buttons_test.png"
       inkscape:export-xdpi="90"
       inkscape:export-ydpi="90" />
    <path
       transform="matrix(1.0425531,0,0,1.0425531,250.64755,430.11226)"
       d="m 116.25,98.076469 a 16.785715,16.785715 0 1 1 -33.571428,0 16.785715,16.785715 0 1 1 33.571428,0 z"
       sodipodi:ry="16.785715"
       sodipodi:rx="16.785715"
       sodipodi:cy="98.076469"
       sodipodi:cx="99.464287"
       id="path3809"
       style="fill:none;fill-opacity:1;stroke:none"
       sodipodi:type="arc"
       inkscape:export-filename="H:\svgs\xerte_buttons_test.png"
       inkscape:export-xdpi="90"
       inkscape:export-ydpi="90" />
    <path
       sodipodi:type="arc"
       style="fill:none;fill-opacity:1;stroke:none"
       id="path3811"
       sodipodi:cx="99.464287"
       sodipodi:cy="98.076469"
       sodipodi:rx="16.785715"
       sodipodi:ry="16.785715"
       d="m 116.25,98.076469 a 16.785715,16.785715 0 1 1 -33.571428,0 16.785715,16.785715 0 1 1 33.571428,0 z"
       transform="matrix(1.0425531,0,0,1.0425531,292.64755,430.11226)"
       inkscape:export-filename="H:\svgs\xerte_buttons_test.png"
       inkscape:export-xdpi="90"
       inkscape:export-ydpi="90" />
    <path
       transform="matrix(1.0425531,0,0,1.0425531,333.83128,430.11226)"
       d="m 116.25,98.076469 a 16.785715,16.785715 0 1 1 -33.571428,0 16.785715,16.785715 0 1 1 33.571428,0 z"
       sodipodi:ry="16.785715"
       sodipodi:rx="16.785715"
       sodipodi:cy="98.076469"
       sodipodi:cx="99.464287"
       id="path3813"
       style="fill:none;fill-opacity:1;stroke:none"
       sodipodi:type="arc"
       inkscape:export-filename="H:\svgs\xerte_buttons_test.png"
       inkscape:export-xdpi="90"
       inkscape:export-ydpi="90" />
    <path
       style="fill-opacity:0;stroke:none;stroke-width:2.92119455000000010;stroke-linecap:round;stroke-linejoin:round;fill:#ffffff"
       inkscape:connector-curvature="0"
       id="path109"
       d="m 309.37323,517.56287 c -4.189,0.42415 -8.48724,3.49667 -10.52857,7.17153 -10.62731,19.12856 11.37396,26.12774 21.82015,20.90465 15.33686,-7.66872 7.31058,-26.33807 -11.59656,-28.22867" />
    <g
       id="g3028"
       transform="translate(0.08466322,1.2570739)"
       style="stroke:#d3d7cf">
      <g
         id="g3024"
         style="stroke:#d3d7cf">
        <path
           style="fill-opacity:0;stroke:#d3d7cf;stroke-width:1.75271678000000010;stroke-linecap:round;stroke-linejoin:round"
           inkscape:connector-curvature="0"
           id="path111"
           d="m 302.18832,535.82567 c 3.96114,-15.53842 4.15218,-11.47562 6.7947,0.67947" />
        <path
           style="fill-opacity:0;stroke:#d3d7cf;stroke-width:1.75271678000000010;stroke-linecap:round;stroke-linejoin:round"
           inkscape:connector-curvature="0"
           id="path113"
           d="m 303.11492,532.11984 c 1.48923,0.0788 2.9504,-0.0795 4.3853,-0.30906" />
      </g>
      <path
         d="m 311.1447,530.88418 c 0.76711,0.025 1.52312,-0.0315 2.28554,-0.0619"
         id="path115"
         inkscape:connector-curvature="0"
         style="fill-opacity:0;stroke:#d3d7cf;stroke-width:1.75271678000000010;stroke-linecap:round;stroke-linejoin:round" />
      <path
         d="m 315.22152,526.00403 c 18.85924,-0.0356 -12.59444,9.76029 7.16569,9.76029"
         id="path117"
         inkscape:connector-curvature="0"
         style="fill-opacity:0;stroke:#d3d7cf;stroke-width:1.75271678000000010;stroke-linecap:round;stroke-linejoin:round" />
    </g>
    <path
       d="m 351.34515,517.56287 c -4.189,0.42415 -8.48724,3.49667 -10.52857,7.17153 -10.62731,19.12856 11.37396,26.12774 21.82015,20.90465 15.33686,-7.66872 7.31058,-26.33807 -11.59656,-28.22867"
       id="path3035"
       inkscape:connector-curvature="0"
       style="fill-opacity:0;stroke:none;stroke-width:2.92119455000000010;stroke-linecap:round;stroke-linejoin:round" />
    <g
       transform="translate(42.056588,1.2570739)"
       id="g3037"
       style="stroke:#000000">
      <g
         id="g3039"
         style="stroke:#000000">
        <path
           d="m 302.18832,535.82567 c 3.96114,-15.53842 4.15218,-11.47562 6.7947,0.67947"
           id="path3041"
           inkscape:connector-curvature="0"
           style="fill-opacity:0;stroke:#000000;stroke-width:1.75271678000000010;stroke-linecap:round;stroke-linejoin:round" />
        <path
           d="m 303.11492,532.11984 c 1.48923,0.0788 2.9504,-0.0795 4.3853,-0.30906"
           id="path3043"
           inkscape:connector-curvature="0"
           style="fill-opacity:0;stroke:#000000;stroke-width:1.75271678000000010;stroke-linecap:round;stroke-linejoin:round" />
      </g>
      <path
         style="fill-opacity:0;stroke:#000000;stroke-width:1.75271678000000010;stroke-linecap:round;stroke-linejoin:round"
         inkscape:connector-curvature="0"
         id="path3045"
         d="m 311.1447,530.88418 c 0.76711,0.025 1.52312,-0.0315 2.28554,-0.0619" />
      <path
         style="fill-opacity:0;stroke:#000000;stroke-width:1.75271678000000010;stroke-linecap:round;stroke-linejoin:round"
         inkscape:connector-curvature="0"
         id="path3047"
         d="m 315.22152,526.00403 c 18.85924,-0.0356 -12.59444,9.76029 7.16569,9.76029" />
    </g>
    <path
       style="fill-opacity:0;stroke:none;stroke-width:2.92119455000000010;stroke-linecap:round;stroke-linejoin:round"
       inkscape:connector-curvature="0"
       id="path3049"
       d="m 393.34515,517.56287 c -4.189,0.42415 -8.48724,3.49667 -10.52857,7.17153 -10.62731,19.12856 11.37396,26.12774 21.82015,20.90465 15.33686,-7.66872 7.31058,-26.33807 -11.59656,-28.22867" />
    <g
       id="g3051"
       transform="translate(84.056588,1.2570739)"
       style="stroke:#000000">
      <g
         id="g3053"
         style="stroke:#000000">
        <path
           style="fill-opacity:0;stroke:#000000;stroke-width:1.75271678000000010;stroke-linecap:round;stroke-linejoin:round"
           inkscape:connector-curvature="0"
           id="path3055"
           d="m 302.18832,535.82567 c 3.96114,-15.53842 4.15218,-11.47562 6.7947,0.67947" />
        <path
           style="fill-opacity:0;stroke:#000000;stroke-width:1.75271678000000010;stroke-linecap:round;stroke-linejoin:round"
           inkscape:connector-curvature="0"
           id="path3057"
           d="m 303.11492,532.11984 c 1.48923,0.0788 2.9504,-0.0795 4.3853,-0.30906" />
      </g>
      <path
         d="m 311.1447,530.88418 c 0.76711,0.025 1.52312,-0.0315 2.28554,-0.0619"
         id="path3059"
         inkscape:connector-curvature="0"
         style="fill-opacity:0;stroke:#000000;stroke-width:1.75271678000000010;stroke-linecap:round;stroke-linejoin:round" />
      <path
         d="m 315.22152,526.00403 c 18.85924,-0.0356 -12.59444,9.76029 7.16569,9.76029"
         id="path3061"
         inkscape:connector-curvature="0"
         style="fill-opacity:0;stroke:#000000;stroke-width:1.75271678000000010;stroke-linecap:round;stroke-linejoin:round" />
    </g>
    <path
       d="m 434.52888,517.56287 c -4.189,0.42415 -8.48724,3.49667 -10.52857,7.17153 -10.62731,19.12856 11.37396,26.12774 21.82015,20.90465 15.33686,-7.66872 7.31058,-26.33807 -11.59656,-28.22867"
       id="path3063"
       inkscape:connector-curvature="0"
       style="fill-opacity:0;stroke:none;stroke-width:2.92119455000000010;stroke-linecap:round;stroke-linejoin:round" />
    <g
       transform="translate(125.24031,1.2570739)"
       id="g3065"
       style="stroke:#000000">
      <g
         id="g3067"
         style="stroke:#000000">
        <path
           d="m 302.18832,535.82567 c 3.96114,-15.53842 4.15218,-11.47562 6.7947,0.67947"
           id="path3069"
           inkscape:connector-curvature="0"
           style="fill-opacity:0;stroke:#000000;stroke-width:1.75271678000000010;stroke-linecap:round;stroke-linejoin:round" />
        <path
           d="m 303.11492,532.11984 c 1.48923,0.0788 2.9504,-0.0795 4.3853,-0.30906"
           id="path3071"
           inkscape:connector-curvature="0"
           style="fill-opacity:0;stroke:#000000;stroke-width:1.75271678000000010;stroke-linecap:round;stroke-linejoin:round" />
      </g>
      <path
         style="fill-opacity:0;stroke:#000000;stroke-width:1.75271678000000010;stroke-linecap:round;stroke-linejoin:round"
         inkscape:connector-curvature="0"
         id="path3073"
         d="m 311.1447,530.88418 c 0.76711,0.025 1.52312,-0.0315 2.28554,-0.0619" />
      <path
         style="fill-opacity:0;stroke:#000000;stroke-width:1.75271678000000010;stroke-linecap:round;stroke-linejoin:round"
         inkscape:connector-curvature="0"
         id="path3075"
         d="m 315.22152,526.00403 c 18.85924,-0.0356 -12.59444,9.76029 7.16569,9.76029" />
    </g>
  </g>
</svg>
