<?xml version="1.0" encoding="UTF-8" standalone="no"?>
<!-- Created with Inkscape (http://www.inkscape.org/) -->

<svg
   xmlns:dc="http://purl.org/dc/elements/1.1/"
   xmlns:cc="http://creativecommons.org/ns#"
   xmlns:rdf="http://www.w3.org/1999/02/22-rdf-syntax-ns#"
   xmlns:svg="http://www.w3.org/2000/svg"
   xmlns="http://www.w3.org/2000/svg"
   xmlns:sodipodi="http://sodipodi.sourceforge.net/DTD/sodipodi-0.dtd"
   xmlns:inkscape="http://www.inkscape.org/namespaces/inkscape"
   width="168"
   height="40"
   id="svg3021"
   version="1.1"
   inkscape:version="0.48.5 r10040"
   sodipodi:docname="help.svg">
  <defs
     id="defs3023" />
  <sodipodi:namedview
     id="base"
     pagecolor="#ffffff"
     bordercolor="#666666"
     borderopacity="1.0"
     inkscape:pageopacity="0.0"
     inkscape:pageshadow="2"
     inkscape:zoom="5.6"
     inkscape:cx="69.043504"
     inkscape:cy="11.995086"
     inkscape:document-units="px"
     inkscape:current-layer="layer1"
     showgrid="false"
     inkscape:window-width="1718"
     inkscape:window-height="863"
     inkscape:window-x="110"
     inkscape:window-y="63"
     inkscape:window-maximized="0"
     fit-margin-top="0"
     fit-margin-left="0"
     fit-margin-right="0"
     fit-margin-bottom="0"
     showguides="true"
     inkscape:guide-bbox="true">
    <sodipodi:guide
       orientation="1,0"
       position="-52.21226,21.465742"
       id="guide3767" />
  </sodipodi:namedview>
  <metadata
     id="metadata3026">
    <rdf:RDF>
      <cc:Work
         rdf:about="">
        <dc:format>image/svg+xml</dc:format>
        <dc:type
           rdf:resource="http://purl.org/dc/dcmitype/StillImage" />
        <dc:title />
      </cc:Work>
    </rdf:RDF>
  </metadata>
  <g
     inkscape:label="Layer 1"
     inkscape:groupmode="layer"
     id="layer1"
     transform="translate(-291,-512.36218)">
    <rect
       style="fill:none;fill-opacity:1;stroke:none"
       id="rect3777"
       width="168.39287"
       height="40"
       x="291"
       y="512.54077" />
    <g
       id="g3764">
      <rect
         inkscape:export-ydpi="90"
         inkscape:export-xdpi="90"
         inkscape:export-filename="H:\svgs\xerte_buttons_test.png"
         y="512.36218"
         x="291"
         height="40"
         width="42"
         id="next"
         style="fill:none;fill-opacity:1;stroke:none;stroke-width:0;stroke-miterlimit:4;stroke-dasharray:none" />
      <rect
         inkscape:export-ydpi="90"
         inkscape:export-xdpi="90"
         inkscape:export-filename="H:\svgs\xerte_buttons_test.png"
         style="fill:none;fill-opacity:1;stroke:none"
         id="rect3766"
         width="42"
         height="40"
         x="333"
         y="512.36218" />
      <rect
         inkscape:export-ydpi="90"
         inkscape:export-xdpi="90"
         inkscape:export-filename="H:\svgs\xerte_buttons_test.png"
         y="512.36218"
         x="375"
         height="40"
         width="42"
         id="rect3768"
         style="fill:none;fill-opacity:1;stroke:none" />
      <rect
         inkscape:export-filename="H:\svgs\xerte_buttons_test.png"
         inkscape:export-ydpi="90"
         inkscape:export-xdpi="90"
         style="fill:none;fill-opacity:1;stroke:none"
         id="rect3770"
         width="42"
         height="40"
         x="417"
         y="512.36218" />
    </g>
    <path
       sodipodi:type="arc"
       style="fill:none;fill-opacity:1;stroke:none"
       id="path3807"
       sodipodi:cx="99.464287"
       sodipodi:cy="98.076469"
       sodipodi:rx="16.785715"
       sodipodi:ry="16.785715"
       d="m 116.25,98.076469 a 16.785715,16.785715 0 1 1 -33.571428,0 16.785715,16.785715 0 1 1 33.571428,0 z"
       transform="matrix(1.0425531,0,0,1.0425531,208.35416,430.11226)"
       inkscape:export-filename="H:\svgs\xerte_buttons_test.png"
       inkscape:export-xdpi="90"
       inkscape:export-ydpi="90" />
    <path
       transform="matrix(1.0425531,0,0,1.0425531,250.34393,430.11226)"
       d="m 116.25,98.076469 a 16.785715,16.785715 0 1 1 -33.571428,0 16.785715,16.785715 0 1 1 33.571428,0 z"
       sodipodi:ry="16.785715"
       sodipodi:rx="16.785715"
       sodipodi:cy="98.076469"
       sodipodi:cx="99.464287"
       id="path3809"
       style="fill:none;fill-opacity:1;stroke:none"
       sodipodi:type="arc"
       inkscape:export-filename="H:\svgs\xerte_buttons_test.png"
       inkscape:export-xdpi="90"
       inkscape:export-ydpi="90" />
    <path
       sodipodi:type="arc"
       style="fill:none;fill-opacity:1;stroke:none"
       id="path3811"
       sodipodi:cx="99.464287"
       sodipodi:cy="98.076469"
       sodipodi:rx="16.785715"
       sodipodi:ry="16.785715"
       d="m 116.25,98.076469 a 16.785715,16.785715 0 1 1 -33.571428,0 16.785715,16.785715 0 1 1 33.571428,0 z"
       transform="matrix(1.0425531,0,0,1.0425531,292.34393,430.11226)"
       inkscape:export-filename="H:\svgs\xerte_buttons_test.png"
       inkscape:export-xdpi="90"
       inkscape:export-ydpi="90" />
    <path
       transform="matrix(1.0425531,0,0,1.0425531,334.34393,430.11226)"
       d="m 116.25,98.076469 a 16.785715,16.785715 0 1 1 -33.571428,0 16.785715,16.785715 0 1 1 33.571428,0 z"
       sodipodi:ry="16.785715"
       sodipodi:rx="16.785715"
       sodipodi:cy="98.076469"
       sodipodi:cx="99.464287"
       id="path3813"
       style="fill:none;fill-opacity:1;stroke:none"
       sodipodi:type="arc"
       inkscape:export-filename="H:\svgs\xerte_buttons_test.png"
       inkscape:export-xdpi="90"
       inkscape:export-ydpi="90" />
    <g
       transform="matrix(0.62066324,0,0,0.62066324,152.55561,121.25726)"
       id="g35"
       style="fill:#ffffff;stroke:none">
      <path
         style="fill:#ffffff;stroke:none"
         inkscape:connector-curvature="0"
         id="path37"
         d="m 264.377,638.961 c -7.951,-0.531 -13.986,-0.419 -20.582,4.116 -27.722,19.059 -3.858,51.63 24.482,40.73 24.084,-9.263 14.699,-41.346 -7.15,-44.196" />
      <path
         style="fill-opacity:0;stroke:none;stroke-width:5.50000000000000000;stroke-linecap:round;stroke-linejoin:round;fill:#ffffff"
         inkscape:connector-curvature="0"
         id="path39"
         d="m 264.377,638.961 c -7.951,-0.531 -13.986,-0.419 -20.582,4.116 -27.722,19.059 -3.858,51.63 24.482,40.73 24.084,-9.263 14.699,-41.346 -7.15,-44.196" />
    </g>
    <path
       style="fill-opacity:0;stroke:#d3d7cf;stroke-width:1.86198974000000010;stroke-linecap:round;stroke-linejoin:round"
       inkscape:connector-curvature="0"
       id="path65"
       d="m 307.88838,528.52406 c 0.0559,-4.77165 8.76066,-5.78582 7.68629,0.1229 -0.44439,2.44416 -3.2591,1.32263 -3.2591,5.71878" />
    <path
       style="fill-opacity:0;stroke:#d3d7cf;stroke-width:1.86198974000000010;stroke-linecap:round;stroke-linejoin:round"
       inkscape:connector-curvature="0"
       id="path67"
       d="m 312.25413,537.74774 c -0.15951,1.3456 0.1564,0.5679 0.18433,0.61508" />
    <g
       style="fill:#ffffff;stroke:none"
       id="g3037"
       transform="matrix(0.62066324,0,0,0.62066324,194.54538,121.25726)">
      <path
         d="m 264.377,638.961 c -7.951,-0.531 -13.986,-0.419 -20.582,4.116 -27.722,19.059 -3.858,51.63 24.482,40.73 24.084,-9.263 14.699,-41.346 -7.15,-44.196"
         id="path3039"
         inkscape:connector-curvature="0"
         style="fill:#ffffff;stroke:none" />
      <path
         d="m 264.377,638.961 c -7.951,-0.531 -13.986,-0.419 -20.582,4.116 -27.722,19.059 -3.858,51.63 24.482,40.73 24.084,-9.263 14.699,-41.346 -7.15,-44.196"
         id="path3041"
         inkscape:connector-curvature="0"
         style="fill:#ffffff;fill-opacity:0;stroke:none;stroke-width:5.50000000000000000;stroke-linecap:round;stroke-linejoin:round" />
    </g>
    <path
       d="m 349.87815,528.52406 c 0.0559,-4.77165 8.76066,-5.78582 7.68629,0.1229 -0.44439,2.44416 -3.2591,1.32263 -3.2591,5.71878"
       id="path3043"
       inkscape:connector-curvature="0"
       style="fill:#ffffff;fill-opacity:0;stroke:#000000;stroke-width:1.86198974000000010;stroke-linecap:round;stroke-linejoin:round" />
    <path
       d="m 354.2439,537.74774 c -0.15951,1.3456 0.1564,0.5679 0.18433,0.61508"
       id="path3045"
       inkscape:connector-curvature="0"
       style="fill:#ffffff;fill-opacity:0;stroke:#000000;stroke-width:1.86198974000000010;stroke-linecap:round;stroke-linejoin:round" />
    <g
       style="fill:#ffffff;stroke:none"
       transform="matrix(0.62066324,0,0,0.62066324,236.54538,121.25726)"
       id="g3049">
      <path
         style="fill:#ffffff;stroke:none"
         inkscape:connector-curvature="0"
         id="path3051"
         d="m 264.377,638.961 c -7.951,-0.531 -13.986,-0.419 -20.582,4.116 -27.722,19.059 -3.858,51.63 24.482,40.73 24.084,-9.263 14.699,-41.346 -7.15,-44.196" />
      <path
         style="fill:#ffffff;fill-opacity:0;stroke:none;stroke-width:5.50000000000000000;stroke-linecap:round;stroke-linejoin:round"
         inkscape:connector-curvature="0"
         id="path3053"
         d="m 264.377,638.961 c -7.951,-0.531 -13.986,-0.419 -20.582,4.116 -27.722,19.059 -3.858,51.63 24.482,40.73 24.084,-9.263 14.699,-41.346 -7.15,-44.196" />
    </g>
    <path
       style="fill:#ffffff;fill-opacity:0;stroke:#000000;stroke-width:1.86198974000000010;stroke-linecap:round;stroke-linejoin:round"
       inkscape:connector-curvature="0"
       id="path3055"
       d="m 391.87815,528.52406 c 0.0559,-4.77165 8.76066,-5.78582 7.68629,0.1229 -0.44439,2.44416 -3.2591,1.32263 -3.2591,5.71878" />
    <path
       style="fill:#ffffff;fill-opacity:0;stroke:#000000;stroke-width:1.86198974000000010;stroke-linecap:round;stroke-linejoin:round"
       inkscape:connector-curvature="0"
       id="path3057"
       d="m 396.2439,537.74774 c -0.15951,1.3456 0.1564,0.5679 0.18433,0.61508" />
    <g
       id="g3061"
       transform="matrix(0.62066324,0,0,0.62066324,278.54538,121.25726)"
       style="fill:#ffffff;stroke:none">
      <path
         d="m 264.377,638.961 c -7.951,-0.531 -13.986,-0.419 -20.582,4.116 -27.722,19.059 -3.858,51.63 24.482,40.73 24.084,-9.263 14.699,-41.346 -7.15,-44.196"
         id="path3063"
         inkscape:connector-curvature="0"
         style="fill:#ffffff;stroke:none" />
      <path
         d="m 264.377,638.961 c -7.951,-0.531 -13.986,-0.419 -20.582,4.116 -27.722,19.059 -3.858,51.63 24.482,40.73 24.084,-9.263 14.699,-41.346 -7.15,-44.196"
         id="path3065"
         inkscape:connector-curvature="0"
         style="fill-opacity:0;stroke:none;stroke-width:5.50000000000000000;stroke-linecap:round;stroke-linejoin:round;fill:#ffffff" />
    </g>
    <path
       d="m 433.87815,528.52406 c 0.0559,-4.77165 8.76066,-5.78582 7.68629,0.1229 -0.44439,2.44416 -3.2591,1.32263 -3.2591,5.71878"
       id="path3067"
       inkscape:connector-curvature="0"
       style="fill-opacity:0;stroke:#000000;stroke-width:1.86198974000000010;stroke-linecap:round;stroke-linejoin:round" />
    <path
       d="m 438.2439,537.74774 c -0.15951,1.3456 0.1564,0.5679 0.18433,0.61508"
       id="path3069"
       inkscape:connector-curvature="0"
       style="fill-opacity:0;stroke:#000000;stroke-width:1.86198974000000010;stroke-linecap:round;stroke-linejoin:round" />
  </g>
</svg>
