<?xml version="1.0" encoding="UTF-8" standalone="no"?>
<!-- Created with Inkscape (http://www.inkscape.org/) -->

<svg
   xmlns:dc="http://purl.org/dc/elements/1.1/"
   xmlns:cc="http://creativecommons.org/ns#"
   xmlns:rdf="http://www.w3.org/1999/02/22-rdf-syntax-ns#"
   xmlns:svg="http://www.w3.org/2000/svg"
   xmlns="http://www.w3.org/2000/svg"
   xmlns:sodipodi="http://sodipodi.sourceforge.net/DTD/sodipodi-0.dtd"
   xmlns:inkscape="http://www.inkscape.org/namespaces/inkscape"
   width="168"
   height="40"
   id="svg3021"
   version="1.1"
   inkscape:version="0.48.5 r10040"
   sodipodi:docname="home.svg">
  <defs
     id="defs3023">
    <marker
       inkscape:stockid="Arrow1Lstart"
       orient="auto"
       refY="0.0"
       refX="0.0"
       id="Arrow1Lstart"
       style="overflow:visible">
      <path
         id="path4028"
         d="M 0.0,0.0 L 5.0,-5.0 L -12.5,0.0 L 5.0,5.0 L 0.0,0.0 z "
         style="fill-rule:evenodd;stroke:#000000;stroke-width:1.0pt"
         transform="scale(0.8) translate(12.5,0)" />
    </marker>
  </defs>
  <sodipodi:namedview
     id="base"
     pagecolor="#ffffff"
     bordercolor="#666666"
     borderopacity="1.0"
     inkscape:pageopacity="0.0"
     inkscape:pageshadow="2"
     inkscape:zoom="4"
     inkscape:cx="27.517371"
     inkscape:cy="28.179159"
     inkscape:document-units="px"
     inkscape:current-layer="layer1"
     showgrid="false"
     inkscape:window-width="1718"
     inkscape:window-height="863"
     inkscape:window-x="30"
     inkscape:window-y="30"
     inkscape:window-maximized="0"
     fit-margin-top="0"
     fit-margin-left="0"
     fit-margin-right="0"
     fit-margin-bottom="0"
     showguides="true"
     inkscape:guide-bbox="true">
    <sodipodi:guide
       orientation="1,0"
       position="-52.21226,21.465742"
       id="guide3767" />
  </sodipodi:namedview>
  <metadata
     id="metadata3026">
    <rdf:RDF>
      <cc:Work
         rdf:about="">
        <dc:format>image/svg+xml</dc:format>
        <dc:type
           rdf:resource="http://purl.org/dc/dcmitype/StillImage" />
        <dc:title />
      </cc:Work>
    </rdf:RDF>
  </metadata>
  <g
     inkscape:label="Layer 1"
     inkscape:groupmode="layer"
     id="layer1"
     transform="translate(-291,-512.36218)">
    <rect
       style="fill:none;fill-opacity:1;stroke:none"
       id="rect3777"
       width="168.39287"
       height="40"
       x="291"
       y="512.54077" />
    <g
       id="g3764">
      <rect
         inkscape:export-ydpi="90"
         inkscape:export-xdpi="90"
         inkscape:export-filename="H:\svgs\xerte_buttons_test.png"
         y="512.36218"
         x="291"
         height="40"
         width="42"
         id="next"
         style="fill:none;fill-opacity:1;stroke:none;stroke-width:0;stroke-miterlimit:4;stroke-dasharray:none" />
      <rect
         inkscape:export-ydpi="90"
         inkscape:export-xdpi="90"
         inkscape:export-filename="H:\svgs\xerte_buttons_test.png"
         style="fill:none;fill-opacity:1;stroke:none"
         id="rect3766"
         width="42"
         height="40"
         x="333"
         y="512.36218" />
      <rect
         inkscape:export-ydpi="90"
         inkscape:export-xdpi="90"
         inkscape:export-filename="H:\svgs\xerte_buttons_test.png"
         y="512.36218"
         x="375"
         height="40"
         width="42"
         id="rect3768"
         style="fill:none;fill-opacity:1;stroke:none" />
      <rect
         inkscape:export-filename="H:\svgs\xerte_buttons_test.png"
         inkscape:export-ydpi="90"
         inkscape:export-xdpi="90"
         style="fill:none;fill-opacity:1;stroke:none"
         id="rect3770"
         width="42"
         height="40"
         x="417"
         y="512.36218" />
    </g>
    <path
       sodipodi:type="arc"
       style="fill:none;fill-opacity:1;stroke:none"
       id="path3807"
       sodipodi:cx="99.464287"
       sodipodi:cy="98.076469"
       sodipodi:rx="16.785715"
       sodipodi:ry="16.785715"
       d="m 116.25,98.076469 a 16.785715,16.785715 0 1 1 -33.571428,0 16.785715,16.785715 0 1 1 33.571428,0 z"
       transform="matrix(1.0425531,0,0,1.0425531,208.26345,430.11226)"
       inkscape:export-filename="H:\svgs\xerte_buttons_test.png"
       inkscape:export-xdpi="90"
       inkscape:export-ydpi="90" />
    <path
       transform="matrix(1.0425531,0,0,1.0425531,250.3032,430.11226)"
       d="m 116.25,98.076469 c 0,9.270491 -7.51522,16.785711 -16.785713,16.785711 -9.270495,0 -16.785715,-7.51522 -16.785715,-16.785711 0,-9.270494 7.51522,-16.785715 16.785715,-16.785715 9.270493,0 16.785713,7.515221 16.785713,16.785715 z"
       sodipodi:ry="16.785715"
       sodipodi:rx="16.785715"
       sodipodi:cy="98.076469"
       sodipodi:cx="99.464287"
       id="path3809"
       style="fill:none;fill-opacity:1;stroke:none;stroke-width:0.95918375000000000;stroke-miterlimit:4;stroke-dasharray:none"
       sodipodi:type="arc"
       inkscape:export-filename="H:\svgs\xerte_buttons_test.png"
       inkscape:export-xdpi="90"
       inkscape:export-ydpi="90" />
    <path
       sodipodi:type="arc"
       style="fill:none;fill-opacity:1;stroke:none;stroke-width:0.95918375000000000;stroke-miterlimit:4;stroke-dasharray:none"
       id="path3811"
       sodipodi:cx="99.464287"
       sodipodi:cy="98.076469"
       sodipodi:rx="16.785715"
       sodipodi:ry="16.785715"
       d="m 116.25,98.076469 c 0,9.270491 -7.51522,16.785711 -16.785713,16.785711 -9.270495,0 -16.785715,-7.51522 -16.785715,-16.785711 0,-9.270494 7.51522,-16.785715 16.785715,-16.785715 9.270493,0 16.785713,7.515221 16.785713,16.785715 z"
       transform="matrix(1.0425531,0,0,1.0425531,292.3032,430.11226)"
       inkscape:export-filename="H:\svgs\xerte_buttons_test.png"
       inkscape:export-xdpi="90"
       inkscape:export-ydpi="90" />
    <path
       transform="matrix(1.0425531,0,0,1.0425531,334.3032,430.11226)"
       d="m 116.25,98.076469 c 0,9.270491 -7.51522,16.785711 -16.785713,16.785711 -9.270495,0 -16.785715,-7.51522 -16.785715,-16.785711 0,-9.270494 7.51522,-16.785715 16.785715,-16.785715 9.270493,0 16.785713,7.515221 16.785713,16.785715 z"
       sodipodi:ry="16.785715"
       sodipodi:rx="16.785715"
       sodipodi:cy="98.076469"
       sodipodi:cx="99.464287"
       id="path3813"
       style="fill:none;fill-opacity:1;stroke:none;stroke-width:0.95918375000000000;stroke-miterlimit:4;stroke-dasharray:none"
       sodipodi:type="arc"
       inkscape:export-filename="H:\svgs\xerte_buttons_test.png"
       inkscape:export-xdpi="90"
       inkscape:export-ydpi="90" />
    <g
       transform="matrix(0.54066594,0,0,0.54066594,-29.428295,174.81018)"
       id="g17"
       style="fill:#ffffff;stroke:none">
      <path
         style="fill:#ffffff;stroke:none"
         inkscape:connector-curvature="0"
         id="path19"
         d="m 633.783,631.819 c 28.863,0 37.512,44.369 11.294,56.47 -27.699,12.784 -56.774,-25.943 -35.846,-48.614 6.842,-7.412 15.638,-8.305 25.207,-7.693 l -0.655,-0.163 z" />
      <path
         style="fill-opacity:0;stroke:none;stroke-width:5;stroke-linecap:round;stroke-linejoin:round;fill:#ffffff"
         inkscape:connector-curvature="0"
         id="path21"
         d="m 633.783,631.819 c 28.863,0 37.512,44.369 11.294,56.47 -27.699,12.784 -56.774,-25.943 -35.846,-48.614 6.842,-7.412 15.638,-8.305 25.207,-7.693 l -0.655,-0.163 z" />
    </g>
    <g
       transform="matrix(0.54066594,0,0,0.54066594,-29.428295,174.81018)"
       id="g103"
       style="fill:#d3d7cf;stroke:#d3d7cf">
      <path
         style="fill:#d3d7cf;stroke:#d3d7cf"
         inkscape:connector-curvature="0"
         id="path105"
         d="m 632.275,642.007 0.564,0.068 c 1.936,1.412 3.489,3.381 5.191,5.101 1.717,1.733 6.887,5.123 7.862,6.914 1.482,2.722 0.786,9.757 1.583,13.145 0.26,1.105 1.033,7.483 -0.034,8.064 -3.003,0.26 -6.056,0.196 -9.067,0.225 0,-1.21 -0.006,-0.444 0.044,-2.297 0.059,-1.91 0.076,-2.779 0.059,-3.908 -0.01,-0.628 -0.032,-1.23 -0.069,-1.82 -0.45,-2.728 -1.972,-4.482 -4.721,-5.102 l -1.114,-0.042 c -3.031,0.191 -5.334,2.803 -5.143,5.835 0.025,0.408 0.041,0.837 0.048,1.297 0.014,0.904 -10e-4,1.659 -0.054,3.4 -0.056,2.087 -0.053,1.258 -0.049,2.488 -2.212,-0.073 -1.036,-0.028 -3.527,-0.142 -0.399,-0.02 -3.373,-0.075 -4.287,-0.453 -0.914,-0.995 -0.688,-4.941 -0.873,-6.184 -0.512,-3.437 -1.024,-11.214 -0.993,-14.734 0.005,-0.606 -0.087,-1.496 0.088,-2.089 0.11,-0.372 2.663,-1.218 3.025,-1.442 3.996,-2.473 8.248,-4.949 11.467,-8.324 z" />
      <path
         style="fill-opacity:0;stroke:#d3d7cf;stroke-width:3;stroke-linecap:round;stroke-linejoin:round;fill:#d3d7cf"
         inkscape:connector-curvature="0"
         id="path107"
         d="m 632.275,642.007 0.564,0.068 c 1.936,1.412 3.489,3.381 5.191,5.101 1.717,1.733 6.887,5.123 7.862,6.914 1.482,2.722 0.786,9.757 1.583,13.145 0.26,1.105 1.033,7.483 -0.034,8.064 -3.003,0.26 -6.056,0.196 -9.067,0.225 0,-1.21 -0.006,-0.444 0.044,-2.297 0.059,-1.91 0.076,-2.779 0.059,-3.908 -0.01,-0.628 -0.032,-1.23 -0.069,-1.82 -0.45,-2.728 -1.972,-4.482 -4.721,-5.102 l -1.114,-0.042 c -3.031,0.191 -5.334,2.803 -5.143,5.835 0.025,0.408 0.041,0.837 0.048,1.297 0.014,0.904 -10e-4,1.659 -0.054,3.4 -0.056,2.087 -0.053,1.258 -0.049,2.488 -2.212,-0.073 -1.036,-0.028 -3.527,-0.142 -0.399,-0.02 -3.373,-0.075 -4.287,-0.453 -0.914,-0.995 -0.688,-4.941 -0.873,-6.184 -0.512,-3.437 -1.024,-11.214 -0.993,-14.734 0.005,-0.606 -0.087,-1.496 0.088,-2.089 0.11,-0.372 2.663,-1.218 3.025,-1.442 3.996,-2.473 8.248,-4.949 11.467,-8.324 z" />
    </g>
    <g
       id="g3026"
       transform="matrix(0.54066594,0,0,0.54066594,12.571705,174.81018)"
       style="fill:#ffffff;stroke:none">
      <path
         d="m 633.783,631.819 c 28.863,0 37.512,44.369 11.294,56.47 -27.699,12.784 -56.774,-25.943 -35.846,-48.614 6.842,-7.412 15.638,-8.305 25.207,-7.693 l -0.655,-0.163 z"
         id="path3028"
         inkscape:connector-curvature="0"
         style="fill:#ffffff;stroke:none" />
      <path
         d="m 633.783,631.819 c 28.863,0 37.512,44.369 11.294,56.47 -27.699,12.784 -56.774,-25.943 -35.846,-48.614 6.842,-7.412 15.638,-8.305 25.207,-7.693 l -0.655,-0.163 z"
         id="path3030"
         inkscape:connector-curvature="0"
         style="fill-opacity:0;stroke:none;stroke-width:5;stroke-linecap:round;stroke-linejoin:round;fill:#ffffff" />
    </g>
    <g
       id="g3032"
       transform="matrix(0.54066594,0,0,0.54066594,12.571705,174.81018)"
       style="fill:#000000;stroke:#000000">
      <path
         d="m 632.275,642.007 0.564,0.068 c 1.936,1.412 3.489,3.381 5.191,5.101 1.717,1.733 6.887,5.123 7.862,6.914 1.482,2.722 0.786,9.757 1.583,13.145 0.26,1.105 1.033,7.483 -0.034,8.064 -3.003,0.26 -6.056,0.196 -9.067,0.225 0,-1.21 -0.006,-0.444 0.044,-2.297 0.059,-1.91 0.076,-2.779 0.059,-3.908 -0.01,-0.628 -0.032,-1.23 -0.069,-1.82 -0.45,-2.728 -1.972,-4.482 -4.721,-5.102 l -1.114,-0.042 c -3.031,0.191 -5.334,2.803 -5.143,5.835 0.025,0.408 0.041,0.837 0.048,1.297 0.014,0.904 -10e-4,1.659 -0.054,3.4 -0.056,2.087 -0.053,1.258 -0.049,2.488 -2.212,-0.073 -1.036,-0.028 -3.527,-0.142 -0.399,-0.02 -3.373,-0.075 -4.287,-0.453 -0.914,-0.995 -0.688,-4.941 -0.873,-6.184 -0.512,-3.437 -1.024,-11.214 -0.993,-14.734 0.005,-0.606 -0.087,-1.496 0.088,-2.089 0.11,-0.372 2.663,-1.218 3.025,-1.442 3.996,-2.473 8.248,-4.949 11.467,-8.324 z"
         id="path3034"
         inkscape:connector-curvature="0"
         style="fill:#000000;stroke:#000000" />
      <path
         d="m 632.275,642.007 0.564,0.068 c 1.936,1.412 3.489,3.381 5.191,5.101 1.717,1.733 6.887,5.123 7.862,6.914 1.482,2.722 0.786,9.757 1.583,13.145 0.26,1.105 1.033,7.483 -0.034,8.064 -3.003,0.26 -6.056,0.196 -9.067,0.225 0,-1.21 -0.006,-0.444 0.044,-2.297 0.059,-1.91 0.076,-2.779 0.059,-3.908 -0.01,-0.628 -0.032,-1.23 -0.069,-1.82 -0.45,-2.728 -1.972,-4.482 -4.721,-5.102 l -1.114,-0.042 c -3.031,0.191 -5.334,2.803 -5.143,5.835 0.025,0.408 0.041,0.837 0.048,1.297 0.014,0.904 -10e-4,1.659 -0.054,3.4 -0.056,2.087 -0.053,1.258 -0.049,2.488 -2.212,-0.073 -1.036,-0.028 -3.527,-0.142 -0.399,-0.02 -3.373,-0.075 -4.287,-0.453 -0.914,-0.995 -0.688,-4.941 -0.873,-6.184 -0.512,-3.437 -1.024,-11.214 -0.993,-14.734 0.005,-0.606 -0.087,-1.496 0.088,-2.089 0.11,-0.372 2.663,-1.218 3.025,-1.442 3.996,-2.473 8.248,-4.949 11.467,-8.324 z"
         id="path3036"
         inkscape:connector-curvature="0"
         style="fill-opacity:0;stroke:#000000;stroke-width:3;stroke-linecap:round;stroke-linejoin:round;fill:#000000" />
    </g>
    <g
       transform="matrix(0.54066594,0,0,0.54066594,54.571705,174.81018)"
       id="g3040"
       style="fill:#ffffff;stroke:none">
      <path
         style="fill:#ffffff;stroke:none"
         inkscape:connector-curvature="0"
         id="path3042"
         d="m 633.783,631.819 c 28.863,0 37.512,44.369 11.294,56.47 -27.699,12.784 -56.774,-25.943 -35.846,-48.614 6.842,-7.412 15.638,-8.305 25.207,-7.693 l -0.655,-0.163 z" />
      <path
         style="fill-opacity:0;stroke:none;stroke-width:5;stroke-linecap:round;stroke-linejoin:round;fill:#ffffff"
         inkscape:connector-curvature="0"
         id="path3044"
         d="m 633.783,631.819 c 28.863,0 37.512,44.369 11.294,56.47 -27.699,12.784 -56.774,-25.943 -35.846,-48.614 6.842,-7.412 15.638,-8.305 25.207,-7.693 l -0.655,-0.163 z" />
    </g>
    <g
       transform="matrix(0.54066594,0,0,0.54066594,54.571705,174.81018)"
       id="g3046"
       style="fill:#000000;stroke:#000000">
      <path
         style="fill:#000000;stroke:#000000"
         inkscape:connector-curvature="0"
         id="path3048"
         d="m 632.275,642.007 0.564,0.068 c 1.936,1.412 3.489,3.381 5.191,5.101 1.717,1.733 6.887,5.123 7.862,6.914 1.482,2.722 0.786,9.757 1.583,13.145 0.26,1.105 1.033,7.483 -0.034,8.064 -3.003,0.26 -6.056,0.196 -9.067,0.225 0,-1.21 -0.006,-0.444 0.044,-2.297 0.059,-1.91 0.076,-2.779 0.059,-3.908 -0.01,-0.628 -0.032,-1.23 -0.069,-1.82 -0.45,-2.728 -1.972,-4.482 -4.721,-5.102 l -1.114,-0.042 c -3.031,0.191 -5.334,2.803 -5.143,5.835 0.025,0.408 0.041,0.837 0.048,1.297 0.014,0.904 -10e-4,1.659 -0.054,3.4 -0.056,2.087 -0.053,1.258 -0.049,2.488 -2.212,-0.073 -1.036,-0.028 -3.527,-0.142 -0.399,-0.02 -3.373,-0.075 -4.287,-0.453 -0.914,-0.995 -0.688,-4.941 -0.873,-6.184 -0.512,-3.437 -1.024,-11.214 -0.993,-14.734 0.005,-0.606 -0.087,-1.496 0.088,-2.089 0.11,-0.372 2.663,-1.218 3.025,-1.442 3.996,-2.473 8.248,-4.949 11.467,-8.324 z" />
      <path
         style="fill-opacity:0;stroke:#000000;stroke-width:3;stroke-linecap:round;stroke-linejoin:round;fill:#000000"
         inkscape:connector-curvature="0"
         id="path3050"
         d="m 632.275,642.007 0.564,0.068 c 1.936,1.412 3.489,3.381 5.191,5.101 1.717,1.733 6.887,5.123 7.862,6.914 1.482,2.722 0.786,9.757 1.583,13.145 0.26,1.105 1.033,7.483 -0.034,8.064 -3.003,0.26 -6.056,0.196 -9.067,0.225 0,-1.21 -0.006,-0.444 0.044,-2.297 0.059,-1.91 0.076,-2.779 0.059,-3.908 -0.01,-0.628 -0.032,-1.23 -0.069,-1.82 -0.45,-2.728 -1.972,-4.482 -4.721,-5.102 l -1.114,-0.042 c -3.031,0.191 -5.334,2.803 -5.143,5.835 0.025,0.408 0.041,0.837 0.048,1.297 0.014,0.904 -10e-4,1.659 -0.054,3.4 -0.056,2.087 -0.053,1.258 -0.049,2.488 -2.212,-0.073 -1.036,-0.028 -3.527,-0.142 -0.399,-0.02 -3.373,-0.075 -4.287,-0.453 -0.914,-0.995 -0.688,-4.941 -0.873,-6.184 -0.512,-3.437 -1.024,-11.214 -0.993,-14.734 0.005,-0.606 -0.087,-1.496 0.088,-2.089 0.11,-0.372 2.663,-1.218 3.025,-1.442 3.996,-2.473 8.248,-4.949 11.467,-8.324 z" />
    </g>
    <g
       id="g3054"
       transform="matrix(0.54066594,0,0,0.54066594,96.571701,174.81018)"
       style="fill:#ffffff;stroke:none">
      <path
         d="m 633.783,631.819 c 28.863,0 37.512,44.369 11.294,56.47 -27.699,12.784 -56.774,-25.943 -35.846,-48.614 6.842,-7.412 15.638,-8.305 25.207,-7.693 l -0.655,-0.163 z"
         id="path3056"
         inkscape:connector-curvature="0"
         style="fill:#ffffff;stroke:none" />
      <path
         d="m 633.783,631.819 c 28.863,0 37.512,44.369 11.294,56.47 -27.699,12.784 -56.774,-25.943 -35.846,-48.614 6.842,-7.412 15.638,-8.305 25.207,-7.693 l -0.655,-0.163 z"
         id="path3058"
         inkscape:connector-curvature="0"
         style="fill-opacity:0;stroke:none;stroke-width:5;stroke-linecap:round;stroke-linejoin:round;fill:#ffffff" />
    </g>
    <g
       id="g3060"
       transform="matrix(0.54066594,0,0,0.54066594,96.571701,174.81018)"
       style="fill:#000000;stroke:#000000">
      <path
         d="m 632.275,642.007 0.564,0.068 c 1.936,1.412 3.489,3.381 5.191,5.101 1.717,1.733 6.887,5.123 7.862,6.914 1.482,2.722 0.786,9.757 1.583,13.145 0.26,1.105 1.033,7.483 -0.034,8.064 -3.003,0.26 -6.056,0.196 -9.067,0.225 0,-1.21 -0.006,-0.444 0.044,-2.297 0.059,-1.91 0.076,-2.779 0.059,-3.908 -0.01,-0.628 -0.032,-1.23 -0.069,-1.82 -0.45,-2.728 -1.972,-4.482 -4.721,-5.102 l -1.114,-0.042 c -3.031,0.191 -5.334,2.803 -5.143,5.835 0.025,0.408 0.041,0.837 0.048,1.297 0.014,0.904 -10e-4,1.659 -0.054,3.4 -0.056,2.087 -0.053,1.258 -0.049,2.488 -2.212,-0.073 -1.036,-0.028 -3.527,-0.142 -0.399,-0.02 -3.373,-0.075 -4.287,-0.453 -0.914,-0.995 -0.688,-4.941 -0.873,-6.184 -0.512,-3.437 -1.024,-11.214 -0.993,-14.734 0.005,-0.606 -0.087,-1.496 0.088,-2.089 0.11,-0.372 2.663,-1.218 3.025,-1.442 3.996,-2.473 8.248,-4.949 11.467,-8.324 z"
         id="path3062"
         inkscape:connector-curvature="0"
         style="fill:#000000;stroke:#000000" />
      <path
         d="m 632.275,642.007 0.564,0.068 c 1.936,1.412 3.489,3.381 5.191,5.101 1.717,1.733 6.887,5.123 7.862,6.914 1.482,2.722 0.786,9.757 1.583,13.145 0.26,1.105 1.033,7.483 -0.034,8.064 -3.003,0.26 -6.056,0.196 -9.067,0.225 0,-1.21 -0.006,-0.444 0.044,-2.297 0.059,-1.91 0.076,-2.779 0.059,-3.908 -0.01,-0.628 -0.032,-1.23 -0.069,-1.82 -0.45,-2.728 -1.972,-4.482 -4.721,-5.102 l -1.114,-0.042 c -3.031,0.191 -5.334,2.803 -5.143,5.835 0.025,0.408 0.041,0.837 0.048,1.297 0.014,0.904 -10e-4,1.659 -0.054,3.4 -0.056,2.087 -0.053,1.258 -0.049,2.488 -2.212,-0.073 -1.036,-0.028 -3.527,-0.142 -0.399,-0.02 -3.373,-0.075 -4.287,-0.453 -0.914,-0.995 -0.688,-4.941 -0.873,-6.184 -0.512,-3.437 -1.024,-11.214 -0.993,-14.734 0.005,-0.606 -0.087,-1.496 0.088,-2.089 0.11,-0.372 2.663,-1.218 3.025,-1.442 3.996,-2.473 8.248,-4.949 11.467,-8.324 z"
         id="path3064"
         inkscape:connector-curvature="0"
         style="fill-opacity:0;stroke:#000000;stroke-width:3;stroke-linecap:round;stroke-linejoin:round;fill:#000000" />
    </g>
  </g>
</svg>
