<?xml version="1.0" encoding="UTF-8" standalone="no"?>
<!-- Created with Inkscape (http://www.inkscape.org/) -->

<svg
   xmlns:dc="http://purl.org/dc/elements/1.1/"
   xmlns:cc="http://creativecommons.org/ns#"
   xmlns:rdf="http://www.w3.org/1999/02/22-rdf-syntax-ns#"
   xmlns:svg="http://www.w3.org/2000/svg"
   xmlns="http://www.w3.org/2000/svg"
   xmlns:sodipodi="http://sodipodi.sourceforge.net/DTD/sodipodi-0.dtd"
   xmlns:inkscape="http://www.inkscape.org/namespaces/inkscape"
   width="168"
   height="40"
   id="svg3021"
   version="1.1"
   inkscape:version="0.48.5 r10040"
   sodipodi:docname="info.svg">
  <defs
     id="defs3023" />
  <sodipodi:namedview
     id="base"
     pagecolor="#ffffff"
     bordercolor="#666666"
     borderopacity="1.0"
     inkscape:pageopacity="0.0"
     inkscape:pageshadow="2"
     inkscape:zoom="5.6"
     inkscape:cx="53.150673"
     inkscape:cy="15.0308"
     inkscape:document-units="px"
     inkscape:current-layer="layer1"
     showgrid="false"
     inkscape:window-width="1718"
     inkscape:window-height="863"
     inkscape:window-x="51"
     inkscape:window-y="52"
     inkscape:window-maximized="0"
     fit-margin-top="0"
     fit-margin-left="0"
     fit-margin-right="0"
     fit-margin-bottom="0"
     showguides="true"
     inkscape:guide-bbox="true">
    <sodipodi:guide
       orientation="1,0"
       position="-52.21226,21.465742"
       id="guide3767" />
  </sodipodi:namedview>
  <metadata
     id="metadata3026">
    <rdf:RDF>
      <cc:Work
         rdf:about="">
        <dc:format>image/svg+xml</dc:format>
        <dc:type
           rdf:resource="http://purl.org/dc/dcmitype/StillImage" />
        <dc:title />
      </cc:Work>
    </rdf:RDF>
  </metadata>
  <g
     inkscape:label="Layer 1"
     inkscape:groupmode="layer"
     id="layer1"
     transform="translate(-291,-512.36218)">
    <rect
       style="fill:none;fill-opacity:1;stroke:none"
       id="rect3777"
       width="168.39287"
       height="40"
       x="291"
       y="512.54077" />
    <g
       id="g3764">
      <rect
         inkscape:export-ydpi="90"
         inkscape:export-xdpi="90"
         inkscape:export-filename="H:\svgs\xerte_buttons_test.png"
         y="512.36218"
         x="291"
         height="40"
         width="42"
         id="next"
         style="fill:none;fill-opacity:1;stroke:none;stroke-width:0;stroke-miterlimit:4;stroke-dasharray:none" />
      <rect
         inkscape:export-ydpi="90"
         inkscape:export-xdpi="90"
         inkscape:export-filename="H:\svgs\xerte_buttons_test.png"
         style="fill:none;fill-opacity:1;stroke:none"
         id="rect3766"
         width="42"
         height="40"
         x="333"
         y="512.36218" />
      <rect
         inkscape:export-ydpi="90"
         inkscape:export-xdpi="90"
         inkscape:export-filename="H:\svgs\xerte_buttons_test.png"
         y="512.36218"
         x="375"
         height="40"
         width="42"
         id="rect3768"
         style="fill:none;fill-opacity:1;stroke:none" />
      <rect
         inkscape:export-filename="H:\svgs\xerte_buttons_test.png"
         inkscape:export-ydpi="90"
         inkscape:export-xdpi="90"
         style="fill:none;fill-opacity:1;stroke:none"
         id="rect3770"
         width="42"
         height="40"
         x="417"
         y="512.36218" />
    </g>
    <path
       sodipodi:type="arc"
       style="fill:none;fill-opacity:1;stroke:none"
       id="path3807"
       sodipodi:cx="99.464287"
       sodipodi:cy="98.076469"
       sodipodi:rx="16.785715"
       sodipodi:ry="16.785715"
       d="m 116.25,98.076469 a 16.785715,16.785715 0 1 1 -33.571428,0 16.785715,16.785715 0 1 1 33.571428,0 z"
       transform="matrix(1.0425531,0,0,1.0425531,208.16029,430.11226)"
       inkscape:export-filename="H:\svgs\xerte_buttons_test.png"
       inkscape:export-xdpi="90"
       inkscape:export-ydpi="90" />
    <path
       transform="matrix(1.0425531,0,0,1.0425531,250.3032,430.11226)"
       d="m 116.25,98.076469 c 0,9.270491 -7.51522,16.785711 -16.785713,16.785711 -9.270495,0 -16.785715,-7.51522 -16.785715,-16.785711 0,-9.270494 7.51522,-16.785715 16.785715,-16.785715 9.270493,0 16.785713,7.515221 16.785713,16.785715 z"
       sodipodi:ry="16.785715"
       sodipodi:rx="16.785715"
       sodipodi:cy="98.076469"
       sodipodi:cx="99.464287"
       id="path3809"
       style="fill:none;fill-opacity:1;stroke:none;stroke-width:0.95918375000000000;stroke-miterlimit:4;stroke-dasharray:none"
       sodipodi:type="arc"
       inkscape:export-filename="H:\svgs\xerte_buttons_test.png"
       inkscape:export-xdpi="90"
       inkscape:export-ydpi="90" />
    <path
       sodipodi:type="arc"
       style="fill:none;fill-opacity:1;stroke:none;stroke-width:0.95918375000000000;stroke-miterlimit:4;stroke-dasharray:none"
       id="path3811"
       sodipodi:cx="99.464287"
       sodipodi:cy="98.076469"
       sodipodi:rx="16.785715"
       sodipodi:ry="16.785715"
       d="m 116.25,98.076469 c 0,9.270491 -7.51522,16.785711 -16.785713,16.785711 -9.270495,0 -16.785715,-7.51522 -16.785715,-16.785711 0,-9.270494 7.51522,-16.785715 16.785715,-16.785715 9.270493,0 16.785713,7.515221 16.785713,16.785715 z"
       transform="matrix(1.0425531,0,0,1.0425531,292.3032,430.11226)"
       inkscape:export-filename="H:\svgs\xerte_buttons_test.png"
       inkscape:export-xdpi="90"
       inkscape:export-ydpi="90" />
    <path
       transform="matrix(1.0425531,0,0,1.0425531,334.3032,430.11226)"
       d="m 116.25,98.076469 c 0,9.270491 -7.51522,16.785711 -16.785713,16.785711 -9.270495,0 -16.785715,-7.51522 -16.785715,-16.785711 0,-9.270494 7.51522,-16.785715 16.785715,-16.785715 9.270493,0 16.785713,7.515221 16.785713,16.785715 z"
       sodipodi:ry="16.785715"
       sodipodi:rx="16.785715"
       sodipodi:cy="98.076469"
       sodipodi:cx="99.464287"
       id="path3813"
       style="fill:none;fill-opacity:1;stroke:none;stroke-width:0.95918375000000000;stroke-miterlimit:4;stroke-dasharray:none"
       sodipodi:type="arc"
       inkscape:export-filename="H:\svgs\xerte_buttons_test.png"
       inkscape:export-xdpi="90"
       inkscape:export-ydpi="90" />
    <path
       d="m 318.54296,519.25558 c -4.84675,-2.98708 -10.84373,-2.00798 -15.31865,1.80262 -25.7366,21.91875 26.03273,41.63763 24.4168,8.51318 -0.27382,-5.61322 -6.91281,-10.00879 -11.23371,-11.21711"
       id="path139"
       inkscape:connector-curvature="0"
       style="fill:#ffffff;stroke:none;stroke-width:0.51859045000000004" />
    <path
       d="m 318.54296,519.25558 c -4.84675,-2.98708 -10.84373,-2.00798 -15.31865,1.80262 -25.7366,21.91875 26.03273,41.63763 24.4168,8.51318 -0.27382,-5.61322 -6.91281,-10.00879 -11.23371,-11.21711"
       id="path141"
       inkscape:connector-curvature="0"
       style="fill-opacity:0;stroke:none;stroke-width:2.59295249000000010;stroke-linecap:round;stroke-linejoin:round" />
    <path
       style="fill-opacity:0;stroke:#d3d7cf;stroke-width:2.59295249;stroke-linecap:round;stroke-linejoin:round"
       inkscape:connector-curvature="0"
       id="path143"
       d="m 304.93469,527.39383 c 4.64501,-0.0332 9.20083,0.32722 13.84481,0.32722" />
    <path
       style="fill-opacity:0;stroke:#d3d7cf;stroke-width:2.59295249;stroke-linecap:round;stroke-linejoin:round"
       inkscape:connector-curvature="0"
       id="path145"
       d="m 305.01662,532.80065 c 4.47596,-0.1784 9.30404,1.25032 13.68094,0" />
    <path
       style="fill-opacity:0;stroke:#d3d7cf;stroke-width:2.59295249;stroke-linecap:round;stroke-linejoin:round"
       inkscape:connector-curvature="0"
       id="path147"
       d="m 305.05759,538.37134 c 4.45418,0.3708 9.18735,0.6332 13.599,0.0819" />
    <path
       style="fill:#ffffff;stroke:none;stroke-width:0.51859045000000004"
       inkscape:connector-curvature="0"
       id="path3038"
       d="m 360.68587,519.25558 c -4.84675,-2.98708 -10.84373,-2.00798 -15.31865,1.80262 -25.7366,21.91875 26.03273,41.63763 24.4168,8.51318 -0.27382,-5.61322 -6.91281,-10.00879 -11.23371,-11.21711" />
    <path
       style="fill-opacity:0;stroke:none;stroke-width:2.59295249000000010;stroke-linecap:round;stroke-linejoin:round"
       inkscape:connector-curvature="0"
       id="path3040"
       d="m 360.68587,519.25558 c -4.84675,-2.98708 -10.84373,-2.00798 -15.31865,1.80262 -25.7366,21.91875 26.03273,41.63763 24.4168,8.51318 -0.27382,-5.61322 -6.91281,-10.00879 -11.23371,-11.21711" />
    <path
       d="m 347.0776,527.39383 c 4.64501,-0.0332 9.20083,0.32722 13.84481,0.32722"
       id="path3042"
       inkscape:connector-curvature="0"
       style="fill-opacity:0;stroke:#000000;stroke-width:2.59295249000000010;stroke-linecap:round;stroke-linejoin:round" />
    <path
       d="m 347.15953,532.80065 c 4.47596,-0.1784 9.30404,1.25032 13.68094,0"
       id="path3044"
       inkscape:connector-curvature="0"
       style="fill-opacity:0;stroke:#000000;stroke-width:2.59295249000000010;stroke-linecap:round;stroke-linejoin:round" />
    <path
       d="m 347.2005,538.37134 c 4.45418,0.3708 9.18735,0.6332 13.599,0.0819"
       id="path3046"
       inkscape:connector-curvature="0"
       style="fill-opacity:0;stroke:#000000;stroke-width:2.59295249000000010;stroke-linecap:round;stroke-linejoin:round" />
    <path
       d="m 402.68587,519.25558 c -4.84675,-2.98708 -10.84373,-2.00798 -15.31864,1.80262 -25.73661,21.91875 26.03272,41.63763 24.41679,8.51318 -0.27381,-5.61322 -6.91281,-10.00879 -11.2337,-11.21711"
       id="path3052"
       inkscape:connector-curvature="0"
       style="fill:#ffffff;stroke:none;stroke-width:0.51859045000000004" />
    <path
       d="m 402.68587,519.25558 c -4.84675,-2.98708 -10.84373,-2.00798 -15.31864,1.80262 -25.73661,21.91875 26.03272,41.63763 24.41679,8.51318 -0.27381,-5.61322 -6.91281,-10.00879 -11.2337,-11.21711"
       id="path3054"
       inkscape:connector-curvature="0"
       style="fill-opacity:0;stroke:none;stroke-width:2.59295249000000010;stroke-linecap:round;stroke-linejoin:round" />
    <path
       style="fill-opacity:0;stroke:#000000;stroke-width:2.59295249000000010;stroke-linecap:round;stroke-linejoin:round"
       inkscape:connector-curvature="0"
       id="path3056"
       d="m 389.0776,527.39383 c 4.64501,-0.0332 9.20083,0.32722 13.84481,0.32722" />
    <path
       style="fill-opacity:0;stroke:#000000;stroke-width:2.59295249000000010;stroke-linecap:round;stroke-linejoin:round"
       inkscape:connector-curvature="0"
       id="path3058"
       d="m 389.15953,532.80065 c 4.47596,-0.1784 9.30404,1.25032 13.68094,0" />
    <path
       style="fill-opacity:0;stroke:#000000;stroke-width:2.59295249000000010;stroke-linecap:round;stroke-linejoin:round"
       inkscape:connector-curvature="0"
       id="path3060"
       d="m 389.2005,538.37134 c 4.45418,0.3708 9.18735,0.6332 13.599,0.0819" />
    <path
       style="fill:#ffffff;stroke:none;stroke-width:0.51859045000000004"
       inkscape:connector-curvature="0"
       id="path3066"
       d="m 444.68587,519.25558 c -4.84675,-2.98708 -10.84373,-2.00798 -15.31864,1.80262 -25.73661,21.91875 26.03272,41.63763 24.41679,8.51318 -0.27381,-5.61322 -6.91281,-10.00879 -11.2337,-11.21711" />
    <path
       style="fill-opacity:0;stroke:none;stroke-width:2.59295249000000010;stroke-linecap:round;stroke-linejoin:round"
       inkscape:connector-curvature="0"
       id="path3068"
       d="m 444.68587,519.25558 c -4.84675,-2.98708 -10.84373,-2.00798 -15.31864,1.80262 -25.73661,21.91875 26.03272,41.63763 24.41679,8.51318 -0.27381,-5.61322 -6.91281,-10.00879 -11.2337,-11.21711" />
    <path
       d="m 431.0776,527.39383 c 4.64501,-0.0332 9.20083,0.32722 13.84481,0.32722"
       id="path3070"
       inkscape:connector-curvature="0"
       style="fill-opacity:0;stroke:#000000;stroke-width:2.59295249000000010;stroke-linecap:round;stroke-linejoin:round" />
    <path
       d="m 431.15953,532.80065 c 4.47596,-0.1784 9.30404,1.25032 13.68094,0"
       id="path3072"
       inkscape:connector-curvature="0"
       style="fill-opacity:0;stroke:#000000;stroke-width:2.59295249000000010;stroke-linecap:round;stroke-linejoin:round" />
    <path
       d="m 431.2005,538.37134 c 4.45418,0.3708 9.18735,0.6332 13.599,0.0819"
       id="path3074"
       inkscape:connector-curvature="0"
       style="fill-opacity:0;stroke:#000000;stroke-width:2.59295249000000010;stroke-linecap:round;stroke-linejoin:round" />
  </g>
</svg>
