<?xml version="1.0" encoding="UTF-8" standalone="no"?>
<!-- Created with Inkscape (http://www.inkscape.org/) -->

<svg
   xmlns:dc="http://purl.org/dc/elements/1.1/"
   xmlns:cc="http://creativecommons.org/ns#"
   xmlns:rdf="http://www.w3.org/1999/02/22-rdf-syntax-ns#"
   xmlns:svg="http://www.w3.org/2000/svg"
   xmlns="http://www.w3.org/2000/svg"
   xmlns:sodipodi="http://sodipodi.sourceforge.net/DTD/sodipodi-0.dtd"
   xmlns:inkscape="http://www.inkscape.org/namespaces/inkscape"
   width="168"
   height="40"
   id="svg3021"
   version="1.1"
   inkscape:version="0.48.5 r10040"
   sodipodi:docname="media.svg">
  <defs
     id="defs3023" />
  <sodipodi:namedview
     id="base"
     pagecolor="#ffffff"
     bordercolor="#666666"
     borderopacity="1.0"
     inkscape:pageopacity="0.0"
     inkscape:pageshadow="2"
     inkscape:zoom="5.6"
     inkscape:cx="66.65864"
     inkscape:cy="3.2305436"
     inkscape:document-units="px"
     inkscape:current-layer="layer1"
     showgrid="false"
     inkscape:window-width="1718"
     inkscape:window-height="863"
     inkscape:window-x="30"
     inkscape:window-y="30"
     inkscape:window-maximized="0"
     fit-margin-top="0"
     fit-margin-left="0"
     fit-margin-right="0"
     fit-margin-bottom="0"
     showguides="true"
     inkscape:guide-bbox="true">
    <sodipodi:guide
       orientation="1,0"
       position="-52.21226,21.465742"
       id="guide3767" />
  </sodipodi:namedview>
  <metadata
     id="metadata3026">
    <rdf:RDF>
      <cc:Work
         rdf:about="">
        <dc:format>image/svg+xml</dc:format>
        <dc:type
           rdf:resource="http://purl.org/dc/dcmitype/StillImage" />
        <dc:title />
      </cc:Work>
    </rdf:RDF>
  </metadata>
  <g
     inkscape:label="Layer 1"
     inkscape:groupmode="layer"
     id="layer1"
     transform="translate(-291,-512.36218)">
    <rect
       style="fill:none;fill-opacity:1;stroke:none"
       id="rect3777"
       width="168.39287"
       height="40"
       x="291"
       y="512.54077" />
    <g
       id="g3764">
      <rect
         inkscape:export-ydpi="90"
         inkscape:export-xdpi="90"
         inkscape:export-filename="H:\svgs\xerte_buttons_test.png"
         y="512.36218"
         x="291"
         height="40"
         width="42"
         id="next"
         style="fill:none;fill-opacity:1;stroke:none;stroke-width:0;stroke-miterlimit:4;stroke-dasharray:none" />
      <rect
         inkscape:export-ydpi="90"
         inkscape:export-xdpi="90"
         inkscape:export-filename="H:\svgs\xerte_buttons_test.png"
         style="fill:none;fill-opacity:1;stroke:none"
         id="rect3766"
         width="42"
         height="40"
         x="333"
         y="512.36218" />
      <rect
         inkscape:export-ydpi="90"
         inkscape:export-xdpi="90"
         inkscape:export-filename="H:\svgs\xerte_buttons_test.png"
         y="512.36218"
         x="375"
         height="40"
         width="42"
         id="rect3768"
         style="fill:none;fill-opacity:1;stroke:none" />
      <rect
         inkscape:export-filename="H:\svgs\xerte_buttons_test.png"
         inkscape:export-ydpi="90"
         inkscape:export-xdpi="90"
         style="fill:none;fill-opacity:1;stroke:none"
         id="rect3770"
         width="42"
         height="40"
         x="417"
         y="512.36218" />
    </g>
    <path
       sodipodi:type="arc"
       style="fill:none;fill-opacity:1;stroke:none"
       id="path3807"
       sodipodi:cx="99.464287"
       sodipodi:cy="98.076469"
       sodipodi:rx="16.785715"
       sodipodi:ry="16.785715"
       d="m 116.25,98.076469 a 16.785715,16.785715 0 1 1 -33.571428,0 16.785715,16.785715 0 1 1 33.571428,0 z"
       transform="matrix(1.0425531,0,0,1.0425531,208.36219,430.11226)"
       inkscape:export-filename="H:\svgs\xerte_buttons_test.png"
       inkscape:export-xdpi="90"
       inkscape:export-ydpi="90" />
    <path
       transform="matrix(1.0425531,0,0,1.0425531,250.31992,430.11226)"
       d="m 116.25,98.076469 a 16.785715,16.785715 0 1 1 -33.571428,0 16.785715,16.785715 0 1 1 33.571428,0 z"
       sodipodi:ry="16.785715"
       sodipodi:rx="16.785715"
       sodipodi:cy="98.076469"
       sodipodi:cx="99.464287"
       id="path3809"
       style="fill:none;fill-opacity:1;stroke:none"
       sodipodi:type="arc"
       inkscape:export-filename="H:\svgs\xerte_buttons_test.png"
       inkscape:export-xdpi="90"
       inkscape:export-ydpi="90" />
    <path
       sodipodi:type="arc"
       style="fill:none;fill-opacity:1;stroke:none"
       id="path3811"
       sodipodi:cx="99.464287"
       sodipodi:cy="98.076469"
       sodipodi:rx="16.785715"
       sodipodi:ry="16.785715"
       d="m 116.25,98.076469 a 16.785715,16.785715 0 1 1 -33.571428,0 16.785715,16.785715 0 1 1 33.571428,0 z"
       transform="matrix(1.0425531,0,0,1.0425531,292.31992,430.11226)"
       inkscape:export-filename="H:\svgs\xerte_buttons_test.png"
       inkscape:export-xdpi="90"
       inkscape:export-ydpi="90" />
    <path
       transform="matrix(1.0425531,0,0,1.0425531,335.81992,430.11226)"
       d="m 116.25,98.076469 a 16.785715,16.785715 0 1 1 -33.571428,0 16.785715,16.785715 0 1 1 33.571428,0 z"
       sodipodi:ry="16.785715"
       sodipodi:rx="16.785715"
       sodipodi:cy="98.076469"
       sodipodi:cx="99.464287"
       id="path3813"
       style="fill:none;fill-opacity:1;stroke:none"
       sodipodi:type="arc"
       inkscape:export-filename="H:\svgs\xerte_buttons_test.png"
       inkscape:export-xdpi="90"
       inkscape:export-ydpi="90" />
    <g
       transform="matrix(0.60236985,0,0,0.60236985,273.86442,131.42414)"
       id="g23"
       style="fill:#ffffff;stroke:none">
      <path
         style="fill:#ffffff;stroke:none"
         inkscape:connector-curvature="0"
         id="path25"
         d="m 81.183,647.172 c -5.915,-6.566 -14.282,-5.199 -22.531,-5.199 -29.427,0 -26.686,38.045 -3.683,45.713 28.081,9.36 47.26,-23.037 24.914,-42.03" />
      <path
         style="fill-opacity:0;stroke:none;stroke-width:5.50000000000000000;stroke-linecap:round;stroke-linejoin:round;fill:#ffffff"
         inkscape:connector-curvature="0"
         id="path27"
         d="m 81.183,647.172 c -5.915,-6.566 -14.282,-5.199 -22.531,-5.199 -29.427,0 -26.686,38.045 -3.683,45.713 28.081,9.36 47.26,-23.037 24.914,-42.03" />
    </g>
    <path
       style="fill-opacity:0;stroke:#d3d7cf;stroke-width:2.40947938000000010;stroke-linecap:round;stroke-linejoin:round"
       inkscape:connector-curvature="0"
       id="path73"
       d="m 305.61834,523.39464 c 0.21926,5.45024 -0.67465,10.96132 -0.15661,16.39951" />
    <path
       style="fill-opacity:0;stroke:#d3d7cf;stroke-width:2.40947938000000010;stroke-linecap:round;stroke-linejoin:round"
       inkscape:connector-curvature="0"
       id="path75"
       d="m 317.0724,522.92539 c -0.2554,5.9201 0.37588,11.81549 0.37588,17.71389" />
    <path
       style="fill-opacity:0;stroke:#d3d7cf;stroke-width:2.40947938000000010;stroke-linecap:round;stroke-linejoin:round"
       inkscape:connector-curvature="0"
       id="path77"
       d="m 306.46287,525.08489 c 3.42206,0.24877 6.8381,-0.44334 10.23426,-0.28191" />
    <path
       style="fill-opacity:0;stroke:#d3d7cf;stroke-width:2.40947938000000010;stroke-linecap:round;stroke-linejoin:round"
       inkscape:connector-curvature="0"
       id="path79"
       d="m 306.27553,531.37543 c 3.47868,0.0705 6.94653,-0.094 10.4216,-0.094" />
    <path
       style="fill-opacity:0;stroke:#d3d7cf;stroke-width:2.40947938000000010;stroke-linecap:round;stroke-linejoin:round"
       inkscape:connector-curvature="0"
       id="path81"
       d="m 305.80568,538.26053 c 3.80035,-0.32288 7.93864,0.76741 11.61128,-0.28192" />
    <path
       style="fill-opacity:0;stroke:#ffffff;stroke-width:1.50592458;stroke-linecap:round;stroke-linejoin:round"
       inkscape:connector-curvature="0"
       id="path83"
       d="m 316.94711,525.11621 0,0" />
    <path
       style="fill-opacity:0;stroke:#ffffff;stroke-width:1.50592458;stroke-linecap:round;stroke-linejoin:round"
       inkscape:connector-curvature="0"
       id="path85"
       d="m 316.75978,528.65273 0,0" />
    <path
       style="fill-opacity:0;stroke:#ffffff;stroke-width:1.50592458;stroke-linecap:round;stroke-linejoin:round"
       inkscape:connector-curvature="0"
       id="path87"
       d="m 316.94711,531.78204 0,0" />
    <path
       style="fill-opacity:0;stroke:#ffffff;stroke-width:1.50592458;stroke-linecap:round;stroke-linejoin:round"
       inkscape:connector-curvature="0"
       id="path89"
       d="m 317.29167,535.09989 0,0" />
    <path
       style="fill-opacity:0;stroke:#ffffff;stroke-width:1.50592458;stroke-linecap:round;stroke-linejoin:round"
       inkscape:connector-curvature="0"
       id="path91"
       d="m 317.6043,538.82374 0,0" />
    <path
       style="fill-opacity:0;stroke:#ffffff;stroke-width:1.50592458;stroke-linecap:round;stroke-linejoin:round"
       inkscape:connector-curvature="0"
       id="path93"
       d="m 305.74303,524.92827 0,0" />
    <path
       style="fill-opacity:0;stroke:#ffffff;stroke-width:1.50592458;stroke-linecap:round;stroke-linejoin:round"
       inkscape:connector-curvature="0"
       id="path95"
       d="m 305.43041,528.84066 0,0" />
    <path
       style="fill-opacity:0;stroke:#ffffff;stroke-width:1.50592458;stroke-linecap:round;stroke-linejoin:round"
       inkscape:connector-curvature="0"
       id="path97"
       d="m 305.58702,532.78378 0,0" />
    <path
       style="fill-opacity:0;stroke:#ffffff;stroke-width:1.50592458;stroke-linecap:round;stroke-linejoin:round"
       inkscape:connector-curvature="0"
       id="path99"
       d="m 305.24247,536.22632 0,0" />
    <path
       style="fill-opacity:0;stroke:#ffffff;stroke-width:1.50592458;stroke-linecap:round;stroke-linejoin:round"
       inkscape:connector-curvature="0"
       id="path101"
       d="m 305.58702,539.10564 0,0" />
    <g
       id="g3060"
       transform="matrix(0.60236985,0,0,0.60236985,315.82215,131.42414)"
       style="fill:#ffffff;stroke:none">
      <path
         d="m 81.183,647.172 c -5.915,-6.566 -14.282,-5.199 -22.531,-5.199 -29.427,0 -26.686,38.045 -3.683,45.713 28.081,9.36 47.26,-23.037 24.914,-42.03"
         id="path3062"
         inkscape:connector-curvature="0"
         style="fill:#ffffff;stroke:none" />
      <path
         d="m 81.183,647.172 c -5.915,-6.566 -14.282,-5.199 -22.531,-5.199 -29.427,0 -26.686,38.045 -3.683,45.713 28.081,9.36 47.26,-23.037 24.914,-42.03"
         id="path3064"
         inkscape:connector-curvature="0"
         style="fill-opacity:0;stroke:none;stroke-width:5.50000000000000000;stroke-linecap:round;stroke-linejoin:round;fill:#ffffff" />
    </g>
    <path
       d="m 347.57607,523.39464 c 0.21927,5.45024 -0.67464,10.96132 -0.15661,16.39951"
       id="path3066"
       inkscape:connector-curvature="0"
       style="fill-opacity:0;stroke:#000000;stroke-width:2.40947938000000010;stroke-linecap:round;stroke-linejoin:round" />
    <path
       d="m 359.03014,522.92539 c -0.2554,5.9201 0.37588,11.81549 0.37588,17.71389"
       id="path3068"
       inkscape:connector-curvature="0"
       style="fill-opacity:0;stroke:#000000;stroke-width:2.40947938000000010;stroke-linecap:round;stroke-linejoin:round" />
    <path
       d="m 348.42061,525.08489 c 3.42205,0.24877 6.8381,-0.44334 10.23426,-0.28191"
       id="path3070"
       inkscape:connector-curvature="0"
       style="fill-opacity:0;stroke:#000000;stroke-width:2.40947938000000010;stroke-linecap:round;stroke-linejoin:round" />
    <path
       d="m 348.23327,531.37543 c 3.47868,0.0705 6.94653,-0.094 10.4216,-0.094"
       id="path3072"
       inkscape:connector-curvature="0"
       style="fill-opacity:0;stroke:#000000;stroke-width:2.40947938000000010;stroke-linecap:round;stroke-linejoin:round" />
    <path
       d="m 347.76341,538.26053 c 3.80035,-0.32288 7.93865,0.76741 11.61129,-0.28192"
       id="path3074"
       inkscape:connector-curvature="0"
       style="fill-opacity:0;stroke:#000000;stroke-width:2.40947938000000010;stroke-linecap:round;stroke-linejoin:round" />
    <path
       d="m 358.90485,525.11621 0,0"
       id="path3076"
       inkscape:connector-curvature="0"
       style="fill-opacity:0;stroke:#ffffff;stroke-width:1.50592458;stroke-linecap:round;stroke-linejoin:round" />
    <path
       d="m 358.71751,528.65273 0,0"
       id="path3078"
       inkscape:connector-curvature="0"
       style="fill-opacity:0;stroke:#ffffff;stroke-width:1.50592458;stroke-linecap:round;stroke-linejoin:round" />
    <path
       d="m 358.90485,531.78204 0,0"
       id="path3080"
       inkscape:connector-curvature="0"
       style="fill-opacity:0;stroke:#ffffff;stroke-width:1.50592458;stroke-linecap:round;stroke-linejoin:round" />
    <path
       d="m 359.24941,535.09989 0,0"
       id="path3082"
       inkscape:connector-curvature="0"
       style="fill-opacity:0;stroke:#ffffff;stroke-width:1.50592458;stroke-linecap:round;stroke-linejoin:round" />
    <path
       d="m 359.56204,538.82374 0,0"
       id="path3084"
       inkscape:connector-curvature="0"
       style="fill-opacity:0;stroke:#ffffff;stroke-width:1.50592458;stroke-linecap:round;stroke-linejoin:round" />
    <path
       d="m 347.70076,524.92827 0,0"
       id="path3086"
       inkscape:connector-curvature="0"
       style="fill-opacity:0;stroke:#ffffff;stroke-width:1.50592458;stroke-linecap:round;stroke-linejoin:round" />
    <path
       d="m 347.38814,528.84066 0,0"
       id="path3088"
       inkscape:connector-curvature="0"
       style="fill-opacity:0;stroke:#ffffff;stroke-width:1.50592458;stroke-linecap:round;stroke-linejoin:round" />
    <path
       d="m 347.54475,532.78378 0,0"
       id="path3090"
       inkscape:connector-curvature="0"
       style="fill-opacity:0;stroke:#ffffff;stroke-width:1.50592458;stroke-linecap:round;stroke-linejoin:round" />
    <path
       d="m 347.2002,536.22632 0,0"
       id="path3092"
       inkscape:connector-curvature="0"
       style="fill-opacity:0;stroke:#ffffff;stroke-width:1.50592458;stroke-linecap:round;stroke-linejoin:round" />
    <path
       d="m 347.54475,539.10564 0,0"
       id="path3094"
       inkscape:connector-curvature="0"
       style="fill-opacity:0;stroke:#ffffff;stroke-width:1.50592458;stroke-linecap:round;stroke-linejoin:round" />
    <g
       transform="matrix(0.60236985,0,0,0.60236985,357.82215,131.42414)"
       id="g3098"
       style="fill:#ffffff;stroke:none">
      <path
         style="fill:#ffffff;stroke:none"
         inkscape:connector-curvature="0"
         id="path3100"
         d="m 81.183,647.172 c -5.915,-6.566 -14.282,-5.199 -22.531,-5.199 -29.427,0 -26.686,38.045 -3.683,45.713 28.081,9.36 47.26,-23.037 24.914,-42.03" />
      <path
         style="fill-opacity:0;stroke:none;stroke-width:5.50000000000000000;stroke-linecap:round;stroke-linejoin:round;fill:#ffffff"
         inkscape:connector-curvature="0"
         id="path3102"
         d="m 81.183,647.172 c -5.915,-6.566 -14.282,-5.199 -22.531,-5.199 -29.427,0 -26.686,38.045 -3.683,45.713 28.081,9.36 47.26,-23.037 24.914,-42.03" />
    </g>
    <path
       style="fill-opacity:0;stroke:#000000;stroke-width:2.40947938000000010;stroke-linecap:round;stroke-linejoin:round"
       inkscape:connector-curvature="0"
       id="path3104"
       d="m 389.57607,523.39464 c 0.21927,5.45024 -0.67464,10.96132 -0.15661,16.39951" />
    <path
       style="fill-opacity:0;stroke:#000000;stroke-width:2.40947938000000010;stroke-linecap:round;stroke-linejoin:round"
       inkscape:connector-curvature="0"
       id="path3106"
       d="m 401.03014,522.92539 c -0.2554,5.9201 0.37588,11.81549 0.37588,17.71389" />
    <path
       style="fill-opacity:0;stroke:#000000;stroke-width:2.40947938000000010;stroke-linecap:round;stroke-linejoin:round"
       inkscape:connector-curvature="0"
       id="path3108"
       d="m 390.42061,525.08489 c 3.42205,0.24877 6.8381,-0.44334 10.23426,-0.28191" />
    <path
       style="fill-opacity:0;stroke:#000000;stroke-width:2.40947938000000010;stroke-linecap:round;stroke-linejoin:round"
       inkscape:connector-curvature="0"
       id="path3110"
       d="m 390.23327,531.37543 c 3.47868,0.0705 6.94653,-0.094 10.4216,-0.094" />
    <path
       style="fill-opacity:0;stroke:#000000;stroke-width:2.40947938000000010;stroke-linecap:round;stroke-linejoin:round"
       inkscape:connector-curvature="0"
       id="path3112"
       d="m 389.76341,538.26053 c 3.80035,-0.32288 7.93865,0.76741 11.61129,-0.28192" />
    <path
       style="fill-opacity:0;stroke:#ffffff;stroke-width:1.50592458;stroke-linecap:round;stroke-linejoin:round"
       inkscape:connector-curvature="0"
       id="path3114"
       d="m 400.90485,525.11621 0,0" />
    <path
       style="fill-opacity:0;stroke:#ffffff;stroke-width:1.50592458;stroke-linecap:round;stroke-linejoin:round"
       inkscape:connector-curvature="0"
       id="path3116"
       d="m 400.71751,528.65273 0,0" />
    <path
       style="fill-opacity:0;stroke:#ffffff;stroke-width:1.50592458;stroke-linecap:round;stroke-linejoin:round"
       inkscape:connector-curvature="0"
       id="path3118"
       d="m 400.90485,531.78204 0,0" />
    <path
       style="fill-opacity:0;stroke:#ffffff;stroke-width:1.50592458;stroke-linecap:round;stroke-linejoin:round"
       inkscape:connector-curvature="0"
       id="path3120"
       d="m 401.24941,535.09989 0,0" />
    <path
       style="fill-opacity:0;stroke:#ffffff;stroke-width:1.50592458;stroke-linecap:round;stroke-linejoin:round"
       inkscape:connector-curvature="0"
       id="path3122"
       d="m 401.56204,538.82374 0,0" />
    <path
       style="fill-opacity:0;stroke:#ffffff;stroke-width:1.50592458;stroke-linecap:round;stroke-linejoin:round"
       inkscape:connector-curvature="0"
       id="path3124"
       d="m 389.70076,524.92827 0,0" />
    <path
       style="fill-opacity:0;stroke:#ffffff;stroke-width:1.50592458;stroke-linecap:round;stroke-linejoin:round"
       inkscape:connector-curvature="0"
       id="path3126"
       d="m 389.38814,528.84066 0,0" />
    <path
       style="fill-opacity:0;stroke:#ffffff;stroke-width:1.50592458;stroke-linecap:round;stroke-linejoin:round"
       inkscape:connector-curvature="0"
       id="path3128"
       d="m 389.54475,532.78378 0,0" />
    <path
       style="fill-opacity:0;stroke:#ffffff;stroke-width:1.50592458;stroke-linecap:round;stroke-linejoin:round"
       inkscape:connector-curvature="0"
       id="path3130"
       d="m 389.2002,536.22632 0,0" />
    <path
       style="fill-opacity:0;stroke:#ffffff;stroke-width:1.50592458;stroke-linecap:round;stroke-linejoin:round"
       inkscape:connector-curvature="0"
       id="path3132"
       d="m 389.54475,539.10564 0,0" />
    <g
       id="g3136"
       transform="matrix(0.60236985,0,0,0.60236985,401.32215,131.42414)"
       style="fill:#ffffff;stroke:none">
      <path
         d="m 81.183,647.172 c -5.915,-6.566 -14.282,-5.199 -22.531,-5.199 -29.427,0 -26.686,38.045 -3.683,45.713 28.081,9.36 47.26,-23.037 24.914,-42.03"
         id="path3138"
         inkscape:connector-curvature="0"
         style="fill:#ffffff;stroke:none" />
      <path
         d="m 81.183,647.172 c -5.915,-6.566 -14.282,-5.199 -22.531,-5.199 -29.427,0 -26.686,38.045 -3.683,45.713 28.081,9.36 47.26,-23.037 24.914,-42.03"
         id="path3140"
         inkscape:connector-curvature="0"
         style="fill-opacity:0;stroke:none;stroke-width:5.50000000000000000;stroke-linecap:round;stroke-linejoin:round;fill:#ffffff" />
    </g>
    <path
       d="m 433.07607,523.39464 c 0.21926,5.45024 -0.67465,10.96132 -0.15661,16.39951"
       id="path3142"
       inkscape:connector-curvature="0"
       style="fill-opacity:0;stroke:#000000;stroke-width:2.40947938000000010;stroke-linecap:round;stroke-linejoin:round" />
    <path
       d="m 444.53013,522.92539 c -0.2554,5.9201 0.37588,11.81549 0.37588,17.71389"
       id="path3144"
       inkscape:connector-curvature="0"
       style="fill-opacity:0;stroke:#000000;stroke-width:2.40947938000000010;stroke-linecap:round;stroke-linejoin:round" />
    <path
       d="m 433.9206,525.08489 c 3.42206,0.24877 6.8381,-0.44334 10.23426,-0.28191"
       id="path3146"
       inkscape:connector-curvature="0"
       style="fill-opacity:0;stroke:#000000;stroke-width:2.40947938000000010;stroke-linecap:round;stroke-linejoin:round" />
    <path
       d="m 433.73326,531.37543 c 3.47868,0.0705 6.94653,-0.094 10.4216,-0.094"
       id="path3148"
       inkscape:connector-curvature="0"
       style="fill-opacity:0;stroke:#000000;stroke-width:2.40947938000000010;stroke-linecap:round;stroke-linejoin:round" />
    <path
       d="m 433.26341,538.26053 c 3.80035,-0.32288 7.93864,0.76741 11.61128,-0.28192"
       id="path3150"
       inkscape:connector-curvature="0"
       style="fill-opacity:0;stroke:#000000;stroke-width:2.40947938000000010;stroke-linecap:round;stroke-linejoin:round" />
    <path
       d="m 444.40484,525.11621 0,0"
       id="path3152"
       inkscape:connector-curvature="0"
       style="fill-opacity:0;stroke:#ffffff;stroke-width:1.50592458;stroke-linecap:round;stroke-linejoin:round" />
    <path
       d="m 444.21751,528.65273 0,0"
       id="path3154"
       inkscape:connector-curvature="0"
       style="fill-opacity:0;stroke:#ffffff;stroke-width:1.50592458;stroke-linecap:round;stroke-linejoin:round" />
    <path
       d="m 444.40484,531.78204 0,0"
       id="path3156"
       inkscape:connector-curvature="0"
       style="fill-opacity:0;stroke:#ffffff;stroke-width:1.50592458;stroke-linecap:round;stroke-linejoin:round" />
    <path
       d="m 444.7494,535.09989 0,0"
       id="path3158"
       inkscape:connector-curvature="0"
       style="fill-opacity:0;stroke:#ffffff;stroke-width:1.50592458;stroke-linecap:round;stroke-linejoin:round" />
    <path
       d="m 445.06203,538.82374 0,0"
       id="path3160"
       inkscape:connector-curvature="0"
       style="fill-opacity:0;stroke:#ffffff;stroke-width:1.50592458;stroke-linecap:round;stroke-linejoin:round" />
    <path
       d="m 433.20076,524.92827 0,0"
       id="path3162"
       inkscape:connector-curvature="0"
       style="fill-opacity:0;stroke:#ffffff;stroke-width:1.50592458;stroke-linecap:round;stroke-linejoin:round" />
    <path
       d="m 432.88814,528.84066 0,0"
       id="path3164"
       inkscape:connector-curvature="0"
       style="fill-opacity:0;stroke:#ffffff;stroke-width:1.50592458;stroke-linecap:round;stroke-linejoin:round" />
    <path
       d="m 433.04475,532.78378 0,0"
       id="path3166"
       inkscape:connector-curvature="0"
       style="fill-opacity:0;stroke:#ffffff;stroke-width:1.50592458;stroke-linecap:round;stroke-linejoin:round" />
    <path
       d="m 432.7002,536.22632 0,0"
       id="path3168"
       inkscape:connector-curvature="0"
       style="fill-opacity:0;stroke:#ffffff;stroke-width:1.50592458;stroke-linecap:round;stroke-linejoin:round" />
    <path
       d="m 433.04475,539.10564 0,0"
       id="path3170"
       inkscape:connector-curvature="0"
       style="fill-opacity:0;stroke:#ffffff;stroke-width:1.50592458;stroke-linecap:round;stroke-linejoin:round" />
  </g>
</svg>
