<?xml version="1.0" encoding="UTF-8" standalone="no"?>
<!-- Created with Inkscape (http://www.inkscape.org/) -->

<svg
   xmlns:dc="http://purl.org/dc/elements/1.1/"
   xmlns:cc="http://creativecommons.org/ns#"
   xmlns:rdf="http://www.w3.org/1999/02/22-rdf-syntax-ns#"
   xmlns:svg="http://www.w3.org/2000/svg"
   xmlns="http://www.w3.org/2000/svg"
   xmlns:sodipodi="http://sodipodi.sourceforge.net/DTD/sodipodi-0.dtd"
   xmlns:inkscape="http://www.inkscape.org/namespaces/inkscape"
   width="168"
   height="40"
   id="svg3021"
   version="1.1"
   inkscape:version="0.48.5 r10040"
   sodipodi:docname="minimise.svg">
  <defs
     id="defs3023">
    <marker
       inkscape:stockid="Arrow1Lstart"
       orient="auto"
       refY="0.0"
       refX="0.0"
       id="Arrow1Lstart"
       style="overflow:visible">
      <path
         id="path4028"
         d="M 0.0,0.0 L 5.0,-5.0 L -12.5,0.0 L 5.0,5.0 L 0.0,0.0 z "
         style="fill-rule:evenodd;stroke:#000000;stroke-width:1.0pt"
         transform="scale(0.8) translate(12.5,0)" />
    </marker>
  </defs>
  <sodipodi:namedview
     id="base"
     pagecolor="#ffffff"
     bordercolor="#666666"
     borderopacity="1.0"
     inkscape:pageopacity="0.0"
     inkscape:pageshadow="2"
     inkscape:zoom="5.6568542"
     inkscape:cx="89.361327"
     inkscape:cy="2.3767161"
     inkscape:document-units="px"
     inkscape:current-layer="layer1"
     showgrid="false"
     inkscape:window-width="1718"
     inkscape:window-height="863"
     inkscape:window-x="30"
     inkscape:window-y="30"
     inkscape:window-maximized="0"
     fit-margin-top="0"
     fit-margin-left="0"
     fit-margin-right="0"
     fit-margin-bottom="0"
     showguides="true"
     inkscape:guide-bbox="true">
    <sodipodi:guide
       orientation="1,0"
       position="-52.21226,21.465742"
       id="guide3767" />
  </sodipodi:namedview>
  <metadata
     id="metadata3026">
    <rdf:RDF>
      <cc:Work
         rdf:about="">
        <dc:format>image/svg+xml</dc:format>
        <dc:type
           rdf:resource="http://purl.org/dc/dcmitype/StillImage" />
        <dc:title />
      </cc:Work>
    </rdf:RDF>
  </metadata>
  <g
     inkscape:label="Layer 1"
     inkscape:groupmode="layer"
     id="layer1"
     transform="translate(-291,-512.36218)">
    <rect
       style="fill:none;fill-opacity:1;stroke:none"
       id="rect3777"
       width="168.39287"
       height="40"
       x="291"
       y="512.54077" />
    <g
       id="g3764">
      <rect
         inkscape:export-ydpi="90"
         inkscape:export-xdpi="90"
         inkscape:export-filename="H:\svgs\xerte_buttons_test.png"
         y="512.36218"
         x="291"
         height="40"
         width="42"
         id="next"
         style="fill:none;fill-opacity:1;stroke:none;stroke-width:0;stroke-miterlimit:4;stroke-dasharray:none" />
      <rect
         inkscape:export-ydpi="90"
         inkscape:export-xdpi="90"
         inkscape:export-filename="H:\svgs\xerte_buttons_test.png"
         style="fill:none;fill-opacity:1;stroke:none"
         id="rect3766"
         width="42"
         height="40"
         x="333"
         y="512.36218" />
      <rect
         inkscape:export-ydpi="90"
         inkscape:export-xdpi="90"
         inkscape:export-filename="H:\svgs\xerte_buttons_test.png"
         y="512.36218"
         x="375"
         height="40"
         width="42"
         id="rect3768"
         style="fill:none;fill-opacity:1;stroke:none" />
      <rect
         inkscape:export-filename="H:\svgs\xerte_buttons_test.png"
         inkscape:export-ydpi="90"
         inkscape:export-xdpi="90"
         style="fill:none;fill-opacity:1;stroke:none"
         id="rect3770"
         width="42"
         height="40"
         x="417"
         y="512.36218" />
    </g>
    <path
       sodipodi:type="arc"
       style="fill:none;fill-opacity:1;stroke:none;stroke-width:0.95918375000000000;stroke-miterlimit:4;stroke-dasharray:none"
       id="path3807"
       sodipodi:cx="99.464287"
       sodipodi:cy="98.076469"
       sodipodi:rx="16.785715"
       sodipodi:ry="16.785715"
       d="m 116.25,98.076469 c 0,9.270491 -7.51522,16.785711 -16.785713,16.785711 -9.270495,0 -16.785715,-7.51522 -16.785715,-16.785711 0,-9.270494 7.51522,-16.785715 16.785715,-16.785715 9.270493,0 16.785713,7.515221 16.785713,16.785715 z"
       transform="matrix(1.0425531,0,0,1.0425531,208.3032,430.11226)"
       inkscape:export-filename="H:\svgs\xerte_buttons_test.png"
       inkscape:export-xdpi="90"
       inkscape:export-ydpi="90" />
    <path
       transform="matrix(1.0425531,0,0,1.0425531,250.3032,430.11226)"
       d="m 116.25,98.076469 c 0,9.270491 -7.51522,16.785711 -16.785713,16.785711 -9.270495,0 -16.785715,-7.51522 -16.785715,-16.785711 0,-9.270494 7.51522,-16.785715 16.785715,-16.785715 9.270493,0 16.785713,7.515221 16.785713,16.785715 z"
       sodipodi:ry="16.785715"
       sodipodi:rx="16.785715"
       sodipodi:cy="98.076469"
       sodipodi:cx="99.464287"
       id="path3809"
       style="fill:none;fill-opacity:1;stroke:none;stroke-width:0.95918375000000000;stroke-miterlimit:4;stroke-dasharray:none"
       sodipodi:type="arc"
       inkscape:export-filename="H:\svgs\xerte_buttons_test.png"
       inkscape:export-xdpi="90"
       inkscape:export-ydpi="90" />
    <path
       sodipodi:type="arc"
       style="fill:none;fill-opacity:1;stroke:none;stroke-width:0.95918375000000000;stroke-miterlimit:4;stroke-dasharray:none"
       id="path3811"
       sodipodi:cx="99.464287"
       sodipodi:cy="98.076469"
       sodipodi:rx="16.785715"
       sodipodi:ry="16.785715"
       d="m 116.25,98.076469 c 0,9.270491 -7.51522,16.785711 -16.785713,16.785711 -9.270495,0 -16.785715,-7.51522 -16.785715,-16.785711 0,-9.270494 7.51522,-16.785715 16.785715,-16.785715 9.270493,0 16.785713,7.515221 16.785713,16.785715 z"
       transform="matrix(1.0425531,0,0,1.0425531,292.3032,430.11226)"
       inkscape:export-filename="H:\svgs\xerte_buttons_test.png"
       inkscape:export-xdpi="90"
       inkscape:export-ydpi="90" />
    <path
       transform="matrix(1.0425531,0,0,1.0425531,334.3032,430.11226)"
       d="m 116.25,98.076469 c 0,9.270491 -7.51522,16.785711 -16.785713,16.785711 -9.270495,0 -16.785715,-7.51522 -16.785715,-16.785711 0,-9.270494 7.51522,-16.785715 16.785715,-16.785715 9.270493,0 16.785713,7.515221 16.785713,16.785715 z"
       sodipodi:ry="16.785715"
       sodipodi:rx="16.785715"
       sodipodi:cy="98.076469"
       sodipodi:cx="99.464287"
       id="path3813"
       style="fill:none;fill-opacity:1;stroke:none;stroke-width:0.95918375000000000;stroke-miterlimit:4;stroke-dasharray:none"
       sodipodi:type="arc"
       inkscape:export-filename="H:\svgs\xerte_buttons_test.png"
       inkscape:export-xdpi="90"
       inkscape:export-ydpi="90" />
    <g
       transform="matrix(0.60358141,0,0,0.60358141,193.62795,222.16951)"
       id="g155"
       style="fill:#ffffff;stroke:none">
      <path
         style="fill:#ffffff;stroke:none"
         inkscape:connector-curvature="0"
         id="path157"
         d="m 203.518,490.517 c -7.952,-0.53 -13.986,-0.418 -20.582,4.116 -27.723,19.06 -3.858,51.63 24.481,40.73 24.084,-9.263 14.7,-41.346 -7.149,-44.196" />
      <path
         style="fill-opacity:0;stroke:none;stroke-width:5.50000000000000000;stroke-linecap:round;stroke-linejoin:round;fill:#ffffff"
         inkscape:connector-curvature="0"
         id="path159"
         d="m 203.518,490.517 c -7.952,-0.53 -13.986,-0.418 -20.582,4.116 -27.723,19.06 -3.858,51.63 24.481,40.73 24.084,-9.263 14.7,-41.346 -7.149,-44.196" />
    </g>
    <g
       transform="matrix(0.60358141,0,0,0.60358141,193.62795,222.16951)"
       id="g197"
       style="stroke:#d3d7cf;fill:#ffffff">
      <path
         style="fill:#ffffff;stroke:#d3d7cf"
         inkscape:connector-curvature="0"
         id="path199"
         d="m 183.792,502.75 c 1.079,2.036 -0.692,15.725 0.204,16.909 0.463,0.611 3.161,0.275 3.837,0.323 4.92,0.349 9.649,-0.399 14.532,-0.566 1.89,-0.065 6.957,0.657 8.614,0 0.39,-0.155 0.244,-2.399 0.244,-2.751 0,-2.128 1.339,-12.975 0.123,-14.481 -0.56,-0.694 -3.384,-0.243 -4.041,-0.243 -7.795,0 -15.594,0.202 -23.391,0.202" />
      <path
         style="fill-opacity:0;stroke:#d3d7cf;stroke-width:2;stroke-linecap:round;stroke-linejoin:round;fill:#ffffff"
         inkscape:connector-curvature="0"
         id="path201"
         d="m 183.792,502.75 c 1.079,2.036 -0.692,15.725 0.204,16.909 0.463,0.611 3.161,0.275 3.837,0.323 4.92,0.349 9.649,-0.399 14.532,-0.566 1.89,-0.065 6.957,0.657 8.614,0 0.39,-0.155 0.244,-2.399 0.244,-2.751 0,-2.128 1.339,-12.975 0.123,-14.481 -0.56,-0.694 -3.384,-0.243 -4.041,-0.243 -7.795,0 -15.594,0.202 -23.391,0.202" />
    </g>
    <g
       transform="matrix(0.60358141,0,0,0.60358141,193.62795,222.16951)"
       id="g203"
       style="fill:#d3d7cf;stroke:#d3d7cf">
      <path
         style="fill:#d3d7cf;stroke:#d3d7cf"
         inkscape:connector-curvature="0"
         id="path205"
         d="m 184.381,505.935 c 4.155,-0.057 8.301,-0.095 12.462,-0.095 2.189,0 4.378,0 6.567,0 1.008,0 7.406,0.065 8.196,-0.522 0.327,-0.244 0.288,-1.135 0.288,-1.52 0,-0.692 -0.068,-1.159 -0.528,-1.615 -0.854,-0.847 -4.42,-0.285 -5.56,-0.285 -5.699,0 -11.39,0.237 -17.063,0.237 -0.692,0 -3.888,-0.422 -4.41,0.095 -0.548,0.544 -0.328,2.531 -0.239,3.23" />
      <path
         style="fill-opacity:0;stroke:#d3d7cf;stroke-width:2;stroke-linecap:round;stroke-linejoin:round;fill:#d3d7cf"
         inkscape:connector-curvature="0"
         id="path207"
         d="m 184.381,505.935 c 4.155,-0.057 8.301,-0.095 12.462,-0.095 2.189,0 4.378,0 6.567,0 1.008,0 7.406,0.065 8.196,-0.522 0.327,-0.244 0.288,-1.135 0.288,-1.52 0,-0.692 -0.068,-1.159 -0.528,-1.615 -0.854,-0.847 -4.42,-0.285 -5.56,-0.285 -5.699,0 -11.39,0.237 -17.063,0.237 -0.692,0 -3.888,-0.422 -4.41,0.095 -0.548,0.544 -0.328,2.531 -0.239,3.23" />
    </g>
    <g
       transform="matrix(0.60358141,0,0,0.60358141,193.62795,222.16951)"
       id="g209"
       style="stroke:#d3d7cf;fill:#ffffff">
      <path
         style="fill:#ffffff;stroke:#d3d7cf"
         inkscape:connector-curvature="0"
         id="path211"
         d="m 180.396,510.342 c 1.08,2.036 -0.691,15.726 0.205,16.909 0.463,0.612 3.161,0.276 3.837,0.323 4.919,0.349 9.649,-0.399 14.532,-0.566 1.889,-0.064 6.957,0.657 8.613,0 0.39,-0.155 0.245,-2.399 0.245,-2.751 0,-2.128 1.339,-12.974 0.123,-14.481 -0.561,-0.694 -3.384,-0.243 -4.042,-0.243 -7.795,0 -15.593,0.203 -23.39,0.203" />
      <path
         style="fill-opacity:0;stroke:#d3d7cf;stroke-width:2;stroke-linecap:round;stroke-linejoin:round;fill:#ffffff"
         inkscape:connector-curvature="0"
         id="path213"
         d="m 180.396,510.342 c 1.08,2.036 -0.691,15.726 0.205,16.909 0.463,0.612 3.161,0.276 3.837,0.323 4.919,0.349 9.649,-0.399 14.532,-0.566 1.889,-0.064 6.957,0.657 8.613,0 0.39,-0.155 0.245,-2.399 0.245,-2.751 0,-2.128 1.339,-12.974 0.123,-14.481 -0.561,-0.694 -3.384,-0.243 -4.042,-0.243 -7.795,0 -15.593,0.203 -23.39,0.203" />
    </g>
    <g
       transform="matrix(0.60358141,0,0,0.60358141,193.62795,222.16951)"
       id="g215"
       style="fill:#d3d7cf;stroke:#d3d7cf">
      <path
         style="fill:#d3d7cf;stroke:#d3d7cf"
         inkscape:connector-curvature="0"
         id="path217"
         d="m 180.846,513.045 c 4.155,-0.057 8.301,-0.095 12.462,-0.095 2.189,0 4.378,0 6.567,0 1.007,0 7.406,0.065 8.196,-0.522 0.327,-0.243 0.287,-1.135 0.287,-1.52 0,-0.692 -0.067,-1.159 -0.527,-1.615 -0.854,-0.847 -4.42,-0.285 -5.56,-0.285 -5.699,0 -11.39,0.237 -17.063,0.237 -0.692,0 -3.888,-0.422 -4.41,0.095 -0.548,0.544 -0.328,2.531 -0.239,3.23" />
      <path
         style="fill-opacity:0;stroke:#d3d7cf;stroke-width:2;stroke-linecap:round;stroke-linejoin:round;fill:#d3d7cf"
         inkscape:connector-curvature="0"
         id="path219"
         d="m 180.846,513.045 c 4.155,-0.057 8.301,-0.095 12.462,-0.095 2.189,0 4.378,0 6.567,0 1.007,0 7.406,0.065 8.196,-0.522 0.327,-0.243 0.287,-1.135 0.287,-1.52 0,-0.692 -0.067,-1.159 -0.527,-1.615 -0.854,-0.847 -4.42,-0.285 -5.56,-0.285 -5.699,0 -11.39,0.237 -17.063,0.237 -0.692,0 -3.888,-0.422 -4.41,0.095 -0.548,0.544 -0.328,2.531 -0.239,3.23" />
    </g>
    <g
       id="g3065"
       transform="matrix(0.60358141,0,0,0.60358141,235.62795,222.16951)"
       style="fill:#ffffff;stroke:none">
      <path
         d="m 203.518,490.517 c -7.952,-0.53 -13.986,-0.418 -20.582,4.116 -27.723,19.06 -3.858,51.63 24.481,40.73 24.084,-9.263 14.7,-41.346 -7.149,-44.196"
         id="path3067"
         inkscape:connector-curvature="0"
         style="fill:#ffffff;stroke:none" />
      <path
         d="m 203.518,490.517 c -7.952,-0.53 -13.986,-0.418 -20.582,4.116 -27.723,19.06 -3.858,51.63 24.481,40.73 24.084,-9.263 14.7,-41.346 -7.149,-44.196"
         id="path3069"
         inkscape:connector-curvature="0"
         style="fill-opacity:0;stroke:none;stroke-width:5.50000000000000000;stroke-linecap:round;stroke-linejoin:round;fill:#ffffff" />
    </g>
    <g
       id="g3071"
       transform="matrix(0.60358141,0,0,0.60358141,235.62795,222.16951)"
       style="stroke:#000000;fill:#ffffff">
      <path
         d="m 183.792,502.75 c 1.079,2.036 -0.692,15.725 0.204,16.909 0.463,0.611 3.161,0.275 3.837,0.323 4.92,0.349 9.649,-0.399 14.532,-0.566 1.89,-0.065 6.957,0.657 8.614,0 0.39,-0.155 0.244,-2.399 0.244,-2.751 0,-2.128 1.339,-12.975 0.123,-14.481 -0.56,-0.694 -3.384,-0.243 -4.041,-0.243 -7.795,0 -15.594,0.202 -23.391,0.202"
         id="path3073"
         inkscape:connector-curvature="0"
         style="fill:#ffffff;stroke:#000000" />
      <path
         d="m 183.792,502.75 c 1.079,2.036 -0.692,15.725 0.204,16.909 0.463,0.611 3.161,0.275 3.837,0.323 4.92,0.349 9.649,-0.399 14.532,-0.566 1.89,-0.065 6.957,0.657 8.614,0 0.39,-0.155 0.244,-2.399 0.244,-2.751 0,-2.128 1.339,-12.975 0.123,-14.481 -0.56,-0.694 -3.384,-0.243 -4.041,-0.243 -7.795,0 -15.594,0.202 -23.391,0.202"
         id="path3075"
         inkscape:connector-curvature="0"
         style="fill-opacity:0;stroke:#000000;stroke-width:2;stroke-linecap:round;stroke-linejoin:round;fill:#ffffff" />
    </g>
    <g
       id="g3077"
       transform="matrix(0.60358141,0,0,0.60358141,235.62795,222.16951)"
       style="fill:#000000;stroke:#000000">
      <path
         d="m 184.381,505.935 c 4.155,-0.057 8.301,-0.095 12.462,-0.095 2.189,0 4.378,0 6.567,0 1.008,0 7.406,0.065 8.196,-0.522 0.327,-0.244 0.288,-1.135 0.288,-1.52 0,-0.692 -0.068,-1.159 -0.528,-1.615 -0.854,-0.847 -4.42,-0.285 -5.56,-0.285 -5.699,0 -11.39,0.237 -17.063,0.237 -0.692,0 -3.888,-0.422 -4.41,0.095 -0.548,0.544 -0.328,2.531 -0.239,3.23"
         id="path3079"
         inkscape:connector-curvature="0"
         style="fill:#000000;stroke:#000000" />
      <path
         d="m 184.381,505.935 c 4.155,-0.057 8.301,-0.095 12.462,-0.095 2.189,0 4.378,0 6.567,0 1.008,0 7.406,0.065 8.196,-0.522 0.327,-0.244 0.288,-1.135 0.288,-1.52 0,-0.692 -0.068,-1.159 -0.528,-1.615 -0.854,-0.847 -4.42,-0.285 -5.56,-0.285 -5.699,0 -11.39,0.237 -17.063,0.237 -0.692,0 -3.888,-0.422 -4.41,0.095 -0.548,0.544 -0.328,2.531 -0.239,3.23"
         id="path3081"
         inkscape:connector-curvature="0"
         style="fill-opacity:0;stroke:#000000;stroke-width:2;stroke-linecap:round;stroke-linejoin:round;fill:#000000" />
    </g>
    <g
       id="g3083"
       transform="matrix(0.60358141,0,0,0.60358141,235.62795,222.16951)"
       style="stroke:#000000;fill:#ffffff">
      <path
         d="m 180.396,510.342 c 1.08,2.036 -0.691,15.726 0.205,16.909 0.463,0.612 3.161,0.276 3.837,0.323 4.919,0.349 9.649,-0.399 14.532,-0.566 1.889,-0.064 6.957,0.657 8.613,0 0.39,-0.155 0.245,-2.399 0.245,-2.751 0,-2.128 1.339,-12.974 0.123,-14.481 -0.561,-0.694 -3.384,-0.243 -4.042,-0.243 -7.795,0 -15.593,0.203 -23.39,0.203"
         id="path3085"
         inkscape:connector-curvature="0"
         style="fill:#ffffff;stroke:#000000" />
      <path
         d="m 180.396,510.342 c 1.08,2.036 -0.691,15.726 0.205,16.909 0.463,0.612 3.161,0.276 3.837,0.323 4.919,0.349 9.649,-0.399 14.532,-0.566 1.889,-0.064 6.957,0.657 8.613,0 0.39,-0.155 0.245,-2.399 0.245,-2.751 0,-2.128 1.339,-12.974 0.123,-14.481 -0.561,-0.694 -3.384,-0.243 -4.042,-0.243 -7.795,0 -15.593,0.203 -23.39,0.203"
         id="path3087"
         inkscape:connector-curvature="0"
         style="fill-opacity:0;stroke:#000000;stroke-width:2;stroke-linecap:round;stroke-linejoin:round;fill:#ffffff" />
    </g>
    <g
       id="g3089"
       transform="matrix(0.60358141,0,0,0.60358141,235.62795,222.16951)"
       style="fill:#000000;stroke:#000000">
      <path
         d="m 180.846,513.045 c 4.155,-0.057 8.301,-0.095 12.462,-0.095 2.189,0 4.378,0 6.567,0 1.007,0 7.406,0.065 8.196,-0.522 0.327,-0.243 0.287,-1.135 0.287,-1.52 0,-0.692 -0.067,-1.159 -0.527,-1.615 -0.854,-0.847 -4.42,-0.285 -5.56,-0.285 -5.699,0 -11.39,0.237 -17.063,0.237 -0.692,0 -3.888,-0.422 -4.41,0.095 -0.548,0.544 -0.328,2.531 -0.239,3.23"
         id="path3091"
         inkscape:connector-curvature="0"
         style="fill:#000000;stroke:#000000" />
      <path
         d="m 180.846,513.045 c 4.155,-0.057 8.301,-0.095 12.462,-0.095 2.189,0 4.378,0 6.567,0 1.007,0 7.406,0.065 8.196,-0.522 0.327,-0.243 0.287,-1.135 0.287,-1.52 0,-0.692 -0.067,-1.159 -0.527,-1.615 -0.854,-0.847 -4.42,-0.285 -5.56,-0.285 -5.699,0 -11.39,0.237 -17.063,0.237 -0.692,0 -3.888,-0.422 -4.41,0.095 -0.548,0.544 -0.328,2.531 -0.239,3.23"
         id="path3093"
         inkscape:connector-curvature="0"
         style="fill-opacity:0;stroke:#000000;stroke-width:2;stroke-linecap:round;stroke-linejoin:round;fill:#000000" />
    </g>
    <g
       transform="matrix(0.60358141,0,0,0.60358141,277.62795,222.16951)"
       id="g3097"
       style="fill:#ffffff;stroke:none">
      <path
         style="fill:#ffffff;stroke:none"
         inkscape:connector-curvature="0"
         id="path3099"
         d="m 203.518,490.517 c -7.952,-0.53 -13.986,-0.418 -20.582,4.116 -27.723,19.06 -3.858,51.63 24.481,40.73 24.084,-9.263 14.7,-41.346 -7.149,-44.196" />
      <path
         style="fill-opacity:0;stroke:none;stroke-width:5.50000000000000000;stroke-linecap:round;stroke-linejoin:round;fill:#ffffff"
         inkscape:connector-curvature="0"
         id="path3101"
         d="m 203.518,490.517 c -7.952,-0.53 -13.986,-0.418 -20.582,4.116 -27.723,19.06 -3.858,51.63 24.481,40.73 24.084,-9.263 14.7,-41.346 -7.149,-44.196" />
    </g>
    <g
       transform="matrix(0.60358141,0,0,0.60358141,277.62795,222.16951)"
       id="g3103"
       style="stroke:#000000;fill:#ffffff">
      <path
         style="fill:#ffffff;stroke:#000000"
         inkscape:connector-curvature="0"
         id="path3105"
         d="m 183.792,502.75 c 1.079,2.036 -0.692,15.725 0.204,16.909 0.463,0.611 3.161,0.275 3.837,0.323 4.92,0.349 9.649,-0.399 14.532,-0.566 1.89,-0.065 6.957,0.657 8.614,0 0.39,-0.155 0.244,-2.399 0.244,-2.751 0,-2.128 1.339,-12.975 0.123,-14.481 -0.56,-0.694 -3.384,-0.243 -4.041,-0.243 -7.795,0 -15.594,0.202 -23.391,0.202" />
      <path
         style="fill-opacity:0;stroke:#000000;stroke-width:2;stroke-linecap:round;stroke-linejoin:round;fill:#ffffff"
         inkscape:connector-curvature="0"
         id="path3107"
         d="m 183.792,502.75 c 1.079,2.036 -0.692,15.725 0.204,16.909 0.463,0.611 3.161,0.275 3.837,0.323 4.92,0.349 9.649,-0.399 14.532,-0.566 1.89,-0.065 6.957,0.657 8.614,0 0.39,-0.155 0.244,-2.399 0.244,-2.751 0,-2.128 1.339,-12.975 0.123,-14.481 -0.56,-0.694 -3.384,-0.243 -4.041,-0.243 -7.795,0 -15.594,0.202 -23.391,0.202" />
    </g>
    <g
       transform="matrix(0.60358141,0,0,0.60358141,277.62795,222.16951)"
       id="g3109"
       style="fill:#000000;stroke:#000000">
      <path
         style="fill:#000000;stroke:#000000"
         inkscape:connector-curvature="0"
         id="path3111"
         d="m 184.381,505.935 c 4.155,-0.057 8.301,-0.095 12.462,-0.095 2.189,0 4.378,0 6.567,0 1.008,0 7.406,0.065 8.196,-0.522 0.327,-0.244 0.288,-1.135 0.288,-1.52 0,-0.692 -0.068,-1.159 -0.528,-1.615 -0.854,-0.847 -4.42,-0.285 -5.56,-0.285 -5.699,0 -11.39,0.237 -17.063,0.237 -0.692,0 -3.888,-0.422 -4.41,0.095 -0.548,0.544 -0.328,2.531 -0.239,3.23" />
      <path
         style="fill-opacity:0;stroke:#000000;stroke-width:2;stroke-linecap:round;stroke-linejoin:round;fill:#000000"
         inkscape:connector-curvature="0"
         id="path3113"
         d="m 184.381,505.935 c 4.155,-0.057 8.301,-0.095 12.462,-0.095 2.189,0 4.378,0 6.567,0 1.008,0 7.406,0.065 8.196,-0.522 0.327,-0.244 0.288,-1.135 0.288,-1.52 0,-0.692 -0.068,-1.159 -0.528,-1.615 -0.854,-0.847 -4.42,-0.285 -5.56,-0.285 -5.699,0 -11.39,0.237 -17.063,0.237 -0.692,0 -3.888,-0.422 -4.41,0.095 -0.548,0.544 -0.328,2.531 -0.239,3.23" />
    </g>
    <g
       transform="matrix(0.60358141,0,0,0.60358141,277.62795,222.16951)"
       id="g3115"
       style="stroke:#000000;fill:#ffffff">
      <path
         style="fill:#ffffff;stroke:#000000"
         inkscape:connector-curvature="0"
         id="path3117"
         d="m 180.396,510.342 c 1.08,2.036 -0.691,15.726 0.205,16.909 0.463,0.612 3.161,0.276 3.837,0.323 4.919,0.349 9.649,-0.399 14.532,-0.566 1.889,-0.064 6.957,0.657 8.613,0 0.39,-0.155 0.245,-2.399 0.245,-2.751 0,-2.128 1.339,-12.974 0.123,-14.481 -0.561,-0.694 -3.384,-0.243 -4.042,-0.243 -7.795,0 -15.593,0.203 -23.39,0.203" />
      <path
         style="fill-opacity:0;stroke:#000000;stroke-width:2;stroke-linecap:round;stroke-linejoin:round;fill:#ffffff"
         inkscape:connector-curvature="0"
         id="path3119"
         d="m 180.396,510.342 c 1.08,2.036 -0.691,15.726 0.205,16.909 0.463,0.612 3.161,0.276 3.837,0.323 4.919,0.349 9.649,-0.399 14.532,-0.566 1.889,-0.064 6.957,0.657 8.613,0 0.39,-0.155 0.245,-2.399 0.245,-2.751 0,-2.128 1.339,-12.974 0.123,-14.481 -0.561,-0.694 -3.384,-0.243 -4.042,-0.243 -7.795,0 -15.593,0.203 -23.39,0.203" />
    </g>
    <g
       transform="matrix(0.60358141,0,0,0.60358141,277.62795,222.16951)"
       id="g3121"
       style="fill:#000000;stroke:#000000">
      <path
         style="fill:#000000;stroke:#000000"
         inkscape:connector-curvature="0"
         id="path3123"
         d="m 180.846,513.045 c 4.155,-0.057 8.301,-0.095 12.462,-0.095 2.189,0 4.378,0 6.567,0 1.007,0 7.406,0.065 8.196,-0.522 0.327,-0.243 0.287,-1.135 0.287,-1.52 0,-0.692 -0.067,-1.159 -0.527,-1.615 -0.854,-0.847 -4.42,-0.285 -5.56,-0.285 -5.699,0 -11.39,0.237 -17.063,0.237 -0.692,0 -3.888,-0.422 -4.41,0.095 -0.548,0.544 -0.328,2.531 -0.239,3.23" />
      <path
         style="fill-opacity:0;stroke:#000000;stroke-width:2;stroke-linecap:round;stroke-linejoin:round;fill:#000000"
         inkscape:connector-curvature="0"
         id="path3125"
         d="m 180.846,513.045 c 4.155,-0.057 8.301,-0.095 12.462,-0.095 2.189,0 4.378,0 6.567,0 1.007,0 7.406,0.065 8.196,-0.522 0.327,-0.243 0.287,-1.135 0.287,-1.52 0,-0.692 -0.067,-1.159 -0.527,-1.615 -0.854,-0.847 -4.42,-0.285 -5.56,-0.285 -5.699,0 -11.39,0.237 -17.063,0.237 -0.692,0 -3.888,-0.422 -4.41,0.095 -0.548,0.544 -0.328,2.531 -0.239,3.23" />
    </g>
    <g
       id="g3129"
       transform="matrix(0.60358141,0,0,0.60358141,319.62795,222.16951)"
       style="fill:#ffffff;stroke:none">
      <path
         d="m 203.518,490.517 c -7.952,-0.53 -13.986,-0.418 -20.582,4.116 -27.723,19.06 -3.858,51.63 24.481,40.73 24.084,-9.263 14.7,-41.346 -7.149,-44.196"
         id="path3131"
         inkscape:connector-curvature="0"
         style="fill:#ffffff;stroke:none" />
      <path
         d="m 203.518,490.517 c -7.952,-0.53 -13.986,-0.418 -20.582,4.116 -27.723,19.06 -3.858,51.63 24.481,40.73 24.084,-9.263 14.7,-41.346 -7.149,-44.196"
         id="path3133"
         inkscape:connector-curvature="0"
         style="fill-opacity:0;stroke:none;stroke-width:5.50000000000000000;stroke-linecap:round;stroke-linejoin:round;fill:#ffffff" />
    </g>
    <g
       id="g3135"
       transform="matrix(0.60358141,0,0,0.60358141,319.62795,222.16951)"
       style="stroke:#000000;fill:#ffffff">
      <path
         d="m 183.792,502.75 c 1.079,2.036 -0.692,15.725 0.204,16.909 0.463,0.611 3.161,0.275 3.837,0.323 4.92,0.349 9.649,-0.399 14.532,-0.566 1.89,-0.065 6.957,0.657 8.614,0 0.39,-0.155 0.244,-2.399 0.244,-2.751 0,-2.128 1.339,-12.975 0.123,-14.481 -0.56,-0.694 -3.384,-0.243 -4.041,-0.243 -7.795,0 -15.594,0.202 -23.391,0.202"
         id="path3137"
         inkscape:connector-curvature="0"
         style="fill:#ffffff;stroke:#000000" />
      <path
         d="m 183.792,502.75 c 1.079,2.036 -0.692,15.725 0.204,16.909 0.463,0.611 3.161,0.275 3.837,0.323 4.92,0.349 9.649,-0.399 14.532,-0.566 1.89,-0.065 6.957,0.657 8.614,0 0.39,-0.155 0.244,-2.399 0.244,-2.751 0,-2.128 1.339,-12.975 0.123,-14.481 -0.56,-0.694 -3.384,-0.243 -4.041,-0.243 -7.795,0 -15.594,0.202 -23.391,0.202"
         id="path3139"
         inkscape:connector-curvature="0"
         style="fill-opacity:0;stroke:#000000;stroke-width:2;stroke-linecap:round;stroke-linejoin:round;fill:#ffffff" />
    </g>
    <g
       id="g3141"
       transform="matrix(0.60358141,0,0,0.60358141,319.62795,222.16951)"
       style="fill:#000000;stroke:#000000">
      <path
         d="m 184.381,505.935 c 4.155,-0.057 8.301,-0.095 12.462,-0.095 2.189,0 4.378,0 6.567,0 1.008,0 7.406,0.065 8.196,-0.522 0.327,-0.244 0.288,-1.135 0.288,-1.52 0,-0.692 -0.068,-1.159 -0.528,-1.615 -0.854,-0.847 -4.42,-0.285 -5.56,-0.285 -5.699,0 -11.39,0.237 -17.063,0.237 -0.692,0 -3.888,-0.422 -4.41,0.095 -0.548,0.544 -0.328,2.531 -0.239,3.23"
         id="path3143"
         inkscape:connector-curvature="0"
         style="fill:#000000;stroke:#000000" />
      <path
         d="m 184.381,505.935 c 4.155,-0.057 8.301,-0.095 12.462,-0.095 2.189,0 4.378,0 6.567,0 1.008,0 7.406,0.065 8.196,-0.522 0.327,-0.244 0.288,-1.135 0.288,-1.52 0,-0.692 -0.068,-1.159 -0.528,-1.615 -0.854,-0.847 -4.42,-0.285 -5.56,-0.285 -5.699,0 -11.39,0.237 -17.063,0.237 -0.692,0 -3.888,-0.422 -4.41,0.095 -0.548,0.544 -0.328,2.531 -0.239,3.23"
         id="path3145"
         inkscape:connector-curvature="0"
         style="fill-opacity:0;stroke:#000000;stroke-width:2;stroke-linecap:round;stroke-linejoin:round;fill:#000000" />
    </g>
    <g
       id="g3147"
       transform="matrix(0.60358141,0,0,0.60358141,319.62795,222.16951)"
       style="stroke:#000000;fill:#ffffff">
      <path
         d="m 180.396,510.342 c 1.08,2.036 -0.691,15.726 0.205,16.909 0.463,0.612 3.161,0.276 3.837,0.323 4.919,0.349 9.649,-0.399 14.532,-0.566 1.889,-0.064 6.957,0.657 8.613,0 0.39,-0.155 0.245,-2.399 0.245,-2.751 0,-2.128 1.339,-12.974 0.123,-14.481 -0.561,-0.694 -3.384,-0.243 -4.042,-0.243 -7.795,0 -15.593,0.203 -23.39,0.203"
         id="path3149"
         inkscape:connector-curvature="0"
         style="fill:#ffffff;stroke:#000000" />
      <path
         d="m 180.396,510.342 c 1.08,2.036 -0.691,15.726 0.205,16.909 0.463,0.612 3.161,0.276 3.837,0.323 4.919,0.349 9.649,-0.399 14.532,-0.566 1.889,-0.064 6.957,0.657 8.613,0 0.39,-0.155 0.245,-2.399 0.245,-2.751 0,-2.128 1.339,-12.974 0.123,-14.481 -0.561,-0.694 -3.384,-0.243 -4.042,-0.243 -7.795,0 -15.593,0.203 -23.39,0.203"
         id="path3151"
         inkscape:connector-curvature="0"
         style="fill-opacity:0;stroke:#000000;stroke-width:2;stroke-linecap:round;stroke-linejoin:round;fill:#ffffff" />
    </g>
    <g
       id="g3153"
       transform="matrix(0.60358141,0,0,0.60358141,319.62795,222.16951)"
       style="fill:#000000;stroke:#000000">
      <path
         d="m 180.846,513.045 c 4.155,-0.057 8.301,-0.095 12.462,-0.095 2.189,0 4.378,0 6.567,0 1.007,0 7.406,0.065 8.196,-0.522 0.327,-0.243 0.287,-1.135 0.287,-1.52 0,-0.692 -0.067,-1.159 -0.527,-1.615 -0.854,-0.847 -4.42,-0.285 -5.56,-0.285 -5.699,0 -11.39,0.237 -17.063,0.237 -0.692,0 -3.888,-0.422 -4.41,0.095 -0.548,0.544 -0.328,2.531 -0.239,3.23"
         id="path3155"
         inkscape:connector-curvature="0"
         style="fill:#000000;stroke:#000000" />
      <path
         d="m 180.846,513.045 c 4.155,-0.057 8.301,-0.095 12.462,-0.095 2.189,0 4.378,0 6.567,0 1.007,0 7.406,0.065 8.196,-0.522 0.327,-0.243 0.287,-1.135 0.287,-1.52 0,-0.692 -0.067,-1.159 -0.527,-1.615 -0.854,-0.847 -4.42,-0.285 -5.56,-0.285 -5.699,0 -11.39,0.237 -17.063,0.237 -0.692,0 -3.888,-0.422 -4.41,0.095 -0.548,0.544 -0.328,2.531 -0.239,3.23"
         id="path3157"
         inkscape:connector-curvature="0"
         style="fill-opacity:0;stroke:#000000;stroke-width:2;stroke-linecap:round;stroke-linejoin:round;fill:#000000" />
    </g>
  </g>
</svg>
