<?xml version="1.0" encoding="UTF-8" standalone="no"?>
<!-- Created with Inkscape (http://www.inkscape.org/) -->

<svg
   xmlns:dc="http://purl.org/dc/elements/1.1/"
   xmlns:cc="http://creativecommons.org/ns#"
   xmlns:rdf="http://www.w3.org/1999/02/22-rdf-syntax-ns#"
   xmlns:svg="http://www.w3.org/2000/svg"
   xmlns="http://www.w3.org/2000/svg"
   xmlns:sodipodi="http://sodipodi.sourceforge.net/DTD/sodipodi-0.dtd"
   xmlns:inkscape="http://www.inkscape.org/namespaces/inkscape"
   width="168"
   height="40"
   id="svg3021"
   version="1.1"
   inkscape:version="0.48.5 r10040"
   sodipodi:docname="next.svg">
  <defs
     id="defs3023" />
  <sodipodi:namedview
     id="base"
     pagecolor="#ffffff"
     bordercolor="#666666"
     borderopacity="1.0"
     inkscape:pageopacity="0.0"
     inkscape:pageshadow="2"
     inkscape:zoom="5.6"
     inkscape:cx="64.911496"
     inkscape:cy="13.512943"
     inkscape:document-units="px"
     inkscape:current-layer="layer1"
     showgrid="false"
     inkscape:window-width="1718"
     inkscape:window-height="863"
     inkscape:window-x="30"
     inkscape:window-y="30"
     inkscape:window-maximized="0"
     fit-margin-top="0"
     fit-margin-left="0"
     fit-margin-right="0"
     fit-margin-bottom="0"
     showguides="true"
     inkscape:guide-bbox="true">
    <sodipodi:guide
       orientation="1,0"
       position="-52.21226,21.465742"
       id="guide3767" />
  </sodipodi:namedview>
  <metadata
     id="metadata3026">
    <rdf:RDF>
      <cc:Work
         rdf:about="">
        <dc:format>image/svg+xml</dc:format>
        <dc:type
           rdf:resource="http://purl.org/dc/dcmitype/StillImage" />
        <dc:title />
      </cc:Work>
    </rdf:RDF>
  </metadata>
  <g
     inkscape:label="Layer 1"
     inkscape:groupmode="layer"
     id="layer1"
     transform="translate(-291,-512.36218)">
    <rect
       style="fill:none;fill-opacity:1;stroke:none"
       id="rect3777"
       width="168.39287"
       height="40"
       x="291"
       y="512.54077" />
    <g
       id="g3764">
      <rect
         inkscape:export-ydpi="90"
         inkscape:export-xdpi="90"
         inkscape:export-filename="H:\svgs\xerte_buttons_test.png"
         y="512.36218"
         x="291"
         height="40"
         width="42"
         id="next"
         style="fill:none;fill-opacity:1;stroke:none;stroke-width:0;stroke-miterlimit:4;stroke-dasharray:none" />
      <rect
         inkscape:export-ydpi="90"
         inkscape:export-xdpi="90"
         inkscape:export-filename="H:\svgs\xerte_buttons_test.png"
         style="fill:none;fill-opacity:1;stroke:none"
         id="rect3766"
         width="42"
         height="40"
         x="333"
         y="512.36218" />
      <rect
         inkscape:export-ydpi="90"
         inkscape:export-xdpi="90"
         inkscape:export-filename="H:\svgs\xerte_buttons_test.png"
         y="512.36218"
         x="375"
         height="40"
         width="42"
         id="rect3768"
         style="fill:none;fill-opacity:1;stroke:none" />
      <rect
         inkscape:export-filename="H:\svgs\xerte_buttons_test.png"
         inkscape:export-ydpi="90"
         inkscape:export-xdpi="90"
         style="fill:none;fill-opacity:1;stroke:none"
         id="rect3770"
         width="42"
         height="40"
         x="417"
         y="512.36218" />
    </g>
    <path
       sodipodi:type="arc"
       style="fill:none;fill-opacity:1;stroke:none"
       id="path3807"
       sodipodi:cx="99.464287"
       sodipodi:cy="98.076469"
       sodipodi:rx="16.785715"
       sodipodi:ry="16.785715"
       d="m 116.25,98.076469 c 0,9.270491 -7.51522,16.785711 -16.785713,16.785711 -9.270495,0 -16.785715,-7.51522 -16.785715,-16.785711 0,-9.270494 7.51522,-16.785715 16.785715,-16.785715 9.270493,0 16.785713,7.515221 16.785713,16.785715 z"
       transform="matrix(1.0425531,0,0,1.0425531,208.37463,429.80719)"
       inkscape:export-filename="H:\svgs\xerte_buttons_test.png"
       inkscape:export-xdpi="90"
       inkscape:export-ydpi="90" />
    <path
       transform="matrix(1.0425531,0,0,1.0425531,250.3032,430.11226)"
       d="m 116.25,98.076469 c 0,9.270491 -7.51522,16.785711 -16.785713,16.785711 -9.270495,0 -16.785715,-7.51522 -16.785715,-16.785711 0,-9.270494 7.51522,-16.785715 16.785715,-16.785715 9.270493,0 16.785713,7.515221 16.785713,16.785715 z"
       sodipodi:ry="16.785715"
       sodipodi:rx="16.785715"
       sodipodi:cy="98.076469"
       sodipodi:cx="99.464287"
       id="path3809"
       style="fill:none;fill-opacity:1;stroke:none;stroke-width:0.95918375000000000;stroke-miterlimit:4;stroke-dasharray:none"
       sodipodi:type="arc"
       inkscape:export-filename="H:\svgs\xerte_buttons_test.png"
       inkscape:export-xdpi="90"
       inkscape:export-ydpi="90" />
    <path
       sodipodi:type="arc"
       style="fill:none;fill-opacity:1;stroke:none;stroke-width:0.95918375000000000;stroke-miterlimit:4;stroke-dasharray:none"
       id="path3811"
       sodipodi:cx="99.464287"
       sodipodi:cy="98.076469"
       sodipodi:rx="16.785715"
       sodipodi:ry="16.785715"
       d="m 116.25,98.076469 c 0,9.270491 -7.51522,16.785711 -16.785713,16.785711 -9.270495,0 -16.785715,-7.51522 -16.785715,-16.785711 0,-9.270494 7.51522,-16.785715 16.785715,-16.785715 9.270493,0 16.785713,7.515221 16.785713,16.785715 z"
       transform="matrix(1.0425531,0,0,1.0425531,292.3032,430.11226)"
       inkscape:export-filename="H:\svgs\xerte_buttons_test.png"
       inkscape:export-xdpi="90"
       inkscape:export-ydpi="90" />
    <path
       transform="matrix(1.0425531,0,0,1.0425531,334.3032,430.11226)"
       d="m 116.25,98.076469 c 0,9.270491 -7.51522,16.785711 -16.785713,16.785711 -9.270495,0 -16.785715,-7.51522 -16.785715,-16.785711 0,-9.270494 7.51522,-16.785715 16.785715,-16.785715 9.270493,0 16.785713,7.515221 16.785713,16.785715 z"
       sodipodi:ry="16.785715"
       sodipodi:rx="16.785715"
       sodipodi:cy="98.076469"
       sodipodi:cx="99.464287"
       id="path3813"
       style="fill:none;fill-opacity:1;stroke:none;stroke-width:0.95918375000000000;stroke-miterlimit:4;stroke-dasharray:none"
       sodipodi:type="arc"
       inkscape:export-filename="H:\svgs\xerte_buttons_test.png"
       inkscape:export-xdpi="90"
       inkscape:export-ydpi="90" />
    <g
       transform="matrix(0.55223179,0,0,0.55223179,-177.8424,165.73992)"
       id="g5"
       style="fill:#ffffff;stroke:none">
      <path
         style="fill:#ffffff;stroke:none"
         inkscape:connector-curvature="0"
         id="path7"
         d="m 907.93,642.356 c -6.408,-4.025 -13.625,-5.698 -21.164,-5.698 -26.144,0 -43.562,44.275 -13.838,52.097 31.076,8.178 60.056,-25.083 33.781,-47.417" />
      <path
         style="fill:#ffffff;fill-opacity:0;stroke:none"
         inkscape:connector-curvature="0"
         id="path9"
         d="m 907.93,642.356 c -6.408,-4.025 -13.625,-5.698 -21.164,-5.698 -26.144,0 -43.562,44.275 -13.838,52.097 31.076,8.178 60.056,-25.083 33.781,-47.417" />
    </g>
    <g
       id="g3008"
       transform="translate(1.2417835,-0.55686777)">
      <path
         d="m 302.02659,532.77413 c 4.85191,-0.1 11.21693,-0.33023 16.0578,-0.33023"
         id="path119"
         inkscape:connector-curvature="0"
         style="fill-opacity:0;stroke:#d3d7cf;stroke-width:3.03727484;stroke-linecap:round;stroke-linejoin:round" />
      <path
         d="m 312.00321,525.44326 c 1.23534,0.61243 8.33925,6.3711 7.57165,7.33087 -2.11892,2.64851 -3.4763,4.69674 -5.79015,7.01058"
         id="path121"
         inkscape:connector-curvature="0"
         style="fill-opacity:0;stroke:#d3d7cf;stroke-width:3.03727484;stroke-linecap:round;stroke-linejoin:round" />
    </g>
    <path
       style="fill:#ffffff;stroke:none;stroke-width:0.55223179000000000"
       inkscape:connector-curvature="0"
       id="path3035"
       d="m 365.54541,520.46931 c -3.5387,-2.22273 -7.52416,-3.14661 -11.68743,-3.14661 -14.43755,0 -24.05633,24.45006 -7.64179,28.76962 17.16116,4.51615 33.16483,-13.85163 18.65494,-26.18518" />
    <path
       style="fill-opacity:0;stroke:none;stroke-width:2.76115894000000010;stroke-linecap:round;stroke-linejoin:round"
       inkscape:connector-curvature="0"
       id="path3037"
       d="m 365.54541,520.46931 c -3.5387,-2.22273 -7.52416,-3.14661 -11.68743,-3.14661 -14.43755,0 -24.05633,24.45006 -7.64179,28.76962 17.16116,4.51615 33.16483,-13.85163 18.65494,-26.18518" />
    <g
       id="g3012"
       transform="translate(1.2417857,-0.5568699)">
      <path
         style="fill-opacity:0;stroke:#000000;stroke-width:3.03727484;stroke-linecap:round;stroke-linejoin:round"
         inkscape:connector-curvature="0"
         id="path3039"
         d="m 344.02659,532.77413 c 4.85191,-0.1 11.21693,-0.33023 16.0578,-0.33023" />
      <path
         style="fill-opacity:0;stroke:#000000;stroke-width:3.03727484;stroke-linecap:round;stroke-linejoin:round"
         inkscape:connector-curvature="0"
         id="path3041"
         d="m 354.00321,525.44326 c 1.23534,0.61243 8.33925,6.3711 7.57165,7.33087 -2.11892,2.64851 -3.4763,4.69674 -5.79015,7.01058" />
    </g>
    <path
       d="m 407.47398,520.77438 c -3.5387,-2.22273 -7.52416,-3.14661 -11.68743,-3.14661 -14.43755,0 -24.05633,24.45006 -7.64179,28.76962 17.16116,4.51615 33.16483,-13.85163 18.65494,-26.18518"
       id="path3067"
       inkscape:connector-curvature="0"
       style="fill:#ffffff;stroke:none" />
    <g
       id="g3016"
       transform="translate(1.1703535,-0.25179777)">
      <path
         d="m 386.02659,532.77413 c 4.85191,-0.1 11.21693,-0.33023 16.0578,-0.33023"
         id="path3069"
         inkscape:connector-curvature="0"
         style="fill-opacity:0;stroke:#000000;stroke-width:3.03727484;stroke-linecap:round;stroke-linejoin:round" />
      <path
         d="m 396.00321,525.44326 c 1.23534,0.61243 8.33925,6.3711 7.57165,7.33087 -2.11892,2.64851 -3.4763,4.69674 -5.79015,7.01058"
         id="path3071"
         inkscape:connector-curvature="0"
         style="fill-opacity:0;stroke:#000000;stroke-width:3.03727484;stroke-linecap:round;stroke-linejoin:round" />
    </g>
    <path
       style="fill:#ffffff;stroke:none"
       inkscape:connector-curvature="0"
       id="path3073"
       d="m 449.47398,520.77438 c -3.5387,-2.22273 -7.52416,-3.14661 -11.68743,-3.14661 -14.43755,0 -24.05633,24.45006 -7.64179,28.76962 17.16116,4.51615 33.16483,-13.85163 18.65494,-26.18518" />
    <g
       id="g3020"
       transform="translate(1.1703535,-0.25179777)">
      <path
         style="fill-opacity:0;stroke:#000000;stroke-width:3.03727484;stroke-linecap:round;stroke-linejoin:round"
         inkscape:connector-curvature="0"
         id="path3075"
         d="m 428.02659,532.77413 c 4.85191,-0.1 11.21693,-0.33023 16.0578,-0.33023" />
      <path
         style="fill-opacity:0;stroke:#000000;stroke-width:3.03727484;stroke-linecap:round;stroke-linejoin:round"
         inkscape:connector-curvature="0"
         id="path3077"
         d="m 438.00321,525.44326 c 1.23534,0.61243 8.33925,6.3711 7.57165,7.33087 -2.11892,2.64851 -3.4763,4.69674 -5.79015,7.01058" />
    </g>
  </g>
</svg>
