<?xml version="1.0" encoding="UTF-8" standalone="no"?>
<!-- Created with Inkscape (http://www.inkscape.org/) -->

<svg
   xmlns:dc="http://purl.org/dc/elements/1.1/"
   xmlns:cc="http://creativecommons.org/ns#"
   xmlns:rdf="http://www.w3.org/1999/02/22-rdf-syntax-ns#"
   xmlns:svg="http://www.w3.org/2000/svg"
   xmlns="http://www.w3.org/2000/svg"
   xmlns:sodipodi="http://sodipodi.sourceforge.net/DTD/sodipodi-0.dtd"
   xmlns:inkscape="http://www.inkscape.org/namespaces/inkscape"
   width="168"
   height="40"
   id="svg3021"
   version="1.1"
   inkscape:version="0.48.5 r10040"
   sodipodi:docname="previous.svg">
  <defs
     id="defs3023" />
  <sodipodi:namedview
     id="base"
     pagecolor="#ffffff"
     bordercolor="#666666"
     borderopacity="1.0"
     inkscape:pageopacity="0.0"
     inkscape:pageshadow="2"
     inkscape:zoom="5.6"
     inkscape:cx="59.981232"
     inkscape:cy="16.548657"
     inkscape:document-units="px"
     inkscape:current-layer="layer1"
     showgrid="false"
     inkscape:window-width="1718"
     inkscape:window-height="863"
     inkscape:window-x="228"
     inkscape:window-y="85"
     inkscape:window-maximized="0"
     fit-margin-top="0"
     fit-margin-left="0"
     fit-margin-right="0"
     fit-margin-bottom="0"
     showguides="true"
     inkscape:guide-bbox="true">
    <sodipodi:guide
       orientation="1,0"
       position="-52.21226,21.465742"
       id="guide3767" />
  </sodipodi:namedview>
  <metadata
     id="metadata3026">
    <rdf:RDF>
      <cc:Work
         rdf:about="">
        <dc:format>image/svg+xml</dc:format>
        <dc:type
           rdf:resource="http://purl.org/dc/dcmitype/StillImage" />
        <dc:title />
      </cc:Work>
    </rdf:RDF>
  </metadata>
  <g
     inkscape:label="Layer 1"
     inkscape:groupmode="layer"
     id="layer1"
     transform="translate(-291,-512.36218)">
    <rect
       style="fill:none;fill-opacity:1;stroke:none"
       id="rect3777"
       width="168.39287"
       height="40"
       x="291"
       y="512.54077" />
    <rect
       style="fill:none;fill-opacity:1;stroke:none;stroke-width:0;stroke-miterlimit:4;stroke-dasharray:none"
       id="next"
       width="42"
       height="40"
       x="291"
       y="512.36218"
       inkscape:export-filename="H:\svgs\xerte_buttons_test.png"
       inkscape:export-xdpi="90"
       inkscape:export-ydpi="90" />
    <rect
       y="512.36218"
       x="333"
       height="40"
       width="42"
       id="rect3766"
       style="fill:none;fill-opacity:1;stroke:none;stroke-width:0;stroke-miterlimit:4;stroke-dasharray:none"
       inkscape:export-filename="H:\svgs\xerte_buttons_test.png"
       inkscape:export-xdpi="90"
       inkscape:export-ydpi="90" />
    <rect
       style="fill:none;fill-opacity:1;stroke:none;stroke-width:0;stroke-miterlimit:4;stroke-dasharray:none"
       id="rect3768"
       width="42"
       height="40"
       x="375"
       y="512.36218"
       inkscape:export-filename="H:\svgs\xerte_buttons_test.png"
       inkscape:export-xdpi="90"
       inkscape:export-ydpi="90" />
    <rect
       y="512.36218"
       x="417"
       height="40"
       width="42"
       id="rect3770"
       style="fill:none;fill-opacity:1;stroke:none;stroke-width:0;stroke-miterlimit:4;stroke-dasharray:none"
       inkscape:export-xdpi="90"
       inkscape:export-ydpi="90"
       inkscape:export-filename="H:\svgs\xerte_buttons_test.png" />
    <path
       sodipodi:type="arc"
       style="fill:none;fill-opacity:1;stroke:none"
       id="path3807"
       sodipodi:cx="99.464287"
       sodipodi:cy="98.076469"
       sodipodi:rx="16.785715"
       sodipodi:ry="16.785715"
       d="m 116.25,98.076469 a 16.785715,16.785715 0 1 1 -33.571428,0 16.785715,16.785715 0 1 1 33.571428,0 z"
       transform="matrix(1.0425531,0,0,1.0425531,208.3032,430.11226)"
       inkscape:export-filename="H:\svgs\xerte_buttons_test.png"
       inkscape:export-xdpi="90"
       inkscape:export-ydpi="90" />
    <path
       transform="matrix(1.0425531,0,0,1.0425531,250.3032,430.11226)"
       d="m 116.25,98.076469 a 16.785715,16.785715 0 1 1 -33.571428,0 16.785715,16.785715 0 1 1 33.571428,0 z"
       sodipodi:ry="16.785715"
       sodipodi:rx="16.785715"
       sodipodi:cy="98.076469"
       sodipodi:cx="99.464287"
       id="path3809"
       style="fill:none;fill-opacity:1;stroke:none"
       sodipodi:type="arc"
       inkscape:export-filename="H:\svgs\xerte_buttons_test.png"
       inkscape:export-xdpi="90"
       inkscape:export-ydpi="90" />
    <path
       sodipodi:type="arc"
       style="fill:none;fill-opacity:1;stroke:none;stroke-width:0.95918375000000000;stroke-miterlimit:4;stroke-dasharray:none"
       id="path3811"
       sodipodi:cx="99.464287"
       sodipodi:cy="98.076469"
       sodipodi:rx="16.785715"
       sodipodi:ry="16.785715"
       d="m 116.25,98.076469 c 0,9.270491 -7.51522,16.785711 -16.785713,16.785711 -9.270495,0 -16.785715,-7.51522 -16.785715,-16.785711 0,-9.270494 7.51522,-16.785715 16.785715,-16.785715 9.270493,0 16.785713,7.515221 16.785713,16.785715 z"
       transform="matrix(1.0425531,0,0,1.0425531,292.3032,430.11226)"
       inkscape:export-filename="H:\svgs\xerte_buttons_test.png"
       inkscape:export-xdpi="90"
       inkscape:export-ydpi="90" />
    <path
       transform="matrix(1.0425531,0,0,1.0425531,334.8032,430.2194)"
       d="m 116.25,98.076469 c 0,9.270491 -7.51522,16.785711 -16.785713,16.785711 -9.270495,0 -16.785715,-7.51522 -16.785715,-16.785711 0,-9.270494 7.51522,-16.785715 16.785715,-16.785715 9.270493,0 16.785713,7.515221 16.785713,16.785715 z"
       sodipodi:ry="16.785715"
       sodipodi:rx="16.785715"
       sodipodi:cy="98.076469"
       sodipodi:cx="99.464287"
       id="path3813"
       style="fill:none;fill-opacity:1;stroke:none;stroke-width:0.95918375000000000;stroke-miterlimit:4;stroke-dasharray:none"
       sodipodi:type="arc"
       inkscape:export-filename="H:\svgs\xerte_buttons_test.png"
       inkscape:export-xdpi="90"
       inkscape:export-ydpi="90" />
    <g
       transform="matrix(0.50769547,0,0,0.50769547,-65.210939,196.58937)"
       id="g11"
       style="stroke:none">
      <path
         style="fill:#ffffff;stroke:none"
         inkscape:connector-curvature="0"
         id="path13"
         d="m 755.879,636.093 c -9.346,-5.76 -20.911,-3.872 -29.539,3.477 -49.628,42.265 50.199,80.289 47.083,16.415 -0.528,-10.824 -13.331,-19.3 -21.662,-21.63" />
      <path
         style="fill-opacity:0;stroke:none;stroke-width:5;stroke-linecap:round;stroke-linejoin:round"
         inkscape:connector-curvature="0"
         id="path15"
         d="m 755.879,636.093 c -9.346,-5.76 -20.911,-3.872 -29.539,3.477 -49.628,42.265 50.199,80.289 47.083,16.415 -0.528,-10.824 -13.331,-19.3 -21.662,-21.63" />
    </g>
    <path
       style="fill-opacity:0;stroke:#d3d7cf;stroke-width:2.79232501999999980;stroke-linecap:round;stroke-linejoin:round"
       inkscape:connector-curvature="0"
       id="path69"
       d="m 310.13206,526.02462 c -5.79535,6.53658 -10.12395,6.6102 -0.83008,11.25663 1.28091,0.6407 1.47028,0.84936 2.79791,1.41849" />
    <path
       style="fill-opacity:0;stroke:#d3d7cf;stroke-width:2.79232501999999980;stroke-linecap:round;stroke-linejoin:round"
       inkscape:connector-curvature="0"
       id="path71"
       d="m 303.93754,532.43209 c 5.17901,-0.27669 10.92308,-0.0573 16.12492,-0.0573" />
    <g
       id="g3011"
       transform="matrix(0.50769547,0,0,0.50769547,-23.210939,196.58937)"
       style="stroke:none">
      <path
         d="m 755.879,636.093 c -9.346,-5.76 -20.911,-3.872 -29.539,3.477 -49.628,42.265 50.199,80.289 47.083,16.415 -0.528,-10.824 -13.331,-19.3 -21.662,-21.63"
         id="path3013"
         inkscape:connector-curvature="0"
         style="fill:#ffffff;stroke:none" />
      <path
         d="m 755.879,636.093 c -9.346,-5.76 -20.911,-3.872 -29.539,3.477 -49.628,42.265 50.199,80.289 47.083,16.415 -0.528,-10.824 -13.331,-19.3 -21.662,-21.63"
         id="path3015"
         inkscape:connector-curvature="0"
         style="fill-opacity:0;stroke:none;stroke-width:5;stroke-linecap:round;stroke-linejoin:round" />
    </g>
    <path
       d="m 352.13206,526.02462 c -5.79535,6.53658 -10.12395,6.6102 -0.83008,11.25663 1.28091,0.6407 1.47028,0.84936 2.79791,1.41849"
       id="path3017"
       inkscape:connector-curvature="0"
       style="fill-opacity:0;stroke:#000000;stroke-width:2.79232501999999980;stroke-linecap:round;stroke-linejoin:round" />
    <path
       d="m 345.93754,532.43209 c 5.17901,-0.27669 10.92308,-0.0573 16.12492,-0.0573"
       id="path3019"
       inkscape:connector-curvature="0"
       style="fill-opacity:0;stroke:#000000;stroke-width:2.79232501999999980;stroke-linecap:round;stroke-linejoin:round" />
    <g
       transform="matrix(0.50769547,0,0,0.50769547,18.789062,196.58937)"
       id="g3021"
       style="stroke:none">
      <path
         style="fill:#ffffff;stroke:none"
         inkscape:connector-curvature="0"
         id="path3023"
         d="m 755.879,636.093 c -9.346,-5.76 -20.911,-3.872 -29.539,3.477 -49.628,42.265 50.199,80.289 47.083,16.415 -0.528,-10.824 -13.331,-19.3 -21.662,-21.63" />
      <path
         style="fill-opacity:0;stroke:none;stroke-width:5;stroke-linecap:round;stroke-linejoin:round"
         inkscape:connector-curvature="0"
         id="path3025"
         d="m 755.879,636.093 c -9.346,-5.76 -20.911,-3.872 -29.539,3.477 -49.628,42.265 50.199,80.289 47.083,16.415 -0.528,-10.824 -13.331,-19.3 -21.662,-21.63" />
    </g>
    <path
       style="fill-opacity:0;stroke:#000000;stroke-width:2.79232501999999980;stroke-linecap:round;stroke-linejoin:round"
       inkscape:connector-curvature="0"
       id="path3027"
       d="m 394.13206,526.02462 c -5.79535,6.53658 -10.12395,6.6102 -0.83008,11.25663 1.28091,0.6407 1.47028,0.84936 2.79791,1.41849" />
    <path
       style="fill-opacity:0;stroke:#000000;stroke-width:2.79232501999999980;stroke-linecap:round;stroke-linejoin:round"
       inkscape:connector-curvature="0"
       id="path3029"
       d="m 387.93754,532.43209 c 5.17901,-0.27669 10.92308,-0.0573 16.12492,-0.0573" />
    <g
       id="g3031"
       transform="matrix(0.50769547,0,0,0.50769547,61.289062,196.69651)"
       style="stroke:none">
      <path
         d="m 755.879,636.093 c -9.346,-5.76 -20.911,-3.872 -29.539,3.477 -49.628,42.265 50.199,80.289 47.083,16.415 -0.528,-10.824 -13.331,-19.3 -21.662,-21.63"
         id="path3033"
         inkscape:connector-curvature="0"
         style="fill:#ffffff;stroke:none" />
      <path
         d="m 755.879,636.093 c -9.346,-5.76 -20.911,-3.872 -29.539,3.477 -49.628,42.265 50.199,80.289 47.083,16.415 -0.528,-10.824 -13.331,-19.3 -21.662,-21.63"
         id="path3035"
         inkscape:connector-curvature="0"
         style="fill-opacity:0;stroke:none;stroke-width:5;stroke-linecap:round;stroke-linejoin:round" />
    </g>
    <path
       d="m 436.63206,526.13176 c -5.79535,6.53658 -10.12395,6.6102 -0.83008,11.25663 1.28091,0.6407 1.47028,0.84936 2.79791,1.41849"
       id="path3037"
       inkscape:connector-curvature="0"
       style="fill-opacity:0;stroke:#000000;stroke-width:2.79232501999999980;stroke-linecap:round;stroke-linejoin:round" />
    <path
       d="m 430.43754,532.53923 c 5.17901,-0.27669 10.92308,-0.0573 16.12492,-0.0573"
       id="path3039"
       inkscape:connector-curvature="0"
       style="fill-opacity:0;stroke:#000000;stroke-width:2.79232501999999980;stroke-linecap:round;stroke-linejoin:round" />
  </g>
</svg>
