<?xml version="1.0" encoding="UTF-8" standalone="no"?>
<!-- Created with Inkscape (http://www.inkscape.org/) -->

<svg
   xmlns:dc="http://purl.org/dc/elements/1.1/"
   xmlns:cc="http://creativecommons.org/ns#"
   xmlns:rdf="http://www.w3.org/1999/02/22-rdf-syntax-ns#"
   xmlns:svg="http://www.w3.org/2000/svg"
   xmlns="http://www.w3.org/2000/svg"
   xmlns:sodipodi="http://sodipodi.sourceforge.net/DTD/sodipodi-0.dtd"
   xmlns:inkscape="http://www.inkscape.org/namespaces/inkscape"
   width="168"
   height="40"
   id="svg3021"
   version="1.1"
   inkscape:version="0.48.5 r10040"
   sodipodi:docname="previous_hist.svg">
  <defs
     id="defs3023" />
  <sodipodi:namedview
     id="base"
     pagecolor="#ffffff"
     bordercolor="#666666"
     borderopacity="1.0"
     inkscape:pageopacity="0.0"
     inkscape:pageshadow="2"
     inkscape:zoom="5.6"
     inkscape:cx="66.175155"
     inkscape:cy="38.78699"
     inkscape:document-units="px"
     inkscape:current-layer="layer1"
     showgrid="false"
     inkscape:window-width="1718"
     inkscape:window-height="863"
     inkscape:window-x="30"
     inkscape:window-y="30"
     inkscape:window-maximized="0"
     fit-margin-top="0"
     fit-margin-left="0"
     fit-margin-right="0"
     fit-margin-bottom="0"
     showguides="true"
     inkscape:guide-bbox="true">
    <sodipodi:guide
       orientation="1,0"
       position="-52.21226,21.465742"
       id="guide3767" />
  </sodipodi:namedview>
  <metadata
     id="metadata3026">
    <rdf:RDF>
      <cc:Work
         rdf:about="">
        <dc:format>image/svg+xml</dc:format>
        <dc:type
           rdf:resource="http://purl.org/dc/dcmitype/StillImage" />
        <dc:title />
      </cc:Work>
    </rdf:RDF>
  </metadata>
  <g
     inkscape:label="Layer 1"
     inkscape:groupmode="layer"
     id="layer1"
     transform="translate(-291,-512.36218)">
    <rect
       style="fill:none;fill-opacity:1;stroke:none"
       id="rect3777"
       width="168.39287"
       height="40"
       x="291"
       y="512.54077" />
    <rect
       style="fill:none;fill-opacity:1;stroke:none;stroke-width:0;stroke-miterlimit:4;stroke-dasharray:none"
       id="next"
       width="42"
       height="40"
       x="291"
       y="512.36218"
       inkscape:export-filename="H:\svgs\xerte_buttons_test.png"
       inkscape:export-xdpi="90"
       inkscape:export-ydpi="90" />
    <rect
       y="512.36218"
       x="333"
       height="40"
       width="42"
       id="rect3766"
       style="fill:none;fill-opacity:1;stroke:none;stroke-width:0;stroke-miterlimit:4;stroke-dasharray:none"
       inkscape:export-filename="H:\svgs\xerte_buttons_test.png"
       inkscape:export-xdpi="90"
       inkscape:export-ydpi="90" />
    <rect
       style="fill:none;fill-opacity:1;stroke:none;stroke-width:0;stroke-miterlimit:4;stroke-dasharray:none"
       id="rect3768"
       width="42"
       height="40"
       x="375"
       y="512.36218"
       inkscape:export-filename="H:\svgs\xerte_buttons_test.png"
       inkscape:export-xdpi="90"
       inkscape:export-ydpi="90" />
    <rect
       y="512.36218"
       x="417"
       height="40"
       width="42"
       id="rect3770"
       style="fill:none;fill-opacity:1;stroke:none;stroke-width:0;stroke-miterlimit:4;stroke-dasharray:none"
       inkscape:export-xdpi="90"
       inkscape:export-ydpi="90"
       inkscape:export-filename="H:\svgs\xerte_buttons_test.png" />
    <path
       sodipodi:type="arc"
       style="fill:none;fill-opacity:1;stroke:none"
       id="path3807"
       sodipodi:cx="99.464287"
       sodipodi:cy="98.076469"
       sodipodi:rx="16.785715"
       sodipodi:ry="16.785715"
       d="m 116.25,98.076469 a 16.785715,16.785715 0 1 1 -33.571428,0 16.785715,16.785715 0 1 1 33.571428,0 z"
       transform="matrix(1.0425531,0,0,1.0425531,208.3032,430.11226)"
       inkscape:export-filename="H:\svgs\xerte_buttons_test.png"
       inkscape:export-xdpi="90"
       inkscape:export-ydpi="90" />
    <path
       transform="matrix(1.0425531,0,0,1.0425531,250.3032,430.11226)"
       d="m 116.25,98.076469 a 16.785715,16.785715 0 1 1 -33.571428,0 16.785715,16.785715 0 1 1 33.571428,0 z"
       sodipodi:ry="16.785715"
       sodipodi:rx="16.785715"
       sodipodi:cy="98.076469"
       sodipodi:cx="99.464287"
       id="path3809"
       style="fill:none;fill-opacity:1;stroke:none"
       sodipodi:type="arc"
       inkscape:export-filename="H:\svgs\xerte_buttons_test.png"
       inkscape:export-xdpi="90"
       inkscape:export-ydpi="90" />
    <path
       sodipodi:type="arc"
       style="fill:none;fill-opacity:1;stroke:none"
       id="path3811"
       sodipodi:cx="99.464287"
       sodipodi:cy="98.076469"
       sodipodi:rx="16.785715"
       sodipodi:ry="16.785715"
       d="m 116.25,98.076469 a 16.785715,16.785715 0 1 1 -33.571428,0 16.785715,16.785715 0 1 1 33.571428,0 z"
       transform="matrix(1.0425531,0,0,1.0425531,292.3032,430.11226)"
       inkscape:export-filename="H:\svgs\xerte_buttons_test.png"
       inkscape:export-xdpi="90"
       inkscape:export-ydpi="90" />
    <path
       transform="matrix(1.0425531,0,0,1.0425531,334.3032,430.11226)"
       d="m 116.25,98.076469 a 16.785715,16.785715 0 1 1 -33.571428,0 16.785715,16.785715 0 1 1 33.571428,0 z"
       sodipodi:ry="16.785715"
       sodipodi:rx="16.785715"
       sodipodi:cy="98.076469"
       sodipodi:cx="99.464287"
       id="path3813"
       style="fill:none;fill-opacity:1;stroke:none"
       sodipodi:type="arc"
       inkscape:export-filename="H:\svgs\xerte_buttons_test.png"
       inkscape:export-xdpi="90"
       inkscape:export-ydpi="90" />
    <g
       transform="matrix(0.50921225,0,0,0.50921225,-72.960191,238.62538)"
       id="g123"
       style="fill:#ffffff;stroke:none">
      <path
         style="fill:#ffffff;stroke:none"
         inkscape:connector-curvature="0"
         id="path125"
         d="m 768.884,551.572 c -9.346,-5.76 -20.91,-3.872 -29.539,3.476 -49.628,42.266 50.199,80.29 47.083,16.416 -0.528,-10.824 -13.33,-19.3 -21.662,-21.63" />
      <path
         style="fill-opacity:0;stroke:none;stroke-width:5;stroke-linecap:round;stroke-linejoin:round;fill:#ffffff"
         inkscape:connector-curvature="0"
         id="path127"
         d="m 768.884,551.572 c -9.346,-5.76 -20.91,-3.872 -29.539,3.476 -49.628,42.266 50.199,80.29 47.083,16.416 -0.528,-10.824 -13.33,-19.3 -21.662,-21.63" />
    </g>
    <g
       id="g3037"
       transform="translate(-0.2743002,0.60261185)"
       style="stroke:#d3d7cf">
      <path
         d="m 309.81347,525.496 c -5.81266,6.55662 -10.1537,6.63044 -0.83206,11.29077 1.28423,0.64211 1.47416,0.8519 2.80576,1.42222"
         id="path129"
         inkscape:connector-curvature="0"
         style="fill-opacity:0;stroke:#d3d7cf;stroke-width:2.80066752000000020;stroke-linecap:round;stroke-linejoin:round" />
      <path
         d="m 305.60228,531.9243 c 2.8022,0.031 -0.45829,0.11252 4.75909,0.11252"
         id="path131"
         inkscape:connector-curvature="0"
         style="fill-opacity:0;stroke:#d3d7cf;stroke-width:2.80066752000000020;stroke-linecap:round;stroke-linejoin:round" />
      <path
         d="m 313.35096,531.81939 c 0.87839,0 1.75729,0 2.63619,0"
         id="path133"
         inkscape:connector-curvature="0"
         style="fill-opacity:0;stroke:#d3d7cf;stroke-width:2.54606128000000000;stroke-linecap:round;stroke-linejoin:round" />
      <path
         d="m 319.00373,531.54798 c 0.85139,0 1.70281,0 2.55472,0"
         id="path135"
         inkscape:connector-curvature="0"
         style="fill-opacity:0;stroke:#d3d7cf;stroke-width:2.54606128000000000;stroke-linecap:round;stroke-linejoin:round" />
    </g>
    <g
       id="g3055"
       transform="matrix(0.50921225,0,0,0.50921225,-30.960191,238.62538)"
       style="fill:#ffffff;stroke:none">
      <path
         d="m 768.884,551.572 c -9.346,-5.76 -20.91,-3.872 -29.539,3.476 -49.628,42.266 50.199,80.29 47.083,16.416 -0.528,-10.824 -13.33,-19.3 -21.662,-21.63"
         id="path3057"
         inkscape:connector-curvature="0"
         style="fill:#ffffff;stroke:none" />
      <path
         d="m 768.884,551.572 c -9.346,-5.76 -20.91,-3.872 -29.539,3.476 -49.628,42.266 50.199,80.29 47.083,16.416 -0.528,-10.824 -13.33,-19.3 -21.662,-21.63"
         id="path3059"
         inkscape:connector-curvature="0"
         style="fill-opacity:0;stroke:none;stroke-width:5;stroke-linecap:round;stroke-linejoin:round;fill:#ffffff" />
    </g>
    <g
       id="g3061"
       transform="translate(41.7257,0.60261185)"
       style="stroke:#000000">
      <path
         style="fill-opacity:0;stroke:#000000;stroke-width:2.80066752000000020;stroke-linecap:round;stroke-linejoin:round"
         inkscape:connector-curvature="0"
         id="path3063"
         d="m 309.81347,525.496 c -5.81266,6.55662 -10.1537,6.63044 -0.83206,11.29077 1.28423,0.64211 1.47416,0.8519 2.80576,1.42222" />
      <path
         style="fill-opacity:0;stroke:#000000;stroke-width:2.80066752000000020;stroke-linecap:round;stroke-linejoin:round"
         inkscape:connector-curvature="0"
         id="path3065"
         d="m 305.60228,531.9243 c 2.8022,0.031 -0.45829,0.11252 4.75909,0.11252" />
      <path
         style="fill-opacity:0;stroke:#000000;stroke-width:2.54606128000000000;stroke-linecap:round;stroke-linejoin:round"
         inkscape:connector-curvature="0"
         id="path3067"
         d="m 313.35096,531.81939 c 0.87839,0 1.75729,0 2.63619,0" />
      <path
         style="fill-opacity:0;stroke:#000000;stroke-width:2.54606128000000000;stroke-linecap:round;stroke-linejoin:round"
         inkscape:connector-curvature="0"
         id="path3069"
         d="m 319.00373,531.54798 c 0.85139,0 1.70281,0 2.55472,0" />
    </g>
    <g
       transform="matrix(0.50921225,0,0,0.50921225,11.039809,238.62538)"
       id="g3073"
       style="fill:#ffffff;stroke:none">
      <path
         style="fill:#ffffff;stroke:none"
         inkscape:connector-curvature="0"
         id="path3075"
         d="m 768.884,551.572 c -9.346,-5.76 -20.91,-3.872 -29.539,3.476 -49.628,42.266 50.199,80.29 47.083,16.416 -0.528,-10.824 -13.33,-19.3 -21.662,-21.63" />
      <path
         style="fill-opacity:0;stroke:none;stroke-width:5;stroke-linecap:round;stroke-linejoin:round;fill:#ffffff"
         inkscape:connector-curvature="0"
         id="path3077"
         d="m 768.884,551.572 c -9.346,-5.76 -20.91,-3.872 -29.539,3.476 -49.628,42.266 50.199,80.29 47.083,16.416 -0.528,-10.824 -13.33,-19.3 -21.662,-21.63" />
    </g>
    <g
       id="g3079"
       transform="translate(83.7257,0.60261185)"
       style="stroke:#000000">
      <path
         d="m 309.81347,525.496 c -5.81266,6.55662 -10.1537,6.63044 -0.83206,11.29077 1.28423,0.64211 1.47416,0.8519 2.80576,1.42222"
         id="path3081"
         inkscape:connector-curvature="0"
         style="fill-opacity:0;stroke:#000000;stroke-width:2.80066752000000020;stroke-linecap:round;stroke-linejoin:round" />
      <path
         d="m 305.60228,531.9243 c 2.8022,0.031 -0.45829,0.11252 4.75909,0.11252"
         id="path3083"
         inkscape:connector-curvature="0"
         style="fill-opacity:0;stroke:#000000;stroke-width:2.80066752000000020;stroke-linecap:round;stroke-linejoin:round" />
      <path
         d="m 313.35096,531.81939 c 0.87839,0 1.75729,0 2.63619,0"
         id="path3085"
         inkscape:connector-curvature="0"
         style="fill-opacity:0;stroke:#000000;stroke-width:2.54606128000000000;stroke-linecap:round;stroke-linejoin:round" />
      <path
         d="m 319.00373,531.54798 c 0.85139,0 1.70281,0 2.55472,0"
         id="path3087"
         inkscape:connector-curvature="0"
         style="fill-opacity:0;stroke:#000000;stroke-width:2.54606128000000000;stroke-linecap:round;stroke-linejoin:round" />
    </g>
    <g
       id="g3091"
       transform="matrix(0.50921225,0,0,0.50921225,53.039809,238.62538)"
       style="fill:#ffffff;stroke:none">
      <path
         d="m 768.884,551.572 c -9.346,-5.76 -20.91,-3.872 -29.539,3.476 -49.628,42.266 50.199,80.29 47.083,16.416 -0.528,-10.824 -13.33,-19.3 -21.662,-21.63"
         id="path3093"
         inkscape:connector-curvature="0"
         style="fill:#ffffff;stroke:none" />
      <path
         d="m 768.884,551.572 c -9.346,-5.76 -20.91,-3.872 -29.539,3.476 -49.628,42.266 50.199,80.29 47.083,16.416 -0.528,-10.824 -13.33,-19.3 -21.662,-21.63"
         id="path3095"
         inkscape:connector-curvature="0"
         style="fill-opacity:0;stroke:none;stroke-width:5;stroke-linecap:round;stroke-linejoin:round;fill:#ffffff" />
    </g>
    <g
       id="g3097"
       transform="translate(125.7257,0.60261185)"
       style="stroke:#000000">
      <path
         style="fill-opacity:0;stroke:#000000;stroke-width:2.80066752000000020;stroke-linecap:round;stroke-linejoin:round"
         inkscape:connector-curvature="0"
         id="path3099"
         d="m 309.81347,525.496 c -5.81266,6.55662 -10.1537,6.63044 -0.83206,11.29077 1.28423,0.64211 1.47416,0.8519 2.80576,1.42222" />
      <path
         style="fill-opacity:0;stroke:#000000;stroke-width:2.80066752000000020;stroke-linecap:round;stroke-linejoin:round"
         inkscape:connector-curvature="0"
         id="path3101"
         d="m 305.60228,531.9243 c 2.8022,0.031 -0.45829,0.11252 4.75909,0.11252" />
      <path
         style="fill-opacity:0;stroke:#000000;stroke-width:2.54606128000000000;stroke-linecap:round;stroke-linejoin:round"
         inkscape:connector-curvature="0"
         id="path3103"
         d="m 313.35096,531.81939 c 0.87839,0 1.75729,0 2.63619,0" />
      <path
         style="fill-opacity:0;stroke:#000000;stroke-width:2.54606128000000000;stroke-linecap:round;stroke-linejoin:round"
         inkscape:connector-curvature="0"
         id="path3105"
         d="m 319.00373,531.54798 c 0.85139,0 1.70281,0 2.55472,0" />
    </g>
  </g>
</svg>
