<?xml version="1.0" encoding="UTF-8" standalone="no"?>
<!-- Created with Inkscape (http://www.inkscape.org/) -->

<svg
   width="168"
   height="40"
   id="svg3021"
   version="1.1"
   inkscape:version="1.1.1 (3bf5ae0d25, 2021-09-20)"
   sodipodi:docname="project_intro.svg"
   xmlns:inkscape="http://www.inkscape.org/namespaces/inkscape"
   xmlns:sodipodi="http://sodipodi.sourceforge.net/DTD/sodipodi-0.dtd"
   xmlns="http://www.w3.org/2000/svg"
   xmlns:svg="http://www.w3.org/2000/svg"
   xmlns:rdf="http://www.w3.org/1999/02/22-rdf-syntax-ns#"
   xmlns:cc="http://creativecommons.org/ns#"
   xmlns:dc="http://purl.org/dc/elements/1.1/">
  <defs
     id="defs3023" />
  <sodipodi:namedview
     id="base"
     pagecolor="#ffffff"
     bordercolor="#666666"
     borderopacity="1.0"
     inkscape:pageopacity="0.0"
     inkscape:pageshadow="2"
     inkscape:zoom="4.5983426"
     inkscape:cx="85.683046"
     inkscape:cy="2.2834314"
     inkscape:document-units="px"
     inkscape:current-layer="layer1"
     showgrid="false"
     inkscape:window-width="1897"
     inkscape:window-height="981"
     inkscape:window-x="228"
     inkscape:window-y="48"
     inkscape:window-maximized="0"
     fit-margin-top="0"
     fit-margin-left="0"
     fit-margin-right="0"
     fit-margin-bottom="0"
     showguides="true"
     inkscape:guide-bbox="true"
     inkscape:pagecheckerboard="0">
    <sodipodi:guide
       orientation="1,0"
       position="-52.21226,21.465742"
       id="guide3767" />
  </sodipodi:namedview>
  <metadata
     id="metadata3026">
    <rdf:RDF>
      <cc:Work
         rdf:about="">
        <dc:format>image/svg+xml</dc:format>
        <dc:type
           rdf:resource="http://purl.org/dc/dcmitype/StillImage" />
      </cc:Work>
    </rdf:RDF>
  </metadata>
  <g
     inkscape:label="Layer 1"
     inkscape:groupmode="layer"
     id="layer1"
     transform="translate(-291,-512.36218)">
    <rect
       style="fill:none;fill-opacity:1;stroke:none"
       id="rect3777"
       width="168.39287"
       height="40"
       x="291"
       y="512.54077" />
    <g
       id="g3764">
      <rect
         inkscape:export-ydpi="90"
         inkscape:export-xdpi="90"
         inkscape:export-filename="H:\svgs\xerte_buttons_test.png"
         y="512.36218"
         x="291"
         height="40"
         width="42"
         id="next"
         style="fill:none;fill-opacity:1;stroke:none;stroke-width:0;stroke-miterlimit:4;stroke-dasharray:none" />
      <rect
         inkscape:export-ydpi="90"
         inkscape:export-xdpi="90"
         inkscape:export-filename="H:\svgs\xerte_buttons_test.png"
         style="fill:none;fill-opacity:1;stroke:none"
         id="rect3766"
         width="42"
         height="40"
         x="333"
         y="512.36218" />
      <rect
         inkscape:export-ydpi="90"
         inkscape:export-xdpi="90"
         inkscape:export-filename="H:\svgs\xerte_buttons_test.png"
         y="512.36218"
         x="375"
         height="40"
         width="42"
         id="rect3768"
         style="fill:none;fill-opacity:1;stroke:none" />
      <rect
         inkscape:export-filename="H:\svgs\xerte_buttons_test.png"
         inkscape:export-ydpi="90"
         inkscape:export-xdpi="90"
         style="fill:none;fill-opacity:1;stroke:none"
         id="rect3770"
         width="42"
         height="40"
         x="417"
         y="512.36218" />
    </g>
    <path
       sodipodi:type="arc"
       style="fill:#ffffff;fill-opacity:1;stroke:#ffffff;stroke-width:0.95918375;stroke-miterlimit:4;stroke-dasharray:none;stroke-opacity:1"
       id="path3807"
       sodipodi:cx="99.464287"
       sodipodi:cy="98.076469"
       sodipodi:rx="16.785715"
       sodipodi:ry="16.785715"
       d="m 116.25,98.076469 c 0,9.270491 -7.51522,16.785711 -16.785713,16.785711 -9.270495,0 -16.785715,-7.51522 -16.785715,-16.785711 0,-9.270494 7.51522,-16.785715 16.785715,-16.785715 9.270493,0 16.785713,7.515221 16.785713,16.785715 z"
       transform="matrix(1.0425531,0,0,1.0425531,208.3032,430.11226)"
       inkscape:export-filename="H:\svgs\xerte_buttons_test.png"
       inkscape:export-xdpi="90"
       inkscape:export-ydpi="90" />
    <path
       transform="matrix(1.0425531,0,0,1.0425531,250.3032,430.11226)"
       d="m 116.25,98.076469 c 0,9.270491 -7.51522,16.785711 -16.785713,16.785711 -9.270495,0 -16.785715,-7.51522 -16.785715,-16.785711 0,-9.270494 7.51522,-16.785715 16.785715,-16.785715 9.270493,0 16.785713,7.515221 16.785713,16.785715 z"
       sodipodi:ry="16.785715"
       sodipodi:rx="16.785715"
       sodipodi:cy="98.076469"
       sodipodi:cx="99.464287"
       id="path3809"
       style="fill:#ffffff;fill-opacity:1;stroke:#ffffff;stroke-width:0.95918375;stroke-miterlimit:4;stroke-dasharray:none;stroke-opacity:1"
       sodipodi:type="arc"
       inkscape:export-filename="H:\svgs\xerte_buttons_test.png"
       inkscape:export-xdpi="90"
       inkscape:export-ydpi="90" />
    <path
       sodipodi:type="arc"
       style="fill:#ffffff;fill-opacity:1;stroke:#ffffff;stroke-width:0.95918375;stroke-miterlimit:4;stroke-dasharray:none;stroke-opacity:0.84705883"
       id="path3811"
       sodipodi:cx="99.464287"
       sodipodi:cy="98.076469"
       sodipodi:rx="16.785715"
       sodipodi:ry="16.785715"
       d="m 116.25,98.076469 c 0,9.270491 -7.51522,16.785711 -16.785713,16.785711 -9.270495,0 -16.785715,-7.51522 -16.785715,-16.785711 0,-9.270494 7.51522,-16.785715 16.785715,-16.785715 9.270493,0 16.785713,7.515221 16.785713,16.785715 z"
       transform="matrix(1.0425531,0,0,1.0425531,292.3032,430.11226)"
       inkscape:export-filename="H:\svgs\xerte_buttons_test.png"
       inkscape:export-xdpi="90"
       inkscape:export-ydpi="90" />
    <path
       transform="matrix(1.0425531,0,0,1.0425531,334.3032,430.11226)"
       d="m 116.25,98.076469 c 0,9.270491 -7.51522,16.785711 -16.785713,16.785711 -9.270495,0 -16.785715,-7.51522 -16.785715,-16.785711 0,-9.270494 7.51522,-16.785715 16.785715,-16.785715 9.270493,0 16.785713,7.515221 16.785713,16.785715 z"
       sodipodi:ry="16.785715"
       sodipodi:rx="16.785715"
       sodipodi:cy="98.076469"
       sodipodi:cx="99.464287"
       id="path3813"
       style="fill:#ffffff;fill-opacity:0.00784314;stroke:#ffffff;stroke-width:0.95918375;stroke-miterlimit:4;stroke-dasharray:none;stroke-opacity:0.91764706"
       sodipodi:type="arc"
       inkscape:export-filename="H:\svgs\xerte_buttons_test.png"
       inkscape:export-xdpi="90"
       inkscape:export-ydpi="90" />
    <g
       aria-label="i"
       id="text2082-0"
       style="font-size:16px;letter-spacing:0px;word-spacing:0px;fill:#cfcfcf;stroke-width:1px">
      <path
         d="m 311.96484,527.54578 q 0,-0.41407 0.32813,-0.72657 0.32812,-0.32031 0.74219,-0.32031 0.35937,0 0.57031,0.22656 0.21875,0.21875 0.21875,0.52344 0,0.41406 -0.32813,0.73438 -0.32031,0.32031 -0.75,0.32031 -0.33593,0 -0.5625,-0.21875 -0.21875,-0.21875 -0.21875,-0.53906 z m -1.13281,10.67968 q -0.65625,0 -0.65625,-0.60156 l 0.3125,-2.39062 q 0.10938,-0.9375 0.45313,-2.41407 0.28125,-1.34375 0.36718,-1.84375 0.14063,-0.78125 0.89844,-0.78125 0.65625,0 0.65625,0.60938 0,0.20312 -0.38281,2.01562 -0.375,1.64844 -0.46094,2.41407 -0.15625,1.38281 -0.3125,2.1875 -0.14844,0.80468 -0.875,0.80468 z"
         style="-inkscape-font-specification:'Comic Sans MS Italic'"
         id="path39804" />
    </g>
    <g
       aria-label="i"
       id="text34837"
       style="font-size:16px;letter-spacing:0px;word-spacing:0px;stroke-width:1px">
      <path
         d="m 353.96484,527.54578 q 0,-0.41407 0.32813,-0.72657 0.32812,-0.32031 0.74219,-0.32031 0.35937,0 0.57031,0.22656 0.21875,0.21875 0.21875,0.52344 0,0.41406 -0.32813,0.73438 -0.32031,0.32031 -0.75,0.32031 -0.33593,0 -0.5625,-0.21875 -0.21875,-0.21875 -0.21875,-0.53906 z m -1.13281,10.67968 q -0.65625,0 -0.65625,-0.60156 l 0.3125,-2.39062 q 0.10938,-0.9375 0.45313,-2.41407 0.28125,-1.34375 0.36718,-1.84375 0.14063,-0.78125 0.89844,-0.78125 0.65625,0 0.65625,0.60938 0,0.20312 -0.38281,2.01562 -0.375,1.64844 -0.46094,2.41407 -0.15625,1.38281 -0.3125,2.1875 -0.14844,0.80468 -0.875,0.80468 z"
         style="-inkscape-font-specification:'Comic Sans MS Italic'"
         id="path39809" />
    </g>
    <g
       aria-label="i"
       id="text34843"
       style="font-size:16px;letter-spacing:0px;word-spacing:0px;stroke-width:1px">
      <path
         d="m 395.96484,527.54578 q 0,-0.41407 0.32813,-0.72657 0.32812,-0.32031 0.74219,-0.32031 0.35937,0 0.57031,0.22656 0.21875,0.21875 0.21875,0.52344 0,0.41406 -0.32813,0.73438 -0.32031,0.32031 -0.75,0.32031 -0.33593,0 -0.5625,-0.21875 -0.21875,-0.21875 -0.21875,-0.53906 z m -1.13281,10.67968 q -0.65625,0 -0.65625,-0.60156 l 0.3125,-2.39062 q 0.10938,-0.9375 0.45313,-2.41407 0.28125,-1.34375 0.36718,-1.84375 0.14063,-0.78125 0.89844,-0.78125 0.65625,0 0.65625,0.60938 0,0.20312 -0.38281,2.01562 -0.375,1.64844 -0.46094,2.41407 -0.15625,1.38281 -0.3125,2.1875 -0.14844,0.80468 -0.875,0.80468 z"
         style="-inkscape-font-specification:'Comic Sans MS Italic'"
         id="path39814" />
    </g>
    <g
       aria-label="i"
       id="text34849"
       style="font-size:16px;letter-spacing:0px;word-spacing:0px;stroke-width:1px">
      <path
         d="m 437.96484,527.54578 q 0,-0.41407 0.32813,-0.72657 0.32812,-0.32031 0.74219,-0.32031 0.35937,0 0.57031,0.22656 0.21875,0.21875 0.21875,0.52344 0,0.41406 -0.32813,0.73438 -0.32031,0.32031 -0.75,0.32031 -0.33593,0 -0.5625,-0.21875 -0.21875,-0.21875 -0.21875,-0.53906 z m -1.13281,10.67968 q -0.65625,0 -0.65625,-0.60156 l 0.3125,-2.39062 q 0.10938,-0.9375 0.45313,-2.41407 0.28125,-1.34375 0.36718,-1.84375 0.14063,-0.78125 0.89844,-0.78125 0.65625,0 0.65625,0.60938 0,0.20312 -0.38281,2.01562 -0.375,1.64844 -0.46094,2.41407 -0.15625,1.38281 -0.3125,2.1875 -0.14844,0.80468 -0.875,0.80468 z"
         style="-inkscape-font-specification:'Comic Sans MS Italic'"
         id="path39819" />
    </g>
  </g>
</svg>
