<?xml version="1.0" encoding="UTF-8" standalone="no"?>
<!-- Created with Inkscape (http://www.inkscape.org/) -->

<svg
   xmlns:dc="http://purl.org/dc/elements/1.1/"
   xmlns:cc="http://creativecommons.org/ns#"
   xmlns:rdf="http://www.w3.org/1999/02/22-rdf-syntax-ns#"
   xmlns:svg="http://www.w3.org/2000/svg"
   xmlns="http://www.w3.org/2000/svg"
   xmlns:sodipodi="http://sodipodi.sourceforge.net/DTD/sodipodi-0.dtd"
   xmlns:inkscape="http://www.inkscape.org/namespaces/inkscape"
   width="168"
   height="40"
   id="svg3021"
   version="1.1"
   inkscape:version="0.91 r13725"
   sodipodi:docname="save_session.svg">
  <defs
     id="defs3023" />
  <sodipodi:namedview
     id="base"
     pagecolor="#ffffff"
     bordercolor="#666666"
     borderopacity="1.0"
     inkscape:pageopacity="0.0"
     inkscape:pageshadow="2"
     inkscape:zoom="3.959798"
     inkscape:cx="79.386077"
     inkscape:cy="37.577174"
     inkscape:document-units="px"
     inkscape:current-layer="layer1"
     showgrid="false"
     inkscape:window-width="1798"
     inkscape:window-height="889"
     inkscape:window-x="30"
     inkscape:window-y="31"
     inkscape:window-maximized="0"
     fit-margin-top="0"
     fit-margin-left="0"
     fit-margin-right="0"
     fit-margin-bottom="0"
     showguides="true"
     inkscape:guide-bbox="true">
    <sodipodi:guide
       orientation="1,0"
       position="-52.21226,21.465742"
       id="guide3767" />
    <sodipodi:guide
       position="65.78125,80.580357"
       orientation="0,1"
       id="guide4175" />
  </sodipodi:namedview>
  <metadata
     id="metadata3026">
    <rdf:RDF>
      <cc:Work
         rdf:about="">
        <dc:format>image/svg+xml</dc:format>
        <dc:type
           rdf:resource="http://purl.org/dc/dcmitype/StillImage" />
        <dc:title />
      </cc:Work>
    </rdf:RDF>
  </metadata>
  <g
     inkscape:label="Layer 1"
     inkscape:groupmode="layer"
     id="layer1"
     transform="translate(-291,-512.36218)">
    <rect
       style="fill:none;fill-opacity:1;stroke:none"
       id="rect3777"
       width="168.39287"
       height="40"
       x="291"
       y="512.54077" />
    <g
       id="g3764">
      <rect
         inkscape:export-ydpi="90"
         inkscape:export-xdpi="90"
         inkscape:export-filename="H:\svgs\xerte_buttons_test.png"
         y="512.36218"
         x="291"
         height="40"
         width="42"
         id="next"
         style="fill:none;fill-opacity:1;stroke:none;stroke-width:0;stroke-miterlimit:4;stroke-dasharray:none" />
      <rect
         inkscape:export-ydpi="90"
         inkscape:export-xdpi="90"
         inkscape:export-filename="H:\svgs\xerte_buttons_test.png"
         style="fill:none;fill-opacity:1;stroke:none"
         id="rect3766"
         width="42"
         height="40"
         x="333"
         y="512.36218" />
      <rect
         inkscape:export-ydpi="90"
         inkscape:export-xdpi="90"
         inkscape:export-filename="H:\svgs\xerte_buttons_test.png"
         y="512.36218"
         x="375"
         height="40"
         width="42"
         id="rect3768"
         style="fill:none;fill-opacity:1;stroke:none" />
      <rect
         inkscape:export-filename="H:\svgs\xerte_buttons_test.png"
         inkscape:export-ydpi="90"
         inkscape:export-xdpi="90"
         style="fill:none;fill-opacity:1;stroke:none"
         id="rect3770"
         width="42"
         height="40"
         x="417"
         y="512.36218" />
    </g>
    <path
       style="fill:#d3d7cf;fill-opacity:1;fill-rule:evenodd;stroke:#d3d7cf;stroke-width:1;stroke-linecap:butt;stroke-linejoin:miter;stroke-miterlimit:4;stroke-dasharray:none;stroke-opacity:1"
       d="m 320.92265,528.717 c -2.11272,-2.12779 -3.5447,-5.89959 -7.17501,-5.27715 -3.17402,0.13697 -6.42382,-0.31635 -9.53629,0.31671 -2.63996,3.04464 -0.49013,8.11773 -1.14584,11.97382 -2.1192,6.87434 5.35612,5.64061 9.67424,5.55415 3.13584,-0.0363 9.30974,1.15165 8.19875,-3.84585 -0.005,-2.90723 -0.0106,-5.81445 -0.0159,-8.72168 z m -14.67187,-4.92535 c 0.17456,2.15482 -0.36606,4.49411 0.30248,6.52461 2.62224,0.67657 5.55668,0.12205 8.30356,0.30247 1.95649,-0.82101 0.65522,-3.6838 1.03273,-5.41711 0,-0.4614 0,-0.9228 0,-1.3842 m -2.00641,12.06918 c 0.16918,2.99517 -4.59122,3.64515 -5.22947,0.71242 -0.94884,-2.79359 3.35325,-4.72821 4.80727,-2.15139 0.27462,0.42617 0.42299,0.93206 0.4222,1.43897 z"
       id="path4171"
       inkscape:connector-curvature="0" />
    <path
       style="fill:#000000;fill-opacity:1;fill-rule:evenodd;stroke:#000000;stroke-width:1;stroke-linecap:butt;stroke-linejoin:miter;stroke-miterlimit:4;stroke-dasharray:none;stroke-opacity:1"
       d="m 362.92265,528.717 c -2.11272,-2.12779 -3.5447,-5.89959 -7.17501,-5.27715 -3.17402,0.13697 -6.42382,-0.31635 -9.53629,0.31671 -2.63996,3.04464 -0.49013,8.11773 -1.14584,11.97382 -2.1192,6.87434 5.35612,5.64061 9.67424,5.55415 3.13584,-0.0363 9.30974,1.15165 8.19875,-3.84585 -0.005,-2.90723 -0.0106,-5.81445 -0.0159,-8.72168 z m -14.67187,-4.92535 c 0.17456,2.15482 -0.36606,4.49411 0.30248,6.52461 2.62224,0.67657 5.55668,0.12205 8.30356,0.30247 1.95649,-0.82101 0.65522,-3.6838 1.03273,-5.41711 0,-0.4614 0,-0.9228 0,-1.3842 m -2.00641,12.06918 c 0.16918,2.99517 -4.59122,3.64515 -5.22947,0.71242 -0.94884,-2.79359 3.35325,-4.72821 4.80727,-2.15139 0.27462,0.42617 0.42299,0.93206 0.4222,1.43897 z"
       id="path4167"
       inkscape:connector-curvature="0" />
    <path
       style="fill:#000000;fill-opacity:1;fill-rule:evenodd;stroke:#000000;stroke-width:1;stroke-linecap:butt;stroke-linejoin:miter;stroke-miterlimit:4;stroke-dasharray:none;stroke-opacity:1"
       d="m 446.92265,528.717 c -2.11272,-2.12779 -3.5447,-5.89959 -7.17501,-5.27715 -3.17402,0.13697 -6.42382,-0.31635 -9.53629,0.31671 -2.63996,3.04464 -0.49013,8.11773 -1.14584,11.97382 -2.1192,6.87434 5.35612,5.64061 9.67424,5.55415 3.13584,-0.0363 9.30974,1.15165 8.19875,-3.84585 -0.005,-2.90723 -0.0106,-5.81445 -0.0159,-8.72168 z m -14.67187,-4.92535 c 0.17456,2.15482 -0.36606,4.49411 0.30248,6.52461 2.62224,0.67657 5.55668,0.12205 8.30356,0.30247 1.95649,-0.82101 0.65522,-3.6838 1.03273,-5.41711 0,-0.4614 0,-0.9228 0,-1.3842 m -2.00641,12.06918 c 0.16918,2.99517 -4.59122,3.64515 -5.22947,0.71242 -0.94884,-2.79359 3.35325,-4.72821 4.80727,-2.15139 0.27462,0.42617 0.42299,0.93206 0.4222,1.43897 z"
       id="path4177"
       inkscape:connector-curvature="0" />
    <path
       style="fill:#000000;fill-opacity:1;fill-rule:evenodd;stroke:#000000;stroke-width:1;stroke-linecap:butt;stroke-linejoin:miter;stroke-miterlimit:4;stroke-dasharray:none;stroke-opacity:1"
       d="m 404.92265,528.717 c -2.11272,-2.12779 -3.5447,-5.89959 -7.17501,-5.27715 -3.17402,0.13697 -6.42382,-0.31635 -9.53629,0.31671 -2.63996,3.04464 -0.49013,8.11773 -1.14584,11.97382 -2.1192,6.87434 5.35612,5.64061 9.67424,5.55415 3.13584,-0.0363 9.30974,1.15165 8.19875,-3.84585 -0.005,-2.90723 -0.0106,-5.81445 -0.0159,-8.72168 z m -14.67187,-4.92535 c 0.17456,2.15482 -0.36606,4.49411 0.30248,6.52461 2.62224,0.67657 5.55668,0.12205 8.30356,0.30247 1.95649,-0.82101 0.65522,-3.6838 1.03273,-5.41711 0,-0.4614 0,-0.9228 0,-1.3842 m -2.00641,12.06918 c 0.16918,2.99517 -4.59122,3.64515 -5.22947,0.71242 -0.94884,-2.79359 3.35325,-4.72821 4.80727,-2.15139 0.27462,0.42617 0.42299,0.93206 0.4222,1.43897 z"
       id="path4179"
       inkscape:connector-curvature="0" />
  </g>
</svg>
