<?xml version="1.0" encoding="UTF-8" standalone="no"?>
<!-- Created with Inkscape (http://www.inkscape.org/) -->

<svg
   xmlns:dc="http://purl.org/dc/elements/1.1/"
   xmlns:cc="http://creativecommons.org/ns#"
   xmlns:rdf="http://www.w3.org/1999/02/22-rdf-syntax-ns#"
   xmlns:svg="http://www.w3.org/2000/svg"
   xmlns="http://www.w3.org/2000/svg"
   xmlns:sodipodi="http://sodipodi.sourceforge.net/DTD/sodipodi-0.dtd"
   xmlns:inkscape="http://www.inkscape.org/namespaces/inkscape"
   width="84"
   height="20"
   id="svg3021"
   version="1.1"
   inkscape:version="0.92.3 (2405546, 2018-03-11)"
   sodipodi:docname="glossary-min.svg">
  <defs
     id="defs3023" />
  <sodipodi:namedview
     id="base"
     pagecolor="#ffffff"
     bordercolor="#666666"
     borderopacity="1.0"
     inkscape:pageopacity="0.0"
     inkscape:pageshadow="2"
     inkscape:zoom="5.6"
     inkscape:cx="61.63279"
     inkscape:cy="11.995086"
     inkscape:document-units="px"
     inkscape:current-layer="layer1"
     showgrid="false"
     inkscape:window-width="1718"
     inkscape:window-height="863"
     inkscape:window-x="30"
     inkscape:window-y="30"
     inkscape:window-maximized="0"
     fit-margin-top="0"
     fit-margin-left="0"
     fit-margin-right="0"
     fit-margin-bottom="0"
     showguides="true"
     inkscape:guide-bbox="true">
    <sodipodi:guide
       orientation="1,0"
       position="-52.21226,21.465742"
       id="guide3767"
       inkscape:locked="false" />
  </sodipodi:namedview>
  <metadata
     id="metadata3026">
    <rdf:RDF>
      <cc:Work
         rdf:about="">
        <dc:format>image/svg+xml</dc:format>
        <dc:type
           rdf:resource="http://purl.org/dc/dcmitype/StillImage" />
        <dc:title></dc:title>
      </cc:Work>
    </rdf:RDF>
  </metadata>
  <g
     inkscape:label="Layer 1"
     inkscape:groupmode="layer"
     id="layer1"
     transform="translate(-291,-532.36218)">
    <rect
       style="fill:none;fill-opacity:1;stroke:none;stroke-width:0.50169969"
       id="rect3777"
       width="84.392998"
       height="20.089308"
       x="291"
       y="532.45148" />
    <g
       id="g3764"
       transform="matrix(0.50116731,0,0,0.50223267,145.16031,275.03674)">
      <rect
         inkscape:export-ydpi="90"
         inkscape:export-xdpi="90"
         inkscape:export-filename="H:\svgs\xerte_buttons_test.png"
         y="512.36218"
         x="291"
         height="40"
         width="42"
         id="next"
         style="fill:none;fill-opacity:1;stroke:none;stroke-width:0;stroke-miterlimit:4;stroke-dasharray:none" />
      <rect
         inkscape:export-ydpi="90"
         inkscape:export-xdpi="90"
         inkscape:export-filename="H:\svgs\xerte_buttons_test.png"
         style="fill:none;fill-opacity:1;stroke:none"
         id="rect3766"
         width="42"
         height="40"
         x="333"
         y="512.36218" />
      <rect
         inkscape:export-ydpi="90"
         inkscape:export-xdpi="90"
         inkscape:export-filename="H:\svgs\xerte_buttons_test.png"
         y="512.36218"
         x="375"
         height="40"
         width="42"
         id="rect3768"
         style="fill:none;fill-opacity:1;stroke:none" />
      <rect
         inkscape:export-filename="H:\svgs\xerte_buttons_test.png"
         inkscape:export-ydpi="90"
         inkscape:export-xdpi="90"
         style="fill:none;fill-opacity:1;stroke:none"
         id="rect3770"
         width="42"
         height="40"
         x="417"
         y="512.36218" />
    </g>
    <ellipse
       style="fill:#ffffff;fill-opacity:1;stroke:#000000;stroke-width:0.50169969;stroke-miterlimit:4;stroke-dasharray:none"
       id="path3807"
       inkscape:export-filename="H:\svgs\xerte_buttons_test.png"
       inkscape:export-xdpi="90"
       inkscape:export-ydpi="90"
       cx="301.52451"
       cy="542.40643"
       rx="8.7704277"
       ry="8.789072" />
    <ellipse
       id="path3809"
       style="fill:#ffffff;fill-opacity:1;stroke:#000000;stroke-width:0.50169969;stroke-miterlimit:4;stroke-dasharray:none"
       inkscape:export-filename="H:\svgs\xerte_buttons_test.png"
       inkscape:export-xdpi="90"
       inkscape:export-ydpi="90"
       cx="322.57355"
       cy="542.40643"
       rx="8.7704277"
       ry="8.789072" />
    <ellipse
       style="fill:#000000;fill-opacity:1;stroke:#000000;stroke-width:0.50169969;stroke-miterlimit:4;stroke-dasharray:none"
       id="path3811"
       inkscape:export-filename="H:\svgs\xerte_buttons_test.png"
       inkscape:export-xdpi="90"
       inkscape:export-ydpi="90"
       cx="343.62256"
       cy="542.40643"
       rx="8.7704277"
       ry="8.789072" />
    <ellipse
       id="path3813"
       style="fill:#ffffff;fill-opacity:1;stroke:#000000;stroke-width:0.50169969;stroke-miterlimit:4;stroke-dasharray:none"
       inkscape:export-filename="H:\svgs\xerte_buttons_test.png"
       inkscape:export-xdpi="90"
       inkscape:export-ydpi="90"
       cx="364.6716"
       cy="542.40643"
       rx="8.7704277"
       ry="8.789072" />
    <ellipse
       inkscape:export-ydpi="90"
       inkscape:export-xdpi="90"
       inkscape:export-filename="H:\svgs\xerte_buttons_test.png"
       id="path3009"
       style="fill:#000000;fill-opacity:1;stroke:none;stroke-width:0.34662345"
       cx="343.62256"
       cy="542.40643"
       rx="5.8121481"
       ry="5.8245034" />
    <g
       style="font-style:normal;font-weight:normal;font-size:13.37098503px;line-height:125%;font-family:Sans;letter-spacing:0px;word-spacing:0px;fill:#000000;fill-opacity:1;stroke:none"
       id="text3002"
       transform="matrix(0.50116731,0,0,0.50223267,144.90973,275.03674)">
      <path
         d="m 301.31508,537.1745 3.69623,-9.62463 h 1.37213 l 3.93914,9.62463 h -1.45091 l -1.12266,-2.91496 h -4.02449 l -1.057,2.91496 z m 2.7771,-3.95227 h 3.26292 l -1.00448,-2.66549 c -0.30639,-0.8097 -0.53398,-1.47498 -0.68279,-1.99583 -0.12255,0.61714 -0.29544,1.2299 -0.51865,1.83827 z"
         style="font-size:13.44560051px;fill:#000000"
         id="path3019"
         inkscape:connector-curvature="0" />
      <path
         d="m 310.74276,534.2858 v -1.18831 h 3.63057 v 1.18831 z"
         style="font-size:13.44560051px;fill:#000000"
         id="path3021"
         inkscape:connector-curvature="0" />
      <path
         d="m 315.07581,537.1745 v -1.18174 l 4.9305,-6.16476 c 0.35014,-0.43767 0.68277,-0.81846 0.99791,-1.14235 h -5.37036 v -1.13578 h 6.8935 v 1.13578 l -5.40319,6.67684 -0.58431,0.67622 h 6.14506 v 1.13579 z"
         style="font-size:13.44560051px;fill:#000000"
         id="path3023"
         inkscape:connector-curvature="0" />
    </g>
    <g
       style="font-style:normal;font-weight:normal;font-size:13.37098503px;line-height:125%;font-family:Sans;letter-spacing:0px;word-spacing:0px;fill:#cc0000;fill-opacity:1;stroke:none"
       id="text3006"
       transform="matrix(0.50116731,0,0,0.50223267,144.90973,275.03674)">
      <path
         d="m 343.31508,537.1745 3.69623,-9.62463 h 1.37213 l 3.93914,9.62463 h -1.45091 l -1.12266,-2.91496 h -4.02449 l -1.057,2.91496 z m 2.7771,-3.95227 h 3.26292 l -1.00448,-2.66549 c -0.30639,-0.8097 -0.53398,-1.47498 -0.68279,-1.99583 -0.12255,0.61714 -0.29544,1.2299 -0.51865,1.83827 z"
         style="font-size:13.44560051px;fill:#cc0000"
         id="path3026"
         inkscape:connector-curvature="0" />
      <path
         d="m 352.74276,534.2858 v -1.18831 h 3.63057 v 1.18831 z"
         style="font-size:13.44560051px;fill:#cc0000"
         id="path3028"
         inkscape:connector-curvature="0" />
      <path
         d="m 357.07581,537.1745 v -1.18174 l 4.9305,-6.16476 c 0.35014,-0.43767 0.68277,-0.81846 0.99791,-1.14235 h -5.37036 v -1.13578 h 6.8935 v 1.13578 l -5.40319,6.67684 -0.58431,0.67622 h 6.14506 v 1.13579 z"
         style="font-size:13.44560051px;fill:#cc0000"
         id="path3030"
         inkscape:connector-curvature="0" />
    </g>
    <g
       style="font-style:normal;font-weight:normal;font-size:13.37098503px;line-height:125%;font-family:Sans;letter-spacing:0px;word-spacing:0px;fill:#cc0000;fill-opacity:1;stroke:none"
       id="text3010"
       transform="matrix(0.50116731,0,0,0.50223267,144.90973,275.03674)">
      <path
         d="m 385.31508,537.1745 3.69623,-9.62463 h 1.37213 l 3.93914,9.62463 h -1.45091 l -1.12266,-2.91496 h -4.02449 l -1.057,2.91496 z m 2.7771,-3.95227 h 3.26292 l -1.00448,-2.66549 c -0.30639,-0.8097 -0.53398,-1.47498 -0.68279,-1.99583 -0.12255,0.61714 -0.29544,1.2299 -0.51865,1.83827 z"
         style="font-size:13.44560051px;fill:#cc0000"
         id="path3033"
         inkscape:connector-curvature="0" />
      <path
         d="m 394.74276,534.2858 v -1.18831 h 3.63057 v 1.18831 z"
         style="font-size:13.44560051px;fill:#cc0000"
         id="path3035"
         inkscape:connector-curvature="0" />
      <path
         d="m 399.07581,537.1745 v -1.18174 l 4.9305,-6.16476 c 0.35014,-0.43767 0.68277,-0.81846 0.99791,-1.14235 h -5.37036 v -1.13578 h 6.8935 v 1.13578 l -5.40319,6.67684 -0.58431,0.67622 h 6.14506 v 1.13579 z"
         style="font-size:13.44560051px;fill:#cc0000"
         id="path3037"
         inkscape:connector-curvature="0" />
    </g>
    <g
       style="font-style:normal;font-weight:normal;font-size:13.37098503px;line-height:125%;font-family:Sans;letter-spacing:0px;word-spacing:0px;fill:#000000;fill-opacity:1;stroke:none"
       id="text3014"
       transform="matrix(0.50116731,0,0,0.50223267,144.90973,275.03674)">
      <path
         d="m 427.31508,537.1745 3.69623,-9.62463 h 1.37213 l 3.93914,9.62463 h -1.45091 l -1.12266,-2.91496 h -4.02449 l -1.057,2.91496 z m 2.7771,-3.95227 h 3.26292 l -1.00448,-2.66549 c -0.30639,-0.8097 -0.53398,-1.47498 -0.68279,-1.99583 -0.12255,0.61714 -0.29544,1.2299 -0.51865,1.83827 z"
         style="font-size:13.44560051px;fill:#000000"
         id="path3040"
         inkscape:connector-curvature="0" />
      <path
         d="m 436.74276,534.2858 v -1.18831 h 3.63057 v 1.18831 z"
         style="font-size:13.44560051px;fill:#000000"
         id="path3042"
         inkscape:connector-curvature="0" />
      <path
         d="m 441.07581,537.1745 v -1.18174 l 4.9305,-6.16476 c 0.35014,-0.43767 0.68277,-0.81846 0.99791,-1.14235 h -5.37036 v -1.13578 h 6.8935 v 1.13578 l -5.40319,6.67684 -0.58431,0.67622 h 6.14506 v 1.13579 z"
         style="font-size:13.44560051px;fill:#000000"
         id="path3044"
         inkscape:connector-curvature="0" />
    </g>
  </g>
</svg>
