<?xml version="1.0" encoding="UTF-8" standalone="no"?>
<!-- Created with Inkscape (http://www.inkscape.org/) -->

<svg
   xmlns:dc="http://purl.org/dc/elements/1.1/"
   xmlns:cc="http://creativecommons.org/ns#"
   xmlns:rdf="http://www.w3.org/1999/02/22-rdf-syntax-ns#"
   xmlns:svg="http://www.w3.org/2000/svg"
   xmlns="http://www.w3.org/2000/svg"
   xmlns:sodipodi="http://sodipodi.sourceforge.net/DTD/sodipodi-0.dtd"
   xmlns:inkscape="http://www.inkscape.org/namespaces/inkscape"
   width="84"
   height="20"
   id="svg3021"
   version="1.1"
   inkscape:version="0.92.3 (2405546, 2018-03-11)"
   sodipodi:docname="media-min.svg">
  <defs
     id="defs3023" />
  <sodipodi:namedview
     id="base"
     pagecolor="#ffffff"
     bordercolor="#666666"
     borderopacity="1.0"
     inkscape:pageopacity="0.0"
     inkscape:pageshadow="2"
     inkscape:zoom="5.6"
     inkscape:cx="107.52307"
     inkscape:cy="11.851457"
     inkscape:document-units="px"
     inkscape:current-layer="layer1"
     showgrid="false"
     inkscape:window-width="1718"
     inkscape:window-height="863"
     inkscape:window-x="30"
     inkscape:window-y="30"
     inkscape:window-maximized="0"
     fit-margin-top="0"
     fit-margin-left="0"
     fit-margin-right="0"
     fit-margin-bottom="0"
     showguides="true"
     inkscape:guide-bbox="true">
    <sodipodi:guide
       orientation="1,0"
       position="-52.21226,21.465742"
       id="guide3767"
       inkscape:locked="false" />
  </sodipodi:namedview>
  <metadata
     id="metadata3026">
    <rdf:RDF>
      <cc:Work
         rdf:about="">
        <dc:format>image/svg+xml</dc:format>
        <dc:type
           rdf:resource="http://purl.org/dc/dcmitype/StillImage" />
        <dc:title></dc:title>
      </cc:Work>
    </rdf:RDF>
  </metadata>
  <g
     inkscape:label="Layer 1"
     inkscape:groupmode="layer"
     id="layer1"
     transform="translate(-291,-532.36218)">
    <rect
       style="fill:none;fill-opacity:1;stroke:none;stroke-width:0.49946955"
       id="rect3777"
       width="84.392998"
       height="19.911102"
       x="291"
       y="532.62964" />
    <g
       id="g3764"
       transform="matrix(0.50116731,0,0,0.49777756,145.16031,277.49837)">
      <rect
         inkscape:export-ydpi="90"
         inkscape:export-xdpi="90"
         inkscape:export-filename="H:\svgs\xerte_buttons_test.png"
         y="512.36218"
         x="291"
         height="40"
         width="42"
         id="next"
         style="fill:none;fill-opacity:1;stroke:none;stroke-width:0;stroke-miterlimit:4;stroke-dasharray:none" />
      <rect
         inkscape:export-ydpi="90"
         inkscape:export-xdpi="90"
         inkscape:export-filename="H:\svgs\xerte_buttons_test.png"
         style="fill:none;fill-opacity:1;stroke:none"
         id="rect3766"
         width="42"
         height="40"
         x="333"
         y="512.36218" />
      <rect
         inkscape:export-ydpi="90"
         inkscape:export-xdpi="90"
         inkscape:export-filename="H:\svgs\xerte_buttons_test.png"
         y="512.36218"
         x="375"
         height="40"
         width="42"
         id="rect3768"
         style="fill:none;fill-opacity:1;stroke:none" />
      <rect
         inkscape:export-filename="H:\svgs\xerte_buttons_test.png"
         inkscape:export-ydpi="90"
         inkscape:export-xdpi="90"
         style="fill:none;fill-opacity:1;stroke:none"
         id="rect3770"
         width="42"
         height="40"
         x="417"
         y="512.36218" />
    </g>
    <ellipse
       style="fill:#ffffff;fill-opacity:1;stroke:#000000;stroke-width:0.49946955;stroke-miterlimit:4;stroke-dasharray:none"
       id="path3807"
       inkscape:export-filename="H:\svgs\xerte_buttons_test.png"
       inkscape:export-xdpi="90"
       inkscape:export-ydpi="90"
       cx="301.52451"
       cy="542.49634"
       rx="8.7704277"
       ry="8.7111073" />
    <ellipse
       id="path3809"
       style="fill:#ffffff;fill-opacity:1;stroke:#000000;stroke-width:0.49946955;stroke-miterlimit:4;stroke-dasharray:none"
       inkscape:export-filename="H:\svgs\xerte_buttons_test.png"
       inkscape:export-xdpi="90"
       inkscape:export-ydpi="90"
       cx="322.57355"
       cy="542.49634"
       rx="8.7704277"
       ry="8.7111073" />
    <ellipse
       style="fill:#000000;fill-opacity:1;stroke:#000000;stroke-width:0.49946955;stroke-miterlimit:4;stroke-dasharray:none"
       id="path3811"
       inkscape:export-filename="H:\svgs\xerte_buttons_test.png"
       inkscape:export-xdpi="90"
       inkscape:export-ydpi="90"
       cx="343.62256"
       cy="542.49634"
       rx="8.7704277"
       ry="8.7111073" />
    <ellipse
       id="path3813"
       style="fill:#ffffff;fill-opacity:1;stroke:#000000;stroke-width:0.49946955;stroke-miterlimit:4;stroke-dasharray:none"
       inkscape:export-filename="H:\svgs\xerte_buttons_test.png"
       inkscape:export-xdpi="90"
       inkscape:export-ydpi="90"
       cx="364.6716"
       cy="542.49634"
       rx="8.7704277"
       ry="8.7111073" />
    <path
       id="path3102"
       d="m 296.4267,537.923 v 9.14666 h 2.67812 v -1.88222 h 4.83939 v 1.88222 h 2.67812 V 537.923 h -2.67812 v 2.14666 h -4.83939 V 537.923 Z m 0.76742,0.80888 h 1.11196 v 1.12 h -1.11196 z m 7.51751,0.15556 h 1.11196 v 1.10444 h -1.11196 z m -7.51751,2.03778 h 1.11196 v 1.10444 h -1.11196 z m 7.51751,0.0933 h 1.11196 v 1.10444 h -1.11196 z m -5.60681,0.18667 h 4.83939 v 2.84666 h -4.83939 z m -1.9107,1.91333 h 1.11196 v 1.10444 h -1.11196 z m 7.51751,0.0155 h 1.11196 v 1.12 h -1.11196 z m 0,2.13111 h 1.11196 v 1.10444 h -1.11196 z m -7.51751,0.0466 h 1.11196 v 1.10444 h -1.11196 z"
       style="fill:#000000;fill-opacity:1;stroke:none;stroke-width:0.49946955"
       inkscape:connector-curvature="0" />
    <path
       inkscape:connector-curvature="0"
       style="fill:#cc0000;fill-opacity:1;stroke:none;stroke-width:0.49946955"
       d="m 317.47573,537.923 v 9.14666 h 2.67811 v -1.88222 h 4.8394 v 1.88222 h 2.67811 V 537.923 h -2.67811 v 2.14666 h -4.8394 V 537.923 Z m 0.76741,0.80888 h 1.11197 v 1.12 h -1.11197 z m 7.51751,0.15556 h 1.11197 v 1.10444 h -1.11197 z m -7.51751,2.03778 h 1.11197 v 1.10444 h -1.11197 z m 7.51751,0.0933 h 1.11197 v 1.10444 h -1.11197 z m -5.60681,0.18667 h 4.8394 v 2.84666 h -4.8394 z m -1.9107,1.91333 h 1.11197 v 1.10444 h -1.11197 z m 7.51751,0.0155 h 1.11197 v 1.12 h -1.11197 z m 0,2.13111 h 1.11197 v 1.10444 h -1.11197 z m -7.51751,0.0466 h 1.11197 v 1.10444 h -1.11197 z"
       id="path3104" />
    <path
       id="path3106"
       d="m 338.52476,537.923 v 9.14666 h 2.67811 v -1.88222 h 4.8394 v 1.88222 h 2.67811 V 537.923 h -2.67811 v 2.14666 h -4.8394 V 537.923 Z m 0.76741,0.80888 h 1.11197 v 1.12 h -1.11197 z m 7.51751,0.15556 h 1.11197 v 1.10444 h -1.11197 z m -7.51751,2.03778 h 1.11197 v 1.10444 h -1.11197 z m 7.51751,0.0933 h 1.11197 v 1.10444 h -1.11197 z m -5.60681,0.18667 h 4.8394 v 2.84666 h -4.8394 z m -1.9107,1.91333 h 1.11197 v 1.10444 h -1.11197 z m 7.51751,0.0155 h 1.11197 v 1.12 h -1.11197 z m 0,2.13111 h 1.11197 v 1.10444 h -1.11197 z m -7.51751,0.0466 h 1.11197 v 1.10444 h -1.11197 z"
       style="fill:#cc0000;fill-opacity:1;stroke:none;stroke-width:0.49946955"
       inkscape:connector-curvature="0" />
    <path
       inkscape:connector-curvature="0"
       style="fill:#000000;fill-opacity:1;stroke:none;stroke-width:0.49946955"
       d="m 359.57379,537.923 v 9.14666 h 2.67811 v -1.88222 h 4.83939 v 1.88222 h 2.67812 V 537.923 h -2.67812 v 2.14666 H 362.2519 V 537.923 Z m 0.76741,0.80888 h 1.11196 v 1.12 h -1.11196 z m 7.51751,0.15556 h 1.11196 v 1.10444 h -1.11196 z m -7.51751,2.03778 h 1.11196 v 1.10444 h -1.11196 z m 7.51751,0.0933 h 1.11196 v 1.10444 h -1.11196 z m -5.60681,0.18667 h 4.83939 v 2.84666 h -4.83939 z m -1.9107,1.91333 h 1.11196 v 1.10444 h -1.11196 z m 7.51751,0.0155 h 1.11196 v 1.12 h -1.11196 z m 0,2.13111 h 1.11196 v 1.10444 h -1.11196 z m -7.51751,0.0466 h 1.11196 v 1.10444 h -1.11196 z"
       id="path3108" />
  </g>
</svg>
